<svg width="211" height="161" viewBox="0 0 211 161" fill="none" xmlns="http://www.w3.org/2000/svg">
<path d="M1.32474 29.6634C2.20647 28.2699 3.63499 27.3098 5.26105 27.0155L148.013 1.23466C157.124 -0.41204 165.82 5.06875 168.244 13.982L175.705 41.4165C176.943 45.9666 176.33 50.7255 173.98 54.8169C171.629 58.9083 167.823 61.8406 163.26 63.0751L156.556 64.8893V87.9384H204.727C207.984 87.9384 210.625 90.5736 210.625 93.8221V154.24C210.625 157.488 207.984 160.124 204.727 160.124H196.862C195.698 160.124 194.562 159.78 193.593 159.137L126.744 114.737C125.102 113.647 124.115 111.808 124.115 109.84V73.669L40.4856 96.3014C39.9776 96.4388 39.4592 96.5066 38.9413 96.5066C37.9057 96.5066 36.8786 96.2349 35.9695 95.7052C34.6048 94.911 33.6159 93.6038 33.2257 92.077L25.136 60.4227L14.1961 62.8428C11.1161 63.5274 8.05081 61.672 7.2261 58.6386L0.618881 34.3462C0.186447 32.7557 0.443024 31.0572 1.32474 29.6634ZM135.911 106.688L198.646 148.356H198.828V99.7062H135.911V106.688ZM135.911 87.9384H144.759V68.082L135.911 70.4767V87.9384ZM17.1373 50.1386L28.1617 47.6997C31.2757 47.0103 34.3678 48.9119 35.154 51.9902L43.1771 83.3806L160.173 51.7185C161.693 51.3066 162.962 50.3287 163.745 48.9657C164.529 47.6017 164.733 46.016 164.32 44.4988L156.859 17.0634C156.147 14.447 153.813 12.717 151.191 12.717C150.837 12.717 150.476 12.7486 150.115 12.8143L13.6867 37.4529L17.1373 50.1386ZM150.939 31.6366L148.423 19.5814L137.759 21.7958L140.275 33.8511L150.939 31.6366ZM11.6904 73.2698L15.9952 90.1155C16.6753 92.776 19.0752 94.5471 21.7067 94.5471C22.1893 94.5471 22.6791 94.4871 23.1685 94.3628C26.3251 93.5607 28.2325 90.357 27.427 87.2079L23.1225 70.3622C22.3181 67.2134 19.1075 65.3101 15.9499 66.1143C12.7933 66.9174 10.8859 70.12 11.6904 73.2698Z" fill="white"/>
</svg>
