<svg width="407" height="342" viewBox="0 0 407 342" fill="none" xmlns="http://www.w3.org/2000/svg">
<path d="M87.7755 113.884C63.7473 94.9508 39.6892 74.6051 18.8353 51.7244C8.9297 40.8552 -0.798864 29.4084 -8.54885 16.8727C-12.059 11.1975 -19.628 -4.16871 -28.2955 2.52647C-33.6263 6.64529 -26.9846 25.2887 -9.58203 47.2113C7.82035 69.1319 39.7743 109.997 29.9999 114.975C21.8336 119.134 8.70242 100.389 4.61545 95.9901C0.980619 92.0769 -3.2039 86.6523 -8.38321 84.4411C-18.158 80.2687 -16.7633 95.0967 -16.4031 99.9862C-15.518 112.015 -12.4753 123.784 -8.00663 135.032C0.789075 157.181 14.7403 177.43 30.9477 195.329C35.7367 200.618 40.794 205.689 46.0931 210.524C89.205 249.855 162.958 317.391 294.379 336.715C425.8 356.039 413.632 308.393 396.677 297.601C379.722 286.81 310.357 285.022 239.928 260.931C165.15 235.353 100.194 205.454 74.2193 179.382C48.2451 153.31 38.111 148.393 43.1418 140.225C48.1726 132.056 90.523 156.041 136.582 184.429C182.64 212.816 184.428 173.348 170.65 166.218C156.871 159.087 128.473 145.954 87.7755 113.884Z" fill="url(#paint0_linear_1900_1192)"/>
<defs>
<linearGradient id="paint0_linear_1900_1192" x1="29.4836" y1="70.9836" x2="246.162" y2="318.372" gradientUnits="userSpaceOnUse">
<stop stop-color="#5FD068"/>
<stop offset="0.702827" stop-color="#E9FFEA"/>
</linearGradient>
</defs>
</svg>
