<svg width="478" height="485" viewBox="0 0 478 485" fill="none" xmlns="http://www.w3.org/2000/svg">
<g clip-path="url(#clip0_1488_179)">
<path d="M448.66 70.0872H374.254C373.958 70.0872 373.665 70.1455 373.391 70.2588C373.118 70.372 372.869 70.538 372.66 70.7473C372.451 70.9566 372.285 71.205 372.172 71.4785C372.058 71.7519 372 72.045 372 72.341V137.269C372.003 137.705 372.132 138.13 372.371 138.494C372.61 138.859 372.949 139.147 373.348 139.323C373.746 139.499 374.187 139.557 374.617 139.489C375.048 139.421 375.449 139.231 375.774 138.94L386.838 128.879C387.254 128.499 387.796 128.288 388.359 128.286H448.682C449.279 128.283 449.85 128.045 450.272 127.623C450.694 127.201 450.933 126.629 450.936 126.032V72.341C450.936 72.0432 450.877 71.7483 450.762 71.4735C450.647 71.1986 450.479 70.9492 450.268 70.7396C450.056 70.5301 449.805 70.3645 449.529 70.2525C449.253 70.1405 448.958 70.0844 448.66 70.0872Z" fill="#F3F3F3"/>
<path d="M347.862 25.486H410.687C411.179 25.4914 411.65 25.6879 412 26.034C412.35 26.3801 412.552 26.8486 412.563 27.3407V82.1536C412.571 82.5317 412.467 82.9037 412.263 83.2224C412.059 83.541 411.765 83.7919 411.419 83.9433C411.072 84.0946 410.688 84.1396 410.316 84.0725C409.944 84.0053 409.6 83.8291 409.328 83.5662L400.011 75.0903C399.662 74.7685 399.203 74.5912 398.728 74.5943H347.862C347.356 74.5943 346.87 74.3932 346.512 74.0352C346.154 73.6773 345.953 73.1918 345.953 72.6856V27.3947C345.952 27.1436 346 26.8948 346.096 26.6625C346.191 26.4303 346.331 26.2193 346.509 26.0418C346.687 25.8643 346.897 25.7238 347.13 25.6283C347.362 25.5329 347.611 25.4845 347.862 25.486Z" fill="white" stroke="#E6E6E6" stroke-width="1.07836" stroke-miterlimit="10"/>
<path d="M16.25 410.416H444.055" stroke="#59B3EB" stroke-width="1.07836" stroke-miterlimit="10"/>
<path d="M48.8351 73.2036L46.6784 71.3165C46.6159 71.2612 46.5713 71.1887 46.5502 71.108C46.5291 71.0274 46.5324 70.9423 46.5597 70.8636C46.6784 70.443 46.797 70.0224 46.8833 69.5803C47.0469 68.7705 47.1371 67.9476 47.1528 67.1217C47.1531 67.0329 47.1814 66.9466 47.2337 66.8749C47.286 66.8033 47.3596 66.75 47.444 66.7227L49.7193 65.9462C50.1609 65.79 50.5224 65.4649 50.7246 65.0424C50.9268 64.6198 50.953 64.1344 50.7977 63.6925L48.9753 58.3007C48.8166 57.8609 48.4912 57.5012 48.0695 57.2994C47.6477 57.0976 47.1635 57.0699 46.7215 57.2223L44.2305 58.0635C44.1507 58.0896 44.0649 58.0912 43.9842 58.0681C43.9035 58.0451 43.8316 57.9984 43.7776 57.9341C42.8861 56.8953 41.8427 55.9973 40.6827 55.2705C40.608 55.2261 40.5484 55.1601 40.5119 55.0812C40.4753 55.0023 40.4634 54.9142 40.4778 54.8284L40.8876 52.8227C40.9798 52.3608 40.8851 51.8813 40.6244 51.4892C40.3636 51.0971 39.958 50.8243 39.4965 50.7307L33.8999 49.6523C33.4648 49.5844 33.0201 49.6802 32.6516 49.9212C32.2831 50.1622 32.017 50.5313 31.9049 50.9571L31.5059 52.9628C31.4887 53.0487 31.4452 53.127 31.3815 53.1869C31.3177 53.2468 31.2368 53.2854 31.15 53.2971C29.6144 53.5557 28.134 54.0735 26.7719 54.8284C26.7009 54.8785 26.6162 54.9054 26.5293 54.9054C26.4424 54.9054 26.3576 54.8785 26.2867 54.8284L25.2083 53.8579C24.8544 53.5492 24.3927 53.393 23.9241 53.4233C23.4554 53.4536 23.0178 53.668 22.7065 54.0196L18.9323 58.3331C18.623 58.6888 18.4665 59.1522 18.4968 59.6226C18.5271 60.093 18.7417 60.5325 19.094 60.8456L20.3557 61.924C20.4188 61.9834 20.4635 62.0597 20.4846 62.1438C20.5056 62.2279 20.502 62.3163 20.4743 62.3985C20.2614 62.9937 20.0885 63.6026 19.9567 64.2209C19.7574 65.2143 19.6741 66.2276 19.7087 67.2403C19.7114 67.3323 19.6846 67.4227 19.6322 67.4984C19.5798 67.574 19.5046 67.631 19.4175 67.6608L18.199 68.0706C17.7592 68.2292 17.3995 68.5546 17.1977 68.9764C16.9959 69.3981 16.9682 69.8824 17.1206 70.3244L18.9431 75.7162C19.1017 76.156 19.4271 76.5156 19.8488 76.7174C20.2706 76.9192 20.7548 76.9469 21.1968 76.7945L23.0085 76.1798C23.0865 76.1539 23.1702 76.1503 23.2503 76.1693C23.3303 76.1884 23.4034 76.2294 23.4614 76.2877C24.515 77.4213 25.755 78.3659 27.1278 79.0806C27.2117 79.1218 27.2795 79.1897 27.3205 79.2736C27.3615 79.3576 27.3734 79.4528 27.3542 79.5443L27.0307 81.1942C26.9836 81.423 26.9823 81.6588 27.0268 81.8881C27.0714 82.1174 27.1609 82.3356 27.2902 82.5301C27.4196 82.7246 27.5862 82.8916 27.7804 83.0214C27.9746 83.1511 28.1926 83.2412 28.4218 83.2862L34.0077 84.3646C34.4695 84.4567 34.949 84.3621 35.3412 84.1013C35.7333 83.8406 36.0061 83.435 36.0997 82.9735L36.5957 80.504C36.6135 80.4256 36.6518 80.3532 36.7068 80.2945C36.7617 80.2357 36.8313 80.1927 36.9085 80.1698C38.184 79.8374 39.4044 79.3216 40.5317 78.6385C40.6047 78.5834 40.6937 78.5536 40.7852 78.5536C40.8766 78.5536 40.9656 78.5834 41.0386 78.6385L42.6885 80.1482C42.864 80.3027 43.0683 80.421 43.2896 80.4965C43.5109 80.572 43.7449 80.6031 43.9783 80.5881C44.2116 80.5731 44.4397 80.5122 44.6495 80.409C44.8593 80.3057 45.0467 80.1622 45.201 79.9864L48.9645 75.673C49.2673 75.3249 49.423 74.8729 49.3989 74.4121C49.3747 73.9514 49.1726 73.5181 48.8351 73.2036ZM32.595 73.5918C31.285 73.3306 30.0819 72.6866 29.138 71.7414C28.1941 70.7961 27.5519 69.592 27.2926 68.2816C27.0334 66.9711 27.1688 65.6132 27.6817 64.3798C28.1946 63.1463 29.0619 62.0927 30.1738 61.3524C31.2858 60.6122 32.5924 60.2184 33.9282 60.2211C35.2641 60.2237 36.5691 60.6226 37.6781 61.3673C38.7871 62.112 39.6502 63.169 40.1582 64.4045C40.6662 65.64 40.7962 66.9984 40.5317 68.3078C40.1779 70.0599 39.1437 71.6001 37.6558 72.5907C36.1679 73.5812 34.348 73.9412 32.595 73.5918Z" fill="#E0E0E0"/>
<path d="M85.8193 121.179L82.498 118.225C82.4003 118.14 82.3298 118.028 82.2952 117.904C82.2607 117.779 82.2637 117.647 82.3039 117.524C82.5069 116.864 82.6761 116.195 82.8107 115.518C83.0701 114.25 83.2145 112.962 83.242 111.668C83.2378 111.53 83.2787 111.395 83.3584 111.282C83.4382 111.169 83.5525 111.085 83.6842 111.043L87.2535 109.835C87.9502 109.61 88.53 109.119 88.8672 108.469C89.2043 107.819 89.2715 107.062 89.0544 106.363L86.2075 97.9193C86.0972 97.5569 85.9141 97.2208 85.6694 96.9317C85.4246 96.6425 85.1234 96.4064 84.7841 96.2378C84.4449 96.0692 84.0748 95.9716 83.6965 95.9511C83.3182 95.9306 82.9397 95.9876 82.5842 96.1185L78.6914 97.4341C78.5659 97.4753 78.4309 97.4779 78.3039 97.4413C78.177 97.4048 78.064 97.3309 77.9797 97.2292C76.5781 95.6123 74.9467 94.2099 73.1378 93.0667C73.0257 92.9875 72.9408 92.8756 72.8945 92.7463C72.8481 92.6171 72.8428 92.4767 72.879 92.3442L73.5153 89.2062C73.6465 88.4925 73.4948 87.7556 73.0923 87.1518C72.6897 86.5479 72.0679 86.1245 71.3586 85.9712L62.6131 84.2134C61.8993 84.0822 61.1625 84.2339 60.5587 84.6364C59.9548 85.039 59.5314 85.6608 59.378 86.3702L58.7526 89.5082C58.7257 89.6418 58.6586 89.764 58.5603 89.8585C58.462 89.9529 58.3372 90.0151 58.2026 90.0366C55.7849 90.4376 53.4541 91.251 51.3119 92.4413C51.19 92.5085 51.0506 92.5372 50.912 92.5238C50.7735 92.5103 50.6422 92.4552 50.5355 92.3658L48.8101 90.8453C48.2566 90.358 47.5322 90.1103 46.7962 90.1568C46.0602 90.2034 45.3727 90.5402 44.8849 91.0933L38.9971 97.7899C38.5097 98.3435 38.2621 99.0679 38.3086 99.8039C38.3551 100.54 38.692 101.227 39.2451 101.715L41.2185 103.441C41.3195 103.53 41.391 103.648 41.4237 103.779C41.4565 103.91 41.4488 104.047 41.4018 104.174C41.0706 105.108 40.8004 106.062 40.5931 107.031C40.2891 108.587 40.1589 110.171 40.2049 111.755C40.2085 111.898 40.1666 112.039 40.0853 112.157C40.0039 112.275 39.8872 112.365 39.7519 112.412L37.854 113.059C37.5078 113.176 37.1879 113.36 36.9127 113.601C36.6375 113.841 36.4123 114.133 36.2501 114.461C36.0879 114.788 35.9917 115.144 35.9672 115.509C35.9427 115.874 35.9902 116.239 36.1071 116.586L38.954 125.029C39.1922 125.727 39.6966 126.302 40.3572 126.629C41.0177 126.956 41.7808 127.009 42.4802 126.776L45.3163 125.816C45.4382 125.775 45.5696 125.77 45.6942 125.803C45.8188 125.835 45.9311 125.904 46.0172 126C47.6764 127.751 49.6197 129.209 51.7648 130.313C51.8955 130.38 52.0008 130.488 52.0649 130.62C52.1291 130.753 52.1487 130.902 52.1207 131.046L51.6031 133.613C51.469 134.327 51.6195 135.065 52.0225 135.67C52.4256 136.274 53.0491 136.697 53.7598 136.848L62.4945 138.714C63.2085 138.848 63.9467 138.697 64.5513 138.294C65.1558 137.891 65.5787 137.268 65.7295 136.557L66.506 132.686C66.5339 132.564 66.5951 132.452 66.6826 132.362C66.7701 132.273 66.8807 132.209 67.002 132.179C69.0611 131.653 71.0307 130.824 72.8467 129.72C72.9678 129.646 73.1093 129.612 73.2509 129.624C73.3924 129.635 73.5266 129.692 73.6339 129.785L76.2543 132.092C76.8078 132.58 77.5322 132.827 78.2682 132.781C79.0043 132.734 79.6917 132.398 80.1795 131.844L86.0781 125.148C86.3254 124.872 86.5152 124.55 86.6362 124.2C86.7573 123.85 86.8073 123.479 86.7832 123.109C86.759 122.74 86.6614 122.379 86.4959 122.047C86.3304 121.716 86.1003 121.421 85.8193 121.179ZM60.424 121.794C58.3792 121.378 56.5034 120.366 55.0336 118.885C53.5639 117.403 52.5661 115.52 52.1662 113.472C51.7664 111.423 51.9825 109.303 52.7872 107.378C53.592 105.452 54.9492 103.809 56.6875 102.654C58.4259 101.5 60.4673 100.886 62.5541 100.892C64.6408 100.897 66.6791 101.52 68.4117 102.683C70.1443 103.846 71.4933 105.497 72.2884 107.426C73.0835 109.355 73.2891 111.477 72.879 113.523C72.6073 114.882 72.0702 116.175 71.2986 117.326C70.527 118.478 69.536 119.466 68.3822 120.234C67.2285 121.002 65.9346 121.535 64.5746 121.803C63.2146 122.071 61.8152 122.068 60.4564 121.794H60.424Z" fill="#E0E0E0"/>
<path d="M13.7872 224.012H58.0537C60.774 223.924 63.3537 222.782 65.2471 220.827C67.1405 218.872 68.1992 216.257 68.1992 213.535C68.1992 210.814 67.1405 208.199 65.2471 206.244C63.3537 204.288 60.774 203.146 58.0537 203.059H57.7949C57.0833 198.568 54.9607 194.42 51.7345 191.216C48.5083 188.012 44.346 185.917 39.8502 185.236C35.3545 184.555 30.7586 185.323 26.7281 187.428C22.6977 189.533 19.4418 192.866 17.432 196.945C16.2457 196.611 15.0195 196.441 13.7872 196.438C10.1918 196.539 6.77737 198.037 4.26982 200.616C1.76228 203.195 0.359375 206.65 0.359375 210.246C0.359375 213.843 1.76228 217.298 4.26982 219.877C6.77737 222.455 10.1918 223.954 13.7872 224.055V224.012Z" stroke="#E0E0E0" stroke-width="1.07836" stroke-miterlimit="10"/>
<path d="M383.224 338.695H427.437C430.214 338.695 432.877 337.592 434.841 335.628C436.804 333.664 437.907 331.001 437.907 328.224C437.907 325.447 436.804 322.784 434.841 320.82C432.877 318.856 430.214 317.753 427.437 317.753H427.178C426.476 313.258 424.361 309.103 421.139 305.89C417.917 302.678 413.756 300.575 409.259 299.886C404.761 299.198 400.161 299.959 396.126 302.061C392.091 304.162 388.829 307.494 386.815 311.574C385.627 311.249 384.402 311.083 383.17 311.078C379.509 311.078 375.999 312.532 373.41 315.121C370.821 317.709 369.367 321.22 369.367 324.881C369.367 328.542 370.821 332.053 373.41 334.641C375.999 337.23 379.509 338.684 383.17 338.684L383.224 338.695Z" stroke="#E0E0E0" stroke-width="1.07836" stroke-miterlimit="10"/>
<path d="M118.421 24.1598H149.693C151.605 24.0868 153.414 23.276 154.74 21.8977C156.067 20.5194 156.808 18.6807 156.808 16.7677C156.808 14.8546 156.067 13.016 154.74 11.6376C153.414 10.2593 151.605 9.44857 149.693 9.37554H149.445C148.951 6.20083 147.458 3.2664 145.181 0.999061C142.905 -1.26828 139.965 -2.75029 136.788 -3.23142C133.611 -3.71255 130.364 -3.1677 127.519 -1.67612C124.673 -0.184536 122.377 2.17598 120.966 5.06212C120.13 4.82855 119.267 4.70885 118.399 4.70626C115.815 4.70626 113.337 5.73274 111.51 7.5599C109.683 9.38706 108.656 11.8652 108.656 14.4492C108.656 17.0332 109.683 19.5113 111.51 21.3385C113.337 23.1657 115.815 24.1921 118.399 24.1921L118.421 24.1598Z" fill="#ECECEC"/>
<path d="M412.368 212.042H409.877V207.049C409.88 205.435 409.572 203.835 408.971 202.337C408.831 201.97 408.659 201.625 408.486 201.258V201.194C407.268 198.812 405.28 196.912 402.846 195.802H402.749C402.084 195.518 401.395 195.294 400.69 195.133H400.442C400.183 195.079 399.902 195.036 399.633 195.004H399.331C398.975 195.004 398.619 194.95 398.253 194.95H395.492C395.125 194.95 394.769 194.95 394.414 195.004H394.122C393.842 195.004 393.572 195.079 393.303 195.133H393.066C392.36 195.294 391.671 195.518 391.006 195.802H390.898C388.468 196.914 386.485 198.814 385.269 201.194V201.258C385.086 201.603 384.924 201.949 384.773 202.337C384.164 203.833 383.852 205.434 383.856 207.049V212.042H381.29C380.146 212.042 379.049 212.496 378.24 213.305C377.431 214.114 376.977 215.211 376.977 216.355V243.314C376.977 244.458 377.431 245.555 378.24 246.364C379.049 247.173 380.146 247.628 381.29 247.628H412.325C413.469 247.628 414.566 247.173 415.375 246.364C416.184 245.555 416.638 244.458 416.638 243.314V216.355C416.639 215.219 416.19 214.128 415.39 213.32C414.591 212.513 413.505 212.053 412.368 212.042ZM386.951 207.049C386.953 205.791 387.202 204.545 387.685 203.383C387.814 203.07 387.965 202.779 388.116 202.488L388.31 202.143C388.483 201.862 388.666 201.593 388.871 201.323L389.14 201.01C389.291 200.827 389.453 200.644 389.626 200.471L389.949 200.158C390.192 199.935 390.448 199.726 390.715 199.533L390.974 199.36C391.2 199.209 391.427 199.08 391.664 198.951L391.976 198.789C392.295 198.636 392.623 198.502 392.958 198.39H393.098C393.413 198.297 393.734 198.221 394.058 198.163H394.338C394.695 198.11 395.055 198.081 395.416 198.077H398.177C398.556 198.079 398.934 198.108 399.309 198.163H399.59C399.913 198.222 400.234 198.298 400.549 198.39H400.679C401.015 198.499 401.343 198.632 401.66 198.789L401.984 198.951C402.21 199.08 402.447 199.209 402.663 199.36L402.933 199.533C403.2 199.726 403.455 199.935 403.698 200.158L404.022 200.471L404.507 201.01L404.777 201.323C404.971 201.593 405.154 201.862 405.327 202.143C405.499 202.423 405.456 202.369 405.521 202.488C405.685 202.777 405.833 203.076 405.963 203.383C406.445 204.545 406.695 205.791 406.696 207.049V212.042H386.951V207.049ZM398.641 232.045V235.378C398.641 235.778 398.482 236.162 398.199 236.445C397.915 236.728 397.531 236.887 397.131 236.887C396.731 236.887 396.347 236.728 396.064 236.445C395.78 236.162 395.621 235.778 395.621 235.378V232.045C394.948 231.706 394.408 231.149 394.09 230.465C393.772 229.78 393.694 229.009 393.868 228.275C394.043 227.541 394.46 226.887 395.052 226.419C395.644 225.952 396.376 225.697 397.131 225.697C397.886 225.697 398.618 225.952 399.21 226.419C399.802 226.887 400.219 227.541 400.394 228.275C400.568 229.009 400.49 229.78 400.172 230.465C399.854 231.149 399.314 231.706 398.641 232.045Z" fill="#E0E0E0"/>
<path d="M52.1875 372.404C52.1875 372.404 70.5195 331.62 66.8963 315.251C66.8963 315.229 52.5218 345.617 52.1875 372.404Z" fill="#2F7D54"/>
<path d="M56.3661 359.043C56.3661 359.043 47.7392 379.586 45.4531 397.001" stroke="#2F7D54" stroke-width="1.07836" stroke-miterlimit="10"/>
<path d="M41.4609 352.713C41.4609 352.713 51.0799 374.043 50.3035 396.926" stroke="#2F7D54" stroke-width="1.07836" stroke-miterlimit="10"/>
<path d="M50.1339 347.084L48.5703 397.529" stroke="#2F7D54" stroke-width="1.07836" stroke-miterlimit="10"/>
<path d="M50.1381 352.799C50.1381 352.799 52.7369 289.101 39.2143 269.334C39.2143 269.334 36.3567 317.181 50.1381 352.799Z" fill="#2F7D54"/>
<path d="M50.3184 362.181C50.3184 362.181 65.6741 300.305 56.4003 278.231C56.4003 278.231 43.9776 324.514 50.3184 362.181Z" fill="#84B063"/>
<path d="M46.6931 371.099C46.6931 371.099 37.8722 307.95 21.0391 290.923C21.0391 290.923 26.7759 338.511 46.6931 371.099Z" fill="#84B063"/>
<path d="M38.0703 379.704H59.5512L57.0602 409.866H40.5721L38.0703 379.704Z" fill="#EA7B6B"/>
<g style="mix-blend-mode:multiply">
<path d="M128.188 409.92C128.188 413.004 171.969 415.506 225.984 415.506C279.998 415.506 323.769 413.004 323.769 409.92C323.769 406.836 279.988 404.334 225.984 404.334C171.98 404.334 128.188 406.836 128.188 409.92Z" fill="#E2E2E2"/>
</g>
<path d="M307.681 58.4405H142.391C138.162 58.4405 134.734 61.8683 134.734 66.0968V403.094C134.734 407.322 138.162 410.75 142.391 410.75H307.681C311.91 410.75 315.337 407.322 315.337 403.094V66.0968C315.337 61.8683 311.91 58.4405 307.681 58.4405Z" fill="#263238"/>
<path d="M298.712 64.4037H248.45C246.573 64.3844 244.729 64.8915 243.126 65.8674C241.523 66.8433 240.226 68.249 239.381 69.9249C238.184 72.4808 236.283 74.6425 233.902 76.1569C231.52 77.6714 228.756 78.4757 225.934 78.4757C223.112 78.4757 220.348 77.6714 217.966 76.1569C215.585 74.6425 213.684 72.4808 212.487 69.9249C211.644 68.2473 210.347 66.8403 208.744 65.8641C207.141 64.8879 205.295 64.3819 203.418 64.4037H151.344C149.873 64.4234 148.42 64.7328 147.068 65.3141C145.716 65.8954 144.492 66.7373 143.466 67.7918C142.439 68.8462 141.63 70.0925 141.086 71.4595C140.541 72.8265 140.271 74.2874 140.291 75.7588V374.248C140.264 375.724 140.529 377.19 141.07 378.564C141.612 379.937 142.419 381.189 143.446 382.25C144.473 383.31 145.7 384.157 147.055 384.741C148.411 385.326 149.868 385.637 151.344 385.657H298.712C300.184 385.638 301.638 385.33 302.99 384.749C304.343 384.168 305.567 383.327 306.594 382.272C307.621 381.217 308.429 379.97 308.973 378.603C309.518 377.235 309.787 375.773 309.765 374.302V75.7588C309.787 74.2871 309.518 72.8255 308.973 71.4579C308.429 70.0903 307.621 68.8434 306.594 67.7887C305.567 66.7339 304.343 65.8921 302.99 65.3112C301.638 64.7304 300.184 64.422 298.712 64.4037Z" fill="white"/>
<path d="M247.225 402.101H203.725C203.058 402.101 202.398 401.97 201.782 401.715C201.167 401.459 200.608 401.085 200.137 400.613C199.666 400.141 199.293 399.581 199.039 398.965C198.785 398.349 198.655 397.689 198.656 397.022C198.656 395.678 199.19 394.389 200.141 393.439C201.091 392.488 202.38 391.954 203.725 391.954H247.225C248.57 391.954 249.859 392.488 250.809 393.439C251.76 394.389 252.294 395.678 252.294 397.022C252.295 397.689 252.165 398.349 251.911 398.965C251.657 399.581 251.284 400.141 250.813 400.613C250.342 401.085 249.783 401.459 249.167 401.715C248.552 401.97 247.892 402.101 247.225 402.101Z" fill="white"/>
<g style="mix-blend-mode:multiply" opacity="0.12">
<path d="M146.12 67.628H198.205C200.081 67.6104 201.925 68.1195 203.526 69.0974C205.127 70.0753 206.422 71.4828 207.263 73.1599C208.475 75.7047 210.379 77.8566 212.757 79.369C215.135 80.8815 217.892 81.6932 220.71 81.7113C224.508 81.7027 228.155 80.2268 230.89 77.592C229.302 78.167 227.628 78.466 225.94 78.4762C223.122 78.4582 220.365 77.6464 217.987 76.134C215.609 74.6215 213.705 72.4696 212.493 69.9248C211.651 68.2473 210.354 66.8402 208.75 65.864C207.147 64.8878 205.301 64.3818 203.424 64.4037H151.35C149.825 64.4078 148.318 64.7326 146.927 65.3568C145.535 65.981 144.291 66.8907 143.273 68.0269C144.2 67.7675 145.158 67.6333 146.12 67.628Z" fill="#5799E6"/>
<path d="M298.719 64.4036H248.457C246.984 64.3984 245.529 64.713 244.19 65.3256C242.851 65.9381 241.662 66.834 240.703 67.9514C241.528 67.7404 242.375 67.6318 243.226 67.6279H293.499C296.47 67.6705 299.303 68.8901 301.375 71.019C303.447 73.148 304.59 76.0122 304.553 78.9829V377.483C304.56 380.338 303.498 383.092 301.576 385.204C303.953 384.526 306.042 383.088 307.523 381.108C309.003 379.129 309.793 376.719 309.772 374.248V75.7587C309.793 74.2869 309.524 72.8254 308.98 71.4577C308.436 70.0901 307.627 68.8432 306.6 67.7885C305.574 66.7338 304.349 65.8919 302.997 65.3111C301.644 64.7302 300.19 64.4218 298.719 64.4036Z" fill="#5799E6"/>
</g>
<path d="M229.799 67.6283C229.801 68.3923 229.577 69.1397 229.154 69.776C228.731 70.4123 228.129 70.9088 227.423 71.2026C226.718 71.4965 225.942 71.5745 225.192 71.4267C224.443 71.279 223.754 70.9122 223.213 70.3727C222.672 69.8332 222.303 69.1454 222.153 68.3962C222.003 67.647 222.079 66.8703 222.371 66.1642C222.663 65.4582 223.158 64.8546 223.793 64.4299C224.428 64.0053 225.175 63.7786 225.939 63.7786C226.961 63.7786 227.941 64.1838 228.665 64.9055C229.388 65.6271 229.796 66.6063 229.799 67.6283Z" fill="white"/>
<path d="M158.019 143.682H253.281V134.537H158.019V143.682Z" fill="#E0E0E0"/>
<path d="M186.011 162.427H281.273V153.282H186.011V162.427Z" fill="#E0E0E0"/>
<path d="M157.884 103.462C157.872 103.132 157.975 102.808 158.175 102.545C158.412 102.258 158.696 102.014 159.016 101.823L171.956 93.1098C172.038 93.0655 172.125 93.0328 172.215 93.0127H172.388C172.496 93.0113 172.603 93.0315 172.703 93.0721C172.803 93.1128 172.894 93.1731 172.97 93.2495C173.047 93.3259 173.107 93.4168 173.148 93.5169C173.188 93.617 173.209 93.7242 173.207 93.8323V95.5792C173.209 95.7668 173.174 95.953 173.103 96.1269C173.033 96.3009 172.929 96.4592 172.797 96.5928C172.549 96.8659 172.267 97.1051 171.956 97.3046L161.647 104.292L171.956 111.28C172.266 111.476 172.549 111.711 172.797 111.981C173.061 112.252 173.209 112.616 173.207 112.995V114.752C173.209 114.86 173.188 114.968 173.148 115.068C173.107 115.168 173.047 115.259 172.97 115.335C172.894 115.411 172.803 115.472 172.703 115.512C172.603 115.553 172.496 115.573 172.388 115.572C172.33 115.582 172.272 115.582 172.215 115.572C172.125 115.552 172.038 115.519 171.956 115.475L159.016 106.773C158.698 106.579 158.414 106.335 158.175 106.05C157.975 105.787 157.872 105.463 157.884 105.133V103.462Z" fill="#E0E0E0"/>
<path d="M81.422 302.549H201.156V203.039H81.422L81.422 302.549Z" fill="white" stroke="#E0E0E0" stroke-width="1.36558" stroke-miterlimit="10"/>
<path d="M302.812 423.529V431.163L358.639 434.258L407.381 432.684V425.2L302.812 423.529Z" fill="#ED6A66"/>
<path d="M302.812 431.163L358.639 434.258V426.785L333.589 424.025L302.812 423.529V431.163Z" fill="#CF5959"/>
<path d="M407.381 425.2L358.639 426.785L302.812 423.679L351.565 422.105L407.381 425.2Z" fill="#FF957A"/>
<path d="M322.656 415.473V423.097L378.483 426.192L427.224 424.618V417.145L322.656 415.473Z" fill="#84B063"/>
<path d="M322.656 423.097L378.483 426.192V418.719L353.433 415.958L322.656 415.473V423.097Z" fill="#2F7D54"/>
<path d="M427.224 417.145L378.483 418.719L322.656 415.624L371.409 414.05L427.224 417.145Z" fill="#A8D18A"/>
<path d="M302.812 406.016V413.64L358.639 416.746L407.381 415.16V407.687L302.812 406.016Z" fill="#59B3EB"/>
<path d="M302.812 413.64L358.639 416.746V409.262L333.589 406.512L302.812 406.016V413.64Z" fill="#5799E6"/>
<path d="M407.381 407.688L358.639 409.262L302.812 406.167L351.565 404.593L407.381 407.688Z" fill="#AFD7FE"/>
<path d="M476.215 431.347L454.615 381.494H400.676L397.57 385.84L419.17 435.693H473.109L476.215 431.347Z" fill="#84B063"/>
<path d="M476.211 431.347H422.271L400.672 381.494H454.611L476.211 431.347Z" fill="#A8D18A"/>
<path d="M416.096 394.038L415.465 392.857H424.812L425.443 394.038H421.524L426.764 403.85H425.255L420.015 394.038H416.096ZM435.636 400.479L433.033 395.606H434.469L438.872 403.85H437.436L436.691 402.455H436.594C436.598 402.873 436.447 403.229 436.142 403.523C435.834 403.813 435.327 403.958 434.621 403.958C434.037 403.958 433.458 403.845 432.883 403.619C432.306 403.39 431.766 403.047 431.262 402.589C430.755 402.127 430.315 401.546 429.94 400.844L427.142 395.606H428.579L431.331 400.758C431.652 401.36 432.099 401.839 432.671 402.197C433.247 402.555 433.834 402.734 434.43 402.734C434.787 402.734 435.107 402.653 435.39 402.492C435.678 402.331 435.858 402.084 435.932 401.751C436.01 401.419 435.911 400.995 435.636 400.479ZM441.503 403.85L437.099 395.606H438.487L439.152 396.851H439.249C439.202 396.443 439.333 396.112 439.644 395.858C439.954 395.604 440.39 395.477 440.949 395.477C441.055 395.477 441.188 395.479 441.348 395.482C441.508 395.486 441.63 395.491 441.715 395.498L442.403 396.786C442.349 396.776 442.229 396.76 442.043 396.738C441.859 396.713 441.672 396.701 441.481 396.701C441.027 396.701 440.666 396.785 440.399 396.953C440.134 397.117 439.976 397.346 439.926 397.64C439.878 397.93 439.954 398.261 440.152 398.633L442.939 403.85H441.503ZM448.223 395.606L448.796 396.679H443.758L443.184 395.606H448.223ZM449.097 403.85L444.086 394.468C443.834 393.995 443.749 393.602 443.832 393.287C443.916 392.972 444.116 392.736 444.434 392.578C444.751 392.421 445.133 392.342 445.579 392.342C445.932 392.342 446.234 392.367 446.484 392.417C446.734 392.467 446.925 392.514 447.057 392.557L447.228 393.652C447.144 393.63 447.028 393.603 446.881 393.571C446.738 393.539 446.563 393.523 446.356 393.523C445.881 393.523 445.595 393.629 445.497 393.84C445.403 394.051 445.465 394.36 445.682 394.768L450.533 403.85H449.097ZM441.55 422.374L435.679 411.381H440.036C440.904 411.381 441.691 411.513 442.396 411.778C443.1 412.039 443.708 412.392 444.221 412.836C444.732 413.276 445.13 413.764 445.417 414.301C445.669 414.773 445.782 415.163 445.756 415.471C445.734 415.779 445.616 416.022 445.403 416.201C445.195 416.38 444.935 416.512 444.624 416.598L444.681 416.706C445.074 416.727 445.52 416.845 446.02 417.06C446.52 417.275 447.007 417.582 447.481 417.983C447.955 418.384 448.346 418.874 448.656 419.454C448.95 420.005 449.073 420.5 449.024 420.941C448.975 421.381 448.713 421.73 448.238 421.987C447.763 422.245 447.035 422.374 446.053 422.374H441.55ZM442.429 421.193H445.422C446.408 421.193 447.018 421.025 447.252 420.688C447.489 420.348 447.478 419.937 447.22 419.454C447.021 419.082 446.73 418.738 446.347 418.423C445.962 418.105 445.52 417.851 445.021 417.661C444.52 417.468 443.998 417.371 443.454 417.371H440.387L442.429 421.193ZM439.768 416.212H442.567C443.022 416.212 443.389 416.133 443.67 415.976C443.956 415.818 444.129 415.596 444.191 415.31C444.257 415.024 444.187 414.687 443.981 414.301C443.723 413.818 443.313 413.408 442.752 413.072C442.189 412.732 441.494 412.562 440.667 412.562H437.819L439.768 416.212Z" fill="white"/>
<path d="M422.275 431.347L419.17 435.693L397.57 385.84L400.676 381.494L422.275 431.347Z" fill="#2F7D54"/>
<g style="mix-blend-mode:multiply">
<path d="M395.459 447.447L391.771 454.823L340.938 434.409L348.497 417.328L395.459 447.447Z" fill="#E2E2E2"/>
</g>
<path d="M438.87 422.342L395.1 390.153L348.504 417.328L348.008 422.644L391.778 454.822L438.374 427.648L438.87 422.342Z" fill="#ED6A66"/>
<path d="M438.874 422.342L392.278 449.517L348.508 417.328L395.104 390.153L438.874 422.342Z" fill="#FF957A"/>
<path d="M369.194 418.982L368.091 418.294L375.944 413.747L377.047 414.435L373.755 416.341L382.919 422.056L381.651 422.79L372.487 417.075L369.194 418.982ZM388.738 414.901L384.186 412.063L385.392 411.364L393.093 416.166L391.886 416.864L390.583 416.051L390.501 416.099C390.708 416.449 390.754 416.822 390.64 417.218C390.522 417.612 390.166 417.981 389.573 418.324C389.082 418.608 388.541 418.795 387.948 418.885C387.353 418.972 386.732 418.946 386.086 418.806C385.437 418.663 384.784 418.388 384.129 417.979L379.236 414.928L380.443 414.229L385.256 417.23C385.817 417.581 386.425 417.767 387.08 417.79C387.738 417.811 388.318 417.676 388.819 417.386C389.119 417.213 389.349 416.989 389.508 416.716C389.672 416.44 389.703 416.145 389.604 415.828C389.508 415.51 389.219 415.201 388.738 414.901ZM395.303 414.886L387.602 410.084L388.768 409.409L389.931 410.135L390.013 410.087C389.775 409.767 389.725 409.424 389.863 409.059C390.001 408.694 390.305 408.375 390.775 408.103C390.864 408.052 390.976 407.989 391.112 407.914C391.249 407.839 391.354 407.784 391.429 407.748L392.632 408.499C392.581 408.516 392.473 408.561 392.306 408.633C392.139 408.702 391.976 408.782 391.816 408.875C391.434 409.096 391.172 409.342 391.029 409.614C390.886 409.881 390.865 410.151 390.965 410.423C391.065 410.69 391.289 410.932 391.637 411.149L396.51 414.187L395.303 414.886ZM396.949 404.673L397.952 405.298L393.718 407.749L392.716 407.124L396.949 404.673ZM401.684 411.192L392.921 405.727C392.48 405.452 392.218 405.162 392.135 404.856C392.052 404.55 392.106 404.254 392.296 403.967C392.487 403.68 392.769 403.428 393.144 403.211C393.441 403.039 393.706 402.913 393.941 402.834C394.175 402.755 394.358 402.701 394.49 402.673L395.165 403.512C395.084 403.535 394.973 403.568 394.834 403.613C394.699 403.655 394.544 403.727 394.37 403.827C393.971 404.058 393.782 404.286 393.802 404.512C393.825 404.736 394.027 404.966 394.408 405.204L402.891 410.493L401.684 411.192ZM404.431 430.009L403.101 430.779L396.679 422.15L397.988 421.393L412.1 425.569L410.771 426.338L398.999 422.761L398.917 422.808L404.431 430.009ZM400.911 427.224L406.269 424.122L407.372 424.809L402.014 427.912L400.911 427.224Z" fill="white"/>
<path d="M392.274 449.517L391.778 454.823L348.008 422.644L348.504 417.328L392.274 449.517Z" fill="#CF5959"/>
<g clip-path="url(#clip1_1488_179)">
<path d="M230.797 339.338L230.801 339.426L226.394 386.031H258.555L262.724 357.408L264.559 385.297L297.586 384.93L294.078 348.314L291.094 331.342V331.338L290.647 328.784H231.674L231.597 329.709L230.797 339.338Z" fill="#5FD068"/>
<path d="M315.786 366.353C312.38 366.974 308.829 363.138 307.853 357.785C307.427 355.442 307.564 353.197 308.14 351.361L307.617 348.276L298.853 306.768C298.853 306.768 282.714 274.484 282.714 268.879C282.714 263.274 287.383 260.526 287.383 260.526L293.7 260.585L313.51 308.969L317.078 344.722L317.655 349.628C318.841 351.143 319.761 353.195 320.188 355.538C321.163 360.891 319.193 365.733 315.786 366.353Z" fill="#FFB6B6"/>
<path d="M251.527 240.528L257.399 226.95L276.481 230.253L277.766 246.227L251.527 240.528Z" fill="#FFB6B6"/>
<path opacity="0.1" d="M251.527 240.528L257.399 226.95L276.481 230.253L277.766 246.227L251.527 240.528Z" fill="black"/>
<path d="M210.054 268.785C210.054 268.785 223.631 243.464 226.2 240.895C227.344 239.752 229.141 239.736 230.785 240.069L249.686 233.556L256.093 229.956L256.515 236.805L277.548 240.58C277.431 236.403 276.842 234.815 276.842 234.815L284.548 243.831L299.594 251.171L299.586 251.237C300.69 251.622 301.737 252.282 302.53 253.372C305.466 257.409 313.539 306.583 313.539 306.583L296.291 310.253L293.944 295.523L292.255 308.785L290.97 333.555C290.97 333.555 267.484 353.739 256.108 346.399C244.732 339.06 230.787 339.427 230.787 339.427L230.439 327.945C230.192 327.549 230.053 327.317 230.053 327.317L230.42 286.589V275.752C227.625 279.646 224.251 282.996 220.329 284.565C207.485 289.702 210.054 268.785 210.054 268.785V268.785Z" fill="#0C0C0D"/>
<path d="M268.929 232.641C259.234 232.641 251.374 224.782 251.374 215.086C251.374 205.391 259.234 197.531 268.929 197.531C278.625 197.531 286.484 205.391 286.484 215.086C286.484 224.782 278.625 232.641 268.929 232.641Z" fill="#FFB6B6"/>
<path d="M256.34 220.046C256.34 220.046 254.813 214.703 251.379 215.085C247.944 215.467 247.181 212.413 247.944 210.887C248.707 209.36 250.234 201.728 250.234 201.728C250.234 201.728 249.471 196.385 254.05 195.621C258.63 194.858 260.156 194.095 260.92 192.568C261.683 191.042 273.132 189.515 276.948 191.805C280.765 194.095 283.818 198.488 286.489 199.726C289.161 200.964 291.451 203.254 289.924 207.071C288.398 210.887 286.184 218.351 286.184 218.351C286.184 218.351 282.291 216.993 281.528 219.283C280.765 221.573 283.818 218.52 280.002 212.413C276.185 206.307 276.185 200.201 270.079 202.491C263.973 204.781 257.103 204.017 257.867 208.597C258.63 213.177 256.34 220.046 256.34 220.046V220.046Z" fill="#2F2E41"/>
<path d="M257.406 359.218H390.732C394.503 359.218 397.57 356.151 397.57 352.38V281.558C397.57 277.788 394.503 274.72 390.732 274.72H257.406C253.636 274.72 250.568 277.788 250.568 281.558V352.38C250.568 356.151 253.636 359.218 257.406 359.218Z" fill="white"/>
<path d="M257.406 359.218H390.732C394.503 359.218 397.57 356.151 397.57 352.38V281.558C397.57 277.788 394.503 274.72 390.732 274.72H257.406C253.636 274.72 250.568 277.788 250.568 281.558V352.38C250.568 356.151 253.636 359.218 257.406 359.218ZM390.732 275.862C393.873 275.862 396.428 278.417 396.428 281.558V352.38C396.428 355.521 393.873 358.076 390.732 358.076H257.406C254.266 358.076 251.71 355.521 251.71 352.38V281.558C251.71 278.417 254.266 275.862 257.406 275.862H390.732Z" fill="#3F3D56"/>
<path d="M267.701 283.282C266.755 283.282 265.988 282.515 265.988 281.569C265.988 280.623 266.755 279.856 267.701 279.856C268.647 279.856 269.414 280.623 269.414 281.569C269.414 282.515 268.647 283.282 267.701 283.282Z" fill="#3F3D56"/>
<path d="M263.131 283.282C262.185 283.282 261.418 282.515 261.418 281.569C261.418 280.623 262.185 279.856 263.131 279.856C264.077 279.856 264.844 280.623 264.844 281.569C264.844 282.515 264.077 283.282 263.131 283.282Z" fill="#3F3D56"/>
<path d="M258.561 283.282C257.615 283.282 256.848 282.515 256.848 281.569C256.848 280.623 257.615 279.856 258.561 279.856C259.507 279.856 260.273 280.623 260.273 281.569C260.273 282.515 259.507 283.282 258.561 283.282Z" fill="#3F3D56"/>
<path d="M335.921 292.704H387.005C388.265 292.704 389.289 291.68 389.289 290.42C389.289 289.161 388.265 288.136 387.005 288.136H335.921C334.661 288.136 333.637 289.161 333.637 290.42C333.637 291.68 334.661 292.704 335.921 292.704Z" fill="#E6E6E6"/>
<path d="M241.15 233.991C231.275 233.991 223.269 226.154 223.269 216.486C223.269 206.819 231.275 198.982 241.15 198.982C251.026 198.982 259.031 206.819 259.031 216.486C259.031 226.154 251.026 233.991 241.15 233.991Z" fill="#5FD068"/>
<path d="M246.778 207.656C244.397 211.991 242.017 216.325 239.636 220.66C238.119 217.979 236.61 215.294 235.089 212.615C234.564 211.69 233.135 212.522 233.662 213.45C235.425 216.555 237.169 219.67 238.933 222.775C239.234 223.306 240.062 223.319 240.36 222.775C242.975 218.014 245.59 213.252 248.205 208.49C248.717 207.557 247.29 206.722 246.778 207.656Z" fill="white"/>
<path d="M216.462 262.625L234.278 254.102C234.278 254.102 234.993 248.398 238.334 246.364C238.902 245.009 239.556 243.52 240.149 242.341C241.617 239.424 239.415 233.919 241.25 233.919C243.085 233.919 245.797 239.708 245.654 241.258C245.544 242.449 244.56 244.526 244.357 246.345C246.594 247.189 248.399 248.635 249.586 249.787C250.613 250.783 250.995 252.27 250.593 253.644C249.43 257.624 246.523 265.845 242.351 265.845C236.847 265.845 235.379 264.745 235.379 264.745C235.379 264.745 224.003 279.056 215.562 280.157C207.122 281.258 216.462 262.625 216.462 262.625V262.625Z" fill="#FFB6B6"/>
<path d="M283.115 324.295L287.499 312.972H289.278L293.629 324.295H291.769L289.181 317.469C289.149 317.393 289.084 317.21 288.987 316.919C288.901 316.627 288.798 316.304 288.68 315.948C288.561 315.592 288.453 315.269 288.356 314.978C288.259 314.676 288.194 314.482 288.162 314.395L288.534 314.379C288.469 314.562 288.388 314.794 288.291 315.075C288.205 315.355 288.108 315.652 288 315.964C287.903 316.277 287.806 316.574 287.709 316.854C287.612 317.123 287.531 317.35 287.466 317.533L284.895 324.295H283.115ZM285.056 321.48L285.703 319.798H290.847L291.591 321.48H285.056ZM295.201 324.295V322.677H297.029V314.589H295.201V312.972H300.604V314.589H298.776V322.677H300.604V324.295H295.201ZM307.88 324.295V312.972H315.013V314.654H309.627V322.612H315.013V324.295H307.88ZM308.672 319.329V317.646H314.124V319.329H308.672ZM317.395 324.295V315.803H319.061V317.549L318.77 317.744C318.878 317.366 319.088 317.021 319.401 316.708C319.714 316.385 320.086 316.126 320.517 315.932C320.948 315.727 321.39 315.625 321.843 315.625C322.49 315.625 323.03 315.754 323.461 316.013C323.892 316.261 324.216 316.644 324.431 317.161C324.647 317.679 324.755 318.331 324.755 319.118V324.295H323.089V319.232C323.089 318.746 323.024 318.347 322.895 318.035C322.765 317.711 322.566 317.479 322.296 317.339C322.027 317.188 321.692 317.123 321.293 317.145C320.97 317.145 320.673 317.199 320.404 317.307C320.134 317.404 319.897 317.544 319.692 317.727C319.498 317.911 319.342 318.126 319.223 318.374C319.115 318.612 319.061 318.87 319.061 319.151V324.295H318.236C318.096 324.295 317.956 324.295 317.816 324.295C317.676 324.295 317.535 324.295 317.395 324.295ZM330.282 324.456C329.582 324.456 328.94 324.262 328.358 323.874C327.786 323.486 327.328 322.957 326.983 322.289C326.638 321.62 326.465 320.865 326.465 320.024C326.465 319.172 326.638 318.418 326.983 317.76C327.339 317.091 327.813 316.568 328.406 316.191C329.01 315.813 329.684 315.625 330.428 315.625C330.87 315.625 331.275 315.689 331.641 315.819C332.008 315.948 332.326 316.131 332.596 316.369C332.876 316.595 333.102 316.859 333.275 317.161C333.458 317.463 333.571 317.787 333.615 318.132L333.243 318.002V315.803H334.925V324.295H333.243V322.273L333.631 322.159C333.566 322.451 333.431 322.736 333.226 323.017C333.032 323.286 332.779 323.529 332.466 323.745C332.164 323.96 331.825 324.133 331.447 324.262C331.08 324.392 330.692 324.456 330.282 324.456ZM330.719 322.92C331.226 322.92 331.674 322.796 332.062 322.548C332.45 322.3 332.752 321.96 332.968 321.529C333.194 321.086 333.307 320.585 333.307 320.024C333.307 319.474 333.194 318.984 332.968 318.552C332.752 318.121 332.45 317.781 332.062 317.533C331.674 317.285 331.226 317.161 330.719 317.161C330.223 317.161 329.781 317.285 329.393 317.533C329.015 317.781 328.713 318.121 328.487 318.552C328.271 318.984 328.164 319.474 328.164 320.024C328.164 320.585 328.271 321.086 328.487 321.529C328.713 321.96 329.015 322.3 329.393 322.548C329.781 322.796 330.223 322.92 330.719 322.92ZM341.715 324.456C341.349 324.456 340.982 324.397 340.615 324.278C340.26 324.16 339.931 324.003 339.629 323.809C339.338 323.604 339.09 323.383 338.885 323.146C338.691 322.898 338.561 322.65 338.497 322.402L338.917 322.176V324.246H337.251V312.325H338.917V317.744L338.658 317.598C338.712 317.35 338.831 317.113 339.014 316.886C339.197 316.649 339.429 316.439 339.71 316.255C340.001 316.061 340.314 315.91 340.648 315.803C340.982 315.684 341.322 315.625 341.667 315.625C342.433 315.625 343.112 315.813 343.705 316.191C344.298 316.568 344.767 317.091 345.112 317.76C345.457 318.418 345.63 319.172 345.63 320.024C345.63 320.876 345.457 321.636 345.112 322.305C344.778 322.974 344.314 323.502 343.721 323.89C343.128 324.268 342.459 324.456 341.715 324.456ZM341.44 322.936C341.936 322.936 342.379 322.812 342.767 322.564C343.155 322.305 343.462 321.96 343.689 321.529C343.915 321.086 344.028 320.585 344.028 320.024C344.028 319.474 343.915 318.984 343.689 318.552C343.473 318.11 343.171 317.765 342.783 317.517C342.395 317.269 341.947 317.145 341.44 317.145C340.934 317.145 340.486 317.269 340.098 317.517C339.71 317.765 339.402 318.11 339.176 318.552C338.949 318.984 338.836 319.474 338.836 320.024C338.836 320.585 338.949 321.086 339.176 321.529C339.402 321.96 339.71 322.305 340.098 322.564C340.486 322.812 340.934 322.936 341.44 322.936ZM347.472 324.295V312.325H349.138V324.295H347.472ZM355.304 324.456C354.431 324.456 353.654 324.273 352.975 323.906C352.306 323.529 351.778 323.017 351.39 322.37C351.012 321.723 350.824 320.979 350.824 320.137C350.824 319.469 350.931 318.86 351.147 318.31C351.363 317.76 351.659 317.285 352.037 316.886C352.425 316.476 352.883 316.164 353.412 315.948C353.951 315.722 354.533 315.608 355.159 315.608C355.709 315.608 356.221 315.716 356.695 315.932C357.17 316.137 357.58 316.423 357.925 316.789C358.28 317.156 358.55 317.593 358.733 318.099C358.927 318.595 359.019 319.14 359.008 319.733L358.992 320.445H352.053L351.681 319.118H357.553L357.31 319.393V319.005C357.278 318.649 357.159 318.331 356.954 318.051C356.749 317.771 356.49 317.549 356.178 317.388C355.865 317.226 355.525 317.145 355.159 317.145C354.576 317.145 354.086 317.258 353.687 317.485C353.288 317.7 352.986 318.024 352.781 318.455C352.576 318.876 352.474 319.399 352.474 320.024C352.474 320.617 352.598 321.135 352.846 321.577C353.094 322.008 353.444 322.343 353.897 322.58C354.35 322.817 354.873 322.936 355.466 322.936C355.887 322.936 356.275 322.866 356.631 322.726C356.997 322.585 357.391 322.332 357.811 321.965L358.653 323.146C358.394 323.405 358.076 323.631 357.698 323.825C357.332 324.02 356.938 324.176 356.517 324.295C356.108 324.402 355.703 324.456 355.304 324.456ZM364.361 324.456C363.585 324.456 362.889 324.268 362.275 323.89C361.671 323.502 361.191 322.979 360.835 322.321C360.479 321.653 360.301 320.892 360.301 320.04C360.301 319.189 360.474 318.434 360.819 317.776C361.175 317.107 361.655 316.584 362.259 316.207C362.862 315.819 363.547 315.625 364.313 315.625C364.733 315.625 365.138 315.695 365.526 315.835C365.925 315.964 366.281 316.148 366.594 316.385C366.906 316.611 367.149 316.865 367.321 317.145C367.505 317.415 367.596 317.69 367.596 317.97L367.111 318.002V312.325H368.777V324.295H367.111V322.273H367.435C367.435 322.531 367.348 322.79 367.176 323.049C367.003 323.297 366.772 323.529 366.48 323.745C366.2 323.96 365.871 324.133 365.494 324.262C365.127 324.392 364.75 324.456 364.361 324.456ZM364.588 323.017C365.095 323.017 365.542 322.887 365.93 322.628C366.319 322.37 366.621 322.019 366.836 321.577C367.063 321.124 367.176 320.612 367.176 320.04C367.176 319.469 367.063 318.962 366.836 318.52C366.621 318.067 366.319 317.711 365.93 317.452C365.542 317.194 365.095 317.064 364.588 317.064C364.081 317.064 363.633 317.194 363.245 317.452C362.857 317.711 362.55 318.067 362.323 318.52C362.108 318.962 362 319.469 362 320.04C362 320.612 362.108 321.124 362.323 321.577C362.55 322.019 362.857 322.37 363.245 322.628C363.633 322.887 364.081 323.017 364.588 323.017Z" fill="black" fill-opacity="0.55"/>
</g>
<path d="M199.539 110.479C198.665 110.479 197.986 110.249 197.503 109.789C197.02 109.329 196.779 108.685 196.779 107.857V100.955C196.779 100.15 197.009 99.5234 197.469 99.0748C197.94 98.6262 198.59 98.4019 199.419 98.4019H204.784C205.129 98.4019 205.394 98.4824 205.578 98.6435C205.762 98.793 205.854 99.0115 205.854 99.2991C205.854 99.5752 205.756 99.7937 205.561 99.9547C205.377 100.104 205.118 100.179 204.784 100.179H199.815C199.585 100.179 199.401 100.254 199.263 100.403C199.137 100.553 199.073 100.76 199.073 101.024V103.423H203.473C203.818 103.423 204.083 103.503 204.267 103.664C204.451 103.814 204.543 104.032 204.543 104.32C204.543 104.596 204.445 104.815 204.25 104.976C204.066 105.125 203.807 105.2 203.473 105.2H199.073V107.857C199.073 108.121 199.137 108.329 199.263 108.478C199.401 108.628 199.585 108.702 199.815 108.702H205.164C205.509 108.702 205.774 108.783 205.958 108.944C206.142 109.093 206.234 109.312 206.234 109.6C206.234 109.876 206.136 110.094 205.94 110.255C205.756 110.405 205.498 110.479 205.164 110.479H199.539ZM209.053 110.652C208.708 110.652 208.432 110.56 208.225 110.376C208.018 110.192 207.914 109.939 207.914 109.617V103.112C207.914 101.582 208.391 100.386 209.346 99.5234C210.301 98.6607 211.624 98.2294 213.314 98.2294C215.005 98.2294 216.328 98.6607 217.283 99.5234C218.238 100.386 218.715 101.582 218.715 103.112V109.617C218.715 109.939 218.611 110.192 218.404 110.376C218.197 110.56 217.921 110.652 217.576 110.652C217.231 110.652 216.949 110.56 216.731 110.376C216.524 110.18 216.42 109.927 216.42 109.617V103.06C216.42 102.083 216.156 101.335 215.626 100.817C215.097 100.3 214.327 100.041 213.314 100.041C212.302 100.041 211.532 100.3 211.002 100.817C210.473 101.335 210.209 102.083 210.209 103.06V109.617C210.209 109.927 210.1 110.18 209.881 110.376C209.674 110.56 209.398 110.652 209.053 110.652Z" fill="#1A1A1A" fill-opacity="0.99"/>
<path d="M225.574 110.652C225.229 110.652 224.953 110.56 224.746 110.376C224.539 110.192 224.435 109.939 224.435 109.617V100.179H221.105C220.772 100.179 220.507 100.104 220.312 99.9547C220.127 99.7937 220.035 99.5752 220.035 99.2991C220.035 99.0115 220.127 98.793 220.312 98.6435C220.496 98.4824 220.76 98.4019 221.105 98.4019H230.06C230.405 98.4019 230.669 98.4824 230.854 98.6435C231.038 98.793 231.13 99.0115 231.13 99.2991C231.13 99.5752 231.032 99.7937 230.836 99.9547C230.652 100.104 230.393 100.179 230.06 100.179H226.73V109.617C226.73 109.927 226.621 110.18 226.402 110.376C226.195 110.56 225.919 110.652 225.574 110.652ZM237.847 110.652C236.765 110.652 235.816 110.433 235 109.996C234.195 109.559 233.568 108.938 233.119 108.133C232.682 107.316 232.464 106.356 232.464 105.252V99.2646C232.464 98.9425 232.567 98.6895 232.774 98.5054C232.981 98.3214 233.257 98.2294 233.602 98.2294C233.947 98.2294 234.223 98.3271 234.43 98.5227C234.649 98.7067 234.758 98.954 234.758 99.2646V105.303C234.758 106.442 235.029 107.316 235.569 107.926C236.11 108.536 236.886 108.84 237.898 108.84C238.899 108.84 239.67 108.536 240.21 107.926C240.763 107.305 241.039 106.431 241.039 105.303V99.2646C241.039 98.954 241.142 98.7067 241.349 98.5227C241.568 98.3271 241.85 98.2294 242.195 98.2294C242.54 98.2294 242.816 98.3214 243.023 98.5054C243.23 98.6895 243.333 98.9425 243.333 99.2646V105.252C243.333 106.321 243.103 107.265 242.643 108.081C242.195 108.898 241.556 109.531 240.728 109.979C239.9 110.428 238.939 110.652 237.847 110.652ZM245.187 100.955C245.187 100.15 245.417 99.5234 245.877 99.0748C246.349 98.6262 246.998 98.4019 247.827 98.4019H250.898C252.612 98.4019 253.906 98.7355 254.78 99.4026C255.654 100.07 256.091 101.065 256.091 102.388C256.091 103.618 255.723 104.579 254.987 105.269C254.262 105.959 253.285 106.304 252.054 106.304L254.676 108.909C254.883 109.116 254.987 109.352 254.987 109.617C254.987 109.893 254.866 110.134 254.625 110.341C254.371 110.537 254.124 110.635 253.883 110.635C253.549 110.635 253.244 110.485 252.968 110.186L249.241 106.373H247.482V109.617C247.482 109.939 247.372 110.192 247.154 110.376C246.935 110.56 246.659 110.652 246.326 110.652C245.98 110.652 245.704 110.56 245.497 110.376C245.29 110.192 245.187 109.939 245.187 109.617V100.955ZM250.829 104.596C251.588 104.596 252.18 104.521 252.606 104.372C253.031 104.222 253.331 103.992 253.503 103.682C253.687 103.359 253.779 102.928 253.779 102.388C253.779 101.605 253.538 101.042 253.054 100.697C252.583 100.352 251.841 100.179 250.829 100.179H248.223C247.993 100.179 247.809 100.254 247.671 100.403C247.545 100.553 247.482 100.76 247.482 101.024V104.596H250.829ZM258.996 110.652C258.651 110.652 258.375 110.56 258.168 110.376C257.961 110.192 257.857 109.939 257.857 109.617V100.955C257.857 100.15 258.088 99.5234 258.548 99.0748C259.019 98.6262 259.669 98.4019 260.497 98.4019H265.863C266.208 98.4019 266.473 98.4824 266.657 98.6435C266.841 98.793 266.933 99.0115 266.933 99.2991C266.933 99.5752 266.835 99.7937 266.64 99.9547C266.456 100.104 266.197 100.179 265.863 100.179H260.894C260.664 100.179 260.48 100.254 260.342 100.403C260.215 100.553 260.152 100.76 260.152 101.024V103.595H264.552C264.897 103.595 265.162 103.676 265.346 103.837C265.53 103.986 265.622 104.205 265.622 104.492C265.622 104.769 265.524 104.987 265.328 105.148C265.144 105.298 264.885 105.372 264.552 105.372H260.152V109.617C260.152 109.927 260.043 110.18 259.824 110.376C259.617 110.56 259.341 110.652 258.996 110.652Z" fill="#5FD068"/>
</g>
<path d="M170.854 221.482L92.8281 267.717L95.1747 271.677L173.201 225.442L170.854 221.482Z" fill="#F2F2F2"/>
<path d="M179.683 227.514L101.656 273.75L104.003 277.71L182.029 231.474L179.683 227.514Z" fill="#F2F2F2"/>
<path d="M194.698 231.753L116.672 277.989L119.018 281.949L197.045 235.713L194.698 231.753Z" fill="#F2F2F2"/>
<path d="M135.507 277.837C148.999 277.837 159.936 266.9 159.936 253.408C159.936 239.916 148.999 228.979 135.507 228.979C122.015 228.979 111.078 239.916 111.078 253.408C111.078 266.9 122.015 277.837 135.507 277.837Z" fill="white"/>
<path d="M107.469 251.39C107.469 232.962 122.461 217.97 140.888 217.97C159.316 217.97 174.308 232.962 174.308 251.39C174.308 269.817 159.316 284.809 140.888 284.809C122.461 284.809 107.469 269.817 107.469 251.39ZM107.962 251.39C107.962 269.545 122.733 284.316 140.888 284.316C159.044 284.316 173.814 269.545 173.814 251.39C173.814 233.234 159.044 218.464 140.888 218.464C122.733 218.464 107.962 233.234 107.962 251.39H107.962Z" fill="#3F3D56"/>
<path d="M130.648 248.594C130.648 247.632 130.934 246.691 131.468 245.891C132.003 245.091 132.763 244.468 133.652 244.099C134.541 243.731 135.519 243.635 136.462 243.822C137.406 244.01 138.273 244.474 138.953 245.154C139.634 245.834 140.097 246.701 140.285 247.645C140.472 248.588 140.376 249.567 140.008 250.456C139.64 251.345 139.016 252.104 138.216 252.639C137.416 253.173 136.476 253.459 135.513 253.459C134.223 253.459 132.986 252.946 132.073 252.034C131.161 251.122 130.648 249.884 130.648 248.594ZM135.513 243.966C134.286 243.968 133.11 244.456 132.243 245.323C131.375 246.191 130.887 247.367 130.886 248.594C130.886 249.509 131.157 250.404 131.666 251.165C132.174 251.926 132.897 252.519 133.742 252.869C134.588 253.219 135.518 253.311 136.416 253.133C137.314 252.954 138.138 252.513 138.786 251.866C139.433 251.219 139.873 250.394 140.052 249.497C140.231 248.599 140.139 247.669 139.789 246.823C139.438 245.977 138.845 245.255 138.084 244.746C137.323 244.238 136.429 243.966 135.513 243.966Z" fill="#3F3D56"/>
<path d="M122.469 251.92C122.469 248.279 123.548 244.719 125.571 241.692C127.594 238.665 130.469 236.305 133.833 234.912C137.197 233.519 140.898 233.154 144.469 233.865C148.04 234.575 151.32 236.328 153.894 238.903C156.469 241.477 158.222 244.757 158.932 248.328C159.643 251.899 159.278 255.6 157.885 258.964C156.492 262.328 154.132 265.203 151.105 267.226C148.077 269.249 144.518 270.328 140.877 270.328C138.46 270.328 136.066 269.852 133.833 268.927C131.599 268.002 129.57 266.646 127.861 264.936C126.151 263.227 124.795 261.198 123.87 258.964C122.945 256.731 122.469 254.337 122.469 251.92V251.92ZM140.877 233.983C137.33 233.983 133.862 235.035 130.912 237.006C127.963 238.977 125.664 241.778 124.306 245.055C122.949 248.333 122.593 251.939 123.285 255.419C123.977 258.898 125.686 262.094 128.194 264.603C130.703 267.111 133.899 268.819 137.378 269.512C140.858 270.204 144.464 269.848 147.742 268.491C151.019 267.133 153.82 264.834 155.791 261.885C157.762 258.935 158.814 255.467 158.814 251.92C158.809 247.164 156.917 242.605 153.555 239.242C150.192 235.88 145.633 233.988 140.877 233.983Z" fill="#CCCCCC"/>
<path d="M114.102 251.39C114.102 246.096 115.671 240.921 118.613 236.519C121.554 232.117 125.734 228.686 130.626 226.66C135.517 224.634 140.899 224.104 146.091 225.137C151.284 226.169 156.053 228.719 159.797 232.462C163.54 236.206 166.089 240.975 167.122 246.168C168.155 251.36 167.625 256.742 165.599 261.633C163.573 266.525 160.142 270.705 155.74 273.646C151.338 276.588 146.163 278.157 140.869 278.157C133.772 278.149 126.969 275.327 121.95 270.309C116.932 265.29 114.11 258.487 114.102 251.39ZM140.869 224.975C135.645 224.975 130.538 226.524 126.194 229.426C121.85 232.329 118.464 236.454 116.465 241.281C114.465 246.108 113.942 251.419 114.961 256.543C115.981 261.667 118.496 266.374 122.191 270.068C125.885 273.763 130.592 276.278 135.716 277.298C140.84 278.317 146.151 277.794 150.978 275.794C155.805 273.795 159.93 270.409 162.833 266.065C165.735 261.721 167.284 256.614 167.284 251.39C167.277 244.387 164.491 237.672 159.539 232.72C154.587 227.768 147.872 224.982 140.869 224.975Z" fill="#CCCCCC"/>
<path d="M135.674 251.267C137.151 251.267 138.348 250.07 138.348 248.593C138.348 247.116 137.151 245.919 135.674 245.919C134.197 245.919 133 247.116 133 248.593C133 250.07 134.197 251.267 135.674 251.267Z" fill="#5FD068"/>
<path d="M130.315 261.268C131.429 261.268 132.333 260.364 132.333 259.25C132.333 258.135 131.429 257.232 130.315 257.232C129.2 257.232 128.297 258.135 128.297 259.25C128.297 260.364 129.2 261.268 130.315 261.268Z" fill="#5FD068"/>
<path d="M150.62 260.418C151.734 260.418 152.638 259.514 152.638 258.4C152.638 257.285 151.734 256.382 150.62 256.382C149.505 256.382 148.602 257.285 148.602 258.4C148.602 259.514 149.505 260.418 150.62 260.418Z" fill="#5FD068"/>
<path d="M135.673 249.861C136.372 249.861 136.94 249.294 136.94 248.594C136.94 247.894 136.372 247.327 135.673 247.327C134.973 247.327 134.406 247.894 134.406 248.594C134.406 249.294 134.973 249.861 135.673 249.861Z" fill="#2F2E41"/>
<path d="M150.612 259.356C151.14 259.356 151.568 258.928 151.568 258.4C151.568 257.872 151.14 257.444 150.612 257.444C150.084 257.444 149.656 257.872 149.656 258.4C149.656 258.928 150.084 259.356 150.612 259.356Z" fill="#2F2E41"/>
<path d="M130.3 260.312C130.828 260.312 131.256 259.884 131.256 259.356C131.256 258.828 130.828 258.4 130.3 258.4C129.772 258.4 129.344 258.828 129.344 259.356C129.344 259.884 129.772 260.312 130.3 260.312Z" fill="#2F2E41"/>
<path d="M135.454 242.646H93.5V242.52H135.667V248.975H135.454V242.646Z" fill="#2F2E41"/>
<path d="M184.169 248.523C184.991 248.523 185.658 247.856 185.658 247.034C185.658 246.212 184.991 245.545 184.169 245.545C183.346 245.545 182.68 246.212 182.68 247.034C182.68 247.856 183.346 248.523 184.169 248.523Z" fill="#5FD068"/>
<path d="M179.875 247.035C179.875 246.184 180.127 245.352 180.6 244.645C181.073 243.937 181.745 243.386 182.531 243.06C183.317 242.735 184.182 242.65 185.017 242.816C185.851 242.982 186.618 243.391 187.219 243.993C187.821 244.595 188.231 245.361 188.397 246.196C188.563 247.03 188.478 247.895 188.152 248.682C187.826 249.468 187.275 250.14 186.567 250.612C185.86 251.085 185.028 251.337 184.177 251.337C183.612 251.337 183.053 251.226 182.531 251.01C182.009 250.794 181.535 250.477 181.135 250.077C180.736 249.678 180.419 249.204 180.202 248.682C179.986 248.16 179.875 247.6 179.875 247.035ZM184.177 243.064C183.124 243.065 182.115 243.484 181.37 244.228C180.626 244.973 180.207 245.982 180.206 247.035C180.206 247.821 180.439 248.588 180.875 249.242C181.312 249.895 181.932 250.404 182.658 250.704C183.383 251.005 184.182 251.083 184.952 250.93C185.722 250.777 186.43 250.399 186.985 249.843C187.541 249.288 187.919 248.58 188.072 247.81C188.226 247.04 188.147 246.241 187.846 245.515C187.546 244.79 187.037 244.169 186.384 243.733C185.731 243.297 184.963 243.064 184.177 243.064V243.064Z" fill="#2F2E41"/>
<path d="M150.516 247.461L184.107 247.035L184.111 247.247L150.779 247.67V258.399H150.516V247.461Z" fill="#2F2E41"/>
<path d="M99.9375 270.083H130.208V259.355H130.421V270.295H99.9375V270.083Z" fill="#2F2E41"/>
<path d="M192.512 254.97H175.859V256.03H192.512V254.97Z" fill="#CCCCCC"/>
<path d="M192.512 257.999H175.859V259.059H192.512V257.999Z" fill="#CCCCCC"/>
<path d="M192.512 261.027H175.859V262.087H192.512V261.027Z" fill="#CCCCCC"/>
<path d="M101.192 271.659C102.015 271.659 102.682 270.993 102.682 270.17C102.682 269.348 102.015 268.681 101.192 268.681C100.37 268.681 99.7031 269.348 99.7031 270.17C99.7031 270.993 100.37 271.659 101.192 271.659Z" fill="#5FD068"/>
<path d="M96.8906 270.172C96.8906 269.321 97.143 268.489 97.6157 267.782C98.0884 267.074 98.7604 266.523 99.5465 266.197C100.333 265.872 101.198 265.787 102.032 265.953C102.867 266.119 103.633 266.528 104.235 267.13C104.837 267.732 105.246 268.498 105.412 269.333C105.578 270.167 105.493 271.032 105.168 271.819C104.842 272.605 104.291 273.277 103.583 273.749C102.876 274.222 102.044 274.474 101.193 274.474C100.628 274.474 100.068 274.363 99.5465 274.147C99.0245 273.931 98.5502 273.614 98.1507 273.214C97.7512 272.815 97.4343 272.341 97.2181 271.819C97.0019 271.297 96.8906 270.737 96.8906 270.172ZM101.193 266.201C100.14 266.202 99.1306 266.621 98.3861 267.365C97.6416 268.11 97.2228 269.119 97.2216 270.172C97.2216 270.958 97.4545 271.725 97.8909 272.379C98.3272 273.032 98.9475 273.541 99.6731 273.841C100.399 274.142 101.197 274.22 101.968 274.067C102.738 273.914 103.446 273.536 104.001 272.98C104.556 272.425 104.935 271.717 105.088 270.947C105.241 270.177 105.163 269.378 104.862 268.652C104.561 267.927 104.052 267.307 103.399 266.87C102.746 266.434 101.978 266.201 101.193 266.201V266.201Z" fill="#2F2E41"/>
<path d="M109.536 278.107H92.8828V279.167H109.536V278.107Z" fill="#CCCCCC"/>
<path d="M109.536 281.136H92.8828V282.195H109.536V281.136Z" fill="#CCCCCC"/>
<path d="M109.536 284.164H92.8828V285.224H109.536V284.164Z" fill="#CCCCCC"/>
<path d="M94.7783 244.234C95.6008 244.234 96.2675 243.568 96.2675 242.745C96.2675 241.923 95.6008 241.256 94.7783 241.256C93.9558 241.256 93.2891 241.923 93.2891 242.745C93.2891 243.568 93.9558 244.234 94.7783 244.234Z" fill="#5FD068"/>
<path d="M90.4688 242.746C90.4688 241.895 90.7211 241.063 91.1938 240.356C91.6666 239.648 92.3385 239.097 93.1246 238.771C93.9107 238.446 94.7758 238.361 95.6104 238.527C96.4449 238.693 97.2115 239.102 97.8132 239.704C98.4149 240.306 98.8246 241.072 98.9906 241.907C99.1566 242.741 99.0714 243.606 98.7458 244.393C98.4202 245.179 97.8687 245.851 97.1612 246.323C96.4537 246.796 95.6219 247.048 94.771 247.048C94.206 247.048 93.6466 246.937 93.1246 246.721C92.6026 246.505 92.1284 246.188 91.7288 245.788C91.3293 245.389 91.0125 244.915 90.7962 244.393C90.58 243.871 90.4687 243.311 90.4688 242.746ZM94.771 238.775C93.7181 238.776 92.7087 239.195 91.9642 239.939C91.2197 240.684 90.8009 241.693 90.7997 242.746C90.7997 243.532 91.0326 244.299 91.469 244.953C91.9054 245.606 92.5256 246.115 93.2513 246.415C93.9769 246.716 94.7754 246.794 95.5458 246.641C96.3162 246.488 97.0238 246.11 97.5792 245.554C98.1346 244.999 98.5128 244.291 98.666 243.521C98.8193 242.751 98.7406 241.952 98.44 241.226C98.1395 240.501 97.6305 239.881 96.9774 239.444C96.3243 239.008 95.5565 238.775 94.771 238.775V238.775Z" fill="#2F2E41"/>
<path d="M103.114 249.735H86.4609V250.794H103.114V249.735Z" fill="#CCCCCC"/>
<path d="M103.114 252.763H86.4609V253.823H103.114V252.763Z" fill="#CCCCCC"/>
<path d="M103.114 255.792H86.4609V256.852H103.114V255.792Z" fill="#CCCCCC"/>
<defs>
<clipPath id="clip0_1488_179">
<rect width="476.773" height="483.891" fill="white" transform="translate(0.773438 0.383911)"/>
</clipPath>
<clipPath id="clip1_1488_179">
<rect width="187.728" height="195.393" fill="white" transform="matrix(-1 0 0 1 397.578 190.638)"/>
</clipPath>
</defs>
</svg>
