<svg width="703" height="348" viewBox="0 0 703 348" fill="none" xmlns="http://www.w3.org/2000/svg">
<g clip-path="url(#clip0_1841_2516)">
<path d="M624.737 143.515H156.09C154.1 143.515 152.191 144.305 150.784 145.713C149.377 147.12 148.586 149.028 148.586 151.019C148.586 153.009 149.377 154.917 150.784 156.325C152.191 157.732 154.1 158.523 156.09 158.523H169.361V338.014C169.361 340.004 170.151 341.913 171.558 343.32C172.966 344.728 174.874 345.518 176.864 345.518C178.855 345.518 180.763 344.728 182.171 343.32C183.578 341.913 184.368 340.004 184.368 338.014L184.483 158.523H560.619L595.3 338.014C595.3 340.004 596.091 341.913 597.498 343.32C598.905 344.728 600.814 345.518 602.804 345.518C604.794 345.518 606.703 344.728 608.11 343.32C609.518 341.913 610.308 340.004 610.308 338.014L612.494 158.523H624.729C626.719 158.523 628.628 157.732 630.035 156.325C631.442 154.917 632.233 153.009 632.233 151.019C632.233 149.028 631.442 147.12 630.035 145.713C628.628 144.305 626.719 143.515 624.729 143.515H624.737Z" fill="#CCCCCC" fill-opacity="0.48"/>
<path d="M237.323 110.081V141.891H157.715C155.627 141.964 153.544 141.624 151.587 140.891C149.629 140.159 147.835 139.048 146.307 137.622C144.779 136.196 143.547 134.484 142.681 132.582C141.815 130.679 141.332 128.625 141.26 126.537C141.187 124.448 141.527 122.366 142.26 120.408C142.992 118.451 144.103 116.657 145.529 115.129C146.955 113.601 148.667 112.369 150.569 111.502C152.471 110.636 154.525 110.153 156.614 110.081C156.984 110.081 157.351 110.081 157.715 110.081H237.323Z" fill="#F2F2F2"/>
<path d="M239.281 141.607C239.281 141.931 239.152 142.242 238.923 142.472C238.694 142.701 238.382 142.83 238.058 142.83H156.305C151.929 142.733 147.765 140.927 144.704 137.798C141.644 134.669 139.93 130.466 139.93 126.089C139.93 121.712 141.644 117.509 144.704 114.38C147.765 111.25 151.929 109.444 156.305 109.348H238.058C238.382 109.348 238.694 109.477 238.923 109.706C239.152 109.935 239.281 110.247 239.281 110.571C239.281 110.896 239.152 111.207 238.923 111.436C238.694 111.666 238.382 111.795 238.058 111.795H156.305C152.513 111.795 148.876 113.301 146.195 115.982C143.514 118.664 142.007 122.301 142.007 126.093C142.007 129.885 143.514 133.522 146.195 136.203C148.876 138.885 152.513 140.391 156.305 140.391H238.058C238.381 140.391 238.691 140.519 238.92 140.747C239.149 140.974 239.279 141.284 239.281 141.607Z" fill="#5FD068"/>
<path d="M237.321 117.415H151.776C151.711 117.415 151.649 117.389 151.603 117.343C151.557 117.298 151.531 117.235 151.531 117.17C151.531 117.106 151.557 117.043 151.603 116.997C151.649 116.952 151.711 116.926 151.776 116.926H237.321C237.386 116.926 237.448 116.952 237.494 116.997C237.54 117.043 237.566 117.106 237.566 117.17C237.564 117.235 237.537 117.296 237.492 117.341C237.446 117.387 237.385 117.413 237.321 117.415Z" fill="#CCCCCC" fill-opacity="0.48"/>
<path d="M237.321 123.278H151.776C151.711 123.278 151.649 123.253 151.603 123.207C151.557 123.161 151.531 123.099 151.531 123.034C151.531 122.969 151.557 122.907 151.603 122.861C151.649 122.815 151.711 122.789 151.776 122.789H237.321C237.386 122.789 237.448 122.815 237.494 122.861C237.54 122.907 237.566 122.969 237.566 123.034C237.566 123.099 237.54 123.161 237.494 123.207C237.448 123.253 237.386 123.278 237.321 123.278Z" fill="#CCCCCC" fill-opacity="0.48"/>
<path d="M237.321 129.143H151.776C151.711 129.143 151.649 129.117 151.603 129.071C151.557 129.025 151.531 128.963 151.531 128.898C151.531 128.833 151.557 128.771 151.603 128.725C151.649 128.679 151.711 128.653 151.776 128.653H237.321C237.386 128.653 237.448 128.679 237.494 128.725C237.54 128.771 237.566 128.833 237.566 128.898C237.566 128.963 237.54 129.025 237.494 129.071C237.448 129.117 237.386 129.143 237.321 129.143Z" fill="#CCCCCC" fill-opacity="0.48"/>
<path d="M237.321 135.008H151.776C151.712 135.008 151.651 134.983 151.606 134.939C151.56 134.895 151.533 134.835 151.531 134.771C151.531 134.706 151.557 134.643 151.602 134.595C151.648 134.548 151.71 134.521 151.776 134.519H237.321C237.387 134.521 237.449 134.548 237.495 134.595C237.54 134.643 237.566 134.706 237.566 134.771C237.564 134.835 237.537 134.895 237.491 134.939C237.446 134.983 237.385 135.008 237.321 135.008Z" fill="#CCCCCC" fill-opacity="0.48"/>
<path d="M222.319 76.6074V108.418H142.719C138.501 108.565 134.397 107.03 131.31 104.151C128.224 101.273 126.407 97.2855 126.26 93.0672C126.113 88.8489 127.647 84.7449 130.526 81.6581C133.405 78.5713 137.392 76.7545 141.61 76.6074C141.977 76.6074 142.344 76.6074 142.719 76.6074H222.319Z" fill="#F2F2F2"/>
<path d="M224.269 108.132C224.269 108.457 224.14 108.768 223.911 108.997C223.682 109.227 223.37 109.356 223.046 109.356H141.293C137.015 109.124 132.989 107.262 130.042 104.151C127.095 101.041 125.453 96.9193 125.453 92.6349C125.453 88.3504 127.095 84.2289 130.042 81.1186C132.989 78.0082 137.015 76.1456 141.293 75.9141H223.046C223.37 75.9141 223.682 76.043 223.911 76.2724C224.14 76.5018 224.269 76.8131 224.269 77.1375C224.269 77.462 224.14 77.7732 223.911 78.0027C223.682 78.2321 223.37 78.361 223.046 78.361H141.293C137.652 78.5743 134.23 80.171 131.728 82.8245C129.225 85.4779 127.831 88.9875 127.831 92.6349C127.831 96.2823 129.225 99.7918 131.728 102.445C134.23 105.099 137.652 106.695 141.293 106.909H223.046C223.37 106.909 223.682 107.038 223.911 107.267C224.14 107.496 224.269 107.808 224.269 108.132Z" fill="#3F3D56"/>
<path d="M222.313 83.9407H136.768C136.703 83.9407 136.641 83.9149 136.595 83.869C136.549 83.8231 136.524 83.7609 136.524 83.696C136.522 83.6636 136.528 83.6312 136.54 83.601C136.552 83.5708 136.57 83.5434 136.593 83.5205C136.616 83.4975 136.643 83.4795 136.673 83.4676C136.704 83.4557 136.736 83.4502 136.768 83.4513H222.313C222.346 83.4502 222.378 83.4557 222.408 83.4676C222.439 83.4795 222.466 83.4975 222.489 83.5205C222.512 83.5434 222.53 83.5708 222.542 83.601C222.554 83.6312 222.559 83.6636 222.558 83.696C222.558 83.7609 222.532 83.8231 222.487 83.869C222.441 83.9149 222.378 83.9407 222.313 83.9407Z" fill="#CCCCCC" fill-opacity="0.48"/>
<path d="M222.313 89.8038H136.768C136.703 89.8038 136.641 89.7781 136.595 89.7322C136.549 89.6863 136.523 89.624 136.523 89.5591C136.523 89.4942 136.549 89.432 136.595 89.3861C136.641 89.3402 136.703 89.3145 136.768 89.3145H222.313C222.378 89.3145 222.44 89.3402 222.486 89.3861C222.532 89.432 222.558 89.4942 222.558 89.5591C222.559 89.5916 222.554 89.6239 222.542 89.6541C222.53 89.6843 222.512 89.7117 222.489 89.7347C222.466 89.7577 222.439 89.7756 222.408 89.7875C222.378 89.7994 222.346 89.805 222.313 89.8038Z" fill="#CCCCCC" fill-opacity="0.48"/>
<path d="M222.313 95.6691H136.768C136.703 95.6691 136.641 95.6433 136.595 95.5974C136.549 95.5515 136.523 95.4893 136.523 95.4244C136.523 95.3595 136.549 95.2972 136.595 95.2514C136.641 95.2055 136.703 95.1797 136.768 95.1797H222.313C222.378 95.1797 222.44 95.2055 222.486 95.2514C222.532 95.2972 222.558 95.3595 222.558 95.4244C222.559 95.4568 222.554 95.4892 222.542 95.5194C222.53 95.5496 222.512 95.577 222.489 95.5999C222.466 95.6229 222.439 95.6409 222.408 95.6528C222.378 95.6647 222.346 95.6702 222.313 95.6691Z" fill="#CCCCCC" fill-opacity="0.48"/>
<path d="M222.313 101.533H136.768C136.705 101.533 136.644 101.509 136.598 101.465C136.552 101.42 136.526 101.36 136.524 101.297C136.522 101.264 136.528 101.231 136.54 101.201C136.552 101.17 136.569 101.142 136.592 101.118C136.615 101.095 136.642 101.076 136.673 101.063C136.703 101.051 136.735 101.044 136.768 101.044H222.313C222.378 101.044 222.441 101.07 222.487 101.116C222.532 101.161 222.558 101.224 222.558 101.289C222.559 101.321 222.554 101.353 222.542 101.384C222.53 101.414 222.512 101.441 222.489 101.464C222.466 101.487 222.439 101.505 222.408 101.517C222.378 101.529 222.346 101.534 222.313 101.533Z" fill="#CCCCCC" fill-opacity="0.48"/>
<path d="M314.921 255.944V228.212C314.921 226.988 314.435 225.814 313.569 224.948C312.703 224.082 311.529 223.596 310.305 223.596H205.257C204.033 223.596 202.859 224.082 201.993 224.948C201.127 225.814 200.641 226.988 200.641 228.212V255.944H314.921Z" fill="#CCCCCC" fill-opacity="0.48"/>
<path d="M314.921 266.335H200.641V302.117H314.921V266.335Z" fill="#CCCCCC" fill-opacity="0.48"/>
<path d="M200.641 312.509V340.241C200.641 341.465 201.127 342.639 201.993 343.505C202.859 344.371 204.033 344.857 205.257 344.857H310.305C311.529 344.857 312.703 344.371 313.569 343.505C314.435 342.639 314.921 341.465 314.921 340.241V312.509H200.641Z" fill="#CCCCCC" fill-opacity="0.48"/>
<path d="M257.209 244.403C259.123 244.403 260.675 242.851 260.675 240.936C260.675 239.022 259.123 237.47 257.209 237.47C255.294 237.47 253.742 239.022 253.742 240.936C253.742 242.851 255.294 244.403 257.209 244.403Z" fill="white"/>
<path d="M257.209 290.576C259.123 290.576 260.675 289.024 260.675 287.109C260.675 285.195 259.123 283.643 257.209 283.643C255.294 283.643 253.742 285.195 253.742 287.109C253.742 289.024 255.294 290.576 257.209 290.576Z" fill="white"/>
<path d="M257.381 335.771C259.295 335.771 260.847 334.219 260.847 332.304C260.847 330.39 259.295 328.838 257.381 328.838C255.466 328.838 253.914 330.39 253.914 332.304C253.914 334.219 255.466 335.771 257.381 335.771Z" fill="white"/>
<path d="M301.961 192.038V223.808H222.361C220.253 223.919 218.143 223.609 216.155 222.897C214.168 222.184 212.342 221.082 210.785 219.656C209.228 218.23 207.97 216.507 207.086 214.59C206.202 212.672 205.708 210.598 205.635 208.488C205.561 206.377 205.908 204.273 206.657 202.299C207.405 200.324 208.539 198.519 209.993 196.987C211.447 195.456 213.192 194.23 215.125 193.38C217.058 192.53 219.141 192.074 221.252 192.038C221.619 192.038 221.986 192.038 222.361 192.038H301.961Z" fill="#F2F2F2"/>
<path d="M303.915 223.563C303.915 223.887 303.786 224.199 303.557 224.428C303.327 224.657 303.016 224.786 302.692 224.786H220.939C218.667 224.909 216.394 224.568 214.259 223.783C212.123 222.999 210.17 221.787 208.518 220.222C206.866 218.657 205.551 216.772 204.652 214.682C203.753 212.592 203.289 210.341 203.289 208.066C203.289 205.79 203.753 203.539 204.652 201.449C205.551 199.359 206.866 197.474 208.518 195.909C210.17 194.344 212.123 193.133 214.259 192.348C216.394 191.563 218.667 191.222 220.939 191.345H302.692C303.016 191.345 303.327 191.474 303.557 191.703C303.786 191.933 303.915 192.244 303.915 192.568C303.915 192.893 303.786 193.204 303.557 193.433C303.327 193.663 303.016 193.792 302.692 193.792H220.939C217.147 193.792 213.51 195.298 210.829 197.98C208.147 200.661 206.641 204.298 206.641 208.09C206.641 211.882 208.147 215.519 210.829 218.2C213.51 220.882 217.147 222.388 220.939 222.388H302.692C303.008 222.388 303.312 222.51 303.54 222.729C303.768 222.948 303.903 223.247 303.915 223.563Z" fill="#3F3D56"/>
<path d="M301.962 199.37H216.417C216.352 199.37 216.289 199.344 216.244 199.299C216.198 199.253 216.172 199.19 216.172 199.126C216.172 199.061 216.198 198.998 216.244 198.953C216.289 198.907 216.352 198.881 216.417 198.881H301.962C302.027 198.881 302.089 198.907 302.135 198.953C302.181 198.998 302.206 199.061 302.206 199.126C302.206 199.19 302.181 199.253 302.135 199.299C302.089 199.344 302.027 199.37 301.962 199.37Z" fill="#CCCCCC" fill-opacity="0.48"/>
<path d="M301.962 205.235H216.417C216.352 205.235 216.289 205.209 216.244 205.163C216.198 205.117 216.172 205.055 216.172 204.99C216.172 204.925 216.198 204.863 216.244 204.817C216.289 204.771 216.352 204.745 216.417 204.745H301.962C301.994 204.745 302.026 204.751 302.055 204.764C302.085 204.776 302.112 204.794 302.135 204.817C302.158 204.84 302.176 204.866 302.188 204.896C302.2 204.926 302.206 204.958 302.206 204.99C302.208 205.022 302.202 205.055 302.19 205.085C302.178 205.115 302.16 205.142 302.137 205.165C302.114 205.188 302.087 205.206 302.057 205.218C302.027 205.23 301.994 205.236 301.962 205.235Z" fill="#CCCCCC" fill-opacity="0.48"/>
<path d="M301.962 211.1H216.417C216.352 211.1 216.289 211.074 216.244 211.028C216.198 210.982 216.172 210.92 216.172 210.855C216.172 210.79 216.198 210.728 216.244 210.682C216.289 210.636 216.352 210.61 216.417 210.61H301.962C302.027 210.61 302.089 210.636 302.135 210.682C302.181 210.728 302.206 210.79 302.206 210.855C302.208 210.888 302.202 210.92 302.19 210.95C302.178 210.98 302.16 211.008 302.137 211.031C302.114 211.054 302.087 211.072 302.057 211.083C302.027 211.095 301.994 211.101 301.962 211.1Z" fill="#CCCCCC" fill-opacity="0.48"/>
<path d="M301.962 216.964H216.417C216.353 216.964 216.292 216.939 216.246 216.895C216.201 216.851 216.174 216.791 216.172 216.727C216.172 216.662 216.197 216.599 216.243 216.551C216.289 216.504 216.351 216.477 216.417 216.475H301.962C302.027 216.477 302.09 216.504 302.135 216.551C302.181 216.599 302.207 216.662 302.206 216.727C302.207 216.759 302.2 216.791 302.188 216.82C302.175 216.849 302.157 216.876 302.134 216.898C302.111 216.92 302.084 216.937 302.055 216.948C302.025 216.96 301.994 216.965 301.962 216.964Z" fill="#CCCCCC" fill-opacity="0.48"/>
<path d="M208.452 66.0032H172.213C171.867 66.0032 171.527 66.0842 171.218 66.2398L162.066 70.8155C161.659 70.9899 161.336 71.3184 161.17 71.7294C161.003 72.1404 161.006 72.6006 161.177 73.0096C161.351 73.4054 161.669 73.7202 162.066 73.8905L171.218 78.4745C171.528 78.6239 171.869 78.702 172.213 78.7029H208.452C208.953 78.7319 209.444 78.5623 209.82 78.2308C210.196 77.8993 210.425 77.4329 210.459 76.9329V67.7732C210.425 67.2732 210.196 66.8067 209.82 66.4753C209.444 66.1438 208.953 65.9741 208.452 66.0032Z" fill="#3F3D56"/>
<path d="M210.476 67.7738V76.9335C210.46 77.1833 210.394 77.4273 210.283 77.6516C210.172 77.8759 210.017 78.076 209.829 78.2405C209.64 78.405 209.421 78.5305 209.183 78.61C208.946 78.6894 208.695 78.7212 208.445 78.7035H201.219V66.0038H208.445C208.695 65.9861 208.946 66.0178 209.183 66.0973C209.421 66.1767 209.64 66.3023 209.829 66.4667C210.017 66.6312 210.172 66.8313 210.283 67.0556C210.394 67.2799 210.46 67.524 210.476 67.7738Z" fill="#5FD068"/>
<path d="M-8.97354 245.594C-4.30371 247.238 0.710696 247.651 5.58652 246.794C10.4623 245.936 15.0352 243.838 18.8645 240.7C28.6523 232.544 31.6702 219.037 34.158 206.557C36.6158 194.246 39.0627 181.938 41.4988 169.633L26.0993 180.236C15.0228 187.863 3.69348 195.734 -3.97362 206.777C-11.6407 217.821 -14.993 232.878 -8.86751 244.86" fill="#E6E6E6"/>
<path d="M-7.65505 290.3C-9.21294 278.946 -10.8198 267.462 -9.7268 255.969C-8.75618 245.773 -5.64855 235.823 0.689036 227.658C4.0469 223.333 8.13504 219.629 12.7688 216.712C13.976 215.945 15.0852 217.862 13.8862 218.62C5.86928 223.685 -0.331518 231.165 -3.8215 239.982C-7.67952 249.77 -8.29941 260.48 -7.63058 270.895C-7.23091 277.2 -6.38264 283.456 -5.51805 289.704C-5.45287 289.993 -5.50124 290.295 -5.65312 290.549C-5.805 290.802 -6.04873 290.988 -6.3337 291.066C-6.61597 291.144 -6.91758 291.107 -7.17274 290.964C-7.42791 290.82 -7.61594 290.581 -7.69583 290.3H-7.65505Z" fill="#F2F2F2"/>
<path d="M7.36719 270.202C9.36869 273.246 12.1208 275.723 15.3581 277.395C18.5954 279.066 22.2088 279.876 25.8498 279.745C35.2134 279.304 42.9784 272.771 50.0338 266.572L70.8083 248.228L57.0646 247.567C47.1708 247.094 37.0323 246.654 27.6116 249.704C18.1908 252.755 9.51234 260.088 7.79948 269.835" fill="#E6E6E6"/>
<path d="M-12.0561 296.824C-4.55214 283.545 4.15082 268.79 19.6971 264.076C24.0303 262.769 28.5732 262.301 33.0819 262.697C34.4929 262.819 34.1422 265.005 32.723 264.883C25.171 264.257 17.6343 266.257 11.3856 270.544C5.37429 274.622 0.700632 280.331 -3.29605 286.359C-5.74299 290.054 -7.89631 293.904 -10.0659 297.778C-10.7674 299.01 -12.7902 298.121 -12.0887 296.881L-12.0561 296.824Z" fill="#F2F2F2"/>
<path d="M-24.0755 310.797C-23.823 307.866 -22.7706 305.061 -21.0331 302.688C-19.2956 300.315 -16.9397 298.464 -14.2225 297.338V289.663H-1.35154V297.583C1.23023 298.766 3.45238 300.612 5.08862 302.933C6.72485 305.254 7.71671 307.967 7.96317 310.797L10.9892 345.984H-27.1016L-24.0755 310.797Z" fill="#F2F2F2"/>
<path d="M413.698 142.79L409.865 141.158L407.238 121.958H372.255L369.409 141.077L365.983 142.79C365.82 142.873 365.69 143.008 365.614 143.174C365.538 143.34 365.519 143.527 365.561 143.705C365.604 143.882 365.704 144.041 365.847 144.154C365.99 144.268 366.167 144.33 366.35 144.331H413.38C413.568 144.331 413.75 144.266 413.895 144.147C414.041 144.028 414.141 143.862 414.178 143.678C414.215 143.494 414.188 143.302 414.101 143.136C414.013 142.97 413.871 142.839 413.698 142.765V142.79Z" fill="#E6E6E6"/>
<path d="M475.859 124.543H304.018C303.117 124.541 302.254 124.181 301.618 123.544C300.982 122.906 300.625 122.042 300.625 121.141V96.9004H479.244V121.133C479.246 122.034 478.891 122.899 478.256 123.538C477.622 124.177 476.76 124.538 475.859 124.543Z" fill="#CCCCCC" fill-opacity="0.48"/>
<path d="M479.439 108.352H300.461V4.6427C300.461 3.56108 300.891 2.52376 301.655 1.75894C302.42 0.994121 303.458 0.564453 304.539 0.564453H475.336C476.418 0.564453 477.455 0.994121 478.22 1.75894C478.985 2.52376 479.414 3.56108 479.414 4.6427L479.439 108.352Z" fill="#3F3D56"/>
<path d="M468.748 100.824H311.157C310.319 100.824 309.515 100.492 308.922 99.8998C308.329 99.3081 307.994 98.5052 307.992 97.6673V11.2575C307.992 10.4182 308.326 9.6132 308.919 9.0197C309.513 8.4262 310.318 8.09277 311.157 8.09277H468.748C469.588 8.09277 470.393 8.4262 470.986 9.0197C471.58 9.6132 471.913 10.4182 471.913 11.2575V97.6673C471.911 98.5052 471.577 99.3081 470.983 99.8998C470.39 100.492 469.586 100.824 468.748 100.824Z" fill="white"/>
<path d="M427.24 131.313C428.258 130.374 429.47 129.669 430.79 129.248C432.11 128.828 433.506 128.701 434.88 128.879C436.254 129.056 437.573 129.532 438.743 130.274C439.913 131.016 440.906 132.006 441.652 133.173L462.933 129.38L468.397 141.77L438.218 146.704C436.174 147.833 433.787 148.172 431.509 147.657C429.232 147.141 427.223 145.807 425.865 143.908C424.506 142.009 423.892 139.677 424.14 137.355C424.387 135.033 425.479 132.883 427.207 131.313H427.24Z" fill="#FFB6B6"/>
<path d="M446.969 147.137L469.195 146.86H472.001L517.221 146.289C517.221 146.289 529.455 134.576 540.189 122.513L538.688 111.673C537.227 101.037 531.951 91.2952 523.844 84.2588C508.526 94.4544 499.627 114.707 499.627 114.707L471.593 121.412L468.787 122.089L451.365 126.248L446.969 147.137Z" fill="#5FD068"/>
<path d="M560.731 213.759H519.255C519.255 215.537 473.905 216.981 473.905 216.981C472.905 217.734 471.994 218.599 471.189 219.558C468.768 222.444 467.444 226.093 467.453 229.86V232.437C467.46 236.704 469.159 240.794 472.177 243.809C475.196 246.825 479.287 248.52 483.554 248.522H560.731C565 248.517 569.092 246.82 572.111 243.801C575.13 240.783 576.827 236.69 576.832 232.421V229.843C576.823 225.577 575.123 221.489 572.105 218.474C569.087 215.459 564.997 213.763 560.731 213.759Z" fill="#E4E4E4"/>
<path d="M530.573 247.895H513.828V344.541H530.573V247.895Z" fill="#E4E4E4"/>
<path d="M466.195 343.953C466.195 345.764 491.562 344.654 522.867 344.654C554.171 344.654 579.538 345.764 579.538 343.953C579.538 342.142 554.163 327.795 522.867 327.795C491.57 327.795 466.195 342.142 466.195 343.953Z" fill="#E4E4E4"/>
<path d="M454.932 332.909H442.469L436.539 284.843H454.932V332.909Z" fill="#FFB6B6"/>
<path d="M458.101 344.988H417.922V344.482C417.922 340.333 419.57 336.354 422.504 333.42C425.438 330.486 429.417 328.838 433.566 328.838H458.109L458.101 344.988Z" fill="#2F2E41"/>
<path d="M418.096 332.909H405.633L399.711 284.843H418.096V332.909Z" fill="#FFB6B6"/>
<path d="M421.273 344.988H381.086V344.482C381.088 340.334 382.737 336.356 385.67 333.422C388.604 330.489 392.582 328.84 396.73 328.838H421.273V344.988Z" fill="#2F2E41"/>
<path d="M529.726 56.1915C541.691 56.1915 551.39 46.4924 551.39 34.5279C551.39 22.5634 541.691 12.8643 529.726 12.8643C517.762 12.8643 508.062 22.5634 508.062 34.5279C508.062 46.4924 517.762 56.1915 529.726 56.1915Z" fill="#FFB6B6"/>
<path d="M564.788 182.976C564.788 182.976 572.056 221.417 544.397 226.311C516.738 231.205 476.796 234.655 476.796 234.655L458.852 318.308L434.766 316.155C434.766 316.155 437.963 215.455 445.842 207.575C453.721 199.696 503.525 176.1 503.525 176.1L564.788 182.976Z" fill="#2F2E41"/>
<path d="M510.765 166.867L498.66 179.004C498.66 179.004 411.313 193.074 407.944 213.261C402.854 243.709 396.859 309.948 396.859 309.948L423.123 307.974L433.425 232.682L475.447 223.122L523.252 197.071L510.765 166.867Z" fill="#2F2E41"/>
<path d="M550.567 21.5929C548.43 17.5555 545.673 9.51316 541.391 8.02052C538.993 7.22824 536.515 6.70038 534.001 6.44633L526.661 9.26847L530.649 6.169C529.874 6.12006 529.099 6.07928 528.325 6.05481L523.374 7.95527L525.902 5.98956C521.285 5.94062 516.522 6.42185 512.95 9.25215C509.899 11.6502 506.873 20.7202 506.424 24.57C505.901 28.2494 506.084 31.9948 506.963 35.6058L508.211 36.7966C508.653 35.7917 508.984 34.7415 509.198 33.6645C509.646 31.6541 510.509 29.7592 511.731 28.1007C512.953 26.4421 514.507 25.0564 516.294 24.0317H516.367C518.463 22.849 521.016 22.898 523.431 22.9877L534.85 23.4037C537.607 23.5015 540.559 23.6728 542.721 25.402C544.085 26.6677 545.161 28.2114 545.877 29.9288C546.946 32.0822 549.026 40.206 549.026 40.206C549.026 40.206 550.208 38.6726 550.771 39.8145C551.676 36.8367 552.223 33.7619 552.402 30.6548C552.593 27.5257 551.96 24.4014 550.567 21.5929Z" fill="#2F2E41"/>
<path d="M626.347 44.0387C625.105 44.1207 623.891 44.4464 622.775 44.9974C621.659 45.5484 620.662 46.3138 619.842 47.2499C619.022 48.1861 618.394 49.2746 617.994 50.4534C617.595 51.6322 617.431 52.8782 617.513 54.1202C617.553 54.6699 617.638 55.2154 617.766 55.7515L600.344 68.6061L605.572 81.0937L629.927 62.6029C632.151 61.896 634.038 60.3975 635.23 58.3917C636.423 56.3859 636.837 54.0123 636.396 51.7211C635.954 49.4299 634.687 47.3804 632.835 45.9613C630.983 44.5422 628.674 43.8523 626.347 44.0224V44.0387Z" fill="#FFB6B6"/>
<path d="M623.54 70.2772L579.863 118.784C579.863 118.784 558.974 112.104 542.816 104.852L535.565 82.5608C533.877 77.3917 533.158 71.9553 533.444 66.5252C555.834 60.5628 581.885 82.7321 581.885 82.7321L614.577 57.1289L623.54 70.2772Z" fill="#5FD068"/>
<path d="M521.652 186.532C513.863 183.833 505.804 181.051 497.117 180.007L496.742 179.966L496.84 179.599C505.812 148.009 503.594 127.806 499.189 97.4472C498.256 90.9053 499.462 84.2369 502.628 78.4366C505.795 72.6364 510.751 68.015 516.758 65.2617H516.815L541.635 63.6875H541.693L559.751 68.9974C562.347 69.7675 564.619 71.3676 566.219 73.5523C567.819 75.737 568.658 78.386 568.609 81.0934C568.421 91.077 568.829 102.227 569.27 114.021C570.257 140.497 571.276 167.854 565.493 185.627V185.725L565.42 185.782C560.107 190.112 553.449 192.452 546.595 192.397C538.422 192.364 530.159 189.509 521.652 186.532Z" fill="#5FD068"/>
<path d="M701.845 347.084H-94.6275C-94.7872 347.097 -94.948 347.077 -95.0996 347.026C-95.2513 346.974 -95.3905 346.891 -95.5085 346.782C-95.6265 346.674 -95.7207 346.542 -95.7851 346.395C-95.8495 346.249 -95.8828 346.09 -95.8828 345.93C-95.8828 345.769 -95.8495 345.611 -95.7851 345.464C-95.7207 345.317 -95.6265 345.186 -95.5085 345.077C-95.3905 344.969 -95.2513 344.886 -95.0996 344.834C-94.948 344.782 -94.7872 344.762 -94.6275 344.776H701.845C702.005 344.762 702.166 344.782 702.317 344.834C702.469 344.886 702.608 344.969 702.726 345.077C702.844 345.186 702.938 345.317 703.003 345.464C703.067 345.611 703.1 345.769 703.1 345.93C703.1 346.09 703.067 346.249 703.003 346.395C702.938 346.542 702.844 346.674 702.726 346.782C702.608 346.891 702.469 346.974 702.317 347.026C702.166 347.077 702.005 347.097 701.845 347.084Z" fill="#CCCCCC" fill-opacity="0.48"/>
<g filter="url(#filter0_d_1841_2516)">
<path d="M360.84 62.0207C360.074 61.8286 359.959 61.6023 360.582 61.5152L386.44 57.9048C387.064 57.8178 388.19 57.9029 388.956 58.095L417.353 65.2186C418.119 65.4107 418.234 65.637 417.61 65.7241L391.752 69.3344C391.129 69.4215 390.002 69.3364 389.237 69.1443L360.84 62.0207Z" fill="#4BCF56"/>
</g>
<path d="M410.227 66.7695L400.15 68.1725C399.058 67.8979 398.894 67.5748 399.784 67.4509L406.638 66.4965C407.527 66.3726 409.134 66.4949 410.227 66.7695Z" fill="white"/>
<path d="M410.227 66.7695L400.15 68.1725C399.058 67.8979 398.894 67.5748 399.784 67.4509L406.638 66.4965C407.527 66.3726 409.134 66.4949 410.227 66.7695Z" stroke="white"/>
<path d="M368.484 60.3906L378.54 58.9825C379.636 59.2567 379.801 59.5803 378.909 59.7052L372.084 60.6609C371.192 60.7858 369.58 60.6648 368.484 60.3906Z" fill="white"/>
<path d="M368.484 60.3906L378.54 58.9825C379.636 59.2567 379.801 59.5803 378.909 59.7052L372.084 60.6609C371.192 60.7858 369.58 60.6648 368.484 60.3906Z" stroke="white"/>
<rect x="0.931918" y="0.0708889" width="29.8518" height="1.44974" transform="matrix(-0.914038 0.127272 -1.12223 -0.282166 404.48 61.8131)" fill="white" stroke="white" stroke-width="0.915319"/>
<path d="M410.219 66.7705L400.143 68.1735C399.05 67.8988 398.886 67.5757 399.776 67.4519L406.63 66.4975C407.519 66.3736 409.126 66.4958 410.219 66.7705Z" fill="white"/>
<path d="M410.219 66.7705L400.143 68.1735C399.05 67.8988 398.886 67.5757 399.776 67.4519L406.63 66.4975C407.519 66.3736 409.126 66.4958 410.219 66.7705Z" stroke="white"/>
<path d="M368.477 60.3896L378.532 58.9815C379.628 59.2557 379.793 59.5793 378.901 59.7042L372.076 60.6599C371.184 60.7849 369.572 60.6639 368.477 60.3896Z" fill="white"/>
<path d="M368.477 60.3896L378.532 58.9815C379.628 59.2557 379.793 59.5793 378.901 59.7042L372.076 60.6599C371.184 60.7849 369.572 60.6639 368.477 60.3896Z" stroke="white"/>
<rect x="0.931918" y="0.0708889" width="29.8518" height="1.44974" transform="matrix(-0.914038 0.127272 -1.12223 -0.282166 404.48 61.8121)" fill="white" stroke="white" stroke-width="0.915319"/>
<path d="M385.174 64.2095C383.245 63.7551 383.477 63.1166 385.692 62.7833C387.907 62.45 391.266 62.5481 393.195 63.0025C395.124 63.4569 394.892 64.0954 392.677 64.4287C390.462 64.762 387.103 64.6638 385.174 64.2095Z" fill="white"/>
<path d="M385.174 64.2095C383.245 63.7551 383.477 63.1166 385.692 62.7833C387.907 62.45 391.266 62.5481 393.195 63.0025C395.124 63.4569 394.892 64.0954 392.677 64.4287C390.462 64.762 387.103 64.6638 385.174 64.2095Z" stroke="white"/>
<rect width="27.6122" height="2.26921" transform="matrix(0.990393 -0.138281 0.969946 0.243318 366.984 63.5537)" fill="#5BD265"/>
<rect width="28.0206" height="2.26921" transform="matrix(0.990393 -0.138281 0.969946 0.243318 367.266 63.5127)" fill="#5BD265"/>
<rect width="28.2638" height="2.26921" transform="matrix(0.990393 -0.138281 0.969946 0.243318 384.078 67.8203)" fill="#5BD265"/>
<path d="M384.545 53.5223C384.278 53.5223 384.064 53.451 383.904 53.3085C383.743 53.166 383.663 52.9701 383.663 52.7207V45.4135H381.085C380.827 45.4135 380.622 45.3557 380.471 45.2399C380.328 45.1152 380.257 44.946 380.257 44.7323C380.257 44.5096 380.328 44.3404 380.471 44.2246C380.613 44.0999 380.818 44.0376 381.085 44.0376H388.018C388.285 44.0376 388.49 44.0999 388.633 44.2246C388.775 44.3404 388.846 44.5096 388.846 44.7323C388.846 44.946 388.771 45.1152 388.619 45.2399C388.477 45.3557 388.276 45.4135 388.018 45.4135H385.44V52.7207C385.44 52.9612 385.355 53.1571 385.186 53.3085C385.026 53.451 384.812 53.5223 384.545 53.5223ZM394.581 53.5223C393.744 53.5223 393.01 53.353 392.377 53.0146C391.754 52.6762 391.269 52.1953 390.921 51.5719C390.583 50.9396 390.414 50.196 390.414 49.341V44.7055C390.414 44.4562 390.494 44.2602 390.654 44.1178C390.814 43.9753 391.028 43.904 391.295 43.904C391.562 43.904 391.776 43.9797 391.936 44.1311C392.106 44.2736 392.19 44.4651 392.19 44.7055V49.3811C392.19 50.2627 392.4 50.9396 392.818 51.4116C393.237 51.8836 393.838 52.1196 394.622 52.1196C395.396 52.1196 395.993 51.8836 396.412 51.4116C396.839 50.9307 397.053 50.2538 397.053 49.3811V44.7055C397.053 44.4651 397.133 44.2736 397.293 44.1311C397.462 43.9797 397.681 43.904 397.948 43.904C398.215 43.904 398.429 43.9753 398.589 44.1178C398.749 44.2602 398.83 44.4562 398.83 44.7055V49.341C398.83 50.1692 398.651 50.8995 398.295 51.5318C397.948 52.1641 397.454 52.6539 396.812 53.0013C396.171 53.3486 395.428 53.5223 394.581 53.5223ZM400.799 46.0147C400.799 45.3913 400.977 44.9059 401.333 44.5586C401.698 44.2113 402.202 44.0376 402.843 44.0376H405.221C406.548 44.0376 407.549 44.2959 408.226 44.8124C408.903 45.3289 409.242 46.0993 409.242 47.1235C409.242 48.0764 408.957 48.82 408.387 49.3544C407.826 49.8887 407.069 50.1559 406.116 50.1559L408.146 52.173C408.306 52.3333 408.387 52.5159 408.387 52.7207C408.387 52.9345 408.293 53.1215 408.106 53.2818C407.91 53.4332 407.719 53.5089 407.532 53.5089C407.273 53.5089 407.037 53.3931 406.824 53.1616L403.938 50.2093H402.576V52.7207C402.576 52.9701 402.491 53.166 402.322 53.3085C402.153 53.451 401.939 53.5223 401.681 53.5223C401.413 53.5223 401.2 53.451 401.039 53.3085C400.879 53.166 400.799 52.9701 400.799 52.7207V46.0147ZM405.167 48.8334C405.755 48.8334 406.214 48.7755 406.543 48.6597C406.873 48.5439 407.104 48.3658 407.238 48.1254C407.38 47.876 407.451 47.542 407.451 47.1235C407.451 46.5179 407.264 46.0815 406.89 45.8143C406.525 45.5471 405.951 45.4135 405.167 45.4135H403.15C402.972 45.4135 402.829 45.4714 402.723 45.5872C402.625 45.703 402.576 45.8633 402.576 46.0681V48.8334H405.167ZM412.025 53.5223C411.758 53.5223 411.544 53.451 411.384 53.3085C411.224 53.166 411.143 52.9701 411.143 52.7207V46.0147C411.143 45.3913 411.322 44.9059 411.678 44.5586C412.043 44.2113 412.546 44.0376 413.187 44.0376H417.342C417.609 44.0376 417.814 44.0999 417.956 44.2246C418.099 44.3404 418.17 44.5096 418.17 44.7323C418.17 44.946 418.094 45.1152 417.943 45.2399C417.801 45.3557 417.6 45.4135 417.342 45.4135H413.495C413.317 45.4135 413.174 45.4714 413.067 45.5872C412.969 45.703 412.92 45.8633 412.92 46.0681V48.0586H416.327C416.594 48.0586 416.799 48.1209 416.941 48.2456C417.084 48.3614 417.155 48.5306 417.155 48.7532C417.155 48.967 417.079 49.1362 416.928 49.2608C416.785 49.3766 416.585 49.4345 416.327 49.4345H412.92V52.7207C412.92 52.9612 412.836 53.1571 412.666 53.3085C412.506 53.451 412.292 53.5223 412.025 53.5223Z" fill="#28B533"/>
<path d="M383.904 53.3085L384.04 53.1547L383.904 53.3085ZM383.663 45.4135H383.869V45.2078H383.663V45.4135ZM380.471 45.2399L380.335 45.3951L380.346 45.4034L380.471 45.2399ZM380.471 44.2246L380.6 44.3845L380.606 44.3795L380.471 44.2246ZM388.633 44.2246L388.497 44.3796L388.503 44.3843L388.633 44.2246ZM388.619 45.2399L388.749 45.3996L388.75 45.3987L388.619 45.2399ZM385.44 45.4135V45.2078H385.234V45.4135H385.44ZM385.186 53.3085L385.323 53.4623L385.323 53.4619L385.186 53.3085ZM384.545 53.3165C384.315 53.3165 384.154 53.2561 384.04 53.1547L383.767 53.4623C383.974 53.646 384.24 53.7281 384.545 53.7281V53.3165ZM384.04 53.1547C383.931 53.0578 383.869 52.9219 383.869 52.7207H383.457C383.457 53.0183 383.555 53.2743 383.767 53.4623L384.04 53.1547ZM383.869 52.7207V45.4135H383.457V52.7207H383.869ZM383.663 45.2078H381.085V45.6193H383.663V45.2078ZM381.085 45.2078C380.856 45.2078 380.7 45.1564 380.596 45.0764L380.346 45.4034C380.544 45.5549 380.797 45.6193 381.085 45.6193V45.2078ZM380.606 45.085C380.514 45.0047 380.463 44.8952 380.463 44.7323H380.051C380.051 44.9968 380.142 45.2257 380.335 45.3948L380.606 45.085ZM380.463 44.7323C380.463 44.557 380.516 44.4527 380.6 44.3843L380.341 44.0649C380.14 44.2281 380.051 44.4622 380.051 44.7323H380.463ZM380.606 44.3795C380.698 44.2989 380.847 44.2434 381.085 44.2434V43.8318C380.788 43.8318 380.528 43.901 380.335 44.0698L380.606 44.3795ZM381.085 44.2434H388.018V43.8318H381.085V44.2434ZM388.018 44.2434C388.256 44.2434 388.405 44.2989 388.497 44.3795L388.768 44.0698C388.575 43.901 388.315 43.8318 388.018 43.8318V44.2434ZM388.503 44.3843C388.587 44.4527 388.641 44.557 388.641 44.7323H389.052C389.052 44.4622 388.963 44.2281 388.762 44.0649L388.503 44.3843ZM388.641 44.7323C388.641 44.8908 388.588 44.9993 388.488 45.081L388.75 45.3987C388.954 45.2311 389.052 45.0012 389.052 44.7323H388.641ZM388.49 45.0802C388.396 45.1561 388.248 45.2078 388.018 45.2078V45.6193C388.305 45.6193 388.558 45.5553 388.749 45.3996L388.49 45.0802ZM388.018 45.2078H385.44V45.6193H388.018V45.2078ZM385.234 45.4135V52.7207H385.646V45.4135H385.234ZM385.234 52.7207C385.234 52.9066 385.172 53.0453 385.049 53.1552L385.323 53.4619C385.539 53.2689 385.646 53.0158 385.646 52.7207H385.234ZM385.049 53.1547C384.935 53.2561 384.775 53.3165 384.545 53.3165V53.7281C384.85 53.7281 385.116 53.646 385.323 53.4623L385.049 53.1547ZM392.377 53.0146L392.279 53.1955L392.28 53.1961L392.377 53.0146ZM390.921 51.5719L390.74 51.669L390.741 51.6721L390.921 51.5719ZM390.654 44.1178L390.791 44.2716L390.791 44.2716L390.654 44.1178ZM391.936 44.1311L391.795 44.281L391.804 44.2885L391.936 44.1311ZM392.818 51.4116L392.664 51.5481L392.818 51.4116ZM396.412 51.4116L396.258 51.2749L396.258 51.275L396.412 51.4116ZM397.293 44.1311L397.43 44.2849L397.43 44.2845L397.293 44.1311ZM398.589 44.1178L398.452 44.2716V44.2716L398.589 44.1178ZM398.295 51.5318L398.116 51.4308L398.115 51.4327L398.295 51.5318ZM396.812 53.0013L396.714 52.8203L396.812 53.0013ZM394.581 53.3165C393.773 53.3165 393.072 53.1531 392.474 52.8332L392.28 53.1961C392.947 53.553 393.716 53.7281 394.581 53.7281V53.3165ZM392.475 52.8338C391.887 52.5141 391.429 52.0613 391.101 51.4717L390.741 51.6721C391.108 52.3293 391.621 52.8383 392.279 53.1955L392.475 52.8338ZM391.103 51.4748C390.783 50.8776 390.619 50.1686 390.619 49.341H390.208C390.208 50.2233 390.383 51.0016 390.74 51.669L391.103 51.4748ZM390.619 49.341V44.7055H390.208V49.341H390.619ZM390.619 44.7055C390.619 44.5044 390.682 44.3685 390.791 44.2716L390.517 43.9639C390.306 44.152 390.208 44.4079 390.208 44.7055H390.619ZM390.791 44.2716C390.905 44.1702 391.066 44.1098 391.295 44.1098V43.6982C390.991 43.6982 390.724 43.7803 390.517 43.9639L390.791 44.2716ZM391.295 44.1098C391.522 44.1098 391.681 44.1728 391.795 44.2807L392.078 43.9815C391.871 43.7867 391.603 43.6982 391.295 43.6982V44.1098ZM391.804 44.2885C391.922 44.3882 391.984 44.5198 391.984 44.7055H392.396C392.396 44.4104 392.289 44.159 392.069 43.9737L391.804 44.2885ZM391.984 44.7055V49.3811H392.396V44.7055H391.984ZM391.984 49.3811C391.984 50.2931 392.201 51.0258 392.664 51.5481L392.972 51.275C392.598 50.8533 392.396 50.2324 392.396 49.3811H391.984ZM392.664 51.5481C393.131 52.0745 393.794 52.3254 394.622 52.3254V51.9138C393.881 51.9138 393.342 51.6927 392.972 51.275L392.664 51.5481ZM394.622 52.3254C395.441 52.3254 396.099 52.074 396.566 51.5481L396.258 51.275C395.887 51.6932 395.352 51.9138 394.622 51.9138V52.3254ZM396.565 51.5483C397.037 51.0181 397.259 50.2861 397.259 49.3811H396.847C396.847 50.2216 396.641 50.8433 396.258 51.2749L396.565 51.5483ZM397.259 49.3811V44.7055H396.847V49.3811H397.259ZM397.259 44.7055C397.259 44.5159 397.319 44.3834 397.43 44.2849L397.157 43.9773C396.947 44.1638 396.847 44.4142 396.847 44.7055H397.259ZM397.43 44.2845C397.555 44.1727 397.722 44.1098 397.948 44.1098V43.6982C397.64 43.6982 397.37 43.7868 397.156 43.9778L397.43 44.2845ZM397.948 44.1098C398.177 44.1098 398.338 44.1702 398.452 44.2716L398.726 43.9639C398.519 43.7803 398.253 43.6982 397.948 43.6982V44.1098ZM398.452 44.2716C398.561 44.3685 398.624 44.5044 398.624 44.7055H399.035C399.035 44.4079 398.937 44.152 398.726 43.9639L398.452 44.2716ZM398.624 44.7055V49.341H399.035V44.7055H398.624ZM398.624 49.341C398.624 50.1389 398.452 50.8335 398.116 51.4308L398.474 51.6328C398.85 50.9656 399.035 50.1996 399.035 49.341H398.624ZM398.115 51.4327C397.787 52.03 397.321 52.4916 396.714 52.8203L396.91 53.1822C397.586 52.8163 398.109 52.2982 398.476 51.6309L398.115 51.4327ZM396.714 52.8203C396.108 53.1489 395.399 53.3165 394.581 53.3165V53.7281C395.456 53.7281 396.235 53.5483 396.91 53.1822L396.714 52.8203ZM401.333 44.5586L401.191 44.4095L401.19 44.4112L401.333 44.5586ZM408.226 44.8124L408.101 44.976L408.226 44.8124ZM408.387 49.3544L408.246 49.2042L408.245 49.2053L408.387 49.3544ZM406.116 50.1559V49.9501H405.616L405.971 50.3019L406.116 50.1559ZM408.146 52.173L408.292 52.0275L408.291 52.027L408.146 52.173ZM408.106 53.2818L408.232 53.4449L408.24 53.4381L408.106 53.2818ZM406.824 53.1616L406.975 53.0219L406.971 53.0177L406.824 53.1616ZM403.938 50.2093L404.085 50.0655L404.025 50.0035H403.938V50.2093ZM402.576 50.2093V50.0035H402.37V50.2093H402.576ZM402.322 53.3085L402.189 53.1511L402.322 53.3085ZM401.039 53.3085L400.903 53.4623L401.039 53.3085ZM406.543 48.6597L406.611 48.8539L406.543 48.6597ZM407.238 48.1254L407.059 48.0232L407.058 48.0254L407.238 48.1254ZM406.89 45.8143L406.769 45.9804L406.771 45.9818L406.89 45.8143ZM402.723 45.5872L402.571 45.4475L402.565 45.4543L402.723 45.5872ZM402.576 48.8334H402.37V49.0392H402.576V48.8334ZM401.005 46.0147C401.005 45.4319 401.17 45.0053 401.477 44.7059L401.19 44.4112C400.784 44.8066 400.593 45.3507 400.593 46.0147H401.005ZM401.475 44.7077C401.792 44.4059 402.239 44.2434 402.843 44.2434V43.8318C402.164 43.8318 401.604 44.0166 401.191 44.4095L401.475 44.7077ZM402.843 44.2434H405.221V43.8318H402.843V44.2434ZM405.221 44.2434C406.526 44.2434 407.476 44.4984 408.101 44.976L408.351 44.6488C407.623 44.0934 406.569 43.8318 405.221 43.8318V44.2434ZM408.101 44.976C408.717 45.4455 409.036 46.1489 409.036 47.1235H409.447C409.447 46.0497 409.09 45.2123 408.351 44.6488L408.101 44.976ZM409.036 47.1235C409.036 48.0329 408.765 48.7171 408.246 49.2042L408.527 49.5045C409.148 48.9229 409.447 48.1198 409.447 47.1235H409.036ZM408.245 49.2053C407.73 49.6953 407.029 49.9501 406.116 49.9501V50.3617C407.109 50.3617 407.921 50.0821 408.529 49.5034L408.245 49.2053ZM405.971 50.3019L408.001 52.319L408.291 52.027L406.261 50.0099L405.971 50.3019ZM408.001 52.3186C408.127 52.4448 408.181 52.5766 408.181 52.7207H408.592C408.592 52.4553 408.486 52.2219 408.292 52.0275L408.001 52.3186ZM408.181 52.7207C408.181 52.8649 408.121 52.9977 407.972 53.1256L408.24 53.4381C408.465 53.2453 408.592 53.004 408.592 52.7207H408.181ZM407.98 53.119C407.809 53.2515 407.66 53.3031 407.532 53.3031V53.7147C407.777 53.7147 408.012 53.6149 408.232 53.4446L407.98 53.119ZM407.532 53.3031C407.343 53.3031 407.159 53.2214 406.975 53.022L406.672 53.3012C406.916 53.5649 407.204 53.7147 407.532 53.7147V53.3031ZM406.971 53.0177L404.085 50.0655L403.791 50.3532L406.676 53.3054L406.971 53.0177ZM403.938 50.0035H402.576V50.4151H403.938V50.0035ZM402.37 50.2093V52.7207H402.781V50.2093H402.37ZM402.37 52.7207C402.37 52.9181 402.306 53.053 402.189 53.1511L402.454 53.4659C402.676 53.2791 402.781 53.0221 402.781 52.7207H402.37ZM402.189 53.1511C402.063 53.2573 401.899 53.3165 401.681 53.3165V53.7281C401.979 53.7281 402.242 53.6448 402.454 53.4659L402.189 53.1511ZM401.681 53.3165C401.451 53.3165 401.29 53.2561 401.176 53.1547L400.903 53.4623C401.109 53.646 401.376 53.7281 401.681 53.7281V53.3165ZM401.176 53.1547C401.067 53.0578 401.005 52.9219 401.005 52.7207H400.593C400.593 53.0183 400.691 53.2743 400.903 53.4623L401.176 53.1547ZM401.005 52.7207V46.0147H400.593V52.7207H401.005ZM405.167 49.0392C405.765 49.0392 406.25 48.9808 406.611 48.8539L406.475 48.4655C406.177 48.5701 405.745 48.6276 405.167 48.6276V49.0392ZM406.611 48.8539C406.975 48.726 407.254 48.5206 407.418 48.2253L407.058 48.0254C406.955 48.211 406.77 48.3618 406.475 48.4655L406.611 48.8539ZM407.416 48.2275C407.583 47.936 407.657 47.5625 407.657 47.1235H407.246C407.246 47.5215 407.177 47.816 407.059 48.0233L407.416 48.2275ZM407.657 47.1235C407.657 46.4746 407.455 45.9644 407.01 45.6468L406.771 45.9818C407.074 46.1986 407.246 46.5611 407.246 47.1235H407.657ZM407.012 45.6482C406.594 45.3424 405.966 45.2078 405.167 45.2078V45.6193C405.936 45.6193 406.457 45.7519 406.769 45.9804L407.012 45.6482ZM405.167 45.2078H403.15V45.6193H405.167V45.2078ZM403.15 45.2078C402.923 45.2078 402.722 45.2839 402.571 45.4476L402.874 45.7268C402.936 45.6589 403.021 45.6193 403.15 45.6193V45.2078ZM402.565 45.4543C402.426 45.6185 402.37 45.8317 402.37 46.0681H402.781C402.781 45.8948 402.823 45.7875 402.88 45.7201L402.565 45.4543ZM402.37 46.0681V48.8334H402.781V46.0681H402.37ZM402.576 49.0392H405.167V48.6276H402.576V49.0392ZM411.384 53.3085L411.247 53.4623L411.384 53.3085ZM411.678 44.5586L411.536 44.4095L411.534 44.4112L411.678 44.5586ZM417.956 44.2246L417.821 44.3796L417.827 44.3843L417.956 44.2246ZM417.943 45.2399L418.073 45.3996L418.074 45.3987L417.943 45.2399ZM413.067 45.5872L412.916 45.4475L412.91 45.4543L413.067 45.5872ZM412.92 48.0586H412.714V48.2644H412.92V48.0586ZM416.941 48.2456L416.806 48.4006L416.811 48.4053L416.941 48.2456ZM416.928 49.2608L417.058 49.4206L417.059 49.4197L416.928 49.2608ZM412.92 49.4345V49.2287H412.714V49.4345H412.92ZM412.666 53.3085L412.803 53.4623L412.804 53.4619L412.666 53.3085ZM412.025 53.3165C411.796 53.3165 411.635 53.2561 411.521 53.1547L411.247 53.4623C411.454 53.646 411.72 53.7281 412.025 53.7281V53.3165ZM411.521 53.1547C411.412 53.0578 411.349 52.9219 411.349 52.7207H410.938C410.938 53.0183 411.036 53.2743 411.247 53.4623L411.521 53.1547ZM411.349 52.7207V46.0147H410.938V52.7207H411.349ZM411.349 46.0147C411.349 45.4319 411.515 45.0053 411.822 44.7059L411.534 44.4112C411.129 44.8066 410.938 45.3507 410.938 46.0147H411.349ZM411.82 44.7077C412.137 44.4059 412.584 44.2434 413.187 44.2434V43.8318C412.508 43.8318 411.949 44.0166 411.536 44.4095L411.82 44.7077ZM413.187 44.2434H417.342V43.8318H413.187V44.2434ZM417.342 44.2434C417.58 44.2434 417.729 44.2989 417.821 44.3795L418.092 44.0698C417.899 43.901 417.639 43.8318 417.342 43.8318V44.2434ZM417.827 44.3843C417.911 44.4527 417.964 44.557 417.964 44.7323H418.376C418.376 44.4622 418.287 44.2281 418.086 44.0649L417.827 44.3843ZM417.964 44.7323C417.964 44.8908 417.912 44.9993 417.812 45.081L418.074 45.3987C418.277 45.2311 418.376 45.0012 418.376 44.7323H417.964ZM417.813 45.0802C417.72 45.1561 417.572 45.2078 417.342 45.2078V45.6193C417.629 45.6193 417.881 45.5553 418.073 45.3996L417.813 45.0802ZM417.342 45.2078H413.495V45.6193H417.342V45.2078ZM413.495 45.2078C413.267 45.2078 413.067 45.2839 412.916 45.4476L413.218 45.7268C413.281 45.6589 413.366 45.6193 413.495 45.6193V45.2078ZM412.91 45.4543C412.771 45.6185 412.714 45.8317 412.714 46.0681H413.126C413.126 45.8948 413.167 45.7875 413.224 45.7201L412.91 45.4543ZM412.714 46.0681V48.0586H413.126V46.0681H412.714ZM412.92 48.2644H416.327V47.8528H412.92V48.2644ZM416.327 48.2644C416.564 48.2644 416.714 48.3199 416.806 48.4005L417.077 48.0907C416.884 47.9219 416.623 47.8528 416.327 47.8528V48.2644ZM416.811 48.4053C416.896 48.4737 416.949 48.578 416.949 48.7532H417.361C417.361 48.4832 417.272 48.2491 417.071 48.0859L416.811 48.4053ZM416.949 48.7532C416.949 48.9117 416.896 49.0202 416.797 49.102L417.059 49.4197C417.262 49.2521 417.361 49.0222 417.361 48.7532H416.949ZM416.798 49.1011C416.705 49.177 416.557 49.2287 416.327 49.2287V49.6403C416.613 49.6403 416.866 49.5762 417.058 49.4206L416.798 49.1011ZM416.327 49.2287H412.92V49.6403H416.327V49.2287ZM412.714 49.4345V52.7207H413.126V49.4345H412.714ZM412.714 52.7207C412.714 52.9066 412.652 53.0453 412.529 53.1552L412.804 53.4619C413.019 53.2689 413.126 53.0158 413.126 52.7207H412.714ZM412.53 53.1547C412.416 53.2561 412.255 53.3165 412.025 53.3165V53.7281C412.33 53.7281 412.597 53.646 412.803 53.4623L412.53 53.1547Z" fill="#28B533"/>
<path d="M363.13 53.293C362.454 53.293 361.928 53.1149 361.554 52.7586C361.18 52.4024 360.993 51.9037 360.993 51.2625V45.919C360.993 45.2956 361.171 44.8102 361.527 44.4629C361.892 44.1156 362.396 43.9419 363.037 43.9419H367.191C367.459 43.9419 367.663 44.0042 367.806 44.1289C367.948 44.2447 368.02 44.4139 368.02 44.6366C368.02 44.8503 367.944 45.0195 367.793 45.1442C367.65 45.26 367.45 45.3178 367.191 45.3178H363.344C363.166 45.3178 363.024 45.3757 362.917 45.4915C362.819 45.6073 362.77 45.7676 362.77 45.9724V47.8293H366.176C366.443 47.8293 366.648 47.8916 366.791 48.0163C366.933 48.1321 367.004 48.3013 367.004 48.5239C367.004 48.7377 366.929 48.9069 366.777 49.0316C366.635 49.1473 366.434 49.2052 366.176 49.2052H362.77V51.2625C362.77 51.4673 362.819 51.6276 362.917 51.7434C363.024 51.8591 363.166 51.917 363.344 51.917H367.485C367.752 51.917 367.957 51.9794 368.1 52.104C368.242 52.2198 368.314 52.389 368.314 52.6117C368.314 52.8254 368.238 52.9946 368.086 53.1193C367.944 53.2351 367.744 53.293 367.485 53.293H363.13ZM371.031 53.4266C370.763 53.4266 370.55 53.3553 370.389 53.2128C370.229 53.0703 370.149 52.8744 370.149 52.625V47.5888C370.149 46.4043 370.519 45.4781 371.258 44.8102C371.997 44.1423 373.021 43.8083 374.33 43.8083C375.639 43.8083 376.663 44.1423 377.403 44.8102C378.142 45.4781 378.511 46.4043 378.511 47.5888V52.625C378.511 52.8744 378.431 53.0703 378.271 53.2128C378.111 53.3553 377.897 53.4266 377.63 53.4266C377.363 53.4266 377.144 53.3553 376.975 53.2128C376.815 53.0614 376.735 52.8655 376.735 52.625V47.5487C376.735 46.7918 376.53 46.2129 376.12 45.8121C375.711 45.4114 375.114 45.211 374.33 45.211C373.546 45.211 372.95 45.4114 372.54 45.8121C372.13 46.2129 371.926 46.7918 371.926 47.5487V52.625C371.926 52.8655 371.841 53.0614 371.672 53.2128C371.511 53.3553 371.298 53.4266 371.031 53.4266Z" fill="black"/>
<path d="M361.554 52.7586L361.696 52.6098L361.554 52.7586ZM361.527 44.4629L361.386 44.314L361.384 44.3157L361.527 44.4629ZM367.806 44.1289L367.671 44.2837L367.676 44.2884L367.806 44.1289ZM367.793 45.1442L367.922 45.3037L367.923 45.3028L367.793 45.1442ZM362.917 45.4915L362.765 45.352L362.76 45.3588L362.917 45.4915ZM362.77 47.8293H362.564V48.0348H362.77V47.8293ZM366.791 48.0163L366.655 48.1711L366.661 48.1758L366.791 48.0163ZM366.777 49.0316L366.907 49.1911L366.908 49.1902L366.777 49.0316ZM362.77 49.2052V48.9997H362.564V49.2052H362.77ZM362.917 51.7434L362.76 51.8762L362.766 51.8828L362.917 51.7434ZM368.1 52.104L367.964 52.2588L367.97 52.2636L368.1 52.104ZM368.086 53.1193L368.216 53.2788L368.217 53.278L368.086 53.1193ZM363.13 53.0875C362.489 53.0875 362.021 52.9194 361.696 52.6098L361.412 52.9074C361.835 53.3103 362.418 53.4985 363.13 53.4985V53.0875ZM361.696 52.6098C361.372 52.3013 361.199 51.8619 361.199 51.2625H360.787C360.787 51.9454 360.988 52.5035 361.412 52.9074L361.696 52.6098ZM361.199 51.2625V45.919H360.787V51.2625H361.199ZM361.199 45.919C361.199 45.3361 361.364 44.9094 361.671 44.61L361.384 44.3157C360.978 44.711 360.787 45.255 360.787 45.919H361.199ZM361.669 44.6118C361.986 44.31 362.433 44.1474 363.037 44.1474V43.7364C362.358 43.7364 361.799 43.9212 361.386 44.314L361.669 44.6118ZM363.037 44.1474H367.191V43.7364H363.037V44.1474ZM367.191 44.1474C367.429 44.1474 367.578 44.203 367.671 44.2836L367.941 43.9743C367.748 43.8055 367.488 43.7364 367.191 43.7364V44.1474ZM367.676 44.2884C367.761 44.3569 367.814 44.4613 367.814 44.6366H368.225C368.225 44.3666 368.136 44.1325 367.936 43.9694L367.676 44.2884ZM367.814 44.6366C367.814 44.7952 367.761 44.9037 367.662 44.9855L367.923 45.3028C368.127 45.1353 368.225 44.9054 368.225 44.6366H367.814ZM367.663 44.9847C367.569 45.0606 367.421 45.1123 367.191 45.1123V45.5234C367.478 45.5234 367.731 45.4593 367.922 45.3037L367.663 44.9847ZM367.191 45.1123H363.344V45.5234H367.191V45.1123ZM363.344 45.1123C363.117 45.1123 362.917 45.1885 362.766 45.3521L363.068 45.6309C363.13 45.563 363.215 45.5234 363.344 45.5234V45.1123ZM362.76 45.3588C362.621 45.5229 362.564 45.7361 362.564 45.9724H362.975C362.975 45.7991 363.016 45.6917 363.074 45.6243L362.76 45.3588ZM362.564 45.9724V47.8293H362.975V45.9724H362.564ZM362.77 48.0348H366.176V47.6238H362.77V48.0348ZM366.176 48.0348C366.414 48.0348 366.563 48.0903 366.655 48.171L366.926 47.8616C366.733 47.6929 366.473 47.6238 366.176 47.6238V48.0348ZM366.661 48.1758C366.745 48.2442 366.799 48.3486 366.799 48.5239H367.21C367.21 48.2539 367.121 48.0199 366.92 47.8568L366.661 48.1758ZM366.799 48.5239C366.799 48.6825 366.746 48.7911 366.647 48.8729L366.908 49.1902C367.111 49.0227 367.21 48.7928 367.21 48.5239H366.799ZM366.648 48.872C366.554 48.948 366.406 48.9997 366.176 48.9997V49.4107C366.463 49.4107 366.715 49.3467 366.907 49.1911L366.648 48.872ZM366.176 48.9997H362.77V49.4107H366.176V48.9997ZM362.564 49.2052V51.2625H362.975V49.2052H362.564ZM362.564 51.2625C362.564 51.4988 362.621 51.712 362.76 51.8761L363.074 51.6106C363.016 51.5432 362.975 51.4358 362.975 51.2625H362.564ZM362.766 51.8828C362.917 52.0464 363.117 52.1225 363.344 52.1225V51.7115C363.215 51.7115 363.13 51.6719 363.068 51.604L362.766 51.8828ZM363.344 52.1225H367.485V51.7115H363.344V52.1225ZM367.485 52.1225C367.723 52.1225 367.872 52.1781 367.964 52.2587L368.235 51.9494C368.042 51.7806 367.782 51.7115 367.485 51.7115V52.1225ZM367.97 52.2636C368.054 52.332 368.108 52.4364 368.108 52.6117H368.519C368.519 52.3417 368.43 52.1077 368.229 51.9445L367.97 52.2636ZM368.108 52.6117C368.108 52.7703 368.055 52.8788 367.956 52.9607L368.217 53.278C368.421 53.1104 368.519 52.8806 368.519 52.6117H368.108ZM367.957 52.9598C367.863 53.0358 367.715 53.0875 367.485 53.0875V53.4985C367.772 53.4985 368.025 53.4344 368.216 53.2788L367.957 52.9598ZM367.485 53.0875H363.13V53.4985H367.485V53.0875ZM370.389 53.2128L370.526 53.0592L370.389 53.2128ZM371.258 44.8102L371.12 44.6577L371.258 44.8102ZM377.403 44.8102L377.54 44.6577H377.54L377.403 44.8102ZM378.271 53.2128L378.408 53.3664L378.271 53.2128ZM376.975 53.2128L376.834 53.3625L376.843 53.37L376.975 53.2128ZM376.12 45.8121L375.977 45.959L376.12 45.8121ZM372.54 45.8121L372.684 45.959L372.54 45.8121ZM371.672 53.2128L371.808 53.3664L371.809 53.366L371.672 53.2128ZM371.031 53.221C370.801 53.221 370.64 53.1606 370.526 53.0592L370.253 53.3664C370.459 53.55 370.726 53.6321 371.031 53.6321V53.221ZM370.526 53.0592C370.417 52.9622 370.354 52.8262 370.354 52.625H369.943C369.943 52.9226 370.041 53.1784 370.253 53.3664L370.526 53.0592ZM370.354 52.625V47.5888H369.943V52.625H370.354ZM370.354 47.5888C370.354 46.4505 370.708 45.5843 371.395 44.9627L371.12 44.6577C370.329 45.372 369.943 46.3582 369.943 47.5888H370.354ZM371.395 44.9627C372.086 44.3385 373.056 44.0138 374.33 44.0138V43.6028C372.986 43.6028 371.907 43.9461 371.12 44.6577L371.395 44.9627ZM374.33 44.0138C375.605 44.0138 376.574 44.3385 377.265 44.9627L377.54 44.6577C376.753 43.9461 375.674 43.6028 374.33 43.6028V44.0138ZM377.265 44.9627C377.953 45.5843 378.306 46.4505 378.306 47.5888H378.717C378.717 46.3582 378.331 45.372 377.54 44.6577L377.265 44.9627ZM378.306 47.5888V52.625H378.717V47.5888H378.306ZM378.306 52.625C378.306 52.8262 378.244 52.9622 378.134 53.0592L378.408 53.3664C378.619 53.1784 378.717 52.9226 378.717 52.625H378.306ZM378.134 53.0592C378.02 53.1606 377.859 53.221 377.63 53.221V53.6321C377.934 53.6321 378.201 53.55 378.408 53.3664L378.134 53.0592ZM377.63 53.221C377.401 53.221 377.232 53.1608 377.108 53.0556L376.843 53.37C377.056 53.5499 377.325 53.6321 377.63 53.6321V53.221ZM377.116 53.0634C377.001 52.9546 376.94 52.8146 376.94 52.625H376.529C376.529 52.9163 376.629 53.1683 376.834 53.3622L377.116 53.0634ZM376.94 52.625V47.5487H376.529V52.625H376.94ZM376.94 47.5487C376.94 46.7549 376.725 46.1159 376.264 45.6652L375.977 45.959C376.335 46.3099 376.529 46.8286 376.529 47.5487H376.94ZM376.264 45.6652C375.804 45.2148 375.147 45.0055 374.33 45.0055V45.4165C375.08 45.4165 375.618 45.6079 375.977 45.959L376.264 45.6652ZM374.33 45.0055C373.513 45.0055 372.857 45.2148 372.396 45.6652L372.684 45.959C373.043 45.6079 373.58 45.4165 374.33 45.4165V45.0055ZM372.396 45.6652C371.936 46.1159 371.72 46.7549 371.72 47.5487H372.131C372.131 46.8286 372.325 46.3099 372.684 45.959L372.396 45.6652ZM371.72 47.5487V52.625H372.131V47.5487H371.72ZM371.72 52.625C371.72 52.8109 371.658 52.9498 371.535 53.0597L371.809 53.366C372.024 53.1731 372.131 52.9201 372.131 52.625H371.72ZM371.535 53.0592C371.421 53.1606 371.26 53.221 371.031 53.221V53.6321C371.335 53.6321 371.602 53.55 371.808 53.3664L371.535 53.0592Z" fill="black"/>
</g>
<defs>
<filter id="filter0_d_1841_2516" x="359.819" y="57.8711" width="58.5573" height="13.6246" filterUnits="userSpaceOnUse" color-interpolation-filters="sRGB">
<feFlood flood-opacity="0" result="BackgroundImageFix"/>
<feColorMatrix in="SourceAlpha" type="matrix" values="0 0 0 0 0 0 0 0 0 0 0 0 0 0 0 0 0 0 127 0" result="hardAlpha"/>
<feOffset dy="1.76687"/>
<feGaussianBlur stdDeviation="0.180337"/>
<feComposite in2="hardAlpha" operator="out"/>
<feColorMatrix type="matrix" values="0 0 0 0 0 0 0 0 0 0 0 0 0 0 0 0 0 0 0.22 0"/>
<feBlend mode="normal" in2="BackgroundImageFix" result="effect1_dropShadow_1841_2516"/>
<feBlend mode="normal" in="SourceGraphic" in2="effect1_dropShadow_1841_2516" result="shape"/>
</filter>
<clipPath id="clip0_1841_2516">
<rect width="798.789" height="346.52" fill="white" transform="translate(-95.7891 0.564453)"/>
</clipPath>
</defs>
</svg>
