<svg width="211" height="160" viewBox="0 0 211 160" fill="none" xmlns="http://www.w3.org/2000/svg">
<path d="M209.45 28.9447C208.568 27.5512 207.139 26.5911 205.511 26.2968L62.657 0.515913C53.5393 -1.13079 44.8367 4.35 42.4117 13.2633L34.9449 40.6977C33.7064 45.2479 34.3193 50.0068 36.6714 54.0982C39.0236 58.1896 42.8328 61.1218 47.3986 62.3563L54.1081 64.1706V87.2196H5.90252C2.64328 87.2196 0 89.8548 0 93.1033V153.521C0 156.77 2.64328 159.405 5.90252 159.405H13.7725C14.9374 159.405 16.0745 159.062 17.0438 158.418L83.9408 114.018C85.5845 112.928 86.5723 111.089 86.5723 109.121V72.9502L170.262 95.5826C170.77 95.72 171.289 95.7879 171.807 95.7879C172.843 95.7879 173.871 95.5162 174.781 94.9865C176.146 94.1922 177.136 92.8851 177.527 91.3583L185.622 59.704L196.57 62.124C199.652 62.8086 202.72 60.9532 203.545 57.9199L210.157 33.6274C210.59 32.0369 210.333 30.3385 209.45 28.9447ZM74.7673 105.97L11.9876 147.637H11.8054V98.9874H74.7673V105.97ZM74.7673 87.2196H65.9132V67.3633L74.7673 69.7579V87.2196ZM193.626 49.4198L182.594 46.9809C179.478 46.2916 176.384 48.1932 175.597 51.2714L167.568 82.6619L50.4883 50.9997C48.9673 50.5879 47.6973 49.61 46.9136 48.247C46.1295 46.8829 45.925 45.2972 46.3382 43.7801L53.805 16.3446C54.5172 13.7282 56.8528 11.9983 59.4765 11.9983C59.8306 11.9983 60.1918 12.0298 60.5538 12.0956L197.08 36.7341L193.626 49.4198ZM59.7292 30.9179L62.2466 18.8626L72.9181 21.0771L70.4006 33.1323L59.7292 30.9179ZM199.077 72.5511L194.769 89.3967C194.089 92.0573 191.687 93.8284 189.054 93.8284C188.571 93.8284 188.081 93.7684 187.591 93.644C184.432 92.8419 182.523 89.6383 183.329 86.4891L187.637 69.6435C188.442 66.4947 191.655 64.5913 194.815 65.3955C197.974 66.1986 199.882 69.4012 199.077 72.5511Z" fill="white"/>
</svg>
