<svg width="152" height="111" viewBox="0 0 152 111" fill="none" xmlns="http://www.w3.org/2000/svg">
<path d="M142.001 80.6096C142.001 80.6096 136.963 84.3552 135.981 84.1276C134.999 83.9 139.663 80.0848 139.663 80.0848C137.908 79.2407 132.452 79.7699 132.452 79.7699C132.452 79.7699 130.636 85.6258 129.74 85.1673C128.844 84.7087 131.618 80.0605 131.618 80.0605C129.664 79.9434 127.267 81.3941 127.267 81.3941C123.984 83.9862 127.483 88.0665 127.483 88.0665C127.483 88.0665 126.809 90.084 124.737 91.9203C124.737 91.9203 121.777 94.1091 121.57 98.0203L122.108 98.0689C122.108 98.0689 122.96 94.4228 124.507 92.7025L124.763 92.4418C125.015 92.2087 125.192 92.033 125.316 91.9026C126.089 91.1634 127.151 90.2199 127.664 90.1348C127.645 90.0499 127.638 89.963 127.642 89.8763C127.648 89.9591 127.656 90.0442 127.664 90.1348C127.839 92.1965 131.84 94.0019 134.302 94.3676C136.764 94.7333 136.002 93.7268 135.154 92.2263C134.305 90.7259 131.618 90.0553 131.009 89.3647C130.4 88.6742 131.663 88.6719 133.146 89.3492C134.629 90.0265 134.832 91.8319 137.211 92.9721C139.59 94.1124 143.17 90.1635 143.17 90.1635C141.274 90.0674 138.567 88.0079 138.664 87.3781C138.761 86.7484 143.26 88.4653 144.029 88.5471C144.798 88.6289 146.547 87.6731 146.818 84.5762C147.089 81.4792 142.001 80.6096 142.001 80.6096Z" fill="#5BB662"/>
<path d="M124.095 78.6386C124.095 78.6386 116.761 74.5306 120.184 68.9576C120.184 68.9576 122.921 65.5325 125.855 64.6486C125.855 64.6486 124.29 72.9606 125.855 73.1561C127.419 73.3517 126.931 63.7647 126.931 63.7647C126.931 63.7647 134.656 60.049 137.687 60.3395C137.687 60.3395 132.896 68.456 134.461 68.2604C136.025 68.0649 141.403 59.8512 141.403 59.8512C141.403 59.8512 149.324 58.3839 150.595 63.0774C151.867 67.771 149.813 70.1188 148.64 70.4116C147.466 70.7044 139.937 70.6072 140.132 71.585C140.328 72.5628 145.412 74.1262 148.249 73.2423C148.249 73.2423 145.12 80.9676 141.012 80.5765C136.904 80.1854 135.634 77.6419 133.092 77.4475C130.55 77.253 128.691 77.9358 129.963 78.6209C131.235 79.3059 135.536 78.8418 137.587 80.5909C139.637 82.3399 141.302 83.4116 137.488 84.1939C133.674 84.9761 126.829 84.4878 125.461 81.5543L124.095 78.6386Z" fill="#5FD068"/>
<path d="M146.974 64.5569C146.974 64.5569 126.439 71.2061 124.092 78.6386C124.092 78.6386 124.19 81.9632 122.136 85.7761C122.136 85.7761 118.97 90.5856 120.775 96.4393L121.589 96.2183C121.589 96.2183 120.878 90.41 122.221 87.0478C122.277 86.9241 122.356 86.7462 122.456 86.5285C122.701 86.049 122.867 85.6954 122.97 85.4391C123.703 83.9387 124.757 81.9808 125.461 81.572C125.461 81.572 120.866 75.1173 146.974 64.5569Z" fill="#5BB662"/>
<path d="M109.477 94.7676C109.477 98.5771 110.99 102.23 113.684 104.924C116.377 107.618 120.031 109.131 123.84 109.131C127.649 109.131 131.303 107.618 133.996 104.924C136.69 102.23 138.203 98.5771 138.203 94.7676H109.477Z" fill="#F1A34F"/>
<path d="M136.64 108.25H111.057C110.588 108.25 110.138 108.437 109.807 108.768C109.475 109.1 109.289 109.549 109.289 110.018H138.418C138.416 109.548 138.228 109.098 137.895 108.767C137.562 108.435 137.11 108.25 136.64 108.25Z" fill="#F1A34F"/>
<path d="M112.865 4.14874H62.7769C61.2001 4.14874 59.9219 5.42697 59.9219 7.00375V107.169C59.9219 108.746 61.2001 110.024 62.7769 110.024H112.865C114.442 110.024 115.72 108.746 115.72 107.169V7.00375C115.72 5.42697 114.442 4.14874 112.865 4.14874Z" fill="#4A75CB"/>
<path d="M118.28 4.14874H68.1909C66.6142 4.14874 65.3359 5.42697 65.3359 7.00375V107.169C65.3359 108.746 66.6142 110.024 68.1909 110.024H118.28C119.856 110.024 121.135 108.746 121.135 107.169V7.00375C121.135 5.42697 119.856 4.14874 118.28 4.14874Z" fill="#699FF0"/>
<path d="M119.026 12.6132H67.3359V98.4048H119.026V12.6132Z" fill="white"/>
<path d="M95.9854 105.578C96.3521 104.024 95.3899 102.468 93.8363 102.101C92.2827 101.734 90.7259 102.696 90.3593 104.25C89.9926 105.804 90.9548 107.36 92.5084 107.727C94.062 108.094 95.6187 107.132 95.9854 105.578Z" fill="#4A75CB"/>
<path d="M7.3384 109.954C7.3384 109.954 2.6736 110.123 1.98305 109.954C1.95432 109.825 1.09251 104.384 1.09251 104.384L0.375445 99.354C0.274901 98.6513 1.11572 98.1861 1.63722 98.6678C1.94669 98.9652 2.1749 99.3368 2.30015 99.7473C2.88684 101.515 4.62039 104.373 7.18482 105.118C9.88293 105.901 7.3384 109.954 7.3384 109.954Z" fill="#163560"/>
<path d="M31.6663 84.7342L31.2078 84.8966C31.2078 84.8966 30.0068 82.8659 27.5518 83.6813C27.5518 83.6813 26.5718 84.0923 27.1529 84.6281C27.7341 85.164 27.5949 84.8878 28.3937 85.659C29.1925 86.4302 30.293 86.8191 31.0454 86.5584L31.8829 86.2634L31.6663 84.7342Z" fill="#E49963"/>
<path d="M52.3515 101.747C52.3515 101.747 35.2358 88.6697 30.3644 88.5261C25.493 88.3825 9.70312 110.001 9.70312 110.001H15.6142C15.6142 110.001 26.0366 104.455 29.7025 99.1838C29.7877 99.0619 29.9018 98.9631 30.0346 98.8963C30.1673 98.8294 30.3146 98.7965 30.4632 98.8005C30.6118 98.8046 30.7571 98.8455 30.886 98.9195C31.0149 98.9935 31.1235 99.0983 31.2019 99.2246C33.0967 102.253 38.0521 109.681 41.2563 110.001C44.6946 110.344 52.3515 101.747 52.3515 101.747Z" fill="#163560"/>
<path d="M50.7109 66.1612C50.7109 66.1612 50.8214 67.0174 50.9584 68.0759C51.144 69.4504 51.3904 71.1563 51.5529 71.6889L56.7027 72.9937L57.0806 69.2493C57.0806 69.2493 55.7912 66.6628 55.7989 63.0034L50.7109 66.1612Z" fill="#FFB27D"/>
<path d="M55.1918 73.955L47.8742 82.9189L45.3153 86.0534C45.3153 86.0534 40.7322 86.9119 38.3258 87.1207C36.5901 87.271 31.0469 86.5683 31.0469 86.5683L31.206 84.901C31.206 84.901 34.6455 83.4382 36.2796 83.0957C37.9468 82.7465 42.1586 81.7963 42.1586 81.7963C43.7508 81.2174 49.8011 73.3992 49.8011 73.3992L55.1918 73.955Z" fill="#5FD068"/>
<path d="M59.9676 105.968L45.002 104.752C45.002 104.752 44.9611 104.452 44.8915 103.949C44.8703 103.787 44.8577 103.624 44.854 103.461C44.8197 101.966 45.4064 99.9495 45.6605 97.9684C45.8274 96.6613 45.8484 95.3686 45.4484 94.2505C44.9877 92.96 44.7755 90.5116 44.6827 88.1825C44.5645 85.2678 44.6319 82.5476 44.6308 82.5233C44.4805 80.6671 44.9225 78.6043 45.6627 76.6442C47.1223 72.7772 49.8447 70.5895 51.1231 69.2913C51.1231 69.2913 52.6854 69.6769 56.7447 68.4593C56.8651 68.4228 57.2143 68.9333 57.3689 69.2327C57.3689 69.2327 59.1257 71.4557 59.8483 76.8774C60.4946 81.719 59.9676 105.968 59.9676 105.968Z" fill="#7EDA85"/>
<path d="M26.2956 82.8293L28.1518 81.5499C28.1673 81.5398 28.184 81.5317 28.2015 81.5256L28.5517 81.3831L30.2621 86.7793L28.7683 87.988L28.4998 88.1051C28.4299 88.1247 28.3552 88.1161 28.2915 88.0812C28.2279 88.0463 28.1805 87.9879 28.1595 87.9184L26.226 83.1796C26.1971 83.1217 26.1883 83.056 26.2009 82.9926C26.2135 82.9292 26.2468 82.8718 26.2956 82.8293Z" fill="#373480"/>
<path d="M30.6406 86.46L28.8728 87.9428C28.7479 88.0466 28.5535 87.9704 28.4783 87.787L26.5459 83.0492C26.5169 82.9909 26.5084 82.9245 26.5218 82.8607C26.5353 82.7969 26.5698 82.7396 26.6199 82.6979L28.4761 81.4229C28.6032 81.3356 28.7844 81.4162 28.8551 81.5897L30.7035 86.1197C30.7297 86.1759 30.7377 86.2389 30.7265 86.2999C30.7152 86.3609 30.6851 86.4169 30.6406 86.46Z" fill="#575B9F"/>
<path d="M27.1172 83.1222L28.6021 82.0748L30.1412 85.7651L28.6298 86.944L27.1172 83.1222Z" fill="#CED4EA"/>
<path d="M27.5078 83.3442L28.5475 82.6106L29.6259 85.196L28.5663 86.0214L27.5078 83.3442Z" fill="#BCC5DD"/>
<path d="M31.4465 87.3483L30.5052 87.3174C30.5052 87.3174 29.5671 85.3717 27.4193 86.2943C27.4193 86.2943 26.5586 86.744 27.0337 87.2456C27.5088 87.7472 27.3972 87.4798 28.0524 88.2035C28.7075 88.9272 29.6301 89.2576 30.2919 88.9659L31.0245 88.6344L31.4465 87.3483Z" fill="#E49963"/>
<path d="M54.8352 69.3145C54.8352 69.3145 51.1615 70.8613 49.2533 74.176C47.9816 76.3857 45.7917 80.1423 44.4725 82.4062C44.125 83.0018 43.6578 83.5189 43.1004 83.9249C42.543 84.3309 41.9076 84.617 41.2341 84.7651L36.7803 85.7485L30.5179 87.3141C30.4175 87.5327 30.3793 87.7746 30.4074 88.0135C30.4582 88.6289 30.8615 88.7537 30.8615 88.7537C30.8615 88.7537 36.7085 90.1603 38.7901 90.3172C43.9179 90.7028 46.3486 90.031 47.1021 89.7537C47.2685 89.6918 47.4232 89.6022 47.5595 89.4885C48.3451 88.851 51.3581 86.3263 52.9447 83.9144C54.4916 81.5687 58.7431 75.4709 58.7431 75.4709L54.8352 69.3145Z" fill="#5FD068"/>
<path d="M60.0654 100.174C60.0654 100.174 61.5415 110.001 57.0159 110.001H7.21022C7.21022 110.001 5.83464 109.072 5.73852 107.302C5.63577 105.424 6.22909 104.761 6.22909 104.761C6.22909 104.761 24.0585 104.14 27.6781 102.927C45.8224 96.847 60.0654 100.174 60.0654 100.174Z" fill="#1C468A"/>
<path d="M50.7109 66.1612C50.7109 66.1612 50.8214 67.0174 50.9584 68.0759C55.716 66.6882 55.7989 63.0034 55.7989 63.0034L50.7109 66.1612Z" fill="#E8945B"/>
<path d="M49.9682 66.4352C49.9682 66.4352 55.7511 66.6065 55.8019 63.0035C55.8528 59.4004 56.635 56.9951 52.9447 56.7344C49.2544 56.4736 48.5175 57.8392 48.207 59.0358C47.8965 60.2324 48.4644 66.3026 49.9682 66.4352Z" fill="#FFB27D"/>
<path d="M55.9066 64.4143C55.9066 64.4143 55.2956 64.3127 55.3939 63.4708C55.4923 62.6288 55.4912 61.5295 54.8073 61.7339C54.1233 61.9383 54.0891 62.4874 53.8129 62.167C53.5366 61.8466 53.5267 60.4986 51.4926 60.3992C49.4585 60.2998 48.6288 61.0146 47.6819 60.5981C46.735 60.1815 46.6875 58.7485 46.6875 58.7485C46.6875 58.7485 46.9571 59.2601 47.3637 59.4236C47.3637 59.4236 45.7837 57.2624 47.6123 55.7775C49.4409 54.2925 51.307 55.2659 52.3633 55.3355C54.6946 55.477 56.2016 55.6162 56.9629 57.1487C57.7241 58.6811 57.4026 62.9393 55.9066 64.4143Z" fill="#2B478B"/>
<path d="M49.2573 29.6924C49.0462 29.7201 48.8385 29.7455 48.6319 29.7709C48.5185 29.7855 48.4039 29.7545 48.3134 29.6847C48.2228 29.6149 48.1637 29.5119 48.1491 29.3985C48.1344 29.2851 48.1654 29.1706 48.2352 29.08C48.3051 28.9895 48.408 28.9304 48.5214 28.9157C48.8927 28.8704 49.2705 28.8229 49.655 28.771C49.766 28.7609 49.8766 28.7942 49.9636 28.8639C50.0506 28.9336 50.1071 29.0343 50.1214 29.1448C50.1357 29.2554 50.1066 29.3671 50.0403 29.4567C49.9739 29.5462 49.8754 29.6066 49.7655 29.625L49.2573 29.6924ZM50.9146 29.4715C50.8036 29.4816 50.693 29.4483 50.606 29.3786C50.519 29.3089 50.4625 29.2082 50.4482 29.0976C50.4339 28.9871 50.463 28.8753 50.5293 28.7858C50.5957 28.6962 50.6942 28.6359 50.8041 28.6174C51.1764 28.5644 51.5532 28.5069 51.9366 28.4483C52.0467 28.4366 52.1572 28.4677 52.245 28.5352C52.3328 28.6028 52.3913 28.7015 52.4082 28.811C52.4251 28.9205 52.3992 29.0323 52.3359 29.1232C52.2726 29.2141 52.1766 29.2771 52.0681 29.2991C51.6828 29.3588 51.3024 29.4159 50.9267 29.4704L50.9146 29.4715ZM47.4961 29.9002H47.4861C47.0961 29.9421 46.7127 29.9797 46.3371 30.0107C46.2793 30.0186 46.2206 30.0147 46.1644 29.9993C46.1082 29.9839 46.0557 29.9572 46.0101 29.9209C45.9645 29.8847 45.9267 29.8395 45.8991 29.7882C45.8714 29.7369 45.8544 29.6805 45.8492 29.6225C45.844 29.5644 45.8506 29.5059 45.8686 29.4505C45.8866 29.3951 45.9157 29.3439 45.9541 29.3C45.9924 29.2562 46.0393 29.2205 46.0919 29.1953C46.1444 29.1701 46.2015 29.1558 46.2597 29.1533C46.6276 29.1201 47.0099 29.0826 47.3955 29.0428C47.5064 29.0344 47.6162 29.0692 47.7021 29.1399C47.7879 29.2106 47.8431 29.3117 47.856 29.4221C47.869 29.5326 47.8388 29.6437 47.7717 29.7324C47.7047 29.8211 47.6059 29.8804 47.4961 29.8979V29.9002ZM53.184 29.1157C53.0738 29.1263 52.9638 29.0941 52.8767 29.0258C52.7896 28.9575 52.7322 28.8583 52.7163 28.7487C52.7004 28.6392 52.7272 28.5277 52.7912 28.4375C52.8553 28.3472 52.9516 28.285 53.0603 28.2638C53.4322 28.2027 53.809 28.1397 54.1905 28.0749C54.2474 28.0626 54.3061 28.0619 54.3633 28.0728C54.4204 28.0838 54.4747 28.1062 54.5229 28.1388C54.5711 28.1713 54.6123 28.2132 54.6438 28.2621C54.6754 28.3109 54.6968 28.3657 54.7066 28.423C54.7165 28.4803 54.7146 28.5391 54.7012 28.5956C54.6877 28.6522 54.6629 28.7055 54.6284 28.7523C54.5938 28.799 54.5501 28.8383 54.4999 28.8677C54.4497 28.8971 54.3941 28.9161 54.3364 28.9234C53.953 28.9886 53.574 29.0527 53.1995 29.1135L53.184 29.1157ZM45.209 30.1101H45.1836C44.788 30.1377 44.398 30.1609 44.0279 30.1775C43.9714 30.1801 43.915 30.1716 43.8619 30.1524C43.8087 30.1332 43.7599 30.1037 43.7181 30.0657C43.6764 30.0276 43.6425 29.9817 43.6185 29.9305C43.5945 29.8794 43.5808 29.824 43.5782 29.7676C43.5756 29.7111 43.5841 29.6547 43.6033 29.6016C43.6225 29.5484 43.6519 29.4996 43.69 29.4578C43.7281 29.4161 43.774 29.3822 43.8251 29.3582C43.8763 29.3342 43.9317 29.3205 43.9881 29.3179C44.3516 29.3013 44.7339 29.2781 45.1239 29.2516C45.234 29.2468 45.3417 29.2843 45.425 29.3564C45.5083 29.4286 45.5607 29.5298 45.5716 29.6395C45.5825 29.7491 45.551 29.8588 45.4836 29.9459C45.4161 30.033 45.3178 30.091 45.209 30.1079V30.1101ZM55.4512 28.7279C55.3415 28.7385 55.2319 28.7066 55.145 28.6389C55.058 28.5711 55.0004 28.4727 54.9838 28.3637C54.9672 28.2547 54.9931 28.1436 55.056 28.0531C55.1189 27.9626 55.214 27.8996 55.3219 27.8771C55.6947 27.8108 56.0703 27.7423 56.4489 27.6716C56.5585 27.6568 56.6696 27.6848 56.7592 27.7497C56.8488 27.8145 56.91 27.9114 56.9302 28.0201C56.9503 28.1289 56.9279 28.2412 56.8675 28.3339C56.8071 28.4265 56.7134 28.4925 56.6058 28.518C56.225 28.5916 55.8475 28.6605 55.4733 28.7246L55.4512 28.7279ZM42.9142 30.2073H42.8666C42.4634 30.2139 42.0711 30.2073 41.7021 30.2073C41.6439 30.2087 41.586 30.1983 41.5319 30.1767C41.4778 30.155 41.4287 30.1227 41.3874 30.0815C41.3462 30.0404 41.3137 29.9913 41.292 29.9373C41.2703 29.8832 41.2597 29.8254 41.261 29.7671C41.2623 29.7089 41.2753 29.6515 41.2994 29.5985C41.3235 29.5455 41.358 29.4978 41.401 29.4585C41.444 29.4192 41.4945 29.3891 41.5495 29.3698C41.6045 29.3506 41.6628 29.3427 41.7209 29.3466C42.0789 29.3544 42.46 29.3544 42.8523 29.3466C42.9612 29.3465 43.0662 29.3877 43.146 29.4619C43.2258 29.5361 43.2745 29.6378 43.2824 29.7465C43.2902 29.8552 43.2566 29.9628 43.1883 30.0477C43.12 30.1326 43.022 30.1884 42.9142 30.204V30.2073ZM57.7074 28.3091C57.5981 28.3199 57.4888 28.2884 57.4019 28.2213C57.3149 28.1541 57.2569 28.0563 57.2397 27.9478C57.2225 27.8393 57.2474 27.7284 57.3092 27.6376C57.3711 27.5468 57.4653 27.4831 57.5726 27.4595C57.9453 27.3858 58.3202 27.3122 58.6973 27.2385C58.8082 27.2195 58.922 27.2445 59.0146 27.3083C59.1072 27.372 59.1713 27.4694 59.193 27.5797C59.2148 27.6901 59.1926 27.8045 59.1312 27.8987C59.0697 27.9928 58.9739 28.0592 58.8642 28.0837C58.4856 28.1574 58.1092 28.2311 57.735 28.3047L57.7074 28.3091ZM59.9624 27.8672C59.9067 27.8764 59.8497 27.8745 59.7947 27.8617C59.7397 27.8489 59.6878 27.8254 59.6419 27.7925C59.596 27.7596 59.557 27.718 59.5271 27.6701C59.4973 27.6221 59.4772 27.5688 59.468 27.5131C59.4588 27.4573 59.4606 27.4004 59.4734 27.3454C59.4863 27.2904 59.5098 27.2384 59.5427 27.1925C59.5755 27.1466 59.6171 27.1076 59.6651 27.0778C59.713 27.0479 59.7664 27.0278 59.8221 27.0186L60.9458 26.7877C61.0022 26.7733 61.061 26.7705 61.1185 26.7795C61.1761 26.7884 61.2312 26.8089 61.2806 26.8398C61.33 26.8706 61.3726 26.9112 61.4059 26.959C61.4392 27.0068 61.4625 27.0608 61.4743 27.1179C61.4861 27.1749 61.4862 27.2337 61.4746 27.2908C61.4631 27.3479 61.4401 27.402 61.407 27.45C61.3739 27.4979 61.3314 27.5386 61.2822 27.5697C61.2329 27.6008 61.1779 27.6215 61.1203 27.6307L59.9934 27.8628L59.9624 27.8672ZM62.212 27.3998C62.1003 27.4173 61.9862 27.3901 61.8944 27.3241C61.8027 27.258 61.7406 27.1585 61.7217 27.047C61.7028 26.9356 61.7286 26.8211 61.7935 26.7285C61.8584 26.636 61.9571 26.5727 62.0683 26.5524L63.1854 26.306C63.2956 26.2855 63.4094 26.3088 63.5027 26.3708C63.596 26.4329 63.6615 26.5289 63.6852 26.6384C63.7089 26.748 63.689 26.8625 63.6298 26.9576C63.5705 27.0527 63.4765 27.121 63.3677 27.1479L62.2429 27.3888L62.212 27.3998ZM40.6204 30.1521C40.5914 30.1548 40.5622 30.1548 40.5331 30.1521C40.1166 30.1222 39.7222 30.078 39.3598 30.0239C39.2469 30.0069 39.1455 29.9458 39.0777 29.854C39.01 29.7622 38.9815 29.6473 38.9985 29.5344C39.0155 29.4216 39.0766 29.3202 39.1684 29.2524C39.2602 29.1847 39.3751 29.1562 39.4879 29.1731C39.8282 29.224 40.2017 29.2649 40.5928 29.2936C40.6986 29.3022 40.7974 29.3495 40.8705 29.4265C40.9435 29.5035 40.9855 29.6048 40.9885 29.7108C40.9915 29.8169 40.9553 29.9204 40.8868 30.0014C40.8182 30.0824 40.7222 30.1353 40.6171 30.1499L40.6204 30.1521ZM64.4571 26.9104C64.3482 26.9222 64.2388 26.8922 64.1512 26.8263C64.0637 26.7604 64.0046 26.6636 63.9858 26.5556C63.9671 26.4476 63.9902 26.3366 64.0505 26.2451C64.1107 26.1536 64.2036 26.0884 64.3101 26.0629C64.6784 25.9812 65.0519 25.8979 65.4305 25.8132C65.5416 25.7892 65.6577 25.81 65.7535 25.8712C65.8494 25.9324 65.9171 26.029 65.942 26.1399C65.967 26.2508 65.947 26.3671 65.8866 26.4634C65.8262 26.5597 65.7301 26.6282 65.6194 26.654L64.4958 26.9037C64.4836 26.907 64.4703 26.9081 64.4571 26.9104ZM66.6989 26.4065C66.587 26.4255 66.4722 26.3996 66.3794 26.3343C66.2867 26.269 66.2235 26.1697 66.2036 26.0579C66.1838 25.9462 66.209 25.8312 66.2736 25.738C66.3382 25.6447 66.4371 25.5808 66.5486 25.5602C66.9169 25.4755 67.2896 25.3897 67.6668 25.3028C67.7229 25.2869 67.7816 25.2827 67.8394 25.2902C67.8972 25.2977 67.9529 25.3169 68.003 25.3466C68.0532 25.3763 68.0969 25.4158 68.1313 25.4628C68.1658 25.5098 68.1903 25.5634 68.2035 25.6202C68.2166 25.6769 68.2181 25.7358 68.2079 25.7932C68.1977 25.8506 68.1759 25.9053 68.1439 25.954C68.1119 26.0027 68.0704 26.0445 68.0218 26.0767C67.9732 26.1089 67.9186 26.1309 67.8612 26.1414L66.7409 26.3999C66.7271 26.4032 66.713 26.4054 66.6989 26.4065ZM68.9374 25.8883C68.8287 25.9007 68.7193 25.8712 68.6316 25.8058C68.5438 25.7405 68.4842 25.6443 68.4648 25.5366C68.4454 25.4289 68.4677 25.3179 68.5271 25.226C68.5866 25.1342 68.6787 25.0684 68.7849 25.042L69.9008 24.7779C69.9567 24.7621 70.0153 24.7577 70.0729 24.765C70.1306 24.7724 70.1861 24.7913 70.2363 24.8207C70.2864 24.8501 70.3301 24.8893 70.3647 24.936C70.3993 24.9827 70.4241 25.0359 70.4376 25.0924C70.451 25.1489 70.453 25.2076 70.4432 25.2649C70.4334 25.3222 70.4122 25.3769 70.3807 25.4257C70.3493 25.4746 70.3083 25.5166 70.2602 25.5492C70.212 25.5818 70.1578 25.6043 70.1008 25.6154L68.9816 25.8806L68.9374 25.8883ZM38.3554 29.7963C38.2989 29.8042 38.2414 29.8004 38.1864 29.7852C37.7859 29.6801 37.3981 29.5319 37.0296 29.3433C36.9319 29.2881 36.8595 29.1969 36.828 29.0892C36.7965 28.9814 36.8083 28.8656 36.8608 28.7665C36.9134 28.6673 37.0025 28.5925 37.1094 28.5581C37.2162 28.5236 37.3323 28.5322 37.4328 28.582C37.7451 28.7429 38.0741 28.8689 38.414 28.9577C38.5104 28.9834 38.5949 29.0419 38.653 29.1231C38.711 29.2043 38.739 29.3032 38.732 29.4028C38.7251 29.5024 38.6837 29.5965 38.615 29.6689C38.5463 29.7413 38.4545 29.7875 38.3554 29.7996V29.7963ZM71.1703 25.3558C71.0622 25.3676 70.9536 25.338 70.8663 25.2731C70.779 25.2081 70.7196 25.1125 70.6999 25.0055C70.6801 24.8985 70.7016 24.788 70.76 24.6962C70.8183 24.6044 70.9093 24.5381 71.0145 24.5106L72.1349 24.2399C72.1909 24.2233 72.2496 24.2182 72.3076 24.2251C72.3656 24.2319 72.4216 24.2504 72.4722 24.2795C72.5228 24.3087 72.567 24.3478 72.602 24.3945C72.637 24.4412 72.6622 24.4945 72.676 24.5512C72.6898 24.608 72.6919 24.6669 72.6822 24.7245C72.6725 24.7821 72.6513 24.8371 72.6197 24.8862C72.5881 24.9353 72.5468 24.9774 72.4984 25.0101C72.4501 25.0428 72.3955 25.0653 72.3382 25.0763L71.2211 25.347C71.2052 25.3511 71.1889 25.354 71.1725 25.3558H71.1703ZM73.4022 24.8111C73.2936 24.8239 73.1843 24.7951 73.0962 24.7303C73.0082 24.6656 72.9481 24.5698 72.928 24.4623C72.9079 24.3549 72.9294 24.2439 72.9881 24.1517C73.0468 24.0595 73.1383 23.9931 73.2442 23.9659L74.359 23.6896C74.4149 23.6727 74.4737 23.6674 74.5317 23.6739C74.5897 23.6804 74.6459 23.6986 74.6966 23.7274C74.7474 23.7563 74.7918 23.7951 74.8271 23.8417C74.8624 23.8882 74.8878 23.9414 74.9019 23.9981C74.916 24.0548 74.9185 24.1137 74.9091 24.1714C74.8997 24.229 74.8787 24.2841 74.8473 24.3334C74.816 24.3827 74.7749 24.4251 74.7267 24.458C74.6785 24.4909 74.624 24.5137 74.5667 24.5249L73.4508 24.8022L73.4022 24.8111ZM75.6307 24.2586C75.522 24.2721 75.4122 24.2435 75.3238 24.1789C75.2353 24.1143 75.1748 24.0184 75.1545 23.9107C75.1343 23.803 75.1558 23.6917 75.2147 23.5993C75.2736 23.5069 75.3655 23.4405 75.4716 23.4134L76.5842 23.1328C76.64 23.1156 76.6988 23.1099 76.7568 23.1161C76.8149 23.1223 76.8711 23.1402 76.922 23.1688C76.9729 23.1974 77.0175 23.236 77.0531 23.2824C77.0886 23.3287 77.1143 23.3818 77.1287 23.4384C77.1431 23.495 77.1459 23.5539 77.1368 23.6116C77.1277 23.6693 77.107 23.7245 77.0759 23.7739C77.0448 23.8234 77.004 23.866 76.956 23.8992C76.9079 23.9323 76.8536 23.9554 76.7964 23.967L75.6827 24.2487C75.6662 24.2519 75.6496 24.2541 75.6329 24.2553L75.6307 24.2586ZM77.8582 23.6918C77.7502 23.7042 77.6415 23.6753 77.5539 23.6109C77.4663 23.5465 77.4063 23.4514 77.3858 23.3446C77.3654 23.2378 77.3862 23.1273 77.4438 23.0351C77.5015 22.943 77.5919 22.876 77.6969 22.8477L78.8084 22.5616C78.919 22.5322 79.0367 22.5481 79.1357 22.6056C79.2346 22.6631 79.3066 22.7575 79.3359 22.8682C79.3652 22.9788 79.3494 23.0965 79.2919 23.1954C79.2344 23.2944 79.14 23.3664 79.0293 23.3957L77.9156 23.6819L77.8582 23.6918ZM80.0779 23.1173C79.9687 23.1327 79.8577 23.1056 79.768 23.0415C79.6782 22.9775 79.6165 22.8813 79.5957 22.7731C79.5748 22.6648 79.5964 22.5526 79.6559 22.4598C79.7154 22.3669 79.8083 22.3005 79.9154 22.2743L81.0203 21.9837C81.075 21.9692 81.1319 21.9656 81.1879 21.9731C81.244 21.9806 81.2979 21.999 81.3468 22.0274C81.3957 22.0558 81.4385 22.0935 81.4729 22.1384C81.5072 22.1833 81.5323 22.2346 81.5468 22.2892C81.5613 22.3438 81.5649 22.4008 81.5574 22.4568C81.5499 22.5128 81.5315 22.5668 81.5031 22.6157C81.4747 22.6646 81.437 22.7074 81.3921 22.7417C81.3472 22.776 81.2959 22.8012 81.2413 22.8157L80.1353 23.1018C80.1173 23.1075 80.0988 23.1115 80.0801 23.114L80.0779 23.1173ZM36.4097 28.666C36.333 28.6755 36.2552 28.6644 36.1843 28.6337C36.1134 28.603 36.052 28.5539 36.0064 28.4914C35.981 28.4561 35.9567 28.4207 35.9346 28.381C35.7307 28.0669 35.5575 27.7339 35.4175 27.3866C35.3941 27.3335 35.3816 27.2762 35.3809 27.2181C35.3801 27.1601 35.3911 27.1025 35.4131 27.0488C35.4352 26.9951 35.4678 26.9464 35.5091 26.9057C35.5505 26.8649 35.5996 26.8329 35.6536 26.8116C35.7076 26.7903 35.7653 26.7802 35.8233 26.7817C35.8814 26.7833 35.9385 26.7966 35.9912 26.8208C36.044 26.8449 36.0913 26.8795 36.1304 26.9225C36.1695 26.9654 36.1995 27.0158 36.2186 27.0706C36.3386 27.3679 36.4865 27.6531 36.6605 27.9224C36.6749 27.9445 36.6893 27.9655 36.7047 27.9865C36.738 28.0323 36.7618 28.0841 36.775 28.1391C36.7882 28.1941 36.7903 28.2511 36.7814 28.307C36.7725 28.3628 36.7526 28.4163 36.723 28.4645C36.6933 28.5126 36.6544 28.5545 36.6086 28.5876C36.5501 28.6303 36.4816 28.6574 36.4097 28.666ZM82.2998 22.5306C82.1912 22.5446 82.0813 22.5168 81.9925 22.4527C81.9037 22.3887 81.8426 22.2932 81.8217 22.1857C81.8007 22.0783 81.8214 21.9668 81.8797 21.8741C81.9379 21.7814 82.0292 21.7143 82.1352 21.6865L83.24 21.3915C83.3483 21.3682 83.4613 21.3875 83.5557 21.4453C83.6501 21.5032 83.7186 21.5951 83.7471 21.7021C83.7755 21.8092 83.7616 21.923 83.7084 22.0201C83.6551 22.1171 83.5665 22.19 83.461 22.2235L82.3495 22.5196L82.2998 22.5306ZM84.5228 21.9362C84.4151 21.9487 84.3066 21.9202 84.219 21.8562C84.1314 21.7923 84.0711 21.6977 84.0502 21.5913C84.0293 21.4849 84.0493 21.3745 84.1061 21.2822C84.163 21.1898 84.2526 21.1224 84.3571 21.0932L85.4686 20.7937C85.5757 20.773 85.6867 20.7938 85.7792 20.8517C85.8717 20.9097 85.9387 21.0006 85.9668 21.1061C85.9948 21.2115 85.9818 21.3237 85.9303 21.42C85.8789 21.5162 85.7928 21.5894 85.6896 21.6246L84.5758 21.9251C84.5585 21.9302 84.5407 21.9339 84.5228 21.9362ZM86.7436 21.3351C86.6357 21.3482 86.5269 21.32 86.4389 21.2561C86.3509 21.1923 86.2903 21.0976 86.2692 20.991C86.2481 20.8844 86.2681 20.7737 86.3251 20.6812C86.3821 20.5887 86.472 20.5212 86.5768 20.4921L87.6816 20.1894C87.7367 20.1726 87.7946 20.1671 87.8519 20.1731C87.9092 20.1792 87.9647 20.1966 88.0151 20.2244C88.0655 20.2522 88.1098 20.2899 88.1454 20.3351C88.1811 20.3804 88.2073 20.4323 88.2225 20.4878C88.2377 20.5434 88.2416 20.6014 88.234 20.6585C88.2264 20.7156 88.2075 20.7705 88.1783 20.8202C88.1491 20.8698 88.1102 20.9131 88.064 20.9474C88.0178 20.9818 87.9652 21.0066 87.9092 21.0202L86.8044 21.323C86.7844 21.3283 86.7641 21.332 86.7436 21.334V21.3351ZM88.96 20.7275C88.8527 20.7397 88.7447 20.7112 88.6575 20.6476C88.5702 20.584 88.51 20.49 88.4887 20.3841C88.4674 20.2783 88.4867 20.1683 88.5427 20.076C88.5987 19.9836 88.6873 19.9157 88.7909 19.8855L89.8958 19.5795C89.9502 19.5643 90.0071 19.56 90.0632 19.5668C90.1192 19.5737 90.1734 19.5914 90.2226 19.6192C90.2718 19.6469 90.3151 19.6841 90.3499 19.7286C90.3847 19.7731 90.4105 19.8239 90.4256 19.8784C90.4408 19.9328 90.4451 19.9896 90.4383 20.0457C90.4314 20.1018 90.4136 20.1559 90.3859 20.2051C90.3581 20.2543 90.321 20.2976 90.2765 20.3324C90.232 20.3672 90.1811 20.393 90.1267 20.4081L89.0219 20.7153C89.0015 20.7205 88.9808 20.7245 88.96 20.7275ZM91.1698 20.1131C91.0623 20.1259 90.954 20.0977 90.8664 20.0342C90.7787 19.9708 90.7182 19.8766 90.6967 19.7706C90.6753 19.6645 90.6945 19.5543 90.7507 19.4618C90.8068 19.3692 90.8956 19.3012 90.9996 19.2712L92.1045 18.9619C92.1589 18.9466 92.2158 18.9423 92.2719 18.949C92.328 18.9557 92.3822 18.9735 92.4314 19.0012C92.4807 19.0289 92.524 19.066 92.5589 19.1104C92.5938 19.1549 92.6196 19.2058 92.6348 19.2602C92.6501 19.3146 92.6544 19.3715 92.6477 19.4276C92.6409 19.4837 92.6232 19.5379 92.5955 19.5871C92.5678 19.6364 92.5307 19.6797 92.4862 19.7146C92.4418 19.7495 92.3909 19.7753 92.3365 19.7905L91.2316 20.0999C91.2124 20.1071 91.1929 20.1134 91.1731 20.1187L91.1698 20.1131ZM93.3795 19.4922C93.2719 19.5054 93.1632 19.4776 93.0752 19.4142C92.9872 19.3509 92.9263 19.2567 92.9047 19.1504C92.8831 19.0441 92.9023 18.9336 92.9586 18.8409C93.0149 18.7482 93.104 18.6802 93.2082 18.6503L94.3131 18.3376C94.4218 18.3102 94.5369 18.3262 94.6339 18.3822C94.731 18.4382 94.8024 18.5299 94.8331 18.6377C94.8637 18.7455 94.8511 18.861 94.798 18.9597C94.7448 19.0584 94.6553 19.1325 94.5485 19.1663L93.4436 19.4789L93.3795 19.4922ZM95.5893 18.8646C95.4824 18.8766 95.3749 18.8482 95.2879 18.785C95.2008 18.7218 95.1406 18.6283 95.119 18.523C95.0974 18.4176 95.116 18.3079 95.1711 18.2156C95.2262 18.1232 95.3139 18.0548 95.4169 18.0238L96.5218 17.7078C96.6315 17.6765 96.7492 17.69 96.849 17.7454C96.9488 17.8008 97.0224 17.8936 97.0538 18.0034C97.0851 18.1131 97.0716 18.2308 97.0162 18.3306C96.9608 18.4304 96.868 18.504 96.7582 18.5354L95.6533 18.8514C95.6343 18.8576 95.6147 18.8621 95.5948 18.8646H95.5893ZM35.5943 26.5424H35.5778C35.5214 26.5476 35.4647 26.5416 35.4107 26.5248C35.3567 26.508 35.3065 26.4806 35.2631 26.4444C35.2197 26.4082 35.1839 26.3637 35.1577 26.3136C35.1314 26.2635 35.1154 26.2087 35.1104 26.1524C35.0716 25.7295 35.1007 25.3032 35.1966 24.8895C35.2222 24.7783 35.291 24.6819 35.3877 24.6214C35.4845 24.5609 35.6013 24.5413 35.7125 24.5669C35.8238 24.5925 35.9202 24.6613 35.9807 24.7581C36.0412 24.8548 36.0608 24.9717 36.0352 25.0829C35.9596 25.4086 35.9368 25.7443 35.9678 26.0773C35.978 26.1869 35.9457 26.2963 35.8777 26.3828C35.8097 26.4694 35.711 26.5265 35.6021 26.5424H35.5943ZM97.799 18.2315C97.692 18.244 97.5841 18.2159 97.4968 18.1528C97.4094 18.0897 97.3489 17.9962 97.3271 17.8906C97.3053 17.785 97.3239 17.6752 97.3791 17.5826C97.4344 17.4901 97.5223 17.4216 97.6256 17.3907L98.7304 17.0725C98.84 17.0409 98.9577 17.054 99.0576 17.1092C99.1575 17.1643 99.2313 17.2568 99.263 17.3664C99.2946 17.476 99.2814 17.5937 99.2263 17.6936C99.1712 17.7934 99.0787 17.8673 98.9691 17.899L97.8642 18.2183C97.8443 18.2241 97.824 18.2285 97.8034 18.2315H97.799ZM100.009 17.5929C99.9016 17.6059 99.7934 17.5781 99.7057 17.5151C99.6179 17.4521 99.5571 17.3585 99.5351 17.2527C99.5132 17.147 99.5317 17.0368 99.5871 16.9441C99.6425 16.8514 99.7307 16.7829 99.8342 16.7521L100.939 16.4317C101.047 16.4058 101.16 16.4223 101.256 16.4779C101.352 16.5334 101.423 16.6237 101.454 16.7301C101.485 16.8364 101.473 16.9505 101.422 17.0489C101.372 17.1472 101.285 17.2221 101.18 17.2581L100.075 17.5797C100.054 17.5857 100.033 17.5901 100.011 17.5929H100.009ZM102.219 16.9488C102.11 16.9644 102 16.9382 101.911 16.8755C101.821 16.8128 101.759 16.7184 101.737 16.6114C101.714 16.5044 101.733 16.3929 101.79 16.2996C101.847 16.2063 101.937 16.1381 102.043 16.1091L103.148 15.7853C103.255 15.7594 103.368 15.7757 103.464 15.8309C103.56 15.8861 103.631 15.9759 103.662 16.0819C103.694 16.1879 103.683 16.3019 103.633 16.4003C103.582 16.4987 103.496 16.574 103.392 16.6107L102.287 16.9355C102.264 16.9421 102.24 16.9466 102.216 16.9488H102.219ZM104.428 16.3002C104.322 16.3125 104.214 16.2846 104.127 16.2218C104.04 16.159 103.979 16.066 103.957 15.9609C103.935 15.8558 103.953 15.7463 104.007 15.6537C104.062 15.5611 104.149 15.4922 104.252 15.4605L105.356 15.129C105.412 15.1097 105.47 15.1017 105.528 15.1056C105.587 15.1095 105.643 15.1253 105.695 15.1518C105.747 15.1784 105.794 15.2153 105.831 15.2603C105.868 15.3052 105.896 15.3573 105.913 15.4133C105.929 15.4693 105.934 15.5281 105.927 15.5861C105.92 15.6441 105.902 15.7002 105.873 15.7508C105.843 15.8014 105.804 15.8455 105.758 15.8805C105.711 15.9155 105.657 15.9407 105.601 15.9544C105.236 16.0641 104.868 16.1746 104.496 16.2858C104.471 16.2926 104.446 16.2974 104.421 16.3002H104.428ZM106.63 15.6461C106.524 15.6584 106.416 15.6305 106.329 15.5677C106.242 15.5049 106.181 15.4119 106.159 15.3068C106.137 15.2017 106.155 15.0922 106.209 14.9996C106.264 14.9071 106.351 14.8381 106.454 14.8064L107.558 14.4749C107.613 14.4566 107.671 14.4495 107.729 14.454C107.786 14.4584 107.842 14.4745 107.894 14.5011C107.945 14.5277 107.99 14.5644 108.027 14.6089C108.064 14.6534 108.092 14.7049 108.108 14.7603C108.125 14.8157 108.13 14.8738 108.123 14.9312C108.117 14.9886 108.099 15.0442 108.071 15.0946C108.043 15.145 108.004 15.1891 107.959 15.2245C107.913 15.2598 107.861 15.2856 107.805 15.3003L106.7 15.6318C106.675 15.6385 106.649 15.6433 106.623 15.6461H106.63ZM36.0948 24.3581C36.0162 24.3679 35.9365 24.3558 35.8643 24.3232C35.7921 24.2906 35.7303 24.2388 35.6856 24.1734C35.641 24.1079 35.6153 24.0315 35.6112 23.9524C35.6072 23.8733 35.6251 23.7946 35.6628 23.725C35.8615 23.3667 36.0951 23.0288 36.36 22.7162C36.4333 22.6283 36.5384 22.5731 36.6524 22.5628C36.7664 22.5524 36.8798 22.5877 36.9677 22.661C37.0556 22.7343 37.1108 22.8394 37.1212 22.9534C37.1315 23.0674 37.0962 23.1808 37.0229 23.2687C36.7948 23.5375 36.5935 23.828 36.4219 24.136C36.3885 24.1975 36.3405 24.25 36.2821 24.2887C36.2238 24.3274 36.1568 24.3512 36.0871 24.3581H36.0948ZM108.832 14.9876C108.725 15.0009 108.617 14.9735 108.529 14.911C108.442 14.8485 108.38 14.7553 108.358 14.6498C108.335 14.5444 108.353 14.4343 108.408 14.3414C108.463 14.2485 108.55 14.1794 108.653 14.1479L109.758 13.8164C109.866 13.7893 109.98 13.8046 110.076 13.8593C110.173 13.9139 110.244 14.0036 110.276 14.1098C110.308 14.216 110.298 14.3304 110.248 14.4293C110.198 14.5281 110.111 14.6039 110.007 14.6407L108.902 14.9721C108.877 14.9792 108.851 14.9844 108.825 14.9876H108.832ZM111.032 14.3247C110.925 14.3379 110.817 14.3106 110.729 14.2481C110.641 14.1855 110.58 14.0923 110.558 13.9869C110.535 13.8814 110.553 13.7714 110.608 13.6784C110.663 13.5855 110.75 13.5165 110.853 13.485L111.958 13.1535C112.012 13.1371 112.069 13.1315 112.125 13.1371C112.181 13.1426 112.236 13.1591 112.286 13.1858C112.335 13.2124 112.38 13.2486 112.415 13.2922C112.451 13.3359 112.478 13.3862 112.494 13.4402C112.511 13.4943 112.516 13.551 112.511 13.6072C112.505 13.6634 112.489 13.718 112.462 13.7678C112.436 13.8176 112.399 13.8617 112.356 13.8975C112.312 13.9334 112.262 13.9602 112.208 13.9766L111.103 14.3081C111.078 14.3156 111.052 14.3207 111.027 14.3236L111.032 14.3247ZM113.231 13.6618C113.125 13.6739 113.017 13.6461 112.931 13.5837C112.844 13.5213 112.783 13.4288 112.76 13.3241C112.738 13.2195 112.755 13.1102 112.809 13.0176C112.863 12.925 112.949 12.8557 113.051 12.8231L114.149 12.4917C114.204 12.472 114.262 12.4636 114.32 12.4671C114.379 12.4706 114.436 12.4858 114.488 12.512C114.54 12.5381 114.586 12.5745 114.624 12.6191C114.661 12.6636 114.69 12.7154 114.707 12.7711C114.724 12.8269 114.729 12.8855 114.723 12.9435C114.717 13.0015 114.699 13.0576 114.67 13.1085C114.642 13.1593 114.603 13.2038 114.557 13.2393C114.51 13.2747 114.457 13.3004 114.401 13.3148L113.296 13.6463C113.272 13.6514 113.248 13.6544 113.223 13.6551L113.231 13.6618ZM115.428 12.9889C115.322 13.0015 115.215 12.974 115.127 12.9117C115.04 12.8494 114.979 12.7568 114.956 12.652C114.934 12.5472 114.951 12.4377 115.005 12.3449C115.059 12.2521 115.145 12.1827 115.247 12.1503L116.346 11.8122C116.4 11.793 116.458 11.785 116.516 11.7888C116.574 11.7926 116.631 11.808 116.682 11.8341C116.734 11.8603 116.78 11.8966 116.818 11.941C116.855 11.9853 116.883 12.0367 116.9 12.0922C116.917 12.1476 116.923 12.206 116.917 12.2636C116.911 12.3213 116.893 12.3772 116.865 12.4279C116.837 12.4787 116.799 12.5232 116.753 12.5588C116.707 12.5944 116.655 12.6205 116.599 12.6353L115.5 12.9734C115.474 12.9788 115.447 12.9817 115.421 12.9822L115.428 12.9889ZM37.5444 22.6013C37.4532 22.6137 37.3604 22.5965 37.2797 22.5521C37.199 22.5078 37.1346 22.4387 37.0962 22.3551C37.0577 22.2714 37.0471 22.1776 37.0659 22.0875C37.0848 21.9974 37.132 21.9157 37.2008 21.8544C37.4792 21.6036 37.7908 21.3517 38.1256 21.1042C38.2178 21.0406 38.3311 21.0155 38.4416 21.034C38.552 21.0526 38.6509 21.1134 38.7173 21.2036C38.7837 21.2938 38.8123 21.4064 38.7971 21.5173C38.782 21.6283 38.7242 21.729 38.6361 21.7981C38.3234 22.0279 38.035 22.2621 37.7776 22.4942C37.7102 22.5534 37.626 22.5901 37.5367 22.5991L37.5444 22.6013ZM117.624 12.3072C117.517 12.3198 117.41 12.2923 117.323 12.23C117.235 12.1677 117.174 12.0751 117.152 11.9703C117.129 11.8655 117.146 11.756 117.2 11.6632C117.254 11.5704 117.34 11.501 117.443 11.4686L118.54 11.1283C118.647 11.0996 118.762 11.1135 118.859 11.1672C118.956 11.2209 119.029 11.3101 119.062 11.4163C119.095 11.5225 119.086 11.6373 119.037 11.7368C118.987 11.8363 118.901 11.9128 118.796 11.9503L117.698 12.2917C117.671 12.2982 117.644 12.3026 117.616 12.305L117.624 12.3072ZM119.819 11.6255C119.713 11.6386 119.605 11.6114 119.517 11.5492C119.43 11.487 119.368 11.3943 119.346 11.2893C119.323 11.1843 119.34 11.0746 119.394 10.9816C119.448 10.8887 119.534 10.8192 119.637 10.7869L120.734 10.4443C120.842 10.4142 120.957 10.4272 121.056 10.4806C121.154 10.534 121.228 10.6237 121.261 10.7305C121.295 10.8374 121.285 10.9531 121.235 11.0531C121.185 11.1532 121.097 11.2296 120.992 11.2664L119.893 11.6089C119.867 11.6163 119.839 11.6212 119.812 11.6232L119.819 11.6255ZM122.014 10.9393C121.907 10.9529 121.799 10.9261 121.711 10.864C121.623 10.8019 121.561 10.7091 121.538 10.6039C121.515 10.4988 121.532 10.3888 121.586 10.2956C121.64 10.2025 121.727 10.133 121.83 10.1007L122.927 9.75601C123.036 9.72172 123.154 9.73208 123.255 9.78482C123.357 9.83755 123.433 9.92834 123.467 10.0372C123.501 10.1461 123.491 10.2641 123.438 10.3653C123.385 10.4665 123.295 10.5426 123.186 10.5769L122.089 10.9228C122.062 10.9301 122.034 10.9349 122.006 10.9371L122.014 10.9393ZM39.3785 21.2313C39.2816 21.2424 39.1838 21.2203 39.101 21.1686C39.0183 21.1168 38.9556 21.0386 38.9231 20.9466C38.8906 20.8546 38.8904 20.7542 38.9223 20.6621C38.9543 20.5699 39.0166 20.4913 39.099 20.4391C39.4161 20.2402 39.7564 20.0402 40.1111 19.8436C40.2105 19.7941 40.3252 19.7849 40.4312 19.818C40.5372 19.851 40.6264 19.9237 40.6801 20.0209C40.7338 20.1181 40.7479 20.2323 40.7195 20.3396C40.6911 20.4469 40.6224 20.5392 40.5276 20.5971C40.1862 20.7849 39.8647 20.9772 39.5575 21.1683C39.5031 21.202 39.4421 21.2235 39.3785 21.2313ZM124.199 10.2455C124.093 10.2576 123.986 10.2299 123.899 10.1679C123.813 10.1058 123.752 10.0138 123.729 9.90953C123.706 9.8053 123.723 9.6963 123.776 9.60365C123.829 9.51099 123.914 9.44127 124.016 9.40797L125.112 9.06103C125.165 9.04391 125.222 9.03757 125.278 9.04235C125.335 9.04713 125.39 9.06295 125.44 9.08891C125.49 9.11486 125.534 9.15045 125.571 9.19363C125.607 9.23681 125.635 9.28674 125.652 9.34057C125.669 9.3944 125.675 9.45108 125.671 9.50736C125.666 9.56365 125.65 9.61844 125.624 9.66861C125.598 9.71878 125.563 9.76334 125.519 9.79976C125.476 9.83618 125.426 9.86374 125.372 9.88086L124.275 10.2289C124.25 10.2365 124.225 10.2421 124.199 10.2455ZM126.392 9.5494C126.286 9.56196 126.179 9.53461 126.092 9.47267C126.005 9.41072 125.944 9.31859 125.921 9.21419C125.898 9.10979 125.914 9.00056 125.967 8.90773C126.02 8.8149 126.106 8.74511 126.208 8.7119L127.303 8.36165C127.41 8.33246 127.524 8.34572 127.621 8.39865C127.719 8.45158 127.792 8.5401 127.826 8.64577C127.86 8.75145 127.852 8.86613 127.803 8.96592C127.755 9.06571 127.67 9.14293 127.566 9.18147C127.219 9.29269 126.853 9.40944 126.468 9.53171C126.444 9.54021 126.418 9.54614 126.392 9.5494ZM41.3883 20.1187C41.2874 20.1311 41.1854 20.1075 41.1002 20.052C41.0151 19.9966 40.9523 19.9128 40.9229 19.8155C40.8936 19.7181 40.8996 19.6136 40.9398 19.5203C40.9801 19.4269 41.0521 19.3509 41.143 19.3055C41.4745 19.1397 41.8336 18.974 42.1971 18.8083C42.2489 18.7832 42.3053 18.7687 42.3628 18.7658C42.4203 18.7628 42.4779 18.7714 42.532 18.7911C42.5862 18.8108 42.6358 18.8411 42.678 18.8803C42.7203 18.9195 42.7542 18.9667 42.7778 19.0192C42.8015 19.0718 42.8143 19.1285 42.8157 19.1861C42.817 19.2437 42.8068 19.301 42.7856 19.3545C42.7644 19.4081 42.7327 19.4569 42.6924 19.498C42.652 19.5391 42.6038 19.5717 42.5506 19.5938C42.196 19.7529 41.8513 19.9154 41.5253 20.0778C41.4822 20.0988 41.4359 20.1126 41.3883 20.1187ZM128.585 8.8489C128.478 8.86417 128.369 8.83849 128.28 8.77698C128.191 8.71546 128.129 8.62264 128.105 8.51705C128.082 8.41146 128.099 8.30086 128.153 8.20734C128.208 8.11381 128.295 8.04423 128.399 8.0125L129.496 7.65894C129.603 7.62835 129.718 7.6407 129.817 7.69338C129.915 7.74605 129.99 7.83493 130.024 7.94127C130.058 8.04762 130.05 8.16311 130.001 8.26339C129.951 8.36367 129.865 8.44089 129.76 8.47877L128.663 8.83232C128.637 8.83995 128.612 8.8455 128.585 8.8489ZM130.781 8.13957C130.675 8.15209 130.568 8.12493 130.481 8.06333C130.394 8.00173 130.333 7.91007 130.31 7.80606C130.286 7.70205 130.302 7.59308 130.355 7.5002C130.407 7.40731 130.492 7.33712 130.593 7.30317C131.27 7.0822 131.632 6.96398 131.632 6.96398C131.738 6.93409 131.853 6.94652 131.95 6.99867C132.048 7.05083 132.122 7.13869 132.157 7.244C132.192 7.3493 132.184 7.46394 132.137 7.56407C132.089 7.66419 132.005 7.7421 131.901 7.78159L130.859 8.12189C130.834 8.12976 130.807 8.13495 130.781 8.13736V8.13957ZM43.4854 19.1696C43.3817 19.1832 43.2767 19.1587 43.1898 19.1006C43.1029 19.0425 43.0401 18.9548 43.013 18.8538C42.986 18.7528 42.9966 18.6455 43.0428 18.5517C43.0891 18.458 43.1678 18.3842 43.2644 18.3442C43.6113 18.2017 43.9748 18.057 44.3439 17.9155C44.3972 17.8925 44.4547 17.8804 44.5129 17.8802C44.571 17.8799 44.6286 17.8914 44.6822 17.914C44.7358 17.9366 44.7843 17.9698 44.8247 18.0117C44.8651 18.0535 44.8966 18.103 44.9174 18.1574C44.9381 18.2117 44.9476 18.2696 44.9454 18.3278C44.9431 18.3859 44.9291 18.4429 44.9043 18.4955C44.8794 18.548 44.8441 18.595 44.8006 18.6336C44.7571 18.6721 44.7062 18.7015 44.651 18.7199C44.2897 18.858 43.9328 18.9994 43.5925 19.1408C43.5582 19.155 43.5222 19.1646 43.4854 19.1696ZM45.6333 18.3509C45.5281 18.3639 45.4217 18.3377 45.3346 18.2772C45.2476 18.2168 45.1858 18.1264 45.1612 18.0233C45.1366 17.9202 45.1508 17.8116 45.2012 17.7183C45.2516 17.6251 45.3346 17.5537 45.4344 17.5178C45.7902 17.3918 46.1581 17.2648 46.5304 17.1399C46.6371 17.1096 46.7513 17.1216 46.8494 17.1733C46.9474 17.2251 47.0217 17.3127 47.0569 17.4178C47.092 17.523 47.0853 17.6376 47.0381 17.7379C46.9908 17.8382 46.9068 17.9165 46.8033 17.9564C46.4365 18.0791 46.073 18.2039 45.7239 18.3288C45.6945 18.3392 45.6641 18.3466 45.6333 18.3509ZM47.8165 17.6216C47.7105 17.6338 47.6037 17.6061 47.5169 17.5441C47.4301 17.482 47.3695 17.3899 47.3466 17.2857C47.3238 17.1815 47.3405 17.0725 47.3934 16.9798C47.4463 16.8872 47.5317 16.8174 47.6331 16.7841C47.9933 16.6737 48.3656 16.5632 48.738 16.446C48.8472 16.4149 48.9643 16.4281 49.0638 16.4829C49.1633 16.5376 49.2372 16.6294 49.2694 16.7383C49.3016 16.8473 49.2894 16.9645 49.2356 17.0645C49.1819 17.1645 49.0908 17.2393 48.9821 17.2725C48.612 17.383 48.2441 17.4935 47.8883 17.604C47.8648 17.6104 47.8408 17.6148 47.8165 17.6172V17.6216ZM50.0263 16.9687C49.9188 16.9814 49.8105 16.9532 49.7229 16.8897C49.6352 16.8263 49.5747 16.7322 49.5532 16.6261C49.5318 16.52 49.5511 16.4098 49.6072 16.3173C49.6633 16.2248 49.7521 16.1567 49.8561 16.1267C50.224 16.024 50.5997 15.9223 50.9731 15.824C51.0835 15.7947 51.2009 15.8104 51.2996 15.8677C51.3984 15.925 51.4703 16.0192 51.4996 16.1295C51.5289 16.2398 51.5132 16.3573 51.4559 16.456C51.3986 16.5547 51.3044 16.6267 51.1941 16.656C50.824 16.7532 50.4527 16.8549 50.0892 16.9565C50.0674 16.9607 50.0452 16.9633 50.0229 16.9642L50.0263 16.9687ZM52.2471 16.3753C52.1371 16.3918 52.025 16.365 51.9344 16.3006C51.8437 16.2362 51.7816 16.1392 51.761 16.0299C51.7404 15.9206 51.763 15.8076 51.8239 15.7146C51.8849 15.6216 51.9795 15.5559 52.088 15.5312C52.457 15.4384 52.836 15.3467 53.2116 15.2572C53.2677 15.241 53.3264 15.2363 53.3843 15.2435C53.4422 15.2506 53.4981 15.2695 53.5485 15.2989C53.5989 15.3283 53.6428 15.3676 53.6776 15.4145C53.7123 15.4613 53.7372 15.5148 53.7507 15.5716C53.7642 15.6283 53.766 15.6872 53.756 15.7447C53.746 15.8022 53.7245 15.8571 53.6927 15.906C53.6609 15.9549 53.6195 15.9969 53.5709 16.0293C53.5224 16.0617 53.4679 16.084 53.4105 16.0947C53.0382 16.1831 52.6636 16.2748 52.2968 16.3665L52.2471 16.3753ZM54.4878 15.8439C54.3772 15.8597 54.2648 15.8319 54.1744 15.7663C54.084 15.7008 54.0226 15.6025 54.0034 15.4925C53.9841 15.3825 54.0085 15.2693 54.0713 15.1769C54.134 15.0845 54.2303 15.0202 54.3397 14.9976C54.7176 14.9125 55.0977 14.8296 55.4722 14.7512C55.5824 14.7317 55.6958 14.7559 55.7885 14.8186C55.8811 14.8813 55.9458 14.9776 55.9687 15.0871C55.9917 15.1966 55.9712 15.3107 55.9115 15.4054C55.8518 15.5 55.7577 15.5677 55.649 15.5942C55.2788 15.6715 54.9021 15.7533 54.5286 15.8373C54.5159 15.8404 54.503 15.8426 54.49 15.8439H54.4878ZM56.745 15.3688C56.6332 15.3855 56.5192 15.3574 56.4279 15.2907C56.3366 15.2239 56.2752 15.1239 56.2572 15.0122C56.2392 14.9005 56.2659 14.7863 56.3316 14.6942C56.3972 14.6021 56.4966 14.5396 56.608 14.5202C57.3262 14.3788 57.7405 14.3081 57.7582 14.2993C57.8152 14.2867 57.8741 14.2858 57.9314 14.2967C57.9887 14.3076 58.0432 14.33 58.0916 14.3626C58.14 14.3951 58.1813 14.4372 58.213 14.4862C58.2446 14.5352 58.266 14.5901 58.2758 14.6476C58.2856 14.7051 58.2837 14.764 58.27 14.8207C58.2564 14.8774 58.2314 14.9308 58.1965 14.9776C58.1617 15.0244 58.1177 15.0636 58.0672 15.0928C58.0167 15.1221 57.9609 15.1408 57.9029 15.1478C57.9029 15.1478 57.4809 15.2196 56.7738 15.3588L56.745 15.3688Z" fill="#5FD068"/>
<path d="M136.832 13.9302L151.833 2.6925L137.189 5.4536L138.647 7.80036L136.031 11.5669L136.832 13.9302Z" fill="#5BB662"/>
<path d="M151.831 2.6925L135.279 7.9683L124.031 18.1232L151.831 2.6925Z" fill="#5FD068"/>
<path d="M137.183 5.4536L151.827 2.6925L135.812 0.145752L137.183 5.4536Z" fill="#5FD068"/>
<path d="M111.443 79.4186H74.9016C73.9765 79.4186 73.2266 80.1685 73.2266 81.0936V87.5383C73.2266 88.4634 73.9765 89.2133 74.9016 89.2133H111.443C112.368 89.2133 113.118 88.4634 113.118 87.5383V81.0936C113.118 80.1685 112.368 79.4186 111.443 79.4186Z" fill="#5FD068"/>
<g filter="url(#filter0_d_1619_655)">
<path d="M80.8125 31.5912V60.2223C80.8125 60.9599 81.0843 61.6673 81.5681 62.1888C82.0519 62.7104 82.7082 63.0034 83.3924 63.0034H104.427C105.111 63.0034 105.767 62.7104 106.251 62.1888C106.735 61.6673 107.007 60.9599 107.007 60.2223V31.5912H80.8125Z" fill="white"/>
</g>
<path d="M107.015 32.8812V36.4651H80.8125V32.8812C80.8125 32.5391 80.9484 32.211 81.1903 31.9691C81.4322 31.7272 81.7603 31.5912 82.1024 31.5912H105.723C105.893 31.591 106.061 31.6241 106.218 31.6888C106.374 31.7535 106.517 31.8485 106.637 31.9683C106.757 32.0881 106.852 32.2304 106.917 32.3871C106.982 32.5437 107.015 32.7116 107.015 32.8812Z" fill="#5FD068"/>
<path d="M105.226 34.6463C105.697 34.6463 106.078 34.2651 106.078 33.7949C106.078 33.3247 105.697 32.9435 105.226 32.9435C104.756 32.9435 104.375 33.3247 104.375 33.7949C104.375 34.2651 104.756 34.6463 105.226 34.6463Z" fill="#E3390F"/>
<g opacity="0.3">
<path d="M103.201 50.6716H84.8341C84.6979 50.6716 84.5672 50.7257 84.4708 50.8221C84.3744 50.9184 84.3203 51.0491 84.3203 51.1854C84.3203 51.2528 84.3336 51.3195 84.3595 51.3817C84.3853 51.4439 84.4232 51.5004 84.4709 51.548C84.5187 51.5955 84.5753 51.6332 84.6377 51.6587C84.7 51.6843 84.7668 51.6974 84.8341 51.6971H103.201C103.268 51.6974 103.335 51.6843 103.397 51.6587C103.46 51.6332 103.516 51.5955 103.564 51.548C103.612 51.5004 103.65 51.4439 103.675 51.3817C103.701 51.3195 103.715 51.2528 103.715 51.1854C103.715 51.0491 103.66 50.9184 103.564 50.8221C103.468 50.7257 103.337 50.6716 103.201 50.6716Z" fill="#5FD068"/>
</g>
<g opacity="0.3">
<path d="M103.201 53.2407H84.8341C84.6979 53.2407 84.5672 53.2949 84.4708 53.3912C84.3744 53.4876 84.3203 53.6183 84.3203 53.7545C84.3203 53.8908 84.3744 54.0215 84.4708 54.1179C84.5672 54.2142 84.6979 54.2684 84.8341 54.2684H103.201C103.337 54.2684 103.468 54.2142 103.564 54.1179C103.66 54.0215 103.715 53.8908 103.715 53.7545C103.715 53.6183 103.66 53.4876 103.564 53.3912C103.468 53.2949 103.337 53.2407 103.201 53.2407Z" fill="#5FD068"/>
</g>
<g opacity="0.3">
<path d="M103.201 55.812H84.8341C84.7668 55.8117 84.7 55.8248 84.6377 55.8503C84.5753 55.8759 84.5187 55.9136 84.4709 55.9611C84.4232 56.0087 84.3853 56.0652 84.3595 56.1274C84.3336 56.1896 84.3203 56.2563 84.3203 56.3237C84.3203 56.46 84.3744 56.5907 84.4708 56.687C84.5672 56.7834 84.6979 56.8375 84.8341 56.8375H103.201C103.337 56.8375 103.468 56.7834 103.564 56.687C103.66 56.5907 103.715 56.46 103.715 56.3237C103.715 56.2563 103.701 56.1896 103.675 56.1274C103.65 56.0652 103.612 56.0087 103.564 55.9611C103.516 55.9136 103.46 55.8759 103.397 55.8503C103.335 55.8248 103.268 55.8117 103.201 55.812Z" fill="#5FD068"/>
</g>
<g opacity="0.3">
<path d="M103.201 58.3811H84.8341C84.6982 58.3811 84.5679 58.4349 84.4716 58.5308C84.3753 58.6267 84.3209 58.7569 84.3203 58.8928C84.3203 59.0291 84.3744 59.1597 84.4708 59.2561C84.5672 59.3525 84.6979 59.4066 84.8341 59.4066H103.201C103.337 59.4066 103.468 59.3525 103.564 59.2561C103.66 59.1597 103.715 59.0291 103.715 58.8928C103.714 58.7569 103.66 58.6267 103.563 58.5308C103.467 58.4349 103.337 58.3811 103.201 58.3811Z" fill="#5FD068"/>
</g>
<path d="M96.1879 42.7148H91.8516V43.0394H96.1879V42.7148Z" fill="#173953"/>
<path d="M96.1879 43.3727H91.8516V43.6973H96.1879V43.3727Z" fill="#173953"/>
<path d="M96.2035 44.08H91.8672V44.4047H96.2035V44.08Z" fill="#173953"/>
<path d="M96.1879 44.7745H91.8516V45.0991H96.1879V44.7745Z" fill="#173953"/>
<path d="M96.1879 45.4302H91.8516V45.7548H96.1879V45.4302Z" fill="#173953"/>
<path d="M96.1879 46.1826H91.8516V46.5073H96.1879V46.1826Z" fill="#173953"/>
<path d="M92.7219 44.3832C92.7219 44.4412 92.7219 44.4971 92.7219 44.5551C92.6892 45.4086 92.3883 46.2301 91.862 46.9028V46.9136C91.7889 47.006 91.7115 47.0963 91.6298 47.1823C90.9452 47.9115 90.0161 48.363 89.0198 48.4508H88.9833C88.9252 48.4508 88.8672 48.4508 88.807 48.4508H88.6586H88.4651C88.3727 48.4508 88.2802 48.44 88.1899 48.4293C87.2253 48.3196 86.3313 47.8699 85.6681 47.1608L85.6144 47.1028L85.5542 47.034L85.5176 46.991C85.5069 46.9781 85.4983 46.9652 85.4875 46.9544L85.4381 46.8921C84.9139 46.2215 84.6131 45.4034 84.5781 44.553C84.5781 44.4949 84.5781 44.4391 84.5781 44.381C84.5781 44.323 84.5781 44.2671 84.5781 44.209C84.6091 43.4129 84.8738 42.6434 85.3392 41.9968L85.3585 41.971L85.3908 41.9258L85.4402 41.8592L85.4983 41.7904C85.5158 41.766 85.5352 41.743 85.5563 41.7216C86.2275 40.9422 87.168 40.4447 88.1899 40.3284C88.2802 40.3177 88.3727 40.3112 88.4651 40.3069H88.5576H88.807L88.9833 40.3177H89.022C90.0786 40.4122 91.057 40.9142 91.7502 41.7173C91.8266 41.8037 91.8983 41.8942 91.9652 41.9882C92.4291 42.6356 92.6937 43.4046 92.7262 44.2004C92.7198 44.2757 92.7219 44.3251 92.7219 44.3832Z" fill="#5FD068"/>
<path d="M88.6271 46.6706C89.8536 46.6706 90.8479 45.6763 90.8479 44.4498C90.8479 43.2232 89.8536 42.2289 88.6271 42.2289C87.4006 42.2289 86.4062 43.2232 86.4062 44.4498C86.4062 45.6763 87.4006 46.6706 88.6271 46.6706Z" fill="white"/>
<path d="M88.6258 45.729C88.3703 45.729 88.1204 45.653 87.9081 45.5108C87.6957 45.3686 87.5304 45.1665 87.4331 44.9302C87.3358 44.6938 87.3109 44.4339 87.3615 44.1834C87.4122 43.9329 87.5361 43.7031 87.7176 43.5231C87.8991 43.3431 88.1299 43.2212 88.3808 43.1726C88.6318 43.124 88.8915 43.1511 89.127 43.2504C89.3625 43.3497 89.5632 43.5167 89.7036 43.7302C89.8441 43.9438 89.9179 44.1942 89.9158 44.4498C89.9129 44.79 89.7758 45.1154 89.5342 45.355C89.2926 45.5946 88.9661 45.729 88.6258 45.729Z" fill="#B3B3B3"/>
<path d="M88.6318 44.9679C88.5287 44.9683 88.4278 44.9381 88.3419 44.8811C88.2561 44.8241 88.189 44.7429 88.1494 44.6477C88.1097 44.5526 88.0993 44.4478 88.1193 44.3467C88.1393 44.2455 88.1889 44.1526 88.2618 44.0798C88.3347 44.0069 88.4276 43.9573 88.5287 43.9373C88.6298 43.9173 88.7346 43.9277 88.8297 43.9674C88.9249 44.007 89.0061 44.074 89.0631 44.1599C89.1201 44.2458 89.1503 44.3467 89.1499 44.4498C89.1494 44.587 89.0946 44.7185 88.9975 44.8155C88.9005 44.9126 88.769 44.9673 88.6318 44.9679Z" fill="#686868"/>
<path d="M103.507 44.3832C103.507 44.4412 103.507 44.4971 103.507 44.5551C103.475 45.4087 103.174 46.2302 102.648 46.9028V46.9136C102.574 47.006 102.497 47.0963 102.417 47.1823C101.732 47.9103 100.803 48.3616 99.8075 48.4508H99.771C99.7108 48.4508 99.6527 48.4508 99.5947 48.4508H99.4442H99.2507C99.1582 48.4508 99.0679 48.44 98.9755 48.4293C98.0101 48.3201 97.1152 47.8703 96.4515 47.1608L96.3956 47.1028C96.3763 47.0791 96.3569 47.0555 96.3354 47.034L96.301 46.991L96.2688 46.9544C96.2535 46.9327 96.237 46.9119 96.2193 46.8921C95.6953 46.2214 95.3945 45.4034 95.3594 44.553C95.3594 44.4949 95.3594 44.4391 95.3594 44.381C95.3594 44.323 95.3594 44.2671 95.3594 44.209C95.392 43.4132 95.6565 42.6442 96.1204 41.9968L96.1398 41.971L96.1742 41.9258L96.2258 41.8592C96.243 41.8355 96.2623 41.814 96.2817 41.7904L96.3397 41.7216C97.0114 40.9417 97.9528 40.4442 98.9755 40.3284C99.0679 40.3177 99.1582 40.3112 99.2507 40.3069H99.3453H99.5947L99.771 40.3177H99.8075C100.856 40.4138 101.828 40.9114 102.519 41.7065C102.594 41.7925 102.665 41.8828 102.734 41.9774C103.199 42.6239 103.464 43.3934 103.495 44.1897C103.507 44.2757 103.507 44.3251 103.507 44.3832Z" fill="#5FD068"/>
<path d="M99.4083 46.6706C100.635 46.6706 101.629 45.6763 101.629 44.4498C101.629 43.2232 100.635 42.2289 99.4083 42.2289C98.1818 42.2289 97.1875 43.2232 97.1875 44.4498C97.1875 45.6763 98.1818 46.6706 99.4083 46.6706Z" fill="white"/>
<path d="M99.4149 45.729C99.1593 45.729 98.9095 45.653 98.6971 45.5108C98.4848 45.3686 98.3195 45.1665 98.2222 44.9302C98.1248 44.6938 98.0999 44.4339 98.1506 44.1834C98.2012 43.9329 98.3252 43.7031 98.5066 43.5231C98.6881 43.3431 98.919 43.2212 99.1699 43.1726C99.4208 43.124 99.6805 43.1511 99.916 43.2504C100.152 43.3497 100.352 43.5167 100.493 43.7302C100.633 43.9438 100.707 44.1942 100.705 44.4498C100.702 44.79 100.565 45.1154 100.323 45.355C100.082 45.5946 99.7552 45.729 99.4149 45.729Z" fill="#B3B3B3"/>
<path d="M99.4109 44.9679C99.3079 44.9679 99.2072 44.9373 99.1216 44.8801C99.036 44.8228 98.9693 44.7414 98.93 44.6462C98.8907 44.5511 98.8805 44.4463 98.9008 44.3453C98.921 44.2444 98.9708 44.1517 99.0438 44.079C99.1168 44.0063 99.2097 43.9569 99.3107 43.9371C99.4118 43.9173 99.5165 43.9279 99.6115 43.9676C99.7065 44.0073 99.7876 44.0743 99.8445 44.1602C99.9014 44.246 99.9316 44.3468 99.9312 44.4498C99.9312 44.518 99.9177 44.5856 99.8915 44.6486C99.8654 44.7116 99.827 44.7688 99.7787 44.8169C99.7303 44.8651 99.6729 44.9032 99.6098 44.9291C99.5467 44.955 99.4791 44.9682 99.4109 44.9679Z" fill="#686868"/>
<path d="M79.6913 86.9836V83.1659H81.382C81.6183 83.1659 81.8328 83.2204 82.0255 83.3295C82.2182 83.4349 82.3691 83.5786 82.4782 83.7604C82.5909 83.9422 82.6473 84.1494 82.6473 84.3821C82.6473 84.6112 82.5909 84.8202 82.4782 85.0093C82.3691 85.1947 82.2182 85.342 82.0255 85.451C81.8328 85.5601 81.6183 85.6147 81.382 85.6147H80.4821V86.9836H79.6913ZM81.8565 86.9836L80.8857 85.2602L81.7256 85.1238L82.8054 86.989L81.8565 86.9836ZM80.4821 84.9493H81.3438C81.442 84.9493 81.5274 84.9275 81.6001 84.8838C81.6765 84.8366 81.7347 84.773 81.7747 84.693C81.8147 84.6093 81.8347 84.5166 81.8347 84.4148C81.8347 84.3057 81.811 84.2112 81.7638 84.1312C81.7165 84.0512 81.6474 83.9894 81.5565 83.9458C81.4656 83.8985 81.3602 83.8749 81.2402 83.8749H80.4821V84.9493ZM83.8373 86.9836V83.1659H86.417V83.8858H84.6335V86.2637H86.4551V86.9836H83.8373ZM84.2191 85.3856V84.6875H86.1552V85.3856H84.2191ZM90.4842 87.5835L89.0281 85.6365L89.6444 85.2056L91.0842 87.1417L90.4842 87.5835ZM89.3171 87.0381C89.0372 87.0381 88.779 86.989 88.5427 86.8909C88.3063 86.7927 88.0991 86.6564 87.9209 86.4818C87.7464 86.3037 87.6119 86.0946 87.5174 85.8546C87.4228 85.611 87.3756 85.3474 87.3756 85.0638C87.3756 84.7766 87.4228 84.5148 87.5174 84.2785C87.6119 84.0385 87.7464 83.8294 87.9209 83.6513C88.0991 83.4731 88.3063 83.335 88.5427 83.2368C88.779 83.1386 89.0372 83.0895 89.3171 83.0895C89.6007 83.0895 89.8589 83.1386 90.0916 83.2368C90.3279 83.335 90.5333 83.4731 90.7079 83.6513C90.886 83.8294 91.0224 84.0385 91.1169 84.2785C91.2114 84.5184 91.2587 84.7802 91.2587 85.0638C91.2587 85.3474 91.2114 85.6092 91.1169 85.8492C91.0224 86.0892 90.886 86.2982 90.7079 86.4764C90.5333 86.6545 90.3279 86.7927 90.0916 86.8909C89.8589 86.989 89.6007 87.0381 89.3171 87.0381ZM89.3171 86.2637C89.4771 86.2637 89.6244 86.2346 89.7589 86.1764C89.8971 86.1182 90.0152 86.0346 90.1134 85.9255C90.2116 85.8165 90.2879 85.6892 90.3424 85.5438C90.4006 85.3983 90.4297 85.2383 90.4297 85.0638C90.4297 84.8893 90.4006 84.7293 90.3424 84.5839C90.2879 84.4385 90.2116 84.313 90.1134 84.2076C90.0152 84.0985 89.8971 84.0149 89.7589 83.9567C89.6244 83.8949 89.4771 83.864 89.3171 83.864C89.1571 83.864 89.0099 83.8949 88.8754 83.9567C88.7408 84.0149 88.6227 84.0985 88.5209 84.2076C88.4191 84.313 88.3409 84.4385 88.2863 84.5839C88.2354 84.7293 88.21 84.8893 88.21 85.0638C88.21 85.2383 88.2354 85.3983 88.2863 85.5438C88.3409 85.6892 88.4191 85.8165 88.5209 85.9255C88.6227 86.0346 88.7408 86.1182 88.8754 86.1764C89.0099 86.2346 89.1571 86.2637 89.3171 86.2637ZM93.897 87.0163C93.588 87.0163 93.3117 86.9527 93.0681 86.8254C92.8281 86.6945 92.639 86.5164 92.5009 86.2909C92.3627 86.0619 92.2936 85.8037 92.2936 85.5165V83.1604H93.1171V85.4674C93.1171 85.6201 93.1517 85.7583 93.2208 85.8819C93.2898 86.0019 93.3826 86.0982 93.4989 86.171C93.6189 86.2437 93.7516 86.28 93.897 86.28C94.0461 86.28 94.1806 86.2437 94.3006 86.171C94.4242 86.0982 94.5206 86.0019 94.5897 85.8819C94.6624 85.7583 94.6988 85.6201 94.6988 85.4674V83.1604H95.495V85.5165C95.495 85.8037 95.4259 86.0619 95.2878 86.2909C95.1496 86.5164 94.9587 86.6945 94.7151 86.8254C94.4751 86.9527 94.2025 87.0163 93.897 87.0163ZM96.7812 86.9836V83.1659H99.3609V83.8858H97.5775V86.2637H99.3991V86.9836H96.7812ZM97.163 85.3856V84.6875H99.0991V85.3856H97.163ZM101.808 87.0381C101.572 87.0381 101.356 87.009 101.159 86.9509C100.967 86.8927 100.794 86.8072 100.641 86.6945C100.492 86.5818 100.358 86.4455 100.238 86.2855L100.75 85.7019C100.929 85.9492 101.105 86.1182 101.279 86.2091C101.458 86.2964 101.65 86.34 101.857 86.34C101.97 86.34 102.07 86.3255 102.157 86.2964C102.248 86.2637 102.319 86.2182 102.37 86.1601C102.421 86.1019 102.447 86.0328 102.447 85.9528C102.447 85.8946 102.434 85.8419 102.408 85.7946C102.383 85.7437 102.347 85.7001 102.299 85.6637C102.252 85.6238 102.196 85.5892 102.13 85.5601C102.065 85.5274 101.992 85.5001 101.912 85.4783C101.832 85.4529 101.745 85.4329 101.65 85.4183C101.447 85.3711 101.268 85.3147 101.116 85.2493C100.963 85.1802 100.836 85.0965 100.734 84.9984C100.632 84.8966 100.556 84.782 100.505 84.6548C100.458 84.5275 100.434 84.3839 100.434 84.2239C100.434 84.0603 100.47 83.9094 100.543 83.7713C100.616 83.6295 100.716 83.5077 100.843 83.4059C100.974 83.3041 101.123 83.2259 101.29 83.1713C101.461 83.1168 101.641 83.0895 101.83 83.0895C102.063 83.0895 102.267 83.1168 102.441 83.1713C102.616 83.2222 102.766 83.2968 102.894 83.3949C103.025 83.4931 103.134 83.6131 103.221 83.7549L102.703 84.2567C102.626 84.1549 102.543 84.0694 102.452 84.0003C102.365 83.9312 102.268 83.8803 102.163 83.8476C102.061 83.8113 101.956 83.7931 101.847 83.7931C101.727 83.7931 101.623 83.8094 101.536 83.8422C101.448 83.8713 101.379 83.9149 101.328 83.9731C101.281 84.0312 101.258 84.1021 101.258 84.1858C101.258 84.2512 101.274 84.3094 101.307 84.3603C101.339 84.4112 101.387 84.4566 101.448 84.4966C101.51 84.533 101.585 84.5657 101.672 84.5948C101.759 84.6239 101.856 84.6493 101.961 84.6711C102.161 84.7111 102.341 84.7639 102.501 84.8293C102.661 84.8948 102.797 84.9747 102.91 85.0693C103.026 85.1602 103.116 85.2693 103.177 85.3965C103.239 85.5201 103.27 85.6601 103.27 85.8165C103.27 86.0746 103.208 86.2946 103.085 86.4764C102.961 86.6582 102.79 86.7982 102.572 86.8963C102.354 86.9909 102.099 87.0381 101.808 87.0381ZM105.134 86.9836V83.9022H104.022V83.1659H107.098V83.9022H105.953V86.9836H105.134Z" fill="white"/>
<defs>
<filter id="filter0_d_1619_655" x="79.9525" y="31.5912" width="27.9152" height="33.1321" filterUnits="userSpaceOnUse" color-interpolation-filters="sRGB">
<feFlood flood-opacity="0" result="BackgroundImageFix"/>
<feColorMatrix in="SourceAlpha" type="matrix" values="0 0 0 0 0 0 0 0 0 0 0 0 0 0 0 0 0 0 127 0" result="hardAlpha"/>
<feOffset dy="0.859959"/>
<feGaussianBlur stdDeviation="0.429979"/>
<feComposite in2="hardAlpha" operator="out"/>
<feColorMatrix type="matrix" values="0 0 0 0 0 0 0 0 0 0 0 0 0 0 0 0 0 0 0.16 0"/>
<feBlend mode="normal" in2="BackgroundImageFix" result="effect1_dropShadow_1619_655"/>
<feBlend mode="normal" in="SourceGraphic" in2="effect1_dropShadow_1619_655" result="shape"/>
</filter>
</defs>
</svg>
