<svg width="117" height="109" viewBox="0 0 117 109" fill="none" xmlns="http://www.w3.org/2000/svg">
<g clip-path="url(#clip0_1619_970)">
<path d="M17.8597 100.203C40.4763 110.981 77.1434 110.984 99.76 100.203C122.377 89.4214 122.373 71.9478 99.76 61.1695C77.1466 50.3913 40.4763 50.3913 17.8597 61.1695C-4.75695 71.9478 -4.75366 89.4247 17.8597 100.203Z" fill="#F5F5F5"/>
<path d="M99.6906 92.2407C103.856 92.2407 107.233 90.6316 107.233 88.6468C107.233 86.662 103.856 85.053 99.6906 85.053C95.5252 85.053 92.1484 86.662 92.1484 88.6468C92.1484 90.6316 95.5252 92.2407 99.6906 92.2407Z" fill="#EBEBEB"/>
<path d="M16.1484 89.1589L18.8167 87.6196C20.3065 86.4038 21.4405 84.8084 22.0988 83.0017C22.9226 80.7305 22.8077 79.0042 22.217 78.1377C21.4916 77.0711 19.611 77.2581 19.5355 79.5031C19.378 83.9273 18.0881 86.996 16.1484 89.1589Z" fill="#5FD068"/>
<path opacity="0.2" d="M16.1484 89.1589L18.8167 87.6196C20.3065 86.4038 21.4405 84.8084 22.0988 83.0017C22.9226 80.7305 22.8077 79.0042 22.217 78.1377C21.4916 77.0711 19.611 77.2581 19.5355 79.5031C19.378 83.9273 18.0881 86.996 16.1484 89.1589Z" fill="black"/>
<path d="M16.1543 89.323C16.1195 89.3226 16.0858 89.3111 16.058 89.2903C16.0302 89.2695 16.0097 89.2404 15.9994 89.2072C15.9892 89.174 15.9898 89.1384 16.0011 89.1055C16.0124 89.0726 16.0339 89.0442 16.0624 89.0243C22.2326 84.7577 21.038 78.8073 21.0248 78.7482C21.0203 78.7267 21.0201 78.7044 21.0241 78.6828C21.0282 78.6612 21.0365 78.6405 21.0485 78.6221C21.0606 78.6037 21.0761 78.5878 21.0943 78.5753C21.1125 78.5629 21.1329 78.5542 21.1545 78.5497C21.176 78.5451 21.1983 78.5449 21.2199 78.549C21.2416 78.553 21.2622 78.5613 21.2806 78.5734C21.2991 78.5854 21.3149 78.6009 21.3274 78.6191C21.3398 78.6373 21.3485 78.6578 21.353 78.6793C21.353 78.7417 22.6134 84.8955 16.2593 89.2935C16.2285 89.3145 16.1916 89.3249 16.1543 89.323Z" fill="white"/>
<path d="M10.803 92.2473C10.803 92.2473 9.87418 91.4925 10.0974 90.4685C10.3205 89.4445 10.9212 88.7093 9.89387 87.3899C8.86659 86.0705 8.58105 84.3113 9.80854 83.3595C10.7439 82.6211 12.2044 83.6648 12.7296 81.7185C13.1168 80.2941 12.9856 77.14 14.8005 76.0898C16.6155 75.0395 17.7544 76.6215 17.4688 78.7614C17.2194 80.6748 16.8649 82.5161 17.1406 83.0281C17.6723 84.0127 18.5815 83.8781 18.5388 85.6767C18.5027 87.3505 16.9175 88.7355 16.9175 88.7355L10.803 92.2473Z" fill="#5FD068"/>
<path d="M13.8524 90.6424C13.8123 90.642 13.7736 90.6272 13.7435 90.6006C13.7134 90.5741 13.6938 90.5377 13.6883 90.498C13.219 86.6087 14.3447 79.8936 15.2637 77.8982C15.2714 77.876 15.2838 77.8558 15.3 77.8389C15.3162 77.8219 15.3359 77.8087 15.3576 77.7999C15.3794 77.7912 15.4028 77.7873 15.4262 77.7884C15.4496 77.7895 15.4726 77.7956 15.4934 77.8063C15.513 77.8151 15.5306 77.8277 15.5453 77.8435C15.5599 77.8592 15.5712 77.8777 15.5785 77.8979C15.5859 77.9181 15.5891 77.9396 15.588 77.9611C15.5869 77.9825 15.5815 78.0035 15.5722 78.0229C14.6631 79.9921 13.5767 86.7269 14.0263 90.4454C14.031 90.4885 14.0184 90.5316 13.9913 90.5654C13.9643 90.5993 13.925 90.621 13.8819 90.626L13.8524 90.6424Z" fill="white"/>
<path d="M13.7632 87.613C13.738 87.6142 13.7131 87.6086 13.6909 87.5966C12.5521 87.0419 11.83 85.0629 11.8005 84.971C11.7924 84.9505 11.7886 84.9287 11.7891 84.9068C11.7896 84.8849 11.7946 84.8633 11.8036 84.8433C11.8126 84.8233 11.8256 84.8053 11.8417 84.7904C11.8578 84.7755 11.8767 84.764 11.8973 84.7565C11.918 84.749 11.9399 84.7458 11.9618 84.7469C11.9837 84.7481 12.0052 84.7536 12.0249 84.7632C12.0446 84.7728 12.0623 84.7863 12.0767 84.8028C12.0911 84.8193 12.1021 84.8385 12.109 84.8594C12.109 84.8791 12.8146 86.7958 13.8354 87.2914C13.8688 87.3076 13.8958 87.3347 13.9119 87.3683C13.9279 87.4018 13.9321 87.4398 13.9237 87.4761C13.9153 87.5123 13.8949 87.5447 13.8657 87.5677C13.8365 87.5908 13.8004 87.6033 13.7632 87.6032V87.613Z" fill="white"/>
<path d="M13.7412 88.9259C13.7084 88.9259 13.6763 88.9158 13.6493 88.8971C13.6223 88.8783 13.6017 88.8517 13.5903 88.8208C13.5739 88.7808 13.5741 88.7359 13.5907 88.6959C13.6073 88.656 13.639 88.6242 13.6789 88.6075C15.5956 87.8395 16.7903 85.5585 16.8034 85.5322C16.8234 85.4935 16.858 85.4643 16.8995 85.4511C16.9411 85.4378 16.9862 85.4416 17.0249 85.4617C17.0637 85.4817 17.0929 85.5163 17.1061 85.5578C17.1193 85.5994 17.1155 85.6445 17.0955 85.6832C17.043 85.7817 15.8319 88.0988 13.8134 88.9127C13.791 88.9234 13.766 88.9279 13.7412 88.9259Z" fill="white"/>
<path d="M80.738 71.2684C80.738 71.2684 79.3038 68.9447 79.1626 66.4208C79.0215 63.8969 79.5762 62.8467 80.3376 62.5447C81.099 62.2428 81.1581 63.1716 81.5487 63.7197C81.9392 64.2678 82.7368 63.956 83.0322 62.246C83.3276 60.5361 84.4041 57.6512 86.6424 57.0899C89.104 56.4795 87.7846 59.3677 87.1643 60.4934C86.544 61.6192 86.0648 63.1552 86.4718 63.572C86.8787 63.9888 87.5122 63.2175 88.1128 63.933C88.8447 64.7962 86.5702 67.9043 85.264 68.6559L80.738 71.2684Z" fill="#5FD068"/>
<path d="M82.7046 70.2937C82.683 70.2928 82.6618 70.2877 82.6422 70.2787C82.6226 70.2697 82.605 70.2568 82.5904 70.241C82.5758 70.2251 82.5644 70.2066 82.557 70.1863C82.5495 70.1661 82.5461 70.1445 82.547 70.123C82.7693 66.063 84.0354 62.129 86.2229 58.7015C86.2353 58.6836 86.2512 58.6684 86.2696 58.6569C86.288 58.6453 86.3086 58.6376 86.3301 58.6343C86.3515 58.6309 86.3735 58.6319 86.3945 58.6373C86.4156 58.6426 86.4354 58.6522 86.4527 58.6653C86.487 58.6909 86.5101 58.7289 86.5168 58.7712C86.5236 58.8135 86.5135 58.8568 86.4888 58.8918C84.3403 62.2692 83.097 66.1426 82.8785 70.1394C82.8772 70.161 82.8717 70.1821 82.8623 70.2015C82.8529 70.2209 82.8397 70.2383 82.8236 70.2526C82.8074 70.267 82.7886 70.278 82.7681 70.285C82.7477 70.2921 82.7261 70.295 82.7046 70.2937Z" fill="white"/>
<path d="M82.8949 68.354C82.8675 68.3537 82.8405 68.347 82.8162 68.3343C81.8972 67.8256 81.3885 66.3158 81.3688 66.2534C81.3615 66.233 81.3584 66.2113 81.3596 66.1896C81.3608 66.1679 81.3663 66.1467 81.3758 66.1272C81.3853 66.1076 81.3985 66.0902 81.4148 66.0758C81.431 66.0614 81.45 66.0504 81.4705 66.0434C81.5119 66.0299 81.5569 66.0334 81.5956 66.0531C81.6344 66.0728 81.6638 66.1071 81.6773 66.1484C81.6773 66.1484 82.1696 67.6024 82.9901 68.0455C83.0273 68.0674 83.0545 68.1029 83.0661 68.1445C83.0778 68.1861 83.0729 68.2306 83.0525 68.2686C83.0376 68.2969 83.0147 68.3201 82.9867 68.3353C82.9586 68.3505 82.9267 68.357 82.8949 68.354Z" fill="white"/>
<path d="M83.0534 67.3595C83.017 67.3591 82.9818 67.3467 82.9533 67.3241C82.9248 67.3015 82.9045 67.2701 82.8958 67.2348C82.8904 67.2141 82.8892 67.1925 82.8923 67.1714C82.8953 67.1502 82.9025 67.1299 82.9135 67.1115C82.9245 67.0932 82.9391 67.0772 82.9563 67.0646C82.9736 67.0519 82.9932 67.0429 83.014 67.0379C85.3836 66.4373 86.2041 65.1966 86.2107 65.1835C86.2223 65.1652 86.2375 65.1493 86.2552 65.1369C86.273 65.1244 86.293 65.1156 86.3142 65.1108C86.3354 65.1061 86.3573 65.1056 86.3787 65.1093C86.4 65.1131 86.4205 65.121 86.4388 65.1326C86.4571 65.1443 86.473 65.1594 86.4854 65.1772C86.4979 65.1949 86.5067 65.215 86.5115 65.2362C86.5162 65.2573 86.5167 65.2792 86.513 65.3006C86.5092 65.322 86.5013 65.3424 86.4897 65.3607C86.4536 65.4165 85.6002 66.7195 83.096 67.3562L83.0534 67.3595Z" fill="white"/>
<path d="M45.0287 66.1681C45.0287 66.1681 41.8812 65.4001 41.7171 59.5055C41.5431 53.1449 42.4884 45.7209 38.7633 45.1203C35.0381 44.5197 32.9704 49.0588 33.0164 54.3593C33.059 59.0001 34.9298 69.076 45.0156 71.0518L45.0287 66.1681Z" fill="#5FD068"/>
<path opacity="0.2" d="M45.0287 66.1681C45.0287 66.1681 41.8812 65.4001 41.7171 59.5055C41.5431 53.1449 42.4884 45.7209 38.7633 45.1203C35.0381 44.5197 32.9704 49.0588 33.0164 54.3593C33.059 59.0001 34.9298 69.076 45.0156 71.0518L45.0287 66.1681Z" fill="black"/>
<path d="M45.0282 70.4479H44.9986C42.7307 70.0344 40.8829 68.7839 39.5077 66.7359C35.4314 60.6543 36.7147 49.2984 37.1381 47.316C37.1476 47.2738 37.173 47.2369 37.2091 47.213C37.2452 47.1891 37.2892 47.1802 37.3317 47.188C37.3742 47.1982 37.4112 47.2243 37.435 47.261C37.4588 47.2976 37.4677 47.342 37.4597 47.3849C37.0429 49.3542 35.7662 60.5656 39.7802 66.5521C40.3644 67.4805 41.1353 68.2773 42.0438 68.892C42.9523 69.5067 43.9786 69.9259 45.0577 70.123C45.0791 70.1269 45.0995 70.1351 45.1178 70.147C45.136 70.1589 45.1517 70.1743 45.1639 70.1923C45.1761 70.2103 45.1846 70.2306 45.1889 70.2519C45.1932 70.2733 45.1933 70.2953 45.189 70.3166C45.182 70.354 45.162 70.3877 45.1326 70.4117C45.1031 70.4357 45.0661 70.4485 45.0282 70.4479Z" fill="white"/>
<path d="M45.0336 85.5749C41.7811 86.0147 36.5002 86.0081 33.4512 83.6057C30.4022 81.2032 31.0389 79.1355 32.2106 78.2723C33.3823 77.4091 34.3997 76.4245 32.3845 74.5078C30.3694 72.5911 27.1333 69.5125 26.083 64.8947C25.0327 60.2768 25.5513 57.3886 27.6124 56.427C29.6112 55.4949 30.1396 56.9784 31.3638 60.0372C32.588 63.0961 35.3417 60.4738 37.6982 61.4288C40.0547 62.3839 39.9595 64.2744 40.1072 65.899C40.2549 67.5236 41.0327 67.9733 42.3685 67.9733C43.7043 67.9733 45.0336 68.7413 45.0336 70.2707V85.5749Z" fill="#5FD068"/>
<path d="M45.0365 80.212C45.0225 80.2151 45.0079 80.2151 44.9938 80.212C44.8527 80.1726 41.4886 79.1946 36.5885 74.6949C31.37 69.9031 28.9085 62.7154 28.8822 62.6432C28.8697 62.6018 28.8736 62.5572 28.8931 62.5187C28.9127 62.4801 28.9465 62.4507 28.9873 62.4364C29.0282 62.4228 29.0728 62.4259 29.1115 62.4449C29.1502 62.4639 29.1799 62.4974 29.194 62.5382C29.217 62.6104 31.6556 69.7193 36.8117 74.452C41.6429 78.8926 45.0463 79.8871 45.0825 79.8969C45.1031 79.903 45.1224 79.913 45.1392 79.9265C45.156 79.94 45.17 79.9567 45.1804 79.9756C45.1908 79.9945 45.1973 80.0152 45.1996 80.0366C45.202 80.0581 45.2001 80.0797 45.194 80.1004C45.1834 80.1336 45.1623 80.1624 45.1339 80.1825C45.1055 80.2026 45.0713 80.213 45.0365 80.212Z" fill="white"/>
<path d="M37.9482 75.837C37.9152 75.8375 37.8829 75.8277 37.8558 75.8088C37.8287 75.79 37.8082 75.7631 37.7972 75.732C36.7437 73.0276 36.5041 67.2413 36.4844 66.9952C36.4835 66.9519 36.4994 66.9099 36.5288 66.8781C36.5581 66.8463 36.5987 66.8271 36.642 66.8245C36.6848 66.8251 36.7259 66.8416 36.7574 66.8706C36.7889 66.8997 36.8086 66.9394 36.8126 66.9821C36.8126 67.0411 37.0588 72.9587 38.0926 75.6139C38.1005 75.6341 38.1043 75.6557 38.1038 75.6774C38.1033 75.6992 38.0985 75.7206 38.0896 75.7404C38.0808 75.7603 38.0681 75.7782 38.0522 75.7931C38.0364 75.8079 38.0178 75.8195 37.9974 75.8272C37.9816 75.8329 37.965 75.8362 37.9482 75.837Z" fill="white"/>
<path d="M37.9264 79.7263C37.6239 79.7286 37.3214 79.7133 37.0206 79.6803C36.999 79.6777 36.9782 79.6709 36.9593 79.6603C36.9404 79.6497 36.9237 79.6354 36.9103 79.6183C36.8969 79.6013 36.887 79.5817 36.8811 79.5608C36.8753 79.5399 36.8736 79.5181 36.8762 79.4965C36.8788 79.475 36.8856 79.4541 36.8962 79.4352C36.9068 79.4163 36.9211 79.3997 36.9382 79.3863C36.9552 79.3728 36.9748 79.3629 36.9957 79.3571C37.0166 79.3512 37.0384 79.3495 37.06 79.3521C37.0895 79.3521 40.1451 79.7 41.5465 78.2723C41.5611 78.255 41.5791 78.241 41.5994 78.231C41.6197 78.221 41.6418 78.2153 41.6644 78.2143C41.687 78.2133 41.7096 78.2169 41.7307 78.225C41.7518 78.2331 41.771 78.2455 41.7871 78.2614C41.8032 78.2772 41.8159 78.2963 41.8243 78.3173C41.8327 78.3383 41.8366 78.3608 41.8359 78.3834C41.8352 78.406 41.8298 78.4282 41.8201 78.4486C41.8104 78.469 41.7966 78.4872 41.7796 78.5021C40.7654 79.549 38.9964 79.7263 37.9264 79.7263Z" fill="white"/>
<path d="M35.5592 17.5773L35.2048 15.5326L33.38 16.7338C33.2132 16.4056 32.9769 16.1178 32.6874 15.8904L33.5605 13.5273L31.9194 13.163L30.7182 15.4604C30.2836 15.5337 29.8622 15.6709 29.4678 15.8674L28.9459 14.1345L26.9964 15.6672L27.1244 17.702C26.7274 18.1468 26.3673 18.6231 26.0479 19.1265L24.4397 19.0444L23.3106 21.5749L24.6924 22.1656C24.5481 22.689 24.4569 23.2256 24.42 23.7673L22.6641 25.382L23.0152 27.43L24.8433 26.2288C25.0091 26.5567 25.2457 26.8437 25.5359 27.069L24.6792 29.4354L26.3203 29.7964L28.0401 28.1226C28.4372 28.0602 28.3387 27.3119 28.772 27.0986L29.2938 28.8249L31.2401 27.2955L31.1908 26.4947C31.5847 26.0549 33.0747 25.0867 33.3964 24.5812L33.8001 23.9248L34.9291 21.3943L34.404 20.4426L33.8198 19.2019L35.5592 17.5773ZM29.6023 24.3088C28.1057 25.4838 27.6331 25.7431 27.3804 24.171C27.1277 22.5989 27.9843 20.2095 29.4809 19.0313C30.9775 17.853 31.5486 17.771 31.8177 19.3398C32.0868 20.9086 31.1022 23.147 29.6023 24.3088Z" fill="#E0E0E0"/>
<path d="M31.9278 13.1662L34.0546 14.3937L32.8533 16.6813L30.7266 15.4571L31.9278 13.1662Z" fill="#F5F5F5"/>
<path d="M37.3344 16.7601L35.5096 17.9613L33.3828 16.7371L35.2076 15.5326L37.3344 16.7601Z" fill="#F5F5F5"/>
<path d="M37.0398 22.6153L35.658 22.0245L33.5312 20.797L34.913 21.3878L37.0398 22.6153Z" fill="#E0E0E0"/>
<path d="M24.6719 29.4353L26.7986 30.6628L27.6717 28.2998L25.5449 27.0723L24.6719 29.4353Z" fill="#E0E0E0"/>
<path d="M31.4064 30.0557L29.2764 28.8282L28.7578 27.1019L30.8846 28.3294L31.4064 30.0557Z" fill="#E0E0E0"/>
<path d="M37.6835 18.8048L37.3323 16.7601L35.5075 17.9613C35.3395 17.633 35.1021 17.3452 34.8117 17.1179L35.6847 14.7548L34.0601 14.3905L32.8556 16.6879C32.421 16.7612 31.9996 16.8984 31.6051 17.0949L31.0865 15.3685L29.137 16.9012L29.265 18.9361C28.8676 19.384 28.5075 19.8637 28.1885 20.3704L26.577 20.2883L25.448 22.8188L26.8297 23.4095C26.6868 23.9344 26.5955 24.4719 26.5573 25.0145L24.8047 26.6063L25.1559 28.6543L26.9807 27.453C27.1487 27.7804 27.3861 28.0672 27.6765 28.2932L26.8035 30.6563L28.4445 31.0206L29.6457 28.7232C30.082 28.6507 30.5047 28.5124 30.8995 28.3129L31.418 30.0393L33.3676 28.5099L33.2396 26.475C33.6366 26.0303 33.9966 25.5539 34.3161 25.0506L35.9276 25.1293L37.0566 22.5989L35.6551 22.0114C35.8004 21.487 35.8928 20.9493 35.9308 20.4065L37.6835 18.8048ZM31.7331 25.5494C30.2398 26.7244 28.8088 26.4061 28.5364 24.8372C28.264 23.2684 29.2584 21.0399 30.755 19.8649C32.2517 18.69 33.6794 19.0116 33.9518 20.5804C34.2242 22.1492 33.2297 24.3745 31.7331 25.5494Z" fill="#EBEBEB"/>
<path d="M31.0841 15.3652L28.9541 14.1377L27.0078 15.6704L29.1346 16.8946L31.0841 15.3652Z" fill="#F5F5F5"/>
<path d="M27.0078 15.6704L27.1358 17.702L29.2626 18.9295L29.1346 16.8946L27.0078 15.6704Z" fill="#E0E0E0"/>
<path d="M28.1914 20.3539L26.0646 19.1264L24.4531 19.0477L26.5832 20.2752L28.1914 20.3539Z" fill="#F5F5F5"/>
<path d="M24.4493 19.0477L23.3203 21.5781L25.4504 22.8056L26.5794 20.2752L24.4493 19.0477Z" fill="#E0E0E0"/>
<path d="M26.5624 24.9981L24.4323 23.7706L22.6797 25.3853L24.8065 26.6128L26.5624 24.9981Z" fill="#F5F5F5"/>
<path d="M25.1576 28.6575L23.0309 27.43L22.6797 25.3853L24.8065 26.6128L25.1576 28.6575Z" fill="#E0E0E0"/>
<path d="M34.0565 14.3937L31.9297 13.1662L33.5543 13.5305L35.6844 14.758L34.0565 14.3937Z" fill="#F5F5F5"/>
<path d="M26.0207 8.29568V5.24009L23.5887 6.33629C23.4599 5.81788 23.2374 5.32736 22.9323 4.88891L24.465 1.8005L22.5943 0.720703L20.6841 3.5925C20.1518 3.54599 19.6155 3.59829 19.1022 3.74675L18.833 1.09158L16.1877 2.62101L15.9218 5.57486C15.3461 6.08499 14.8167 6.64513 14.3399 7.2487L12.4297 6.59229L10.559 9.83496L12.0884 11.1478C11.8058 11.8624 11.5862 12.6004 11.432 13.3533L9 15.0633V18.1221L11.432 17.0259C11.5608 17.5444 11.7833 18.0349 12.0884 18.4733L10.5655 21.565L12.4363 22.6448L14.3465 19.773C14.8788 19.8194 15.4151 19.7671 15.9284 19.6188L16.1943 22.2739L18.8396 20.7445L19.1087 17.7907C19.9344 17.4894 20.6658 16.9754 21.2289 16.3006L22.6008 16.7831L24.4716 13.5437L23.3229 12.5591C23.5722 11.738 23.6647 10.8773 23.5953 10.022L26.0207 8.29568ZM17.5104 15.9297C15.4821 17.1014 14.2283 16.2579 14.2283 13.9244C14.2283 11.5909 15.9054 8.70594 17.937 7.53424C19.9686 6.36255 21.1961 7.20604 21.1961 9.55927C21.1961 11.9125 19.5419 14.7548 17.5104 15.9297Z" fill="#E0E0E0"/>
<path d="M24.7277 1.94819L22.5977 0.720703L20.6875 3.5925L22.8176 4.81999L24.7277 1.94819Z" fill="#F5F5F5"/>
<path d="M28.1525 6.47087L26.0258 5.24338L23.5938 6.33958L25.7205 7.56707L28.1525 6.47087Z" fill="#F5F5F5"/>
<path d="M18.31 23.5047L16.1832 22.2739L15.9141 19.622L18.0441 20.8495L18.31 23.5047Z" fill="#E0E0E0"/>
<path d="M10.5547 21.5683L12.6847 22.7958L14.2175 19.7041L12.0874 18.4766L10.5547 21.5683Z" fill="#E0E0E0"/>
<path d="M28.1535 9.53958V6.48399L25.7215 7.57035C25.5941 7.05146 25.3715 6.56071 25.0651 6.12296L26.5978 3.03455L24.7271 1.95148L22.8169 4.82655C22.2846 4.77843 21.748 4.83076 21.235 4.98081L20.9658 2.31907L18.3205 3.8485L18.0514 6.80235C17.4765 7.31334 16.9472 7.8734 16.4694 8.4762L14.5593 7.81979L12.6885 11.0625L14.2212 12.3753C13.9371 13.0894 13.7174 13.8275 13.5648 14.5808L11.1328 16.2908V19.3496L13.5648 18.2534C13.6922 18.7723 13.9148 19.2631 14.2212 19.7008L12.6885 22.7892L14.5593 23.869L16.4694 20.9972C17.0017 21.0437 17.5381 20.9914 18.0514 20.843L18.3205 23.4981L20.9658 21.9687L21.2317 19.0149C21.8074 18.5047 22.3368 17.9446 22.8136 17.341L24.7238 17.9974L26.5946 14.758L25.0618 13.4452C25.3458 12.731 25.5655 11.9929 25.7182 11.2397L28.1535 9.53958ZM19.6432 17.1736C17.6116 18.3453 15.964 17.3935 15.964 15.0501C15.964 12.7068 17.605 9.85466 19.6432 8.67968C21.6813 7.50471 23.3191 8.45978 23.3191 10.8032C23.3191 13.1466 21.6715 15.9822 19.6432 17.1572V17.1736Z" fill="#EBEBEB"/>
<path d="M14.3398 7.25528L16.4699 8.48276L14.5597 7.81651L12.4297 6.58902L14.3398 7.25528Z" fill="#F0F0F0"/>
<path d="M12.426 6.58909L10.5547 9.83286L12.684 11.0612L14.5553 7.81748L12.426 6.58909Z" fill="#F5F5F5"/>
<path d="M10.5547 9.83167L12.6847 11.0592L14.2175 12.3785L12.0874 11.151L10.5547 9.83167Z" fill="#E0E0E0"/>
<path d="M11.432 13.3566L13.5588 14.5841L11.1268 16.2973L9 15.0698L11.432 13.3566Z" fill="#F5F5F5"/>
<path d="M9 15.0698L11.1268 16.2973V19.3529L9 18.1254V15.0698Z" fill="#E0E0E0"/>
<path d="M20.9629 2.31907L18.8328 1.09158L16.1875 2.62102L18.3143 3.84851L20.9629 2.31907Z" fill="#F5F5F5"/>
<path d="M48.2646 89.9662L79.1159 72.1513C79.1838 72.1274 79.2427 72.0829 79.2844 72.0242C79.326 71.9654 79.3484 71.8951 79.3484 71.823C79.3484 71.751 79.326 71.6807 79.2844 71.6219C79.2427 71.5632 79.1838 71.5187 79.1159 71.4948L76.2638 69.8538C76.0871 69.7649 75.8921 69.7186 75.6943 69.7186C75.4966 69.7186 75.3015 69.7649 75.1249 69.8538L44.2638 87.6524C44.1958 87.6763 44.1369 87.7207 44.0953 87.7795C44.0536 87.8383 44.0313 87.9085 44.0312 87.9806C44.0313 88.0526 44.0536 88.1229 44.0953 88.1817C44.1369 88.2405 44.1958 88.2849 44.2638 88.3088L47.1257 89.9498C47.3011 90.0413 47.4954 90.0904 47.6932 90.0932C47.891 90.0961 48.0866 90.0526 48.2646 89.9662Z" fill="#E0E0E0"/>
<path d="M78.2632 3.36933L50.4446 19.4317C50.031 19.7016 49.6869 20.0651 49.44 20.4927C49.1931 20.9204 49.0504 21.4002 49.0234 21.8932V87.8854C49.0234 88.7913 49.6602 89.1589 50.4446 88.7059L78.2632 72.6436C78.6773 72.3743 79.0219 72.0109 79.2689 71.5832C79.5158 71.1554 79.6582 70.6753 79.6844 70.182V4.18984C79.6844 3.28399 79.0509 2.9164 78.2632 3.36933Z" fill="#455A64"/>
<path d="M50.4504 19.4317L78.2691 3.36932C78.9715 2.96234 79.5524 3.21506 79.6705 3.9207C79.6049 3.47705 79.4461 3.05232 79.2046 2.67444C78.963 2.29657 78.6442 1.97412 78.2691 1.72829L77.1138 1.07188C76.6734 0.848442 76.1865 0.731995 75.6927 0.731995C75.1989 0.731995 74.712 0.848442 74.2716 1.07188L46.4496 17.1211C46.0306 17.3839 45.685 17.7486 45.4453 18.1812L49.4461 20.4787C49.6858 20.0495 50.0316 19.689 50.4504 19.4317Z" fill="#37474F"/>
<path d="M45.0234 85.5749C45.0504 86.0679 45.1931 86.5477 45.44 86.9754C45.6869 87.403 46.031 87.7665 46.4446 88.0364L47.6031 88.6928C48.0041 88.8934 48.443 89.007 48.8909 89.0263C49.3389 89.0455 49.7858 88.9699 50.2025 88.8044C49.5461 89.0604 49.0243 88.683 49.0243 87.8723V21.8932C49.0407 21.398 49.1842 20.9154 49.4411 20.4918L45.4403 18.1943C45.187 18.6148 45.0437 19.0922 45.0234 19.5826V85.5749Z" fill="#263238"/>
<path d="M51.2185 28.2243L77.5176 13.0448C77.9902 12.7757 78.3709 12.9956 78.3709 13.5371V62.3806C78.3551 62.6766 78.2696 62.9647 78.1213 63.2214C77.973 63.478 77.7661 63.696 77.5176 63.8575L51.2283 79.037C50.7557 79.3094 50.375 79.0895 50.375 78.5447V29.7012C50.3899 29.4061 50.4741 29.1187 50.6206 28.8621C50.7671 28.6056 50.9719 28.3871 51.2185 28.2243Z" fill="white"/>
<path d="M64.3661 13.9014C64.2209 13.9967 64.1001 14.1248 64.0135 14.2753C63.9268 14.4258 63.8767 14.5945 63.8672 14.7679C63.8672 15.0961 64.0904 15.2175 64.3661 15.0567C64.5118 14.962 64.633 14.8341 64.7197 14.6835C64.8064 14.5328 64.8562 14.3638 64.8649 14.1902C64.8649 13.8719 64.6418 13.7439 64.3661 13.9014Z" fill="#37474F"/>
<path d="M64.3599 73.7825C63.7861 74.1578 63.3088 74.663 62.9667 75.2572C62.6246 75.8513 62.4272 76.5177 62.3906 77.2024C62.3906 78.4594 63.2735 78.9714 64.3599 78.3412C64.9334 77.9657 65.4106 77.4604 65.7527 76.8663C66.0948 76.2722 66.2922 75.6059 66.3291 74.9213C66.3357 73.6643 65.4495 73.1523 64.3599 73.7825Z" fill="#37474F"/>
<path d="M59.6409 18.982C59.3524 19.1735 59.113 19.4301 58.942 19.7311C58.771 20.0321 58.6731 20.3692 58.6562 20.715C58.6562 21.3517 59.1026 21.611 59.6409 21.2926C59.9324 21.1029 60.175 20.8471 60.3489 20.546C60.5228 20.2449 60.6232 19.9069 60.6419 19.5597C60.6419 18.923 60.1955 18.6637 59.6409 18.982Z" fill="#37474F"/>
<path d="M62.0859 18.7654C62.0859 19.1921 62.4141 19.3529 62.7981 19.1265L69.3622 15.3291C69.5656 15.2021 69.7361 15.0289 69.8598 14.8236C69.9836 14.6183 70.0571 14.3867 70.0744 14.1476C70.0744 13.7242 69.7462 13.5634 69.3622 13.7898L62.7981 17.5872C62.5952 17.7138 62.425 17.8865 62.3013 18.0912C62.1775 18.2959 62.1038 18.5269 62.0859 18.7654Z" fill="#37474F"/>
<path d="M47.235 30.3379C47.4679 30.4897 47.6618 30.6941 47.801 30.9348C47.9401 31.1754 48.0206 31.4454 48.0359 31.723C48.0359 32.235 47.6781 32.4417 47.235 32.1857C47.0029 32.0335 46.8098 31.8288 46.6713 31.5882C46.5328 31.3477 46.4527 31.0779 46.4375 30.8007C46.4375 30.292 46.7952 30.0852 47.235 30.3379Z" fill="#37474F"/>
<path d="M47.235 36.5016C47.4679 36.6533 47.6618 36.8578 47.801 37.0984C47.9401 37.339 48.0206 37.6091 48.0359 37.8866C48.0359 38.3953 47.6781 38.6021 47.235 38.3494C47.0029 38.1971 46.8098 37.9924 46.6713 37.7519C46.5328 37.5113 46.4527 37.2416 46.4375 36.9644C46.4375 36.4524 46.7952 36.2456 47.235 36.5016Z" fill="#37474F"/>
<path d="M46.9883 30.4627C47.2212 30.6144 47.4151 30.8188 47.5543 31.0595C47.6934 31.3001 47.7739 31.5701 47.7891 31.8477C47.7891 32.3564 47.4314 32.5632 46.9883 32.3105C46.7554 32.1587 46.5615 31.9543 46.4224 31.7137C46.2833 31.473 46.2028 31.203 46.1875 30.9254C46.1908 30.4134 46.5485 30.2165 46.9883 30.4627Z" fill="#455A64"/>
<path d="M46.9883 36.6231C47.2217 36.7751 47.4158 36.9801 47.555 37.2214C47.6941 37.4626 47.7744 37.7333 47.7891 38.0114C47.7891 38.5201 47.4314 38.7269 46.9883 38.4709C46.7549 38.3198 46.5606 38.1154 46.4214 37.8747C46.2821 37.6339 46.202 37.3636 46.1875 37.0859C46.1908 36.5771 46.5485 36.3704 46.9883 36.6231Z" fill="#455A64"/>
<path d="M83.6912 15.083C83.6912 14.5381 83.3105 14.3182 82.8379 14.5907L79.6904 16.4056L56.5486 29.7701C56.3001 29.9317 56.0932 30.1496 55.9449 30.4063C55.7966 30.663 55.7111 30.9511 55.6953 31.2471V80.0774C55.6953 80.6223 56.076 80.8421 56.5486 80.5697L79.7002 67.2019L82.8379 65.3903C83.0864 65.2287 83.2933 65.0108 83.4416 64.7541C83.5899 64.4974 83.6754 64.2093 83.6912 63.9133V15.083Z" fill="white" stroke="#5FD068" stroke-width="0.328205" stroke-miterlimit="10"/>
<path d="M56.183 80.852C56.0671 80.8535 55.9531 80.8216 55.8548 80.7601C55.743 80.684 55.6536 80.5793 55.5959 80.4569C55.5382 80.3346 55.5143 80.199 55.5266 80.0643V31.2471C55.5416 30.9222 55.6344 30.6057 55.7972 30.3241C55.96 30.0426 56.1879 29.8042 56.462 29.629L79.6037 16.2645L79.7678 16.5501L56.6261 29.9113C56.4029 30.0591 56.2171 30.2567 56.0833 30.4885C55.9495 30.7202 55.8712 30.9799 55.8548 31.2471V80.0775C55.8321 80.155 55.8361 80.238 55.8661 80.3131C55.8962 80.3881 55.9506 80.4509 56.0205 80.4914C56.0905 80.5319 56.1721 80.5477 56.2521 80.5363C56.3321 80.5249 56.4061 80.487 56.462 80.4286L79.6136 67.0608L79.7777 67.3464L56.6261 80.7142C56.4921 80.7962 56.3399 80.8436 56.183 80.852Z" fill="#5FD068" stroke="#5FD068" stroke-width="0.328205" stroke-miterlimit="10"/>
<path d="M79.7833 67.3463L79.6192 67.0608L82.7569 65.2491C82.98 65.1013 83.1658 64.9037 83.2996 64.672C83.4335 64.4402 83.5117 64.1805 83.5281 63.9133V15.083C83.5509 15.0054 83.5469 14.9224 83.5168 14.8473C83.4868 14.7723 83.4324 14.7095 83.3624 14.669C83.2924 14.6285 83.2109 14.6127 83.1308 14.6241C83.0508 14.6355 82.9769 14.6734 82.921 14.7318L79.7735 16.55L79.6094 16.2645L82.7667 14.4627C82.8734 14.3759 83.0039 14.3236 83.141 14.3127C83.278 14.3017 83.4152 14.3326 83.5343 14.4012C83.6534 14.4699 83.7489 14.573 83.8082 14.6971C83.8675 14.8212 83.8877 14.9603 83.8662 15.0961V63.9133C83.8509 64.2386 83.758 64.5555 83.5953 64.8375C83.4326 65.1196 83.2047 65.3586 82.9308 65.5346L79.7833 67.3463Z" fill="#5FD068" stroke="#5FD068" stroke-width="0.328205" stroke-miterlimit="10"/>
<path d="M59.3725 46.246L66.2353 42.2846C66.5635 42.1041 66.803 42.2485 66.803 42.6128V42.8393C66.7927 43.0365 66.7358 43.2285 66.6371 43.3996C66.5385 43.5707 66.4008 43.7161 66.2353 43.8239L59.3725 47.7853C59.0607 47.9658 58.8047 47.8181 58.8047 47.4571V47.2307C58.8153 47.0335 58.8723 46.8416 58.9709 46.6705C59.0696 46.4994 59.2072 46.354 59.3725 46.246Z" fill="#5FD068"/>
<path opacity="0.1" d="M59.3725 46.246L66.2353 42.2846C66.5635 42.1041 66.803 42.2485 66.803 42.6128V42.8393C66.7927 43.0365 66.7358 43.2285 66.6371 43.3996C66.5385 43.5707 66.4008 43.7161 66.2353 43.8239L59.3725 47.7853C59.0607 47.9658 58.8047 47.8181 58.8047 47.4571V47.2307C58.8153 47.0335 58.8723 46.8416 58.9709 46.6705C59.0696 46.4994 59.2072 46.354 59.3725 46.246Z" fill="black"/>
<path d="M59.0902 51.028L79.8525 39.0419C80.0067 38.95 80.1347 39.0222 80.1347 39.206V41.6282C80.129 41.7265 80.1005 41.8221 80.0515 41.9075C80.0025 41.9929 79.9344 42.0658 79.8525 42.1205L59.0902 54.1065C58.9327 54.1984 58.8047 54.1229 58.8047 53.9424V51.5203C58.8103 51.4216 58.8391 51.3256 58.8887 51.24C58.9383 51.1545 59.0073 51.0819 59.0902 51.028Z" fill="#5FD068"/>
<path opacity="0.2" d="M59.0902 51.028L79.8525 39.0419C80.0067 38.95 80.1347 39.0222 80.1347 39.206V41.6282C80.129 41.7265 80.1005 41.8221 80.0515 41.9075C80.0025 41.9929 79.9344 42.0658 79.8525 42.1205L59.0902 54.1065C58.9327 54.1984 58.8047 54.1229 58.8047 53.9424V51.5203C58.8103 51.4216 58.8391 51.3256 58.8887 51.24C58.9383 51.1545 59.0073 51.0819 59.0902 51.028Z" fill="white"/>
<path d="M59.3725 57.021L66.2353 53.0596C66.5635 52.8791 66.803 53.0268 66.803 53.3878V53.6142C66.7929 53.8116 66.7362 54.0036 66.6375 54.1748C66.5388 54.3459 66.401 54.4913 66.2353 54.5989L59.3725 58.5603C59.0607 58.7441 58.8047 58.5964 58.8047 58.2321V58.0056C58.8159 57.8086 58.873 57.6169 58.9716 57.4459C59.0702 57.2749 59.2075 57.1294 59.3725 57.021Z" fill="#5FD068"/>
<path opacity="0.1" d="M59.3725 57.021L66.2353 53.0596C66.5635 52.8791 66.803 53.0268 66.803 53.3878V53.6142C66.7929 53.8116 66.7362 54.0036 66.6375 54.1748C66.5388 54.3459 66.401 54.4913 66.2353 54.5989L59.3725 58.5603C59.0607 58.7441 58.8047 58.5964 58.8047 58.2321V58.0056C58.8159 57.8086 58.873 57.6169 58.9716 57.4459C59.0702 57.2749 59.2075 57.1294 59.3725 57.021Z" fill="black"/>
<path d="M59.0902 61.8029L79.8525 49.8169C80.0067 49.725 80.1347 49.8005 80.1347 49.981V52.4031C80.129 52.5014 80.1005 52.5971 80.0515 52.6825C80.0025 52.7679 79.9344 52.8408 79.8525 52.8955L59.0902 64.8815C58.9327 64.9734 58.8047 64.9012 58.8047 64.7174V62.2952C58.8103 62.1965 58.8391 62.1005 58.8887 62.015C58.9383 61.9295 59.0073 61.8568 59.0902 61.8029Z" fill="#5FD068"/>
<path opacity="0.2" d="M59.0902 61.8029L79.8525 49.8169C80.0067 49.725 80.1347 49.8005 80.1347 49.981V52.4031C80.129 52.5014 80.1005 52.5971 80.0515 52.6825C80.0025 52.7679 79.9344 52.8408 79.8525 52.8955L59.0902 64.8815C58.9327 64.9734 58.8047 64.9012 58.8047 64.7174V62.2952C58.8103 62.1965 58.8391 62.1005 58.8887 62.015C58.9383 61.9295 59.0073 61.8568 59.0902 61.8029Z" fill="white"/>
<path d="M67.3725 63.1781L75.5776 58.4487C75.9058 58.2649 76.1487 58.4126 76.1487 58.7769V61.3107C76.1379 61.5082 76.0806 61.7004 75.9813 61.8715C75.8821 62.0426 75.7437 62.1878 75.5776 62.2953L67.3725 67.028C67.0443 67.2085 66.8047 67.0608 66.8047 66.6998V64.1628C66.8161 63.9658 66.8734 63.7741 66.972 63.6032C67.0705 63.4323 67.2077 63.2867 67.3725 63.1781Z" fill="#5FD068"/>
<path opacity="0.1" d="M67.3725 63.1781L75.5776 58.4487C75.9058 58.2649 76.1487 58.4126 76.1487 58.7769V61.3107C76.1379 61.5082 76.0806 61.7004 75.9813 61.8715C75.8821 62.0426 75.7437 62.1878 75.5776 62.2953L67.3725 67.028C67.0443 67.2085 66.8047 67.0608 66.8047 66.6998V64.1628C66.8161 63.9658 66.8734 63.7741 66.972 63.6032C67.0705 63.4323 67.2077 63.2867 67.3725 63.1781Z" fill="black"/>
<path d="M86.8034 52.4853C86.8034 52.4853 82.7731 46.9255 82.5368 46.2494C82.3497 45.7505 82.5368 45.0088 82.5959 44.6642C82.6549 44.3195 82.7075 43.5515 82.7665 43.3513C82.865 42.9772 82.3825 43.0527 82.1101 43.394C81.8377 43.7353 81.7458 44.418 81.6047 44.5296C81.4636 44.6412 80.3903 43.0756 79.8291 42.3536C79.2679 41.6315 78.9167 41.1917 78.5721 41.4609C78.3259 41.6545 78.5097 42.0746 78.9167 42.6916C79.1544 43.0239 79.3735 43.369 79.5731 43.7255C79.6354 43.8601 79.3007 43.8699 79.1202 44.1489C78.979 44.3655 79.1202 44.7167 78.9232 44.8841C78.8021 44.9763 78.719 45.1099 78.69 45.2594C78.6609 45.4089 78.6879 45.5638 78.7657 45.6947C79.131 46.2684 79.6022 46.7674 80.154 47.1651C80.7579 47.5819 81.0008 47.7296 81.3585 48.2974C81.7163 48.8652 84.9261 54.6646 85.1427 55.0125C85.3593 55.3604 85.7762 56.0693 86.4096 56.089C87.043 56.1087 92.2287 51.6451 92.4945 51.4219C93.3479 50.7097 93.6203 50.608 93.7647 51.2479C93.8146 51.4755 93.8518 51.7056 93.8763 51.9372C93.978 52.7511 94.5327 55.659 94.5327 55.659C94.5327 55.659 97.1583 56.9292 99.3146 56.3154C101.471 55.7017 102.2 54.786 102.2 54.786L101.12 53.0268C101.412 52.3015 102.761 49.3608 103.197 47.3029L96.4363 46.21C96.2984 46.1805 96.0752 46.1247 95.7799 46.0492C95.409 45.9507 94.467 45.6258 93.7548 46.2494C91.4311 48.2744 86.81 52.4853 86.81 52.4853" fill="#FFA8A7"/>
<path d="M100.211 86.599L99 88.2827C99.5504 88.5396 100.152 88.6687 100.759 88.6601C101.846 88.6995 102.144 88.3319 102.184 88.2597C102.367 87.8658 102.082 87.1569 102.003 86.5464L100.211 86.599Z" fill="#37474F"/>
<path d="M99.069 87.4752C99.069 87.4752 97.5986 87.3801 96.5845 87.2553C95.5703 87.1306 94.7662 87.6229 95.0025 88.0398C95.2388 88.4566 95.8 88.8045 96.6731 89.0966C97.4181 89.3493 98.3141 89.5298 99.0887 89.753C99.8632 89.9762 100.401 90.2683 100.851 90.1107C101.353 89.9368 101.57 89.7366 101.527 89.369C101.418 88.8461 101.282 88.3291 101.12 87.8199L99.069 87.4752Z" fill="#37474F"/>
<path d="M102.183 84.9087C102.183 84.9087 101.999 86.4381 101.986 86.7663C101.972 87.0945 100.492 87.1995 100.21 86.5989L100.164 84.7281L102.183 84.9087Z" fill="#F28F8F"/>
<path d="M100.692 85.8473L101.221 88.171C101.221 88.171 101.27 88.4532 100.062 88.6337C98.8545 88.8143 96.9574 88.0003 96.6325 87.8362C96.3076 87.6721 96.2715 87.3406 97.4596 87.4063C98.6477 87.4719 99.0678 87.4752 99.0678 87.4752L98.6805 86.4479L100.692 85.8473Z" fill="#FFA8A7"/>
<path d="M103.175 47.2833L104.012 47.0502C104.012 47.0502 105.761 52.5871 105.955 53.122C106.149 53.657 106.368 54.2215 105.991 54.8812C105.541 55.6656 103.175 58.8197 103.175 58.8197L101.672 57.3493L103.379 54.2248L101.869 51.1725L103.175 47.2833Z" fill="#F28F8F"/>
<path d="M94.5866 40.0923C94.3904 39.7239 94.2908 39.3119 94.2972 38.8946C94.3035 38.4773 94.4155 38.0684 94.6227 37.7062C95.4564 36.1604 97.314 35.4088 99.5261 35.6943C100.55 35.8289 101.758 36.6789 102.418 37.9491C103.146 39.3571 103.215 42.1928 103.402 43.266L94.5866 40.0923Z" fill="#37474F"/>
<path d="M94.5222 40.6995C94.5222 40.6995 93.997 41.7005 94.0889 41.7924C94.225 41.8719 94.3738 41.9274 94.5287 41.9565L94.5222 40.6995Z" fill="#FFA8A7"/>
<path d="M96.1183 37.5356C95.5472 37.9064 94.5626 38.5891 94.5199 40.8373C94.474 43.1347 94.8022 43.8929 95.1435 44.1587C95.3733 44.3392 96.7222 44.2473 97.2998 44.1128C97.8775 43.9782 99.5415 43.1544 100.142 41.904C100.848 40.4336 100.703 38.2937 99.6564 37.6373C99.1235 37.3222 98.5193 37.1475 97.9005 37.1297C97.2816 37.112 96.6684 37.2516 96.1183 37.5356Z" fill="#FFA8A7"/>
<path d="M102.18 54.7729C103.191 56.3483 104.15 57.7267 104.36 59.5056C104.793 63.2439 103.375 67.5171 103.07 70.2839C103.644 71.0708 103.975 72.0087 104.022 72.9817C104.022 74.1271 102.18 84.9087 102.18 84.9087C102.18 84.9087 100.841 85.3157 100.162 84.7282L98.8984 64.8947L99.5548 62.4791L102.18 54.7729Z" fill="#5FD068"/>
<path opacity="0.2" d="M102.18 54.7729C103.191 56.3483 104.15 57.7267 104.36 59.5056C104.793 63.2439 103.375 67.5171 103.07 70.2839C103.644 71.0708 103.975 72.0087 104.022 72.9817C104.022 74.1271 102.18 84.9087 102.18 84.9087C102.18 84.9087 100.841 85.3157 100.162 84.7282L98.8984 64.8947L99.5548 62.4791L102.18 54.7729Z" fill="black"/>
<path d="M98.8984 64.8948L99.5548 62.4792C100.812 62.1483 102.024 61.6668 103.165 61.0449C103.165 61.0449 102.482 62.2888 100.52 62.9715L99.5056 66.073L99.4203 73.1787L98.8984 64.8948Z" fill="#5FD068"/>
<path opacity="0.3" d="M98.8984 64.8948L99.5548 62.4792C100.812 62.1483 102.024 61.6668 103.165 61.0449C103.165 61.0449 102.482 62.2888 100.52 62.9715L99.5056 66.073L99.4203 73.1787L98.8984 64.8948Z" fill="black"/>
<path d="M102.177 54.7729C102.719 55.659 104.012 57.1688 103.736 58.6227C103.408 60.3819 102.456 61.6192 99.5616 62.4791L96.844 72.3253C96.844 72.3253 98.2586 73.6381 98.6918 74.9083C99.125 76.1784 100.687 85.8539 100.687 85.8539C100.687 85.8539 100.202 86.6449 98.6754 86.4545C98.6754 86.4545 93.3552 74.3109 92.981 73.52C92.5269 72.7189 92.3678 71.7841 92.5314 70.8779C92.6988 69.6045 94.5006 55.6656 94.5006 55.6656L102.177 54.7729Z" fill="#5FD068"/>
<path opacity="0.2" d="M102.177 54.7729C102.719 55.659 104.012 57.1688 103.736 58.6227C103.408 60.3819 102.456 61.6192 99.5616 62.4791L96.844 72.3253C96.844 72.3253 98.2586 73.6381 98.6918 74.9083C99.125 76.1784 100.687 85.8539 100.687 85.8539C100.687 85.8539 100.202 86.6449 98.6754 86.4545C98.6754 86.4545 93.3552 74.3109 92.981 73.52C92.5269 72.7189 92.3678 71.7841 92.5314 70.8779C92.6988 69.6045 94.5006 55.6656 94.5006 55.6656L102.177 54.7729Z" fill="black"/>
<path d="M103.177 47.2832L96.4158 46.1903C96.278 46.1608 96.0548 46.105 95.7594 46.0295C95.7594 46.0295 95.4706 50.2699 93.7344 51.2414C93.777 51.4449 93.8131 51.6713 93.846 51.9306C93.9477 52.7446 94.5024 55.6525 94.5024 55.6525C94.5024 55.6525 97.128 56.9226 99.2843 56.3089C101.441 55.6951 102.169 54.7794 102.169 54.7794L101.089 53.0203C101.391 52.2884 102.75 49.3476 103.177 47.2832Z" fill="#5FD068"/>
<path opacity="0.7" d="M103.177 47.2832L96.4158 46.1903C96.278 46.1608 96.0548 46.105 95.7594 46.0295C95.7594 46.0295 95.4706 50.2699 93.7344 51.2414C93.777 51.4449 93.8131 51.6713 93.846 51.9306C93.9477 52.7446 94.5024 55.6525 94.5024 55.6525C94.5024 55.6525 97.128 56.9226 99.2843 56.3089C101.441 55.6951 102.169 54.7794 102.169 54.7794L101.089 53.0203C101.391 52.2884 102.75 49.3476 103.177 47.2832Z" fill="white"/>
<path d="M101.399 52.3212C100.501 52.8604 99.56 53.3247 98.5859 53.7095C99.4701 53.6919 100.336 53.4527 101.103 53.0137L101.399 52.3212Z" fill="#5FD068"/>
<path d="M95.9519 37.6471C95.9519 37.6471 95.6237 39.7804 96.3982 41.0342C96.3982 41.0342 96.6871 40.1841 97.4058 40.345C98.1246 40.5058 98.164 41.4543 97.6585 41.986C97.5301 42.1351 97.3621 42.245 97.1741 42.3031C96.986 42.3611 96.7853 42.365 96.5952 42.3142C96.5952 42.3142 96.4803 43.8567 96.4179 45.1499C96.3556 46.443 96.0142 49.2623 97.4682 50.4012C98.9221 51.54 102.572 51.9404 104.282 49.5511C105.234 48.2219 103.97 45.8719 103.382 43.2364C102.841 40.8143 102.536 37.2237 99.9658 36.6461C97.396 36.0684 95.9519 37.6471 95.9519 37.6471Z" fill="#37474F"/>
<path d="M105.381 8.49918L104.84 8.82738C104.885 8.6347 104.911 8.43781 104.915 8.2399C104.915 7.14041 104.144 6.69733 103.192 7.25528C102.903 7.43 102.644 7.65185 102.428 7.91169C102.428 6.43477 101.39 5.83415 100.11 6.57261C99.4359 7.0125 98.8746 7.60518 98.472 8.30259C98.0694 8.99999 97.8368 9.78248 97.7932 10.5866C97.7932 10.662 97.7932 10.7343 97.7932 10.8065C97.4635 10.765 97.1298 10.8417 96.8513 11.0231C96.3498 11.3499 95.9324 11.7903 95.633 12.3087C95.3336 12.8271 95.1607 13.4087 95.1282 14.0065C95.1281 14.1454 95.1424 14.284 95.1709 14.42L94.8821 14.5874C94.0977 15.0403 93.4609 15.9232 93.4609 16.5566C93.4609 17.1901 94.0977 17.341 94.8821 16.8848L105.385 10.8294C106.169 10.3765 106.806 9.49364 106.806 8.8602C106.806 8.22677 106.166 8.04297 105.381 8.49918Z" fill="#EBEBEB"/>
<path d="M63.1269 35.1907L63.2742 32.7545L63.5467 32.5776L64.7371 34.145L64.4522 34.33L63.74 33.3816C63.7315 33.3715 63.7131 33.3455 63.6848 33.3037C63.6581 33.2609 63.6274 33.2139 63.5928 33.1629C63.5582 33.1118 63.5267 33.0654 63.4984 33.0236C63.4695 32.9799 63.4506 32.952 63.4417 32.94L63.4979 32.9002C63.4965 32.939 63.4948 32.988 63.4929 33.0472C63.4927 33.1053 63.4916 33.1673 63.4895 33.2333C63.4891 33.2982 63.488 33.3602 63.4861 33.4194C63.4837 33.4767 63.4818 33.5247 63.4804 33.5635L63.3994 35.0137L63.1269 35.1907ZM63.2939 34.5005L63.3151 34.1389L64.1029 33.6273L64.2947 33.8505L63.2939 34.5005ZM64.9779 33.9886L64.9031 33.7029L65.183 33.5211L64.8087 32.0924L64.5288 32.2742L64.4539 31.9884L65.2813 31.4511L65.3562 31.7368L65.0763 31.9186L65.4505 33.3474L65.7305 33.1656L65.8053 33.4513L64.9779 33.9886ZM66.9197 32.7277L66.3957 30.7275L67.4881 30.018L67.566 30.3152L66.7411 30.8509L67.1094 32.2567L67.9343 31.721L68.0121 32.0182L66.9197 32.7277ZM66.8112 31.7716L66.7334 31.4744L67.5682 30.9323L67.6461 31.2294L66.8112 31.7716ZM68.3769 31.7813L67.9839 30.2811L68.2391 30.1154L68.32 30.424L68.2843 30.4873C68.2834 30.4099 68.2996 30.328 68.3331 30.2417C68.366 30.1534 68.411 30.0707 68.4681 29.9935C68.5246 29.9144 68.5876 29.8523 68.657 29.8073C68.7561 29.7429 68.8446 29.7122 68.9227 29.715C69.0002 29.7159 69.0675 29.7513 69.1245 29.8213C69.1814 29.8913 69.2281 29.9958 69.2646 30.1349L69.5041 31.0493L69.249 31.215L69.0147 30.3206C68.9922 30.2349 68.9638 30.1708 68.9295 30.1285C68.8947 30.0842 68.8535 30.0631 68.8057 30.0651C68.7574 30.0653 68.7032 30.0871 68.6431 30.1306C68.5936 30.1628 68.5506 30.2018 68.5143 30.2476C68.4775 30.2916 68.4477 30.34 68.4248 30.3927C68.4036 30.4444 68.3896 30.4981 68.3829 30.5537C68.3774 30.6063 68.3811 30.6574 68.3941 30.7069L68.6321 31.6156L68.5058 31.6976C68.4843 31.7116 68.4628 31.7255 68.4414 31.7394C68.4199 31.7534 68.3984 31.7673 68.3769 31.7813ZM70.3582 30.5281C70.2508 30.5978 70.1436 30.6273 70.0364 30.6167C69.9309 30.6049 69.8363 30.5572 69.7525 30.4734C69.6687 30.3896 69.6073 30.2734 69.5684 30.1248C69.529 29.9743 69.5205 29.8238 69.5429 29.6733C69.5665 29.5198 69.6149 29.3802 69.6883 29.2546C69.7633 29.1278 69.8578 29.0275 69.9717 28.9535C70.0395 28.9095 70.1044 28.8807 70.1665 28.8671C70.2287 28.8535 70.2859 28.8542 70.3381 28.8693C70.3916 28.8814 70.4385 28.9056 70.4789 28.9418C70.5209 28.9769 70.5532 29.0228 70.5758 29.0794L70.5128 29.0936L70.411 28.705L70.6687 28.5377L71.0617 30.0378L70.804 30.2051L70.7105 29.8479L70.7647 29.7893C70.7682 29.8472 70.7608 29.9111 70.7424 29.981C70.7252 30.0479 70.6976 30.116 70.6597 30.1852C70.6234 30.2533 70.5794 30.3176 70.5275 30.378C70.4774 30.4373 70.4209 30.4873 70.3582 30.5281ZM70.3539 30.2132C70.4316 30.1628 70.4944 30.0964 70.5423 30.0139C70.5903 29.9315 70.6208 29.8415 70.6339 29.7438C70.6481 29.6432 70.6423 29.5434 70.6163 29.4443C70.5909 29.3472 70.5508 29.2717 70.4962 29.2181C70.4432 29.1633 70.3812 29.1334 70.3103 29.1281C70.2394 29.1229 70.1651 29.1455 70.0875 29.196C70.0115 29.2453 69.9495 29.3112 69.9015 29.3936C69.8552 29.4749 69.8247 29.565 69.81 29.6637C69.7969 29.7614 69.8031 29.8588 69.8285 29.9559C69.8545 30.055 69.8942 30.1328 69.9477 30.1895C70.0023 30.2431 70.0643 30.2731 70.1336 30.2794C70.2045 30.2846 70.278 30.2625 70.3539 30.2132ZM72.1092 29.391C72.053 29.4275 71.9941 29.4534 71.9325 29.469C71.8725 29.4834 71.8149 29.4885 71.7596 29.4842C71.7056 29.477 71.6574 29.4626 71.615 29.4411C71.5738 29.4166 71.5425 29.3856 71.5211 29.3482L71.575 29.2664L71.6708 29.6322L71.4157 29.7979L70.864 27.6919L71.1192 27.5262L71.3699 28.4835L71.3236 28.4835C71.3203 28.4343 71.3275 28.3806 71.3451 28.3224C71.3622 28.2622 71.388 28.202 71.4224 28.1418C71.4581 28.0785 71.499 28.0207 71.5452 27.9684C71.5909 27.9142 71.6402 27.87 71.693 27.8357C71.8103 27.7595 71.923 27.7253 72.0313 27.733C72.1396 27.7406 72.2357 27.7864 72.3195 27.8702C72.4028 27.9521 72.4641 28.0682 72.5036 28.2187C72.543 28.3692 72.5517 28.5207 72.5298 28.6731C72.5096 28.8245 72.463 28.9639 72.3901 29.0915C72.3168 29.2171 72.2231 29.317 72.1092 29.391ZM71.9967 29.1497C72.0726 29.1004 72.1346 29.0345 72.1826 28.9521C72.2301 28.8678 72.2612 28.7762 72.2759 28.6775C72.2901 28.5769 72.2843 28.4771 72.2583 28.378C72.2329 28.2808 72.1928 28.2054 72.1382 28.1518C72.0847 28.0951 72.0225 28.0642 71.9515 28.059C71.8806 28.0538 71.8063 28.0764 71.7287 28.1268C71.6511 28.1772 71.5883 28.2436 71.5403 28.326C71.4923 28.4085 71.4612 28.5 71.447 28.6006C71.4323 28.6993 71.4376 28.7973 71.4631 28.8944C71.489 28.9935 71.5296 29.0708 71.5847 29.1264C71.6394 29.18 71.7024 29.2104 71.7738 29.2175C71.8448 29.2227 71.9191 29.2001 71.9967 29.1497ZM72.9833 28.7899L72.4294 26.6754L72.6845 26.5097L73.2385 28.6242L72.9833 28.7899ZM74.1903 28.0395C74.0565 28.1263 73.9292 28.1712 73.8081 28.174C73.6883 28.1738 73.5836 28.1359 73.4943 28.0602C73.4065 27.9834 73.3432 27.8707 73.3042 27.7222C73.2733 27.6041 73.2616 27.4857 73.2692 27.3671C73.2768 27.2485 73.3002 27.1352 73.3396 27.0272C73.3801 26.9162 73.4358 26.8153 73.5067 26.7247C73.5788 26.6311 73.6628 26.5531 73.7586 26.4909C73.8428 26.4362 73.9262 26.4043 74.0089 26.3952C74.091 26.3842 74.167 26.394 74.2368 26.4244C74.3083 26.4538 74.3698 26.5041 74.4213 26.5754C74.474 26.6438 74.5132 26.7308 74.539 26.8367L74.5695 26.964L73.5067 27.6542L73.3884 27.4569L74.2876 26.8729L74.2632 26.9456L74.2452 26.877C74.2238 26.8174 74.1909 26.773 74.1466 26.7438C74.1022 26.7147 74.0524 26.7014 73.997 26.7039C73.9416 26.7064 73.8858 26.7259 73.8297 26.7624C73.7405 26.8203 73.6706 26.8891 73.62 26.9688C73.5688 27.0466 73.5376 27.1337 73.5261 27.2303C73.5142 27.325 73.5227 27.4276 73.5517 27.5381C73.5791 27.6428 73.6221 27.7219 73.6805 27.7754C73.7385 27.8269 73.8076 27.8511 73.888 27.848C73.9683 27.8448 74.0539 27.8138 74.1447 27.7548C74.2091 27.7129 74.2654 27.662 74.3134 27.6018C74.363 27.5406 74.4116 27.4567 74.459 27.3501L74.6425 27.475C74.6148 27.5464 74.5766 27.6181 74.5278 27.6899C74.4806 27.7607 74.4276 27.8274 74.3686 27.8902C74.3109 27.95 74.2514 27.9998 74.1903 28.0395ZM75.5775 27.1386C75.4585 27.2159 75.3433 27.2517 75.2317 27.2462C75.1212 27.2376 75.0235 27.193 74.9386 27.1122C74.8532 27.0295 74.7907 26.9129 74.7513 26.7624C74.7119 26.6119 74.7034 26.4614 74.7258 26.3109C74.7493 26.1574 74.7986 26.0172 74.8736 25.8905C74.9482 25.7619 75.0441 25.6595 75.1613 25.5833C75.2257 25.5415 75.2909 25.5137 75.3568 25.4998C75.4239 25.483 75.4869 25.48 75.5458 25.4908C75.6042 25.4997 75.6531 25.5203 75.6925 25.5527C75.733 25.5821 75.7598 25.6215 75.7727 25.6711L75.6999 25.725L75.4372 24.7221L75.6923 24.5564L76.2463 26.6709L75.9911 26.8366L75.8975 26.4794L75.9471 26.4472C75.9591 26.4929 75.9578 26.5472 75.9434 26.6101C75.9284 26.6711 75.9037 26.7351 75.869 26.8022C75.8361 26.8682 75.7937 26.9313 75.7419 26.9917C75.6917 27.0511 75.6369 27.1 75.5775 27.1386ZM75.5455 26.8618C75.6231 26.8114 75.6857 26.744 75.7332 26.6597C75.7806 26.5754 75.8107 26.4834 75.8232 26.3839C75.837 26.2813 75.8306 26.1796 75.8042 26.0786C75.7777 25.9777 75.7369 25.8994 75.6818 25.8438C75.6278 25.7853 75.5651 25.7524 75.4936 25.7453C75.4222 25.7382 75.3477 25.7599 75.27 25.8103C75.1924 25.8607 75.1299 25.9281 75.0824 26.0124C75.0349 26.0967 75.0043 26.1901 74.9906 26.2927C74.978 26.3922 74.985 26.4925 75.0114 26.5934C75.0379 26.6944 75.0781 26.7742 75.1321 26.8327C75.1872 26.8883 75.2505 26.9197 75.3219 26.9268C75.3934 26.9339 75.4679 26.9122 75.5455 26.8618Z" fill="black" fill-opacity="0.55"/>
<path d="M60.5209 52.0946L60.289 51.034L59.9819 51.2161L59.9414 51.031L60.7343 50.5611L60.7748 50.7462L60.4583 50.9337L60.6901 51.9943L60.5209 52.0946ZM61.3107 51.6466C61.2522 51.6813 61.1977 51.6962 61.147 51.6914C61.0975 51.6859 61.0546 51.6624 61.0184 51.6209C60.9832 51.5788 60.9572 51.5192 60.9403 51.442L60.8143 50.8655L60.9757 50.7698L61.0908 51.2966C61.1027 51.3511 61.1204 51.3943 61.1439 51.4259C61.1681 51.4558 61.1967 51.473 61.2295 51.4777C61.2635 51.4817 61.3008 51.4716 61.3415 51.4475C61.3718 51.4295 61.3983 51.4078 61.4211 51.3823C61.4436 51.3555 61.4615 51.3268 61.4748 51.2961C61.4892 51.2648 61.4985 51.2318 61.5028 51.1972C61.507 51.1625 61.5055 51.1286 61.4982 51.0953L61.3753 50.533L61.5367 50.4374L61.7409 51.3716L61.5795 51.4673L61.5367 51.2715L61.5602 51.2335C61.5573 51.2848 61.5446 51.3372 61.5221 51.3908C61.5006 51.4437 61.4718 51.4929 61.4357 51.5384C61.3994 51.5827 61.3577 51.6188 61.3107 51.6466ZM61.9673 51.2375L61.7631 50.3032L61.926 50.2066L61.9902 50.5003L61.959 50.4384C61.9606 50.3865 61.971 50.3341 61.9901 50.2812C62.0103 50.2277 62.0358 50.1798 62.0667 50.1374C62.0986 50.0943 62.1338 50.0614 62.1725 50.0385C62.1902 50.028 62.2073 50.0198 62.2238 50.0141C62.2413 50.0078 62.2553 50.0042 62.2657 50.0033L62.267 50.2277C62.2531 50.2292 62.238 50.2328 62.2215 50.2386C62.2059 50.2425 62.1907 50.2488 62.1761 50.2574C62.1479 50.2742 62.1222 50.2968 62.0989 50.3253C62.0764 50.352 62.0577 50.3825 62.0428 50.4168C62.0287 50.4493 62.0191 50.4838 62.0141 50.5203C62.0088 50.5556 62.0099 50.5904 62.0175 50.6248L62.1303 51.1409L61.9673 51.2375ZM62.6886 50.81L62.4614 49.7707C62.4498 49.7174 62.4499 49.6637 62.4617 49.6098C62.4735 49.5559 62.4951 49.5063 62.5265 49.4609C62.5578 49.4155 62.5976 49.3785 62.6456 49.3501C62.679 49.3302 62.7119 49.3188 62.7443 49.3157C62.7767 49.3126 62.8043 49.3176 62.8273 49.3308L62.8032 49.5039C62.7865 49.4977 62.7688 49.4954 62.7503 49.497C62.7326 49.4968 62.7164 49.5011 62.7018 49.5097C62.6798 49.5227 62.6619 49.538 62.6481 49.5556C62.635 49.5714 62.6266 49.5898 62.6229 49.6107C62.619 49.6305 62.6195 49.6516 62.6244 49.6742L62.8516 50.7134L62.7701 50.7617C62.7565 50.7697 62.743 50.7778 62.7294 50.7858C62.7158 50.7939 62.7022 50.8019 62.6886 50.81ZM62.3932 50.1388L62.3563 49.9698L62.8452 49.68L62.8821 49.8491L62.3932 50.1388ZM63.58 50.2817L63.7324 48.7844L63.9048 48.6822L64.5986 49.6781L64.4184 49.7849L64.0035 49.1825C63.9986 49.1761 63.9879 49.1596 63.9715 49.1332C63.9561 49.1061 63.9384 49.0764 63.9184 49.044C63.8983 49.0117 63.8801 48.9823 63.8637 48.9558C63.847 48.9282 63.8361 48.9106 63.8309 48.9029L63.8665 48.8798C63.8647 48.9037 63.8624 48.9338 63.8598 48.9702C63.8581 49.006 63.8559 49.0442 63.853 49.0848C63.8511 49.1248 63.8488 49.163 63.8461 49.1994C63.8432 49.2346 63.8408 49.2642 63.839 49.2881L63.7524 50.1796L63.58 50.2817ZM63.7004 49.8606L63.7226 49.6384L64.2209 49.3431L64.3335 49.4855L63.7004 49.8606Z" fill="white"/>
<path d="M61.9115 62.0789L61.6796 61.0183L61.3725 61.2004L61.332 61.0153L62.125 60.5454L62.1654 60.7305L61.8489 60.9181L62.0807 61.9786L61.9115 62.0789ZM62.7014 61.631C62.6428 61.6656 62.5883 61.6805 62.5377 61.6757C62.4881 61.6702 62.4452 61.6467 62.409 61.6052C62.3738 61.5631 62.3478 61.5035 62.3309 61.4264L62.2049 60.8498L62.3663 60.7541L62.4814 61.2809C62.4934 61.3354 62.5111 61.3786 62.5345 61.4102C62.5587 61.4401 62.5873 61.4574 62.6202 61.462C62.6541 61.466 62.6914 61.4559 62.7322 61.4318C62.7625 61.4138 62.789 61.3921 62.8117 61.3666C62.8342 61.3398 62.8521 61.3111 62.8655 61.2804C62.8798 61.2491 62.8892 61.2161 62.8934 61.1815C62.8976 61.1468 62.8961 61.1129 62.8888 61.0797L62.7659 60.5173L62.9273 60.4217L63.1315 61.3559L62.9701 61.4516L62.9273 61.2558L62.9509 61.2178C62.9479 61.2691 62.9352 61.3215 62.9127 61.3751C62.8912 61.428 62.8624 61.4772 62.8264 61.5227C62.79 61.567 62.7484 61.6031 62.7014 61.631ZM63.3579 61.2218L63.1537 60.2875L63.3167 60.1909L63.3808 60.4846L63.3496 60.4227C63.3513 60.3708 63.3616 60.3184 63.3808 60.2655C63.4009 60.212 63.4264 60.1641 63.4573 60.1217C63.4892 60.0787 63.5245 60.0457 63.5631 60.0228C63.5809 60.0123 63.598 60.0041 63.6144 59.9984C63.6319 59.9921 63.6459 59.9885 63.6563 59.9877L63.6576 60.212C63.6437 60.2135 63.6286 60.2171 63.6122 60.2229C63.5965 60.2268 63.5813 60.2331 63.5667 60.2418C63.5385 60.2585 63.5128 60.2811 63.4895 60.3096C63.467 60.3363 63.4483 60.3669 63.4334 60.4012C63.4193 60.4337 63.4097 60.4681 63.4047 60.5046C63.3994 60.5399 63.4006 60.5747 63.4081 60.6091L63.5209 61.1252L63.3579 61.2218ZM64.0793 60.7943L63.8521 59.7551C63.8404 59.7017 63.8405 59.648 63.8523 59.5941C63.8641 59.5402 63.8857 59.4906 63.9171 59.4452C63.9485 59.3998 63.9882 59.3628 64.0362 59.3344C64.0697 59.3146 64.1026 59.3031 64.1349 59.3C64.1673 59.2969 64.1949 59.302 64.2179 59.3152L64.1938 59.4882C64.1771 59.4821 64.1595 59.4798 64.1409 59.4814C64.1232 59.4812 64.107 59.4854 64.0924 59.4941C64.0704 59.5071 64.0525 59.5224 64.0387 59.5399C64.0256 59.5557 64.0172 59.5741 64.0136 59.595C64.0096 59.6148 64.0101 59.6359 64.015 59.6585L64.2422 60.6977L64.1607 60.746C64.1472 60.7541 64.1336 60.7621 64.12 60.7702C64.1064 60.7782 64.0928 60.7862 64.0793 60.7943ZM63.7839 60.1231L63.7469 59.9541L64.2358 59.6643L64.2728 59.8334L63.7839 60.1231ZM65.0851 60.1982L64.8128 58.9526L65.2703 58.6814C65.3403 58.6399 65.4019 58.6168 65.4552 58.6121C65.5084 58.6073 65.5523 58.6216 65.5867 58.6548C65.6218 58.6862 65.6468 58.7357 65.6616 58.8033C65.6764 58.8709 65.6723 58.9384 65.6492 59.0056C65.6272 59.0723 65.5889 59.1318 65.5343 59.1843L65.5265 59.1487C65.5782 59.1315 65.6257 59.1275 65.669 59.1366C65.712 59.1446 65.7484 59.1653 65.7781 59.1986C65.8089 59.2313 65.8306 59.2767 65.8433 59.3348C65.8563 59.3942 65.8594 59.4519 65.8528 59.5081C65.847 59.5624 65.8313 59.6146 65.8057 59.6647C65.7811 59.7141 65.7481 59.7604 65.7068 59.8037C65.6653 59.8457 65.6158 59.8837 65.5583 59.9178L65.0851 60.1982ZM65.2139 59.9129L65.5085 59.7383C65.5513 59.7129 65.5858 59.6844 65.6119 59.6529C65.6391 59.6207 65.6575 59.5863 65.6672 59.5497C65.6777 59.5113 65.6787 59.4726 65.6701 59.4334C65.6621 59.3967 65.6464 59.3705 65.6229 59.3549C65.6005 59.3387 65.5722 59.3334 65.538 59.3389C65.5035 59.3432 65.4649 59.3581 65.422 59.3835L65.1353 59.5534L65.2139 59.9129ZM65.0948 59.3684L65.3737 59.2031C65.4051 59.1845 65.4312 59.161 65.4521 59.1325C65.4741 59.1034 65.4891 59.0724 65.4973 59.0394C65.5065 59.0058 65.5075 58.973 65.5005 58.941C65.4889 58.8876 65.4643 58.8559 65.4267 58.8461C65.3891 58.8362 65.3411 58.8485 65.2826 58.8832L65.0225 59.0374L65.0948 59.3684Z" fill="white"/>
</g>
<defs>
<clipPath id="clip0_1619_970">
<rect width="115.82" height="107.569" fill="white" transform="translate(0.898438 0.720703)"/>
</clipPath>
</defs>
</svg>
