<svg width="124" height="106" viewBox="0 0 124 106" fill="none" xmlns="http://www.w3.org/2000/svg">
<path d="M44.004 75.7949C43.7935 75.7949 43.5915 75.7255 43.4421 75.6017C43.2928 75.4779 43.2082 75.3098 43.2068 75.1341V64.6009C43.207 64.4257 43.2905 64.2577 43.4391 64.1339L50.0069 58.6624V52.8958L43.1698 47.1688C43.0212 47.045 42.9377 46.877 42.9375 46.7018V34.3668C42.9375 34.1915 43.0209 34.0235 43.1695 33.8995C43.318 33.7756 43.5194 33.706 43.7294 33.706C43.9395 33.706 44.1409 33.7756 44.2894 33.8995C44.438 34.0235 44.5214 34.1915 44.5214 34.3668V46.4375L51.3585 52.1645C51.5071 52.2883 51.5907 52.4563 51.5908 52.6315V58.94C51.5907 59.1152 51.5071 59.2831 51.3585 59.4069L44.7959 64.874V75.1341C44.7959 75.3094 44.7125 75.4775 44.564 75.6014C44.4155 75.7253 44.214 75.7949 44.004 75.7949Z" fill="#7D7D7D"/>
<path d="M56.2998 76.7126C56.0897 76.7126 55.8883 76.5882 55.7398 76.3667C55.5912 76.1452 55.5078 75.8448 55.5078 75.5316V54.1707C55.5255 53.8677 55.6199 53.5862 55.7718 53.3833L58.665 49.0765V35.7466C58.665 35.4334 58.7485 35.1329 58.897 34.9115C59.0455 34.69 59.247 34.5656 59.457 34.5656C59.667 34.5656 59.8685 34.69 60.017 34.9115C60.1655 35.1329 60.2489 35.4334 60.2489 35.7466V49.5331C60.2488 49.8463 60.1652 50.1465 60.0166 50.3678L57.1234 54.6825V75.5316C57.1235 75.6908 57.102 75.8483 57.0602 75.9948C57.0185 76.1412 56.9573 76.2736 56.8803 76.3839C56.8034 76.4942 56.7123 76.5802 56.6126 76.6367C56.5128 76.6932 56.4064 76.719 56.2998 76.7126Z" fill="#7D7D7D"/>
<path d="M56.2998 76.7126C56.0897 76.7126 55.8883 76.5882 55.7398 76.3667C55.5912 76.1452 55.5078 75.8448 55.5078 75.5316V54.1707C55.5255 53.8677 55.6199 53.5862 55.7718 53.3833L58.665 49.0765V35.7466C58.665 35.4334 58.7485 35.1329 58.897 34.9115C59.0455 34.69 59.247 34.5656 59.457 34.5656C59.667 34.5656 59.8685 34.69 60.017 34.9115C60.1655 35.1329 60.2489 35.4334 60.2489 35.7466V49.5331C60.2488 49.8463 60.1652 50.1465 60.0166 50.3678L57.1234 54.6825V75.5316C57.1235 75.6908 57.102 75.8483 57.0602 75.9948C57.0185 76.1412 56.9573 76.2736 56.8803 76.3839C56.8034 76.4942 56.7123 76.5802 56.6126 76.6367C56.5128 76.6932 56.4064 76.719 56.2998 76.7126Z" fill="#7D7D7D"/>
<path d="M74.7267 76.7136C74.5167 76.7136 74.3152 76.6302 74.1667 76.4817C74.0182 76.3332 73.9347 76.1317 73.9347 75.9217V43.4202L67.0448 36.5566C66.8962 36.4082 66.8127 36.2069 66.8125 35.997V25.2001C66.835 25.0058 66.9281 24.8266 67.0741 24.6964C67.2201 24.5663 67.4089 24.4944 67.6044 24.4944C67.8 24.4944 67.9888 24.5663 68.1348 24.6964C68.2808 24.8266 68.3739 25.0058 68.3964 25.2001V35.6485L75.2599 42.5121C75.4085 42.6604 75.4921 42.8617 75.4922 43.0717V75.9006C75.4979 76.1097 75.4206 76.3127 75.2772 76.465C75.1337 76.6173 74.9358 76.7067 74.7267 76.7136Z" fill="#7D7D7D"/>
<path d="M90.4289 77.912C90.2189 77.912 90.0174 77.8286 89.8689 77.6801C89.7204 77.5316 89.637 77.3301 89.637 77.1201V68.0391L84.3573 62.7595C84.2087 62.6111 84.1252 62.4098 84.125 62.1998V46.9997C84.1263 46.79 84.2097 46.5891 84.3573 46.4401L89.3677 41.435V31.9738C89.3677 31.7638 89.4511 31.5624 89.5996 31.4138C89.7482 31.2653 89.9496 31.1819 90.1596 31.1819C90.3697 31.1819 90.5711 31.2653 90.7196 31.4138C90.8682 31.5624 90.9516 31.7638 90.9516 31.9738V41.7623C90.9514 41.9723 90.8678 42.1736 90.7193 42.3219L85.6931 47.3429V61.8672L90.9727 67.1469C91.1213 67.2952 91.2048 67.4965 91.205 67.7065V77.1201C91.2051 77.3274 91.1238 77.5265 90.9787 77.6746C90.8336 77.8226 90.6362 77.9079 90.4289 77.912Z" fill="#7D7D7D"/>
<path d="M101.644 78.4084C101.433 78.4084 101.232 78.3249 101.084 78.1764C100.935 78.0279 100.852 77.8265 100.852 77.6164V73.0865C100.853 72.8768 100.936 72.6759 101.084 72.5269L106.205 67.4056V59.4861L101.364 54.6394C101.289 54.5666 101.23 54.4795 101.19 54.3834C101.15 54.2872 101.13 54.1839 101.131 54.0798V40.5533C101.131 40.3433 101.215 40.1418 101.363 39.9933C101.512 39.8448 101.713 39.7614 101.923 39.7614C102.133 39.7614 102.335 39.8448 102.483 39.9933C102.632 40.1418 102.715 40.3433 102.715 40.5533V53.7524L107.562 58.5991C107.711 58.7475 107.794 58.9488 107.794 59.1588V67.7276C107.794 67.9376 107.711 68.1389 107.562 68.2873L102.435 73.4138V77.6111C102.436 77.7156 102.416 77.8191 102.377 77.9158C102.337 78.0125 102.279 78.1005 102.205 78.1746C102.132 78.2487 102.044 78.3075 101.948 78.3476C101.851 78.3877 101.748 78.4084 101.644 78.4084Z" fill="#7D7D7D"/>
<path d="M111.349 75.795C111.139 75.795 110.937 75.7115 110.789 75.563C110.64 75.4145 110.557 75.213 110.557 75.003V55.2202L107.342 52.0048C107.193 51.8565 107.11 51.6552 107.109 51.4452V47.5699C107.11 47.3586 107.194 47.156 107.342 47.005L110.135 44.2174V33.864C110.135 33.6539 110.218 33.4525 110.367 33.304C110.515 33.1555 110.717 33.072 110.927 33.072C111.137 33.072 111.338 33.1555 111.487 33.304C111.635 33.4525 111.719 33.6539 111.719 33.864V44.5447C111.718 44.7547 111.635 44.956 111.486 45.1043L108.693 47.8973V51.1179L111.909 54.3332C111.983 54.4059 112.042 54.493 112.082 54.5892C112.122 54.6854 112.142 54.7887 112.141 54.8928V75.003C112.141 75.213 112.057 75.4145 111.909 75.563C111.76 75.7115 111.559 75.795 111.349 75.795Z" fill="#7D7D7D"/>
<path d="M47.2834 33.7062C47.2834 34.4048 47.0762 35.0878 46.6881 35.6686C46.2999 36.2495 45.7483 36.7023 45.1028 36.9696C44.4574 37.237 43.7472 37.3069 43.0619 37.1706C42.3767 37.0343 41.7473 36.6979 41.2533 36.2039C40.7593 35.7099 40.4229 35.0805 40.2866 34.3953C40.1503 33.7101 40.2203 32.9999 40.4876 32.3544C40.755 31.709 41.2077 31.1573 41.7886 30.7692C42.3695 30.3811 43.0524 30.1739 43.7511 30.1739C44.6879 30.1739 45.5863 30.5461 46.2488 31.2085C46.9112 31.8709 47.2834 32.7694 47.2834 33.7062Z" fill="#484848"/>
<path d="M62.9709 35.6533C62.9709 36.3522 62.7636 37.0353 62.3752 37.6163C61.9868 38.1973 61.4349 38.6501 60.7891 38.9173C60.1433 39.1845 59.4328 39.2541 58.7475 39.1174C58.0622 38.9807 57.4328 38.6437 56.939 38.1492C56.4452 37.6547 56.1092 37.0248 55.9735 36.3392C55.8378 35.6537 55.9085 34.9433 56.1767 34.2979C56.4448 33.6526 56.8984 33.1013 57.48 32.7138C58.0615 32.3263 58.745 32.12 59.4439 32.121C59.9075 32.121 60.3665 32.2124 60.7948 32.39C61.2231 32.5676 61.6121 32.8279 61.9397 33.1559C62.2673 33.484 62.527 33.8735 62.7039 34.302C62.8809 34.7305 62.9716 35.1897 62.9709 35.6533Z" fill="#484848"/>
<path d="M62.9709 35.6534C62.9709 36.3522 62.7636 37.0354 62.3752 37.6164C61.9868 38.1974 61.4349 38.6501 60.7891 38.9173C60.1433 39.1845 59.4328 39.2542 58.7475 39.1174C58.0622 38.9807 57.4328 38.6438 56.939 38.1493C56.4452 37.6547 56.1092 37.0248 55.9735 36.3393C55.8378 35.6537 55.9085 34.9433 56.1767 34.298C56.4448 33.6526 56.8984 33.1013 57.48 32.7138C58.0615 32.3263 58.745 32.1201 59.4439 32.1211C59.9075 32.1211 60.3665 32.2125 60.7948 32.3901C61.2231 32.5677 61.6121 32.8279 61.9397 33.156C62.2673 33.4841 62.527 33.8735 62.7039 34.302C62.8809 34.7306 62.9716 35.1898 62.9709 35.6534Z" fill="#484848"/>
<path d="M71.1428 23.9754C71.1428 24.6741 70.9356 25.357 70.5474 25.9379C70.1593 26.5188 69.6076 26.9715 68.9622 27.2389C68.3168 27.5062 67.6065 27.5762 66.9213 27.4399C66.2361 27.3036 65.6067 26.9672 65.1127 26.4732C64.6187 25.9792 64.2823 25.3498 64.146 24.6646C64.0097 23.9794 64.0797 23.2691 64.347 22.6237C64.6144 21.9782 65.0671 21.4266 65.648 21.0384C66.2289 20.6503 66.9118 20.4431 67.6104 20.4431C68.0745 20.4424 68.5341 20.5333 68.963 20.7106C69.3919 20.8879 69.7816 21.148 70.1097 21.4762C70.4379 21.8043 70.698 22.194 70.8753 22.6229C71.0526 23.0517 71.1434 23.5114 71.1428 23.9754Z" fill="#484848"/>
<path d="M93.674 31.0343C93.674 31.7332 93.4667 32.4163 93.0783 32.9973C92.6899 33.5783 92.138 34.0311 91.4922 34.2983C90.8465 34.5655 90.136 34.6351 89.4506 34.4984C88.7653 34.3616 88.1359 34.0247 87.6421 33.5302C87.1483 33.0356 86.8123 32.4058 86.6766 31.7202C86.5409 31.0347 86.6116 30.3243 86.8798 29.6789C87.1479 29.0335 87.6015 28.4822 88.1831 28.0947C88.7647 27.7072 89.4481 27.501 90.147 27.502C90.6106 27.502 91.0697 27.5934 91.4979 27.771C91.9262 27.9486 92.3152 28.2088 92.6428 28.5369C92.9704 28.865 93.2301 29.2544 93.407 29.683C93.584 30.1115 93.6747 30.5707 93.674 31.0343Z" fill="#484848"/>
<path d="M105.455 39.5028C105.456 40.2019 105.25 40.8855 104.862 41.4672C104.474 42.0489 103.923 42.5025 103.277 42.7705C102.631 43.0385 101.921 43.1089 101.235 42.9728C100.549 42.8366 99.9195 42.5001 99.4252 42.0058C98.9309 41.5115 98.5944 40.8816 98.4582 40.1959C98.3221 39.5102 98.3925 38.7995 98.6605 38.1539C98.9285 37.5082 99.3821 36.9566 99.9638 36.5689C100.545 36.1811 101.229 35.9747 101.928 35.9758C102.863 35.9772 103.76 36.3492 104.421 37.0104C105.082 37.6715 105.454 38.5678 105.455 39.5028Z" fill="#484848"/>
<path d="M114.455 31.9741C114.456 32.6731 114.25 33.3568 113.862 33.9385C113.474 34.5202 112.923 34.9737 112.277 35.2417C111.631 35.5098 110.921 35.5802 110.235 35.444C109.549 35.3079 108.92 34.9714 108.425 34.477C107.931 33.9827 107.594 33.3529 107.458 32.6672C107.322 31.9815 107.393 31.2708 107.661 30.6251C107.929 29.9795 108.382 29.4279 108.964 29.0401C109.545 28.6524 110.229 28.446 110.928 28.447C111.863 28.4484 112.76 28.8205 113.421 29.4816C114.082 30.1428 114.454 31.0391 114.455 31.9741Z" fill="#484848"/>
<path d="M49.8578 100.794C47.3605 95.7045 43.179 86.1378 41.574 76.4021C39.0345 61.0119 31.8542 60.0352 29.0243 64.2589C22.1607 74.5173 35.7928 92.3414 43.2107 100.799L49.8578 100.794Z" fill="#E6E6E6"/>
<path d="M37.9096 84.3004C40.3037 90.0547 43.2234 95.576 46.6316 100.794H47.4552C43.9611 95.5045 40.977 89.8953 38.5431 84.0417C36.9009 80.1692 35.4905 76.2025 34.3194 72.1625C34.2959 72.0753 34.2389 72.0008 34.1608 71.9554C34.0827 71.9099 33.9898 71.8971 33.9023 71.9196C33.8147 71.9444 33.7402 72.0024 33.6948 72.0813C33.6494 72.1603 33.6367 72.2538 33.6595 72.342C34.8384 76.4087 36.2576 80.4019 37.9096 84.3004Z" fill="#AF9F9D"/>
<path d="M81.7963 96.1797L77.9103 96.9506C77.9103 96.9506 76.2048 99.448 74.3516 101.629L81.5904 100.573L81.7963 96.1797Z" fill="#FDBB92"/>
<path d="M83.8712 101.402C82.9067 101.896 81.8072 102.061 80.7402 101.872L80.1172 95.6254C81.1134 95.1887 82.1997 94.9968 83.2852 95.0657L83.8712 101.402Z" fill="#2A5B74"/>
<path d="M72.4609 96.1797L76.347 96.9506C76.347 96.9506 78.0524 99.448 79.9057 101.629L72.6669 100.573L72.4609 96.1797Z" fill="#FDBB92"/>
<path d="M84.9702 87.4049C80.8838 87.4049 77.0032 85.9477 74.2261 84.5538C71.9176 83.3951 69.7405 81.9915 67.7322 80.3671C67.666 80.309 67.6251 80.2274 67.6182 80.1397C67.6113 80.0519 67.639 79.9649 67.6952 79.8972C67.7235 79.8644 67.758 79.8375 67.7967 79.8181C67.8355 79.7988 67.8777 79.7873 67.9209 79.7843C67.9641 79.7814 68.0075 79.787 68.0485 79.801C68.0895 79.8149 68.1273 79.8368 68.1598 79.8655C70.1318 81.456 72.2681 82.8312 74.5324 83.9678C77.9852 85.7048 83.1699 87.5316 88.2594 86.3912C88.3443 86.3755 88.4319 86.3934 88.5038 86.4412C88.5756 86.4889 88.6262 86.5627 88.6447 86.647C88.6632 86.7312 88.6482 86.8194 88.6029 86.8928C88.5576 86.9663 88.4856 87.0192 88.402 87.0406C87.2748 87.2866 86.124 87.4088 84.9702 87.4049Z" fill="#E3390F"/>
<path d="M80.6086 19.1866C80.5801 19.1859 80.5525 19.1767 80.5294 19.1602C80.5155 19.1498 80.5038 19.1368 80.495 19.1219C80.4861 19.107 80.4803 19.0904 80.4779 19.0733C80.4754 19.0561 80.4764 19.0387 80.4807 19.0219C80.485 19.0051 80.4926 18.9893 80.503 18.9754C80.5452 18.9226 81.4692 17.7505 82.5199 17.8455C82.5373 17.8468 82.5542 17.8516 82.5697 17.8595C82.5852 17.8674 82.599 17.8783 82.6103 17.8915C82.6216 17.9048 82.6301 17.9201 82.6355 17.9367C82.6408 17.9533 82.6428 17.9707 82.6414 17.9881C82.64 18.0054 82.6353 18.0223 82.6274 18.0378C82.6195 18.0534 82.6086 18.0672 82.5953 18.0785C82.5821 18.0897 82.5667 18.0983 82.5502 18.1036C82.5336 18.109 82.5161 18.1109 82.4988 18.1095C81.5906 18.0303 80.7194 19.1233 80.7142 19.1391C80.7013 19.1545 80.6851 19.1668 80.6668 19.1751C80.6486 19.1833 80.6286 19.1873 80.6086 19.1866Z" fill="white"/>
<path d="M90.0692 88.2338H64.2359C63.7636 88.2336 63.3045 88.0785 62.9288 87.7925C62.5531 87.5064 62.2815 87.1051 62.1557 86.6499L61.8125 85.3828H92.5137L92.1705 86.6499C92.0437 87.1086 91.769 87.5125 91.389 87.7989C91.009 88.0853 90.545 88.2382 90.0692 88.2338Z" fill="#002029"/>
<path d="M33.1211 41.113H33.7072C33.7577 41.1111 33.8068 41.0964 33.85 41.0702C33.8931 41.044 33.9288 41.0071 33.9537 40.9632C33.9786 40.9193 33.9918 40.8697 33.9921 40.8192C33.9924 40.7687 33.9797 40.719 33.9554 40.6748L33.665 40.1468C33.6265 40.0767 33.5617 40.0249 33.485 40.0026C33.4082 39.9803 33.3258 39.9894 33.2558 40.028C33.1857 40.0665 33.1339 40.1312 33.1116 40.2079C33.0893 40.2847 33.0985 40.3671 33.137 40.4372L33.1792 40.5058H33.1C33.0291 40.5153 32.964 40.5503 32.9169 40.6042C32.8697 40.6581 32.8438 40.7272 32.8438 40.7988C32.8438 40.8704 32.8697 40.9396 32.9169 40.9935C32.964 41.0474 33.0291 41.0823 33.1 41.0919L33.1211 41.113Z" fill="#888888"/>
<path d="M32.646 39.561L32.118 38.6634C32.0795 38.5934 32.0704 38.5109 32.0927 38.4342C32.115 38.3574 32.1668 38.2927 32.2368 38.2542C32.3069 38.2157 32.3893 38.2065 32.466 38.2288C32.5428 38.2511 32.6075 38.303 32.646 38.373L33.174 39.2706C33.2124 39.3371 33.2228 39.4162 33.203 39.4904C33.1832 39.5646 33.1348 39.628 33.0684 39.6666C33.0234 39.6926 32.9726 39.7071 32.9206 39.7088C32.8655 39.7128 32.8104 39.7011 32.7618 39.6749C32.7132 39.6487 32.673 39.6092 32.646 39.561ZM31.59 37.7658L31.062 36.8629C31.0237 36.7964 31.0133 36.7173 31.0331 36.6431C31.0529 36.5689 31.1012 36.5055 31.1676 36.4669C31.235 36.4283 31.3148 36.4177 31.3899 36.4375C31.465 36.4572 31.5293 36.5057 31.5689 36.5725L32.0969 37.4701C32.1232 37.5145 32.1371 37.565 32.1374 37.6165C32.1376 37.6681 32.1242 37.7187 32.0984 37.7634C32.0726 37.808 32.0354 37.8449 31.9906 37.8704C31.9458 37.8959 31.895 37.909 31.8435 37.9083C31.7954 37.9053 31.7486 37.8908 31.7073 37.866C31.6659 37.8412 31.6312 37.8068 31.6059 37.7658H31.59ZM30.534 35.9653L30.006 35.0677C29.987 35.033 29.9749 34.995 29.9706 34.9556C29.9662 34.9163 29.9697 34.8765 29.9807 34.8385C29.9917 34.8005 30.0101 34.7651 30.0349 34.7342C30.0596 34.7033 30.0902 34.6776 30.1248 34.6585C30.1595 34.6394 30.1976 34.6274 30.2369 34.623C30.2763 34.6187 30.3161 34.6221 30.3541 34.6332C30.392 34.6442 30.4275 34.6626 30.4584 34.6873C30.4893 34.7121 30.515 34.7426 30.534 34.7773L31.062 35.6749C31.0808 35.7082 31.0928 35.7448 31.0974 35.7827C31.102 35.8207 31.0991 35.8591 31.0888 35.8959C31.0785 35.9327 31.061 35.9671 31.0374 35.9971C31.0138 36.0271 30.9845 36.0522 30.9512 36.0709C30.9094 36.0999 30.8594 36.1147 30.8086 36.1131C30.7598 36.1105 30.7124 36.0956 30.6708 36.0697C30.6293 36.0439 30.5949 36.008 30.571 35.9653H30.534Z" fill="#888888"/>
<path d="M29.1951 34.3128C29.2461 34.3134 29.2964 34.3005 29.3409 34.2755C29.3854 34.2505 29.4225 34.2142 29.4485 34.1702L29.4855 34.1016L29.5224 34.1702C29.5616 34.2402 29.627 34.2918 29.7043 34.3136C29.7815 34.3354 29.8642 34.3256 29.9343 34.2864C30.0043 34.2472 30.0558 34.1818 30.0776 34.1045C30.0994 34.0273 30.0896 33.9446 30.0504 33.8746L29.76 33.3466C29.7369 33.296 29.6997 33.2532 29.6529 33.2231C29.6061 33.1931 29.5516 33.1771 29.496 33.1771C29.4404 33.1771 29.386 33.1931 29.3392 33.2231C29.2924 33.2532 29.2552 33.296 29.232 33.3466L28.9416 33.8746C28.9211 33.9075 28.9075 33.9443 28.9016 33.9828C28.8958 34.0212 28.8979 34.0604 28.9078 34.098C28.9177 34.1356 28.9352 34.1707 28.9592 34.2013C28.9831 34.2319 29.0131 34.2572 29.0472 34.2758C29.0923 34.3011 29.1434 34.3138 29.1951 34.3128Z" fill="#888888"/>
<path d="M25.9334 39.6613C25.867 39.6226 25.8187 39.5593 25.7989 39.4851C25.7791 39.4109 25.7895 39.3318 25.8278 39.2653L26.3558 38.3677C26.3946 38.3 26.4585 38.2504 26.5337 38.2296C26.6088 38.2089 26.6891 38.2186 26.7571 38.2568C26.8239 38.2964 26.8724 38.3607 26.8921 38.4358C26.9119 38.5109 26.9013 38.5907 26.8627 38.6581L26.3347 39.5557C26.3094 39.6006 26.2726 39.638 26.228 39.6639C26.1835 39.6899 26.1328 39.7036 26.0813 39.7035C26.0293 39.7018 25.9785 39.6873 25.9334 39.6613ZM26.9894 37.8661C26.9553 37.8475 26.9253 37.8221 26.9014 37.7916C26.8774 37.761 26.8599 37.7258 26.85 37.6882C26.8402 37.6506 26.838 37.6114 26.8439 37.573C26.8497 37.5346 26.8633 37.4978 26.8838 37.4648L27.4118 36.5672C27.4505 36.5008 27.5138 36.4524 27.588 36.4326C27.6622 36.4128 27.7413 36.4233 27.8078 36.4616C27.8412 36.4803 27.8705 36.5054 27.8941 36.5354C27.9177 36.5654 27.9351 36.5998 27.9454 36.6366C27.9557 36.6734 27.9587 36.7118 27.9541 36.7498C27.9495 36.7877 27.9375 36.8243 27.9187 36.8576L27.3907 37.7605C27.3652 37.8036 27.3289 37.8395 27.2854 37.8645C27.2419 37.8894 27.1927 37.9027 27.1426 37.903C27.0843 37.9098 27.0254 37.8987 26.9736 37.8713L26.9894 37.8661ZM28.0454 36.0656C27.979 36.027 27.9307 35.9636 27.9109 35.8894C27.8911 35.8152 27.9015 35.7362 27.9398 35.6696L28.4678 34.772C28.4869 34.7373 28.5126 34.7068 28.5435 34.682C28.5744 34.6573 28.6098 34.6389 28.6478 34.6279C28.6858 34.6168 28.7256 34.6134 28.765 34.6177C28.8043 34.6221 28.8424 34.6341 28.877 34.6532C28.9117 34.6723 28.9423 34.698 28.967 34.7289C28.9917 34.7597 29.0101 34.7952 29.0212 34.8332C29.0322 34.8712 29.0356 34.911 29.0313 34.9503C29.027 34.9897 29.0149 35.0277 28.9958 35.0624L28.4678 35.96C28.4425 36.0049 28.4057 36.0423 28.3612 36.0683C28.3166 36.0943 28.266 36.1079 28.2144 36.1078C28.1436 36.1192 28.071 36.1062 28.0085 36.0709L28.0454 36.0656Z" fill="#888888"/>
<path d="M25.2714 41.1129H25.8575C25.9284 41.1034 25.9935 41.0684 26.0406 41.0145C26.0878 40.9606 26.1137 40.8915 26.1137 40.8199C26.1137 40.7483 26.0878 40.6791 26.0406 40.6253C25.9935 40.5714 25.9284 40.5364 25.8575 40.5269H25.7783L25.8205 40.4582C25.859 40.3882 25.8682 40.3058 25.8459 40.229C25.8236 40.1523 25.7717 40.0875 25.7017 40.049C25.6317 40.0105 25.5493 40.0014 25.4725 40.0237C25.3958 40.0459 25.331 40.0978 25.2925 40.1678L24.9968 40.6958C24.9733 40.7406 24.9609 40.7904 24.9609 40.841C24.9609 40.8916 24.9733 40.9415 24.9968 40.9862C25.0274 41.0297 25.0688 41.0643 25.1171 41.0866C25.1653 41.1088 25.2185 41.1179 25.2714 41.1129Z" fill="#888888"/>
<path d="M26.6016 40.8173C26.6029 40.7398 26.6347 40.6659 26.69 40.6116C26.7453 40.5573 26.8197 40.5269 26.8972 40.5269H27.9532C28.0242 40.5364 28.0893 40.5714 28.1364 40.6253C28.1835 40.6791 28.2095 40.7483 28.2095 40.8199C28.2095 40.8915 28.1835 40.9606 28.1364 41.0145C28.0893 41.0684 28.0242 41.1034 27.9532 41.1129H26.8972C26.8188 41.1129 26.7436 41.0818 26.6882 41.0263C26.6327 40.9709 26.6016 40.8957 26.6016 40.8173ZM28.6766 40.8173C28.678 40.7398 28.7097 40.6659 28.765 40.6116C28.8203 40.5573 28.8948 40.5269 28.9723 40.5269H30.0283C30.0701 40.5212 30.1126 40.5246 30.1529 40.5368C30.1933 40.5489 30.2306 40.5696 30.2623 40.5973C30.2941 40.6251 30.3195 40.6593 30.3369 40.6977C30.3544 40.7361 30.3634 40.7777 30.3634 40.8199C30.3634 40.8621 30.3544 40.9037 30.3369 40.9421C30.3195 40.9805 30.2941 41.0147 30.2623 41.0425C30.2306 41.0702 30.1933 41.0909 30.1529 41.103C30.1126 41.1152 30.0701 41.1186 30.0283 41.1129H28.9723C28.9334 41.1129 28.895 41.1053 28.8591 41.0904C28.8233 41.0756 28.7907 41.0538 28.7632 41.0263C28.7357 40.9989 28.714 40.9663 28.6991 40.9304C28.6842 40.8945 28.6766 40.8561 28.6766 40.8173ZM30.7516 40.8173C30.753 40.7398 30.7848 40.6659 30.8401 40.6116C30.8954 40.5573 30.9698 40.5269 31.0473 40.5269H32.1033C32.1451 40.5212 32.1876 40.5246 32.228 40.5368C32.2683 40.5489 32.3056 40.5696 32.3374 40.5973C32.3691 40.6251 32.3945 40.6593 32.412 40.6977C32.4294 40.7361 32.4384 40.7777 32.4384 40.8199C32.4384 40.8621 32.4294 40.9037 32.412 40.9421C32.3945 40.9805 32.3691 41.0147 32.3374 41.0425C32.3056 41.0702 32.2683 41.0909 32.228 41.103C32.1876 41.1152 32.1451 41.1186 32.1033 41.1129H31.0473C30.9689 41.1129 30.8937 41.0818 30.8382 41.0263C30.7828 40.9709 30.7516 40.8957 30.7516 40.8173Z" fill="#888888"/>
<path d="M14.8915 44.6666C14.8809 44.5897 14.901 44.5117 14.9475 44.4494C14.9939 44.3872 15.0629 44.3457 15.1397 44.334C15.505 44.2851 15.8609 44.1819 16.1957 44.0277C16.2673 43.997 16.348 43.9952 16.4209 44.0228C16.4938 44.0504 16.5531 44.1051 16.5864 44.1756C16.6169 44.2464 16.6185 44.3264 16.5909 44.3984C16.5633 44.4704 16.5086 44.5287 16.4386 44.561C16.0591 44.7337 15.6575 44.8527 15.2453 44.9148H15.2031C15.1296 44.9197 15.0569 44.8969 14.9993 44.851C14.9416 44.8051 14.9032 44.7394 14.8915 44.6666ZM13.9728 44.9148C13.5606 44.8527 13.159 44.7337 12.7795 44.561C12.7095 44.5287 12.6548 44.4704 12.6272 44.3984C12.5996 44.3264 12.6012 44.2464 12.6317 44.1756C12.665 44.1051 12.7244 44.0504 12.7972 44.0228C12.8701 43.9952 12.9508 43.997 13.0224 44.0277C13.3572 44.1819 13.7131 44.2851 14.0784 44.334C14.1554 44.3396 14.2271 44.3755 14.2776 44.434C14.3281 44.4924 14.3533 44.5685 14.3477 44.6455C14.3421 44.7225 14.3061 44.7942 14.2477 44.8447C14.1893 44.8952 14.1132 44.9204 14.0362 44.9148H13.9728ZM11.7288 43.8852C11.4173 43.6109 11.1454 43.2946 10.921 42.9453C10.8793 42.8794 10.8654 42.7997 10.8822 42.7236C10.899 42.6474 10.9452 42.581 11.0108 42.5388C11.043 42.5183 11.0789 42.5043 11.1166 42.4977C11.1542 42.4912 11.1927 42.4921 11.23 42.5004C11.2673 42.5087 11.3026 42.5244 11.3338 42.5463C11.365 42.5683 11.3916 42.5963 11.412 42.6285C11.6089 42.9343 11.8489 43.21 12.1248 43.4469C12.1538 43.4721 12.1774 43.5028 12.1944 43.5372C12.2114 43.5716 12.2215 43.6091 12.2239 43.6473C12.2264 43.6856 12.2212 43.724 12.2087 43.7603C12.1963 43.7966 12.1767 43.8301 12.1512 43.8588C12.1233 43.89 12.0891 43.9151 12.0509 43.9324C12.0128 43.9496 11.9714 43.9587 11.9295 43.9591C11.8557 43.9604 11.7841 43.934 11.7288 43.8852ZM17.0563 43.8852C17.0312 43.8562 17.012 43.8224 17 43.7859C16.9879 43.7495 16.9832 43.7109 16.9862 43.6726C16.9891 43.6343 16.9996 43.597 17.0171 43.5628C17.0346 43.5286 17.0587 43.4982 17.088 43.4733C17.3578 43.2248 17.5922 42.9406 17.785 42.6285C17.8054 42.5963 17.832 42.5683 17.8632 42.5463C17.8945 42.5244 17.9297 42.5087 17.967 42.5004C18.0043 42.4921 18.0428 42.4912 18.0804 42.4977C18.1181 42.5043 18.154 42.5183 18.1863 42.5388C18.2518 42.581 18.298 42.6474 18.3148 42.7236C18.3316 42.7997 18.3177 42.8794 18.276 42.9453C18.0516 43.2946 17.7797 43.6109 17.4682 43.8852C17.4161 43.9324 17.3484 43.9587 17.2781 43.9591C17.2381 43.9622 17.1978 43.9573 17.1597 43.9446C17.1217 43.9319 17.0865 43.9117 17.0563 43.8852ZM10.393 41.8101C10.2768 41.4086 10.2181 40.9926 10.2188 40.5746C10.2188 40.4976 10.2494 40.4237 10.3038 40.3693C10.3583 40.3148 10.4321 40.2842 10.5092 40.2842C10.5862 40.2842 10.66 40.3148 10.7145 40.3693C10.769 40.4237 10.7996 40.4976 10.7996 40.5746C10.8015 40.932 10.8531 41.2874 10.9527 41.6306C10.964 41.667 10.9679 41.7053 10.9641 41.7432C10.9603 41.7811 10.949 41.8179 10.9308 41.8514C10.9126 41.8849 10.8879 41.9144 10.8581 41.9381C10.8283 41.9619 10.794 41.9794 10.7573 41.9897C10.7294 41.9947 10.7008 41.9947 10.6728 41.9897C10.6136 41.9912 10.5552 41.975 10.5053 41.943C10.4554 41.9109 10.4163 41.8647 10.393 41.8101ZM18.4397 42.0055C18.403 41.9952 18.3687 41.9777 18.3389 41.9539C18.3091 41.9302 18.2844 41.9007 18.2662 41.8672C18.248 41.8338 18.2367 41.797 18.2329 41.7591C18.2292 41.7211 18.233 41.6829 18.2443 41.6465C18.344 41.3032 18.3955 40.9479 18.3975 40.5905C18.3975 40.5135 18.428 40.4396 18.4825 40.3851C18.537 40.3307 18.6108 40.3001 18.6878 40.3001C18.7262 40.2993 18.7643 40.3064 18.7998 40.3207C18.8354 40.3351 18.8677 40.3564 18.8948 40.3835C18.9219 40.4106 18.9433 40.4429 18.9576 40.4785C18.9719 40.5141 18.979 40.5521 18.9782 40.5905C18.9785 41.0085 18.9198 41.4244 18.804 41.826C18.786 41.8864 18.7491 41.9395 18.6988 41.9775C18.6484 42.0155 18.5872 42.0364 18.5242 42.0372L18.4397 42.0055ZM10.5936 39.7034C10.5563 39.6931 10.5213 39.6754 10.4909 39.6514C10.4605 39.6274 10.4352 39.5975 10.4165 39.5636C10.3978 39.5296 10.3861 39.4923 10.382 39.4537C10.378 39.4152 10.3817 39.3762 10.393 39.3391C10.513 38.9371 10.6909 38.5547 10.921 38.2039C10.9641 38.1392 11.0309 38.0941 11.1069 38.0783C11.183 38.0625 11.2623 38.0773 11.3276 38.1194C11.3919 38.1615 11.4369 38.2274 11.4527 38.3026C11.4686 38.3778 11.4539 38.4563 11.412 38.5207C11.2169 38.8253 11.0658 39.1559 10.9632 39.5028C10.9468 39.5641 10.9103 39.6182 10.8596 39.6565C10.8089 39.6947 10.7469 39.715 10.6834 39.714L10.5936 39.7034ZM18.2443 39.5028C18.1418 39.1559 17.9907 38.8253 17.7955 38.5207C17.7536 38.4563 17.739 38.3778 17.7548 38.3026C17.7707 38.2274 17.8157 38.1615 17.88 38.1194C17.9453 38.0773 18.0245 38.0625 18.1006 38.0783C18.1767 38.0941 18.2435 38.1392 18.2866 38.2039C18.5167 38.5547 18.6946 38.9371 18.8146 39.3391C18.8258 39.3762 18.8296 39.4152 18.8255 39.4537C18.8215 39.4923 18.8098 39.5296 18.7911 39.5636C18.7724 39.5975 18.7471 39.6274 18.7166 39.6514C18.6862 39.6754 18.6513 39.6931 18.6139 39.7034H18.5347C18.4712 39.7056 18.4086 39.6873 18.3563 39.6512C18.304 39.6151 18.2647 39.563 18.2443 39.5028ZM11.6972 37.6759C11.672 37.6469 11.6528 37.6132 11.6408 37.5767C11.6287 37.5402 11.6241 37.5017 11.627 37.4634C11.6299 37.4251 11.6405 37.3877 11.6579 37.3535C11.6754 37.3193 11.6995 37.2889 11.7288 37.2641C12.0468 36.9896 12.4024 36.7621 12.7848 36.5882C12.8195 36.5723 12.857 36.5633 12.8951 36.5618C12.9332 36.5603 12.9713 36.5664 13.0071 36.5796C13.0429 36.5929 13.0757 36.613 13.1037 36.639C13.1317 36.6649 13.1543 36.6961 13.1703 36.7308C13.2027 36.8016 13.206 36.8823 13.1793 36.9555C13.1526 37.0286 13.0981 37.0883 13.0277 37.1215C12.6964 37.2692 12.3886 37.4649 12.1143 37.7023C12.0891 37.7266 12.0593 37.7457 12.0267 37.7584C11.994 37.7711 11.9592 37.7771 11.9242 37.7762C11.8813 37.7773 11.8387 37.7689 11.7994 37.7516C11.7602 37.7342 11.7252 37.7084 11.6972 37.6759ZM17.0827 37.7023C16.8105 37.4648 16.5044 37.269 16.1746 37.1215C16.1042 37.0883 16.0497 37.0286 16.023 36.9555C15.9963 36.8823 15.9995 36.8016 16.032 36.7308C16.0474 36.6956 16.0697 36.6639 16.0976 36.6376C16.1255 36.6112 16.1584 36.5908 16.1944 36.5775C16.2304 36.5642 16.2687 36.5583 16.307 36.5601C16.3454 36.562 16.3829 36.5715 16.4175 36.5882C16.7999 36.7621 17.1554 36.9896 17.4735 37.2641C17.526 37.3005 17.5651 37.3533 17.5846 37.4143C17.6041 37.4752 17.6029 37.5409 17.5812 37.6011C17.5595 37.6613 17.5186 37.7126 17.4647 37.7472C17.4109 37.7817 17.3471 37.7975 17.2834 37.7921C17.2078 37.7875 17.1365 37.7556 17.0827 37.7023ZM13.7247 36.5671C13.7154 36.4904 13.736 36.4131 13.7822 36.3512C13.8284 36.2893 13.8967 36.2475 13.9728 36.2345C14.3879 36.1764 14.8091 36.1764 15.2242 36.2345C15.2938 36.2535 15.354 36.2974 15.3935 36.3577C15.433 36.4181 15.4491 36.4908 15.4387 36.5622C15.4283 36.6336 15.3922 36.6988 15.3371 36.7454C15.2821 36.792 15.2118 36.8168 15.1397 36.8153C14.7809 36.7622 14.4161 36.7622 14.0573 36.8153H14.0151C13.9451 36.8149 13.8776 36.7898 13.8244 36.7444C13.7712 36.699 13.7359 36.6362 13.7247 36.5671Z" fill="#888888"/>
<path d="M35.5244 56.9101C35.5138 56.8332 35.5338 56.7552 35.5803 56.693C35.6267 56.6307 35.6958 56.5892 35.7725 56.5775C36.137 56.5277 36.4925 56.4263 36.8285 56.2765C36.8632 56.2606 36.9006 56.2516 36.9388 56.2501C36.9769 56.2487 37.015 56.2547 37.0508 56.268C37.0865 56.2812 37.1194 56.3014 37.1474 56.3273C37.1754 56.3532 37.198 56.3844 37.2139 56.4191C37.2299 56.4537 37.2389 56.4912 37.2403 56.5294C37.2418 56.5675 37.2357 56.6055 37.2225 56.6413C37.2093 56.6771 37.1891 56.71 37.1632 56.738C37.1372 56.766 37.1061 56.7886 37.0714 56.8045C36.6919 56.9772 36.2903 57.0962 35.8781 57.1583H35.8359C35.7624 57.1632 35.6897 57.1404 35.6321 57.0945C35.5744 57.0486 35.536 56.9829 35.5244 56.9101ZM34.6109 57.1583C34.1968 57.097 33.7934 56.9779 33.4124 56.8045C33.3777 56.7886 33.3465 56.766 33.3206 56.738C33.2946 56.71 33.2745 56.6771 33.2613 56.6413C33.248 56.6055 33.242 56.5675 33.2434 56.5294C33.2449 56.4912 33.2539 56.4537 33.2698 56.4191C33.2857 56.3844 33.3084 56.3532 33.3364 56.3273C33.3644 56.3014 33.3972 56.2812 33.433 56.268C33.4688 56.2547 33.5068 56.2487 33.545 56.2501C33.5831 56.2516 33.6206 56.2606 33.6552 56.2765C33.9912 56.4263 34.3468 56.5277 34.7112 56.5775C34.7883 56.5831 34.8599 56.6191 34.9104 56.6775C34.9609 56.7359 34.9861 56.812 34.9805 56.889C34.9749 56.966 34.9389 57.0377 34.8805 57.0882C34.8221 57.1387 34.746 57.1639 34.669 57.1583H34.6109ZM32.3616 56.1287C32.0464 55.8551 31.7709 55.5387 31.5432 55.1889C31.5016 55.1229 31.4876 55.0432 31.5044 54.9671C31.5212 54.891 31.5675 54.8245 31.633 54.7823C31.6652 54.7618 31.7012 54.7478 31.7388 54.7413C31.7764 54.7347 31.815 54.7356 31.8523 54.7439C31.8895 54.7523 31.9248 54.7679 31.956 54.7899C31.9873 54.8118 32.0139 54.8398 32.0343 54.872C32.2327 55.1766 32.4726 55.4521 32.7471 55.6904C32.7742 55.7174 32.7958 55.7495 32.8105 55.7849C32.8251 55.8202 32.8327 55.8581 32.8327 55.8964C32.8327 55.9346 32.8251 55.9725 32.8105 56.0079C32.7958 56.0432 32.7742 56.0753 32.7471 56.1023C32.7191 56.1335 32.685 56.1586 32.6468 56.1759C32.6086 56.1931 32.5672 56.2022 32.5253 56.2026C32.4644 56.1955 32.4072 56.1697 32.3616 56.1287ZM37.6891 56.1023C37.664 56.0733 37.6448 56.0395 37.6328 56.0031C37.6207 55.9666 37.616 55.9281 37.619 55.8897C37.6219 55.8514 37.6325 55.8141 37.6499 55.7799C37.6674 55.7457 37.6915 55.7153 37.7208 55.6904C37.9937 55.452 38.2318 55.1765 38.4283 54.872C38.4488 54.8398 38.4754 54.8118 38.5066 54.7899C38.5378 54.7679 38.5731 54.7523 38.6104 54.7439C38.6476 54.7356 38.6862 54.7347 38.7238 54.7413C38.7614 54.7478 38.7974 54.7618 38.8296 54.7823C38.8952 54.8245 38.9414 54.891 38.9582 54.9671C38.975 55.0432 38.9611 55.1229 38.9194 55.1889C38.6917 55.5387 38.4163 55.8551 38.101 56.1287C38.0489 56.1759 37.9812 56.2022 37.9109 56.2026C37.869 56.2022 37.8276 56.1931 37.7894 56.1759C37.7512 56.1586 37.7171 56.1335 37.6891 56.1023ZM31.0258 54.0537C30.9096 53.6521 30.8509 53.2362 30.8516 52.8181C30.8516 52.78 30.8591 52.7422 30.8737 52.707C30.8883 52.6718 30.9097 52.6398 30.9366 52.6128C30.9636 52.5858 30.9956 52.5644 31.0308 52.5498C31.0661 52.5352 31.1038 52.5277 31.142 52.5277C31.1801 52.5277 31.2179 52.5352 31.2531 52.5498C31.2883 52.5644 31.3203 52.5858 31.3473 52.6128C31.3743 52.6398 31.3957 52.6718 31.4103 52.707C31.4249 52.7422 31.4324 52.78 31.4324 52.8181C31.4343 53.1755 31.4859 53.5309 31.5855 53.8741C31.5968 53.9105 31.6007 53.9488 31.5969 53.9867C31.5932 54.0247 31.5818 54.0614 31.5636 54.0949C31.5454 54.1284 31.5207 54.1579 31.4909 54.1816C31.4611 54.2054 31.4268 54.2229 31.3901 54.2332C31.3622 54.2382 31.3336 54.2382 31.3056 54.2332C31.2464 54.2348 31.188 54.2185 31.1381 54.1865C31.0882 54.1545 31.0491 54.1082 31.0258 54.0537ZM39.0725 54.249C39.0091 54.2231 38.9571 54.1752 38.9261 54.1142C38.895 54.0531 38.887 53.9829 38.9035 53.9164C39.0032 53.5731 39.0547 53.2178 39.0567 52.8604C39.0567 52.7834 39.0873 52.7095 39.1417 52.655C39.1962 52.6006 39.27 52.57 39.3471 52.57C39.4241 52.57 39.4979 52.6006 39.5524 52.655C39.6069 52.7095 39.6375 52.7834 39.6375 52.8604C39.6381 53.2784 39.5794 53.6944 39.4632 54.0959C39.4452 54.1563 39.4083 54.2094 39.358 54.2474C39.3076 54.2854 39.2465 54.3063 39.1834 54.3071L39.0725 54.249ZM31.2264 51.9469C31.1891 51.9366 31.1542 51.9189 31.1237 51.8949C31.0933 51.8709 31.068 51.841 31.0493 51.8071C31.0306 51.7731 31.0189 51.7358 31.0149 51.6972C31.0108 51.6587 31.0145 51.6197 31.0258 51.5826C31.1459 51.1823 31.3237 50.8016 31.5538 50.4527C31.5742 50.4197 31.6011 50.3911 31.6327 50.3687C31.6644 50.3462 31.7002 50.3303 31.7381 50.322C31.776 50.3136 31.8152 50.3129 31.8534 50.3199C31.8916 50.327 31.9279 50.3416 31.9604 50.3629C32.0195 50.4055 32.0605 50.4688 32.0752 50.5402C32.0899 50.6116 32.0771 50.6859 32.0396 50.7484C31.8434 51.0543 31.6923 51.3868 31.5908 51.7357C31.5726 51.7956 31.5355 51.8481 31.485 51.8852C31.4346 51.9223 31.3735 51.9421 31.3109 51.9417C31.2834 51.9493 31.2547 51.951 31.2264 51.9469ZM38.8771 51.7463C38.7746 51.3994 38.6235 51.0688 38.4283 50.7642C38.3864 50.6998 38.3718 50.6214 38.3876 50.5461C38.4035 50.4709 38.4485 50.405 38.5128 50.3629C38.5781 50.3208 38.6573 50.306 38.7334 50.3218C38.8095 50.3376 38.8763 50.3827 38.9194 50.4474C39.1495 50.7982 39.3274 51.1806 39.4474 51.5826C39.4586 51.6197 39.4624 51.6587 39.4583 51.6972C39.4543 51.7358 39.4426 51.7731 39.4239 51.8071C39.4052 51.841 39.3799 51.8709 39.3495 51.8949C39.319 51.9189 39.2841 51.9366 39.2467 51.9469H39.1675C39.1081 51.9452 39.0507 51.9249 39.0034 51.8889C38.956 51.853 38.9211 51.8031 38.9035 51.7463H38.8771ZM32.33 49.9194C32.3048 49.8904 32.2856 49.8567 32.2736 49.8202C32.2615 49.7837 32.2569 49.7452 32.2598 49.7069C32.2628 49.6686 32.2733 49.6312 32.2908 49.597C32.3082 49.5628 32.3323 49.5324 32.3616 49.5076C32.6796 49.2331 33.0352 49.0056 33.4176 48.8317C33.4878 48.8009 33.5673 48.7985 33.6392 48.8251C33.7111 48.8517 33.7699 48.9052 33.8031 48.9743C33.8356 49.0451 33.8388 49.1258 33.8121 49.199C33.7854 49.2721 33.7309 49.3318 33.6605 49.365C33.3298 49.5132 33.0236 49.7108 32.7524 49.9511C32.6972 49.996 32.6281 50.0202 32.557 50.0197C32.5141 50.0208 32.4715 50.0124 32.4322 49.9951C32.393 49.9777 32.358 49.9519 32.33 49.9194ZM37.7155 49.9511C37.4457 49.709 37.1392 49.5112 36.8074 49.365C36.737 49.3318 36.6825 49.2721 36.6558 49.199C36.6291 49.1258 36.6324 49.0451 36.6648 48.9743C36.6981 48.9052 36.7568 48.8517 36.8287 48.8251C36.9006 48.7985 36.9801 48.8009 37.0503 48.8317C37.4327 49.0056 37.7883 49.2331 38.1063 49.5076C38.1588 49.544 38.1979 49.5969 38.2174 49.6578C38.2369 49.7187 38.2357 49.7844 38.214 49.8446C38.1924 49.9048 38.1514 49.9562 38.0976 49.9907C38.0437 50.0252 37.9799 50.041 37.9162 50.0356C37.8412 50.0329 37.7698 50.0029 37.7155 49.9511ZM34.3575 48.8106C34.3523 48.7728 34.3546 48.7344 34.3642 48.6975C34.3739 48.6606 34.3907 48.6259 34.4137 48.5955C34.4368 48.5651 34.4656 48.5396 34.4985 48.5203C34.5314 48.501 34.5678 48.4885 34.6056 48.4833C35.0207 48.4252 35.4419 48.4252 35.857 48.4833C35.8948 48.4885 35.9312 48.501 35.9641 48.5203C35.997 48.5396 36.0258 48.5651 36.0489 48.5955C36.0719 48.6259 36.0888 48.6606 36.0984 48.6975C36.1081 48.7344 36.1104 48.7728 36.1051 48.8106C36.0922 48.8868 36.0504 48.955 35.9884 49.0012C35.9265 49.0474 35.8492 49.068 35.7725 49.0588C35.422 49.0136 35.0671 49.0136 34.7165 49.0588H34.6743C34.5999 49.065 34.5259 49.043 34.4671 48.9969C34.4084 48.9509 34.3692 48.8843 34.3575 48.8106Z" fill="#888888"/>
<path d="M47.3973 100.794C41.4471 94.5694 31.2944 82.9805 24.642 69.9979C13.9454 49.1485 3.22246 50.9911 1.11588 58.3826C-3.39294 74.1741 17.8365 91.1165 32.7938 100.794H47.3973Z" fill="#E6E6E6"/>
<path d="M40.9063 100.794H42.5218C35.7697 95.1825 29.5131 89.0001 23.8213 82.3153C19.681 77.5329 15.8288 72.5084 12.2853 67.2683C12.1975 67.1961 12.0888 67.1541 11.9752 67.1487C11.8617 67.1432 11.7494 67.1746 11.6551 67.238C11.5608 67.3015 11.4895 67.3937 11.4518 67.5009C11.4141 67.6082 11.412 67.7247 11.4458 67.8333C15.0134 73.1068 18.892 78.1631 23.0611 82.9753C28.5163 89.3891 34.4844 95.3484 40.9063 100.794Z" fill="#CDBFBC"/>
<path d="M77.4851 105.921C99.6632 105.921 117.642 103.287 117.642 100.039C117.642 96.7908 99.6632 94.1575 77.4851 94.1575C55.307 94.1575 37.3281 96.7908 37.3281 100.039C37.3281 103.287 55.307 105.921 77.4851 105.921Z" fill="#E6E6E6"/>
<path d="M82.4631 100.314L82.6426 97.3464L82.6743 96.9188L82.7271 96.0318C82.7271 96.0318 86.0532 94.506 93.0118 90.5357C88.2601 92.0298 83.0914 93.26 79.4378 93.0066C79.1088 92.9871 78.781 92.95 78.4558 92.8957C78.2658 92.864 78.081 92.8323 77.9279 92.7901C70.0823 90.9792 72.4529 78.1602 79.2003 76.3862C79.2003 76.3862 106.707 69.9081 117.905 76.0114C128.929 82.0355 121.269 95.2504 82.4631 100.314Z" fill="#173953"/>
<path d="M109.012 82.8697C108.848 83.6827 101.911 87.7217 98.2676 89.7332C95.216 91.4227 87.967 95.3349 82.6399 97.3359L82.6716 96.9083C87.9037 94.9126 94.952 91.1006 97.935 89.4639C103.484 86.3912 107.565 83.8042 108.452 82.9753C108.331 83.007 108.156 83.0597 107.924 83.1495C90.76 89.2897 82.9619 91.9296 79.4351 92.9855C79.1061 92.966 78.7783 92.929 78.4531 92.8746C81.452 91.9612 89.0124 89.4851 107.771 82.7641C108.568 82.479 108.801 82.4895 108.927 82.6004C108.965 82.6327 108.994 82.6751 109.008 82.7228C109.023 82.7705 109.025 82.8214 109.012 82.8697Z" fill="#002029"/>
<path d="M61.3779 102.948C61.1456 102.045 75.1419 91.655 75.1419 91.655C75.1419 91.655 78.3783 94.8228 79.3656 96.2272C79.9253 97.0244 77.5494 97.0297 75.8863 100.087C75.8863 100.087 76.0025 101.866 75.3214 102.367C75.068 102.547 73.7745 102.705 72.1536 102.895L71.3406 102.985L70.7492 103.049L69.7672 103.159L69.3976 103.202L68.5001 103.318C66.7209 103.555 65.0947 103.846 64.3556 104.273C62.3493 105.387 61.6049 103.856 61.3779 102.948Z" fill="#3DBE47"/>
<path d="M69.7344 103.149C70.0146 102.969 70.2308 102.704 70.3521 102.394C70.543 101.75 70.5774 101.069 70.4525 100.409C70.4385 100.33 70.4555 100.248 70.5 100.182C70.5223 100.146 70.5516 100.116 70.5861 100.092C70.6206 100.069 70.6596 100.052 70.7006 100.044C70.7408 100.037 70.7822 100.037 70.8222 100.045C70.8623 100.054 70.9004 100.07 70.9342 100.093C70.9681 100.116 70.997 100.146 71.0194 100.18C71.0419 100.214 71.0573 100.252 71.0649 100.293C71.216 101.073 71.1688 101.879 70.9277 102.637C70.8669 102.776 70.7963 102.91 70.7165 103.038C70.3363 103.297 69.9773 103.461 69.7344 103.149Z" fill="white"/>
<path d="M71.3125 102.975C71.4499 102.819 71.559 102.64 71.6346 102.447C71.8279 101.803 71.8623 101.122 71.7349 100.461C71.7206 100.381 71.7376 100.298 71.7824 100.229C71.8053 100.194 71.8356 100.164 71.8711 100.141C71.9066 100.118 71.9466 100.103 71.9883 100.097C72.0286 100.089 72.0702 100.089 72.1105 100.097C72.1509 100.105 72.1892 100.121 72.2232 100.144C72.2572 100.167 72.2862 100.197 72.3084 100.231C72.3307 100.266 72.3457 100.305 72.3527 100.345C72.5005 101.126 72.4515 101.932 72.2101 102.69C72.1851 102.751 72.1569 102.811 72.1256 102.869C71.888 103.049 71.6399 103.27 71.3125 102.975Z" fill="white"/>
<path d="M68.4688 103.307C68.6708 103.134 68.8283 102.915 68.9281 102.669C69.1213 102.025 69.1557 101.343 69.0284 100.683C69.0145 100.604 69.0315 100.523 69.0759 100.456C69.0982 100.421 69.1276 100.39 69.1621 100.367C69.1966 100.343 69.2355 100.327 69.2766 100.319C69.3168 100.311 69.3581 100.312 69.3982 100.32C69.4383 100.328 69.4763 100.344 69.5102 100.368C69.544 100.391 69.573 100.42 69.5954 100.454C69.6178 100.489 69.6333 100.527 69.6409 100.567C69.792 101.348 69.7448 102.154 69.5036 102.911C69.4632 103.007 69.4173 103.101 69.3663 103.191C68.9967 103.545 68.7063 103.635 68.4688 103.307Z" fill="white"/>
<path d="M76.3906 92.7901C76.1953 92.8324 75.9894 92.8746 75.7782 92.9063C75.4614 92.9538 75.1288 92.9908 74.7803 93.0119C71.1321 93.2442 65.9897 92.0193 61.2856 90.5357C68.2441 94.506 71.5703 96.0318 71.5703 96.0318L71.6284 96.9558L71.6548 97.3834L71.8343 100.314C33.0289 95.2505 25.3734 82.0355 36.4131 76.0273C47.6113 69.924 75.1182 76.4021 75.1182 76.4021C81.8498 78.1602 84.2204 90.9792 76.3906 92.7901Z" fill="#173953"/>
<path d="M46.2922 83.1601C46.044 83.0704 45.8698 83.0176 45.7642 82.9859C46.6512 83.8148 50.7324 86.4018 56.2813 89.4746C59.2854 91.1377 66.4024 94.9707 71.6451 96.9558L71.6715 97.3835C66.339 95.393 59.0003 91.4439 55.9487 89.7438C52.3057 87.7217 45.3894 83.6828 45.2098 82.8803C45.1994 82.8356 45.2012 82.789 45.2151 82.7453C45.2291 82.7016 45.2546 82.6625 45.289 82.6322C45.421 82.5213 45.6481 82.5107 46.4453 82.7958C65.2831 89.5379 72.8435 92.0088 75.7949 92.9169C75.4781 92.9644 75.1455 93.0014 74.797 93.0225C71.2385 91.9296 63.4458 89.2898 46.2922 83.1601Z" fill="#002029"/>
<path d="M70.4062 101.402C71.3688 101.896 72.4667 102.061 73.532 101.872L74.155 95.6254C73.1588 95.1887 72.0726 94.9968 70.9871 95.0657L70.4062 101.402Z" fill="#2A5B74"/>
<path d="M92.9019 102.948C93.1342 102.045 79.1432 91.655 79.1432 91.655C79.1432 91.655 75.9015 94.8228 74.9194 96.2272C74.3598 97.0244 76.7356 97.0297 78.3987 100.087C78.3987 100.087 78.2826 101.866 78.9636 102.367C79.2171 102.547 80.5106 102.705 82.1314 102.895L82.9498 102.985L83.5358 103.049L84.5178 103.159L84.8874 103.202L85.7849 103.318C87.5642 103.555 89.1903 103.846 89.9295 104.273C91.9357 105.387 92.6696 103.856 92.9019 102.948Z" fill="#3DBE47"/>
<path d="M84.5398 103.149C84.2621 102.966 84.0467 102.702 83.922 102.394C83.7345 101.749 83.7001 101.069 83.8217 100.409C83.8378 100.33 83.8226 100.249 83.7795 100.182C83.7314 100.111 83.6575 100.061 83.5736 100.044C83.5333 100.037 83.492 100.037 83.4519 100.045C83.4118 100.054 83.3738 100.07 83.34 100.093C83.3061 100.116 83.2772 100.146 83.2547 100.18C83.2323 100.214 83.2168 100.252 83.2092 100.293C83.0615 101.073 83.1086 101.879 83.3465 102.637C83.4072 102.776 83.4778 102.91 83.5577 103.038C83.9379 103.297 84.3075 103.461 84.5398 103.149Z" fill="white"/>
<path d="M82.9727 102.975C82.8317 102.821 82.7207 102.642 82.6453 102.447C82.452 101.803 82.4175 101.122 82.545 100.462C82.5593 100.381 82.5423 100.298 82.4975 100.229C82.4751 100.194 82.4457 100.165 82.4112 100.142C82.3766 100.119 82.3377 100.104 82.2968 100.097C82.2562 100.089 82.2144 100.089 82.1737 100.097C82.133 100.104 82.0943 100.12 82.0599 100.144C82.0255 100.167 81.996 100.196 81.9732 100.231C81.9504 100.266 81.9348 100.305 81.9272 100.345C81.7794 101.127 81.8284 101.932 82.0698 102.69C82.0948 102.751 82.123 102.811 82.1543 102.869C82.3919 103.049 82.6348 103.27 82.9727 102.975Z" fill="white"/>
<path d="M85.8111 103.307C85.6091 103.134 85.4515 102.915 85.3517 102.669C85.1608 102.024 85.1264 101.344 85.2514 100.683C85.2598 100.644 85.26 100.604 85.2518 100.565C85.2436 100.526 85.2273 100.489 85.2039 100.456C85.1816 100.421 85.1523 100.39 85.1178 100.367C85.0833 100.343 85.0443 100.327 85.0032 100.319C84.963 100.311 84.9217 100.312 84.8816 100.32C84.8415 100.328 84.8035 100.344 84.7696 100.368C84.7358 100.391 84.7068 100.42 84.6844 100.454C84.662 100.489 84.6465 100.527 84.6389 100.567C84.4912 101.348 84.5383 102.153 84.7762 102.911C84.8167 103.007 84.8625 103.101 84.9135 103.191C85.2672 103.545 85.5735 103.635 85.8111 103.307Z" fill="white"/>
<path d="M62.073 54.9087C62.073 54.9087 62.073 54.9509 62.073 54.972C62.073 55.0671 62.073 55.1568 62.1152 55.2466C62.1522 55.5211 62.1839 55.7745 62.2208 56.0491V56.1177C62.2208 56.218 62.2472 56.3131 62.2578 56.4134V56.5876C62.3904 57.6098 62.4486 58.6403 62.432 59.6709C62.2472 64.7183 61.5662 74.0368 61.1015 81.4019C71.9776 84.7211 82.4489 84.7211 92.5155 81.4019C92.1037 75.6471 91.3803 68.7677 91.0477 62.9496C91.0477 62.4797 90.9949 62.0151 90.9738 61.561C90.8999 59.9771 90.8629 58.5041 90.8788 57.1684C90.9527 49.0799 92.8428 34.2969 91.0477 32.0319C89.2526 29.767 79.4906 28.0458 79.4906 28.0458L71.6397 27.9138C71.6397 27.9138 63.4404 30.2157 60.7003 32.6655C58.7838 34.3919 60.7584 45.9333 61.8988 53.6679C61.9569 54.1062 62.0149 54.5127 62.073 54.9087Z" fill="#F0F0F0"/>
<path d="M64.3027 51.6459L63.6321 53.3038L62.9616 54.9723L62.291 56.6144V56.4401C62.291 56.3398 62.291 56.2448 62.254 56.1444V56.0758C62.2171 55.8171 62.1854 55.5478 62.1484 55.2733L62.386 54.6819V54.6555L63.706 51.403C63.7223 51.3624 63.7464 51.3255 63.777 51.2942C63.8076 51.2629 63.844 51.238 63.8842 51.2209C63.9244 51.2037 63.9676 51.1946 64.0113 51.1942C64.055 51.1937 64.0984 51.2019 64.139 51.2182C64.2168 51.254 64.2775 51.3187 64.3081 51.3987C64.3386 51.4786 64.3367 51.5674 64.3027 51.6459Z" fill="#5FD068"/>
<path d="M62.6595 55.12C62.5801 55.1142 62.5053 55.0805 62.4483 55.025C62.4176 54.9945 62.3933 54.9583 62.3767 54.9185C62.3601 54.8786 62.3516 54.8358 62.3516 54.7926C62.3516 54.7494 62.3601 54.7067 62.3767 54.6668C62.3933 54.6269 62.4176 54.5907 62.4483 54.5603L64.5022 52.4008C64.5326 52.3702 64.5688 52.3458 64.6087 52.3292C64.6486 52.3126 64.6913 52.3041 64.7345 52.3041C64.7777 52.3041 64.8205 52.3126 64.8603 52.3292C64.9002 52.3458 64.9364 52.3702 64.9668 52.4008C65.0275 52.4629 65.0614 52.5463 65.0614 52.6331C65.0614 52.7199 65.0275 52.8033 64.9668 52.8654L62.9076 55.025C62.875 55.057 62.8362 55.082 62.7935 55.0983C62.7508 55.1147 62.7052 55.1221 62.6595 55.12Z" fill="#5FD068"/>
<path d="M88.9027 52.3322L89.5733 53.9901L90.2439 55.6586L90.9091 57.3007C90.9091 57.2426 90.9091 57.1845 90.9091 57.1264C90.9091 57.0684 90.9355 56.9311 90.9461 56.8308V56.7621C90.9831 56.5034 91.0147 56.2341 91.0517 55.9596L90.8141 55.3682L89.4994 52.1105C89.4831 52.0699 89.459 52.0329 89.4284 52.0016C89.3978 51.9704 89.3614 51.9455 89.3212 51.9283C89.281 51.9111 89.2378 51.9021 89.1941 51.9016C89.1503 51.9012 89.107 51.9093 89.0664 51.9257C88.9937 51.9612 88.9367 52.0224 88.9065 52.0975C88.8763 52.1726 88.8749 52.2562 88.9027 52.3322Z" fill="#5FD068"/>
<path d="M90.543 55.8011C90.6214 55.7951 90.6955 55.7635 90.7542 55.7113C90.8165 55.649 90.8514 55.5645 90.8514 55.4764C90.8514 55.3883 90.8165 55.3038 90.7542 55.2414L88.7003 53.0819C88.6699 53.0512 88.6337 53.0269 88.5938 53.0103C88.5539 52.9937 88.5112 52.9852 88.468 52.9852C88.4248 52.9852 88.382 52.9937 88.3422 53.0103C88.3023 53.0269 88.2661 53.0512 88.2357 53.0819C88.1747 53.1449 88.1406 53.2292 88.1406 53.3168C88.1406 53.4045 88.1747 53.4888 88.2357 53.5518L90.2949 55.706C90.3275 55.7381 90.3663 55.7631 90.409 55.7794C90.4517 55.7958 90.4974 55.8031 90.543 55.8011Z" fill="#5FD068"/>
<path d="M78.0938 35.5801C76.4668 35.5655 74.8602 35.2168 73.3735 34.5558C72.1182 34.0258 70.9476 33.3142 69.8993 32.4438C69.8386 32.3816 69.8047 32.2983 69.8047 32.2115C69.8047 32.1247 69.8386 32.0413 69.8993 31.9791C69.9279 31.9467 69.9627 31.9203 70.0016 31.9014C70.0406 31.8824 70.0829 31.8715 70.1261 31.869C70.1693 31.8665 70.2125 31.8727 70.2534 31.887C70.2942 31.9014 70.3318 31.9237 70.3639 31.9527C70.4167 32.0003 75.5277 36.4935 81.3779 34.371C81.4188 34.356 81.4623 34.3492 81.5058 34.3512C81.5493 34.3532 81.592 34.3639 81.6313 34.3825C81.6706 34.4012 81.7058 34.4276 81.7349 34.4601C81.7639 34.4925 81.7862 34.5304 81.8003 34.5716C81.8295 34.6536 81.8253 34.7437 81.7888 34.8227C81.7523 34.9016 81.6863 34.9631 81.605 34.994C80.478 35.3937 79.2895 35.592 78.0938 35.5801Z" fill="#5FD068"/>
<path d="M69.2019 17.0015C69.2019 17.0015 67.618 13.9339 68.3202 12.5716C69.0224 11.2094 68.7373 10.8979 69.7247 9.27163C70.712 7.64539 71.7047 9.04986 73.8747 8.34235C76.0448 7.63483 76.9794 4.47212 79.6352 5.26412C82.291 6.05612 80.6912 8.88618 80.6912 8.88618C80.6912 8.88618 81.2192 7.72987 82.8296 8.52186C84.44 9.31386 82.6184 11.2147 82.6184 11.2147C82.6184 11.2147 83.6427 12.6139 83.5054 13.6698C83.3681 14.7258 82.1802 17.0015 82.1802 17.0015H69.2019Z" fill="#002029"/>
<path d="M69.8413 18.2204C69.8413 18.2204 68.1623 17.534 67.7294 19.5192C67.2964 21.5045 69.3978 23.5901 71.0663 22.909C71.1033 22.909 70.6914 19.0704 69.8413 18.2204Z" fill="#FDBB92"/>
<path d="M70.6527 22.1645C70.6018 22.165 70.5524 22.1472 70.5135 22.1142C70.4747 22.0812 70.4492 22.0353 70.4415 21.9849C70.2725 21.0895 69.7755 20.2893 69.0476 19.7409C69.02 19.7263 68.9959 19.7061 68.9767 19.6815C68.9575 19.6569 68.9437 19.6286 68.9362 19.5983C68.9287 19.568 68.9277 19.5365 68.9332 19.5058C68.9387 19.4751 68.9506 19.4459 68.9682 19.4202C68.9857 19.3944 69.0085 19.3726 69.0351 19.3562C69.0616 19.3399 69.0913 19.3293 69.1222 19.3252C69.1531 19.3211 69.1846 19.3235 69.2145 19.3324C69.2444 19.3413 69.2721 19.3563 69.2958 19.3766C70.1276 19.9862 70.6945 20.8912 70.8798 21.9057C70.8851 21.9345 70.8846 21.9641 70.8785 21.9927C70.8723 22.0213 70.8606 22.0484 70.8439 22.0725C70.8272 22.0965 70.8059 22.1171 70.7813 22.1328C70.7566 22.1486 70.7291 22.1594 70.7002 22.1645H70.6527Z" fill="#FD967D"/>
<path d="M68.9598 21.0925C68.9197 21.0926 68.8805 21.0818 68.8461 21.0614C68.8117 21.0409 68.7835 21.0116 68.7644 20.9764C68.7394 20.9235 68.7354 20.8631 68.753 20.8073C68.7706 20.7515 68.8086 20.7044 68.8594 20.6754C69.2664 20.4605 69.7259 20.3652 70.1847 20.4009C70.2132 20.4052 70.2405 20.4154 70.2649 20.4307C70.2893 20.446 70.3103 20.4662 70.3266 20.4899C70.3429 20.5137 70.3542 20.5405 70.3598 20.5688C70.3653 20.597 70.3651 20.6261 70.359 20.6543C70.3486 20.7114 70.3163 20.7623 70.2689 20.7958C70.2215 20.8294 70.1629 20.843 70.1055 20.8338C69.7389 20.8126 69.3734 20.893 69.0495 21.0661C69.022 21.0817 68.9913 21.0907 68.9598 21.0925Z" fill="#FD967D"/>
<path d="M81.7461 18.2204C81.7461 18.2204 83.4304 17.534 83.8581 19.5192C84.2857 21.5045 82.1896 23.5901 80.5158 22.909C80.5053 22.909 80.896 19.0704 81.7461 18.2204Z" fill="#FDBB92"/>
<path d="M80.9417 22.1645C80.9923 22.164 81.0412 22.1457 81.0798 22.1129C81.1184 22.0801 81.1442 22.0348 81.1529 21.9849C81.321 21.0904 81.816 20.2905 82.5415 19.7409C82.5895 19.7078 82.6226 19.6571 82.6334 19.5998C82.6443 19.5424 82.6321 19.4831 82.5996 19.4347C82.5842 19.4105 82.564 19.3898 82.5402 19.3736C82.5165 19.3575 82.4898 19.3464 82.4616 19.341C82.4334 19.3356 82.4045 19.3359 82.3764 19.342C82.3484 19.3482 82.322 19.3599 82.2986 19.3766C81.4668 19.9862 80.8999 20.8912 80.7146 21.9057C80.7093 21.9345 80.7097 21.9641 80.7159 21.9927C80.722 22.0213 80.7338 22.0484 80.7505 22.0725C80.7672 22.0966 80.7885 22.1171 80.8131 22.1328C80.8378 22.1486 80.8653 22.1594 80.8942 22.1645H80.9417Z" fill="#FD967D"/>
<path d="M82.6391 21.0925C82.6785 21.0928 82.7171 21.0821 82.7507 21.0616C82.7843 21.041 82.8115 21.0115 82.8292 20.9764C82.8463 20.9492 82.8573 20.9187 82.8615 20.8869C82.8656 20.8551 82.8629 20.8228 82.8533 20.7922C82.8438 20.7616 82.8277 20.7334 82.8062 20.7096C82.7848 20.6858 82.7584 20.6669 82.7289 20.6543C82.3242 20.4384 81.8661 20.3431 81.4089 20.3797C81.3517 20.3901 81.3009 20.4224 81.2674 20.4698C81.2338 20.5172 81.2202 20.5758 81.2294 20.6332C81.2345 20.662 81.2452 20.6895 81.261 20.7142C81.2768 20.7389 81.2973 20.7601 81.3213 20.7768C81.3454 20.7935 81.3725 20.8053 81.4011 20.8114C81.4297 20.8176 81.4593 20.818 81.4881 20.8127C81.8547 20.7923 82.2199 20.8726 82.5441 21.045C82.5704 21.0698 82.6035 21.0863 82.6391 21.0925Z" fill="#FD967D"/>
<path d="M80.0841 29.8571C78.8675 30.7129 77.4163 31.1721 75.9288 31.1721C74.4413 31.1721 72.9901 30.7129 71.7734 29.8571L71.8738 28.8751L72.3595 23.9647H79.3977L79.7304 26.8106L80.0841 29.8571Z" fill="#FDBB92"/>
<path d="M79.7341 26.8106C78.9316 27.6765 76.6718 29.4506 71.8828 28.8751L72.3686 23.9647H79.4015L79.7341 26.8106Z" fill="#FD967D"/>
<path d="M81.7117 20.1955C81.5691 20.8819 81.3843 21.5947 81.1837 22.3075C80.1277 25.5969 78.2744 28.6118 75.3282 28.0204C72.8677 27.5241 71.3787 24.9791 70.4811 22.2863C70.2488 21.5947 70.0587 20.8871 69.8951 20.2113C69.6073 18.9507 69.394 17.6743 69.2562 16.3886C69.2125 16.0114 69.2714 15.6294 69.4266 15.2828C69.5817 14.9362 69.8275 14.6378 70.1379 14.4192C75.08 10.9238 81.6905 13.2206 82.1393 15.2164C82.2977 15.9609 82.1974 17.9779 81.7117 20.1955Z" fill="#FDBB92"/>
<path d="M73.2705 21.7103C73.2705 22.0587 72.7425 22.3491 72.0455 22.3597C71.3486 22.3703 70.81 22.0904 70.8047 21.7419C70.7994 21.3935 71.3327 21.1083 72.0297 21.0978C72.7266 21.0872 73.2652 21.3565 73.2705 21.7103Z" fill="#FD967D"/>
<path d="M80.9658 21.7103C80.9658 22.0587 80.4378 22.3491 79.7408 22.3597C79.0439 22.3703 78.5053 22.0904 78.5 21.7419C78.4948 21.3935 79.028 21.1083 79.725 21.0978C80.422 21.0872 80.9605 21.3565 80.9658 21.7103Z" fill="#FD967D"/>
<path d="M74.0125 19.8149C74.0125 20.1581 73.87 20.4432 73.6799 20.4432C73.4898 20.4432 73.3314 20.1739 73.3208 19.8254C73.3103 19.4769 73.4634 19.2024 73.6535 19.1971C73.8435 19.1918 74.0072 19.4717 74.0125 19.8149Z" fill="#002029"/>
<path d="M72.2323 18.9332C72.1886 18.9214 72.1475 18.9017 72.1109 18.8751C72.0498 18.8245 72.0108 18.7523 72.0019 18.6735C71.9931 18.5947 72.0151 18.5156 72.0634 18.4527C72.3493 18.0883 72.749 17.83 73.1987 17.719C73.6484 17.608 74.1223 17.6507 74.545 17.8402C74.6158 17.8745 74.6703 17.9352 74.697 18.0092C74.7236 18.0832 74.7202 18.1647 74.6875 18.2362C74.6711 18.2718 74.6478 18.3037 74.6189 18.3301C74.59 18.3566 74.5562 18.377 74.5193 18.3903C74.4825 18.4035 74.4434 18.4094 74.4043 18.4074C74.3652 18.4054 74.3268 18.3957 74.2915 18.3788C73.9893 18.2481 73.6523 18.2212 73.3332 18.3024C73.0141 18.3836 72.731 18.5683 72.528 18.8276C72.4929 18.8702 72.4468 18.9026 72.3947 18.9212C72.3427 18.9398 72.2866 18.9439 72.2323 18.9332Z" fill="#002029"/>
<path d="M78.0781 19.8149C78.0781 20.1581 78.2207 20.4432 78.4108 20.4432C78.6008 20.4432 78.7592 20.1739 78.7698 19.8254C78.7804 19.4769 78.622 19.2024 78.4319 19.1971C78.2418 19.1918 78.0834 19.4717 78.0781 19.8149Z" fill="#002029"/>
<path d="M79.8588 18.9332C79.9025 18.9214 79.9436 18.9017 79.9802 18.8751C80.0413 18.8245 80.0803 18.7523 80.0892 18.6735C80.0981 18.5947 80.076 18.5156 80.0277 18.4527C79.7418 18.0883 79.3422 17.83 78.8924 17.719C78.4427 17.608 77.9688 17.6507 77.5462 17.8402C77.4867 17.8797 77.4436 17.9393 77.4247 18.0081C77.4057 18.0769 77.4123 18.1502 77.4432 18.2145C77.474 18.2788 77.5271 18.3298 77.5926 18.358C77.6581 18.3863 77.7316 18.3899 77.7996 18.3682C78.1018 18.2375 78.4388 18.2107 78.7579 18.2919C79.077 18.3731 79.3601 18.5578 79.5631 18.817C79.5966 18.862 79.6421 18.8968 79.6944 18.9173C79.7466 18.9378 79.8036 18.9433 79.8588 18.9332Z" fill="#002029"/>
<path d="M75.998 24.8147H75.9294C75.1429 24.7836 74.3783 24.5469 73.7118 24.1283C73.6684 24.0989 73.6385 24.0534 73.6286 24.0019C73.6187 23.9504 73.6296 23.8971 73.659 23.8537C73.6884 23.8103 73.7339 23.7804 73.7854 23.7705C73.8369 23.7606 73.8902 23.7715 73.9336 23.8009C74.5397 24.1724 75.2298 24.3849 75.94 24.4187H75.998C76.6869 24.4371 77.3626 24.2273 77.92 23.822C77.9607 23.7964 78.0092 23.7863 78.0567 23.7934C78.1043 23.8006 78.1477 23.8246 78.179 23.8611C78.2103 23.8975 78.2276 23.944 78.2275 23.9921C78.2274 24.0402 78.2101 24.0866 78.1787 24.123C77.5498 24.5913 76.7819 24.8348 75.998 24.8147Z" fill="#FD967D"/>
<path d="M76.2872 22.9037C76.0771 22.8977 75.8682 22.8694 75.6642 22.8192C75.6392 22.813 75.6156 22.8019 75.5949 22.7866C75.5742 22.7713 75.5567 22.7521 75.5435 22.73C75.5302 22.7079 75.5215 22.6835 75.5177 22.658C75.514 22.6325 75.5153 22.6065 75.5216 22.5816C75.5341 22.5308 75.566 22.487 75.6104 22.4594C75.6547 22.4318 75.7081 22.4226 75.7592 22.4337C75.974 22.4921 76.1969 22.5153 76.4192 22.5024C76.4192 22.175 76.1816 20.6913 75.9704 19.3713C75.9651 19.3456 75.9652 19.319 75.9707 19.2933C75.9762 19.2675 75.987 19.2432 76.0024 19.2219C76.0178 19.2005 76.0374 19.1826 76.0601 19.1693C76.0828 19.1559 76.108 19.1474 76.1341 19.1443C76.1598 19.1398 76.1861 19.1405 76.2115 19.1463C76.237 19.1521 76.261 19.163 76.2821 19.1782C76.3033 19.1935 76.3212 19.2128 76.3347 19.2351C76.3483 19.2574 76.3573 19.2822 76.3611 19.308C76.472 20.0102 76.8469 22.3281 76.8099 22.6027C76.804 22.6466 76.7887 22.6886 76.765 22.726C76.7413 22.7634 76.7098 22.7952 76.6726 22.8192C76.555 22.8839 76.4211 22.9132 76.2872 22.9037Z" fill="#FD967D"/>
<path d="M70.3646 18.1046C70.4945 17.5651 70.581 17.0159 70.6233 16.4626C70.5724 16.1863 70.5879 15.9019 70.6687 15.6329C70.7495 15.3639 70.8932 15.118 71.0879 14.9155C71.8166 14.1711 71.4787 14.2978 72.1439 13.9546C73.8047 13.3152 75.609 13.1436 77.3606 13.4582C78.9446 13.8754 79.7788 14.1077 80.5286 14.2502C81.2783 14.3928 81.1886 15.5016 81.3364 15.7181C81.4842 15.9346 81.3364 20.2114 81.7007 20.3803C82.065 20.5493 82.7092 16.1563 82.2287 14.6093C81.7482 13.0622 77.7988 10.4275 72.9676 12.0115C68.1364 13.5955 68.7436 15.3115 68.9971 15.9504C69.2505 16.5893 69.731 20.2272 70.0531 20.3381C70.2062 20.3909 70.3171 18.3845 70.3646 18.1046Z" fill="#002029"/>
<path d="M73.5164 21.6683C73.088 21.6683 72.6692 21.5412 72.3131 21.3031C71.957 21.065 71.6795 20.7266 71.5158 20.3307C71.3522 19.9348 71.3096 19.4993 71.3935 19.0792C71.4775 18.6591 71.6842 18.2734 71.9875 17.9709C72.2908 17.6683 72.677 17.4626 73.0973 17.3796C73.5175 17.2967 73.953 17.3403 74.3484 17.505C74.7439 17.6696 75.0816 17.9479 75.3189 18.3046C75.5561 18.6613 75.6822 19.0804 75.6811 19.5087C75.6797 20.082 75.4511 20.6313 75.0452 21.0361C74.6394 21.4409 74.0896 21.6683 73.5164 21.6683ZM73.5164 17.608C73.1404 17.608 72.7729 17.7194 72.4603 17.9283C72.1477 18.1372 71.9041 18.434 71.7603 18.7813C71.6164 19.1287 71.5787 19.5109 71.6521 19.8796C71.7254 20.2483 71.9065 20.587 72.1723 20.8528C72.4381 21.1186 72.7768 21.2997 73.1455 21.373C73.5142 21.4464 73.8964 21.4087 74.2438 21.2649C74.5911 21.121 74.8879 20.8774 75.0968 20.5648C75.3057 20.2522 75.4171 19.8847 75.4171 19.5087C75.4171 19.0046 75.2169 18.5212 74.8604 18.1647C74.504 17.8082 74.0205 17.608 73.5164 17.608Z" fill="white"/>
<path d="M78.5919 21.6683C78.1633 21.6693 77.7441 21.5431 77.3873 21.3056C77.0305 21.0682 76.7522 20.7301 76.5877 20.3343C76.4232 19.9386 76.3799 19.5029 76.4632 19.0824C76.5466 18.662 76.7529 18.2758 77.0559 17.9727C77.359 17.6697 77.7452 17.4634 78.1656 17.38C78.5861 17.2967 79.0218 17.34 79.4175 17.5045C79.8133 17.669 80.1514 17.9473 80.3888 18.3041C80.6263 18.6609 80.7525 19.0801 80.7515 19.5087C80.7501 20.0811 80.5221 20.6295 80.1174 21.0342C79.7127 21.4389 79.1643 21.6669 78.5919 21.6683ZM78.5919 17.608C78.2158 17.6069 77.8478 17.7175 77.5345 17.9257C77.2212 18.134 76.9768 18.4305 76.8321 18.7777C76.6874 19.1249 76.649 19.5073 76.7218 19.8763C76.7945 20.2454 76.9751 20.5846 77.2407 20.8509C77.5063 21.1173 77.845 21.2989 78.2139 21.3726C78.5828 21.4464 78.9652 21.4091 79.3128 21.2654C79.6605 21.1216 79.9576 20.878 80.1667 20.5653C80.3758 20.2526 80.4875 19.8849 80.4875 19.5087C80.4875 19.0055 80.2879 18.5229 79.9326 18.1665C79.5773 17.8102 79.0951 17.6094 78.5919 17.608Z" fill="white"/>
<path d="M75.5495 19.6406C75.5278 19.6404 75.5063 19.6351 75.4871 19.625C75.4678 19.6149 75.4512 19.6003 75.4386 19.5826C75.4285 19.5684 75.4213 19.5523 75.4174 19.5353C75.4135 19.5183 75.413 19.5008 75.416 19.4836C75.4189 19.4664 75.4252 19.45 75.4346 19.4352C75.4439 19.4205 75.456 19.4078 75.4703 19.3978C75.6376 19.2645 75.8452 19.192 76.059 19.192C76.2729 19.192 76.4804 19.2645 76.6478 19.3978C76.6606 19.4096 76.671 19.4237 76.6783 19.4395C76.6856 19.4553 76.6898 19.4724 76.6905 19.4899C76.6913 19.5073 76.6886 19.5246 76.6826 19.541C76.6766 19.5574 76.6675 19.5724 76.6557 19.5852C76.6439 19.598 76.6297 19.6084 76.6139 19.6158C76.5981 19.6231 76.581 19.6273 76.5636 19.628C76.5462 19.6287 76.5288 19.626 76.5124 19.62C76.4961 19.6141 76.4811 19.6049 76.4682 19.5931C76.1197 19.2658 75.6287 19.5931 75.6234 19.5931C75.6053 19.6173 75.579 19.6341 75.5495 19.6406Z" fill="white"/>
<path d="M71.5487 19.1866C71.511 19.1864 71.4749 19.1712 71.4484 19.1444C70.8669 18.534 70.0815 18.1583 69.2414 18.0884C69.2064 18.0884 69.1728 18.0745 69.148 18.0497C69.1233 18.025 69.1094 17.9914 69.1094 17.9564C69.1094 17.9214 69.1233 17.8878 69.148 17.8631C69.1728 17.8383 69.2064 17.8244 69.2414 17.8244C70.1571 17.8888 71.015 18.296 71.6438 18.9649C71.668 18.9895 71.6815 19.0227 71.6815 19.0573C71.6815 19.0918 71.668 19.125 71.6438 19.1497C71.6316 19.1623 71.6167 19.1722 71.6003 19.1786C71.5839 19.185 71.5663 19.1877 71.5487 19.1866Z" fill="white"/>
<path d="M69.2665 38.9695L68.9392 39.6136L68.6013 40.2894L67.9413 41.6568C67.4978 42.5719 67.0631 43.4906 66.6373 44.4128C65.7819 46.2554 64.953 48.1085 64.1664 49.9775C63.3797 51.8465 62.6353 53.7102 61.9595 55.5792C61.6075 56.5155 61.2854 57.4482 60.9933 58.3774C60.6871 59.3067 60.4178 60.2306 60.175 61.144C60.0482 61.6033 59.9427 62.0521 59.8371 62.5009C59.774 62.7448 59.7333 62.994 59.7156 63.2453C59.6868 63.8439 59.7564 64.4432 59.9215 65.0192C60.1259 65.739 60.4111 66.4333 60.7716 67.0889C61.1731 67.8338 61.6283 68.5484 62.1337 69.2271C63.257 70.7048 64.5116 72.0778 65.8823 73.3294C66.5845 73.9788 67.3131 74.6124 68.068 75.2195C68.4429 75.5257 68.823 75.8214 69.2032 76.1118L69.7786 76.5342L70.3066 76.9143L70.4597 77.0252C71.1986 77.5438 71.7074 78.3289 71.8789 79.2152C72.0504 80.1014 71.8713 81.0197 71.3793 81.7765C70.8873 82.5334 70.1208 83.0697 69.2411 83.2727C68.3615 83.4756 67.4375 83.3292 66.6637 82.8644L66.2571 82.6216L65.8823 82.3946L65.1642 81.9405C64.6891 81.6343 64.2192 81.3228 63.7598 81.006C62.8377 80.3689 61.9331 79.6984 61.0461 78.9945C59.2209 77.5657 57.5281 75.9754 55.9882 74.2428C55.1722 73.3116 54.4257 72.3216 53.7549 71.2809C53.0259 70.1543 52.4205 68.9524 51.9493 67.696C51.4291 66.2942 51.1351 64.8186 51.0781 63.3245C51.0504 62.5335 51.0964 61.7417 51.2154 60.9592C51.3052 60.3784 51.3949 59.8029 51.5058 59.2433C51.7134 58.1205 51.9493 57.0206 52.2133 55.9435C52.4772 54.8612 52.7412 53.8 53.0527 52.7441C53.6388 50.6322 54.2934 48.5784 54.9745 46.5299C55.6556 44.4814 56.3789 42.4699 57.1339 40.4636C57.507 39.4605 57.8906 38.4591 58.2849 37.4595L58.8814 35.96L59.1877 35.2103L59.5097 34.4342C59.7812 33.7818 60.1785 33.1892 60.6789 32.6903C61.1794 32.1915 61.7732 31.796 62.4264 31.5266C63.0797 31.2572 63.7796 31.1191 64.4863 31.1202C65.1929 31.1214 65.8924 31.2616 66.5449 31.5331C67.1973 31.8045 67.7899 32.2018 68.2887 32.7022C68.7876 33.2027 69.1831 33.7965 69.4525 34.4498C69.7219 35.1031 69.86 35.803 69.8588 36.5096C69.8577 37.2163 69.7175 37.9158 69.446 38.5682C69.3932 38.6896 69.3404 38.8111 69.2824 38.9272L69.2665 38.9695Z" fill="#5FD068"/>
<path d="M56.7302 62.7173L58.3142 63.5357L59.8982 64.3594L61.6089 65.2464C61.5953 65.2297 61.583 65.2121 61.5719 65.1936L60.9119 64.1376L60.1569 63.7469L57.0417 62.1312C57.0029 62.1111 56.9605 62.0988 56.9169 62.095C56.8733 62.0913 56.8294 62.0962 56.7877 62.1094C56.7461 62.1227 56.7074 62.144 56.674 62.1722C56.6405 62.2004 56.613 62.2349 56.5929 62.2738C56.5727 62.3119 56.5602 62.3536 56.5561 62.3966C56.5521 62.4395 56.5566 62.4829 56.5693 62.5241C56.5821 62.5653 56.6029 62.6036 56.6305 62.6368C56.6581 62.6699 56.692 62.6973 56.7302 62.7173Z" fill="#5FD068"/>
<path d="M60.2297 64.2854C60.2773 64.2428 60.3115 64.1872 60.3279 64.1254C60.3443 64.0636 60.3423 63.9984 60.3221 63.9378C60.3019 63.8772 60.2643 63.8238 60.2141 63.7842C60.1639 63.7446 60.1033 63.7206 60.0396 63.7152L57.0775 63.4089C56.99 63.4001 56.9026 63.4262 56.8343 63.4816C56.7661 63.537 56.7225 63.6172 56.7132 63.7046C56.7081 63.748 56.7117 63.7921 56.7239 63.8341C56.7361 63.8761 56.7566 63.9152 56.7841 63.9492C56.8117 63.9831 56.8458 64.0112 56.8844 64.0318C56.923 64.0524 56.9653 64.065 57.0089 64.0689L59.9709 64.3752C60.0179 64.3784 60.065 64.3722 60.1095 64.3568C60.1539 64.3413 60.1948 64.3171 60.2297 64.2854Z" fill="#5FD068"/>
<path d="M93.2866 34.4236L93.6086 35.1997L93.9149 35.9494L94.5115 37.4489C94.9022 38.445 95.2858 39.4463 95.6624 40.453C96.4192 42.4592 97.139 44.4813 97.8218 46.5193C98.5029 48.5678 99.1576 50.6269 99.7436 52.7334C100.045 53.7894 100.319 54.8453 100.583 55.9329C100.847 57.0205 101.111 58.1081 101.291 59.2327C101.401 59.7923 101.491 60.3678 101.581 60.9486C101.7 61.731 101.746 62.5229 101.718 63.3139C101.661 64.808 101.367 66.2836 100.847 67.6854C100.376 68.9418 99.7704 70.1437 99.0414 71.2703C98.3706 72.311 97.6241 73.301 96.8081 74.2322C95.2683 75.9647 93.5754 77.5551 91.7502 78.9839C90.8632 79.6878 89.9586 80.3583 89.0365 80.9954C88.5771 81.3122 88.1072 81.6237 87.6321 81.9299L86.914 82.384L86.5392 82.611L86.1327 82.8538C85.3646 83.2687 84.4688 83.3801 83.6224 83.1661C82.7761 82.952 82.041 82.4282 81.5624 81.6981C81.0839 80.968 80.8968 80.0848 81.0382 79.2234C81.1796 78.362 81.6392 77.585 82.326 77.0462L82.4897 76.9248L83.0177 76.5447L83.5931 76.1223C83.9733 75.8319 84.3534 75.5362 84.7283 75.23C85.4833 74.6229 86.2118 73.9893 86.914 73.3399C88.2797 72.0842 89.529 70.7077 90.6468 69.2271C91.1562 68.5453 91.615 67.8271 92.0195 67.0782C92.3799 66.4226 92.6651 65.7284 92.8695 65.0086C93.0347 64.4325 93.1042 63.8333 93.0754 63.2347C93.0577 62.9833 93.017 62.7342 92.954 62.4902C92.8484 62.0415 92.7428 61.5927 92.6161 61.1334C92.3732 60.22 92.0881 59.296 91.7977 58.3668C91.5073 57.4376 91.1747 56.5031 90.8315 55.5686C90.1558 53.6996 89.406 51.8306 88.6247 49.9669C87.8433 48.1032 87.0091 46.2448 86.1538 44.4022C85.7244 43.48 85.2897 42.5613 84.8497 41.6462L84.1845 40.2788L83.8466 39.603L83.5192 38.9588V38.9166C83.1972 38.2865 83.0026 37.5991 82.9466 36.8936C82.8906 36.1882 82.9743 35.4787 83.193 34.8057C83.4117 34.1327 83.7609 33.5094 84.2208 32.9716C84.6807 32.4338 85.2422 31.992 85.8731 31.6715C86.504 31.351 87.192 31.1581 87.8975 31.1039C88.6031 31.0497 89.3124 31.1352 89.9849 31.3555C90.6573 31.5759 91.2797 31.9267 91.8164 32.3879C92.353 32.8492 92.7934 33.4118 93.1124 34.0435C93.1757 34.1702 93.2338 34.3022 93.2866 34.4236Z" fill="#5FD068"/>
<path d="M96.077 62.7173L94.493 63.5357L92.909 64.3594L91.1719 65.257C91.1854 65.2403 91.1978 65.2226 91.2088 65.2042L91.8688 64.1482L92.6239 63.7575L95.7391 62.1418C95.7779 62.1216 95.8203 62.1093 95.8639 62.1056C95.9074 62.1018 95.9513 62.1067 95.993 62.12C96.0347 62.1332 96.0734 62.1546 96.1068 62.1828C96.1402 62.211 96.1678 62.2455 96.1879 62.2843C96.2277 62.3571 96.2384 62.4423 96.2178 62.5227C96.1972 62.6031 96.1469 62.6726 96.077 62.7173Z" fill="#5FD068"/>
<path d="M92.578 64.2854C92.5303 64.2428 92.4962 64.1872 92.4797 64.1254C92.4633 64.0636 92.4653 63.9984 92.4855 63.9378C92.5058 63.8771 92.5433 63.8237 92.5935 63.7842C92.6437 63.7446 92.7044 63.7206 92.768 63.7151L95.7354 63.4089C95.8189 63.4078 95.8997 63.4381 95.9619 63.4938C96.0241 63.5495 96.063 63.6266 96.071 63.7097C96.079 63.7928 96.0554 63.8759 96.005 63.9424C95.9545 64.009 95.8809 64.0541 95.7988 64.0689L92.8367 64.3751C92.7897 64.3784 92.7426 64.3722 92.6981 64.3567C92.6537 64.3413 92.6128 64.317 92.578 64.2854Z" fill="#5FD068"/>
<path d="M91.1004 86.0639H63.1553C62.782 86.0647 62.4189 85.9418 62.1228 85.7145C61.8267 85.4872 61.6142 85.1682 61.5186 84.8073L56.6771 66.4975C56.6137 66.2478 56.6081 65.987 56.6606 65.7349C56.7131 65.4827 56.8224 65.2458 56.9802 65.0422C57.138 64.8386 57.3401 64.6737 57.5712 64.5599C57.8023 64.4461 58.0562 64.3865 58.3138 64.3856H95.9208C96.1782 64.3863 96.4321 64.4458 96.6631 64.5596C96.8941 64.6734 97.0959 64.8385 97.2533 65.0423C97.4107 65.246 97.5195 65.4831 97.5713 65.7353C97.6231 65.9875 97.6165 66.2482 97.5522 66.4975L92.753 84.8073C92.655 85.1699 92.4397 85.4898 92.1408 85.7171C91.8418 85.9444 91.476 86.0664 91.1004 86.0639Z" fill="#2A5B74"/>
<path d="M77.1317 78.6093C78.5723 78.6093 79.7401 77.4415 79.7401 76.001C79.7401 74.5605 78.5723 73.3927 77.1317 73.3927C75.6912 73.3927 74.5234 74.5605 74.5234 76.001C74.5234 77.4415 75.6912 78.6093 77.1317 78.6093Z" fill="#173953"/>
<path d="M85.1215 63.3403C80.6432 63.2973 76.3239 61.6743 72.9255 58.7576C71.0859 57.246 69.4965 55.4535 68.216 53.4462C68.1943 53.4088 68.1803 53.3675 68.1747 53.3247C68.169 53.2818 68.172 53.2383 68.1832 53.1965C68.1945 53.1548 68.214 53.1157 68.2404 53.0816C68.2669 53.0474 68.2999 53.0188 68.3375 52.9975C68.3744 52.9748 68.4154 52.9599 68.4582 52.9535C68.501 52.9471 68.5446 52.9494 68.5865 52.9602C68.6284 52.9711 68.6677 52.9902 68.702 53.0166C68.7363 53.0429 68.765 53.0759 68.7862 53.1136C70.0341 55.0593 71.5786 56.798 73.3637 58.2665C75.1922 59.8381 77.3143 61.0314 79.6072 61.7772C81.9 62.5231 84.318 62.8067 86.7212 62.6117C86.7642 62.6079 86.8075 62.6126 86.8487 62.6255C86.8899 62.6384 86.9281 62.6593 86.9612 62.687C86.9943 62.7147 87.0216 62.7487 87.0415 62.7869C87.0615 62.8252 87.0738 62.867 87.0776 62.91C87.0814 62.953 87.0767 62.9963 87.0638 63.0375C87.0508 63.0787 87.0299 63.1169 87.0022 63.15C86.9745 63.1831 86.9406 63.2104 86.9023 63.2303C86.8641 63.2503 86.8223 63.2626 86.7793 63.2664C86.2144 63.3192 85.66 63.3403 85.1215 63.3403Z" fill="#5FD068"/>
<path d="M95.8614 29.5567C95.9085 29.5569 95.9552 29.5476 95.9987 29.5295C96.0423 29.5114 96.0817 29.4847 96.1148 29.4511L110.508 15.0579C110.575 14.9914 110.612 14.9011 110.612 14.8071C110.612 14.713 110.575 14.6228 110.508 14.5563C110.442 14.4898 110.351 14.4524 110.257 14.4524C110.163 14.4524 110.073 14.4898 110.006 14.5563L95.6132 28.9495C95.5752 28.9822 95.5448 29.0228 95.5239 29.0683C95.503 29.1139 95.4922 29.1634 95.4922 29.2135C95.4922 29.2636 95.503 29.3132 95.5239 29.3587C95.5448 29.4043 95.5752 29.4448 95.6132 29.4775C95.6828 29.5345 95.7716 29.5628 95.8614 29.5567Z" fill="#173953"/>
<path d="M100.641 22.8982C100.64 23.1731 100.72 23.4421 100.872 23.6711C101.024 23.9002 101.241 24.079 101.494 24.1849C101.748 24.2908 102.027 24.319 102.297 24.2661C102.567 24.2131 102.815 24.0812 103.009 23.8872C103.204 23.6933 103.337 23.4458 103.391 23.1763C103.445 22.9068 103.418 22.6273 103.313 22.3733C103.208 22.1192 103.03 21.9021 102.801 21.7492C102.573 21.5964 102.304 21.5148 102.029 21.5148C101.662 21.5148 101.309 21.6604 101.049 21.9197C100.789 22.179 100.642 22.5308 100.641 22.8982Z" fill="#5FD068"/>
<path d="M120.522 14.8419C122.31 10.5738 120.299 5.66438 116.031 3.87637C111.763 2.08836 106.854 4.09887 105.066 8.36696C103.278 12.6351 105.288 17.5445 109.556 19.3325C113.824 21.1205 118.734 19.11 120.522 14.8419Z" fill="#5FD068"/>
<path d="M111.715 8.18387C111.34 8.28323 110.984 8.44186 110.659 8.65378L109.603 7.59779L108.494 8.70129L109.55 9.75729C109.385 10.0295 109.26 10.3249 109.181 10.6338H107.75V12.2178H109.118C109.181 12.5568 109.294 12.8843 109.455 13.1893L108.32 14.3245L109.429 15.428L110.485 14.372C110.842 14.6355 111.245 14.8306 111.673 14.9475V16.4312H113.257V15.0637C113.659 14.9864 114.045 14.8399 114.397 14.6307L115.337 15.5706L116.441 14.4618L115.538 13.5536C115.8 13.161 115.98 12.719 116.066 12.2547H117.433V10.6707H116.003C115.92 10.363 115.796 10.0681 115.633 9.79425L116.689 8.73826L115.58 7.63474L114.524 8.69074C114.129 8.42919 113.686 8.24964 113.22 8.16274V6.79523H111.636L111.715 8.18387ZM112.629 10.148C112.913 10.147 113.191 10.2303 113.428 10.3875C113.665 10.5446 113.85 10.7686 113.959 11.0309C114.069 11.2932 114.098 11.5822 114.043 11.8611C113.988 12.14 113.852 12.3964 113.651 12.5978C113.451 12.7992 113.195 12.9365 112.916 12.9923C112.637 13.0482 112.348 13.02 112.086 12.9115C111.823 12.803 111.598 12.6189 111.44 12.3826C111.282 12.1463 111.198 11.8684 111.198 11.5842C111.198 11.2042 111.348 10.8397 111.617 10.5705C111.885 10.3013 112.249 10.1494 112.629 10.148Z" fill="white"/>
<path d="M54.6802 29.5566C54.7737 29.5556 54.8629 29.5176 54.9284 29.4511C54.9649 29.4174 54.994 29.3766 55.0139 29.3312C55.0338 29.2857 55.0441 29.2367 55.0441 29.1871C55.0441 29.1375 55.0338 29.0884 55.0139 29.0429C54.994 28.9975 54.9649 28.9567 54.9284 28.9231L40.5352 14.5562C40.4687 14.4897 40.3784 14.4523 40.2844 14.4523C40.1903 14.4523 40.1001 14.4897 40.0336 14.5562C39.9671 14.6227 39.9297 14.7129 39.9297 14.807C39.9297 14.9011 39.9671 14.9913 40.0336 15.0578L54.4268 29.4511C54.4599 29.4847 54.4993 29.5113 54.5429 29.5295C54.5864 29.5476 54.6331 29.5568 54.6802 29.5566Z" fill="#173953"/>
<path d="M48.524 24.2815C49.288 24.2815 49.9073 23.6622 49.9073 22.8982C49.9073 22.1342 49.288 21.5148 48.524 21.5148C47.76 21.5148 47.1406 22.1342 47.1406 22.8982C47.1406 23.6622 47.76 24.2815 48.524 24.2815Z" fill="#5FD068"/>
<path d="M46.8264 15.2803C48.6144 11.0122 46.6039 6.10279 42.3358 4.31478C38.0677 2.52677 33.1583 4.53728 31.3703 8.80538C29.5823 13.0735 31.5928 17.9829 35.8609 19.7709C40.129 21.5589 45.0384 19.5484 46.8264 15.2803Z" fill="#5FD068"/>
<path d="M36.741 17.2549C37.3429 17.5136 38.1349 17.1757 38.9691 16.3097C40.7299 14.2927 41.8122 11.7734 42.0632 9.10785C42.1107 7.90401 41.8045 7.10145 41.2026 6.84273C40.6007 6.58401 39.8034 6.92193 38.9691 7.79313C37.2214 9.8136 36.1489 12.3298 35.9015 14.9897C35.8276 16.1936 36.1338 16.9961 36.741 17.2549ZM40.965 7.3021C41.7464 7.63474 41.7834 9.94209 40.5901 12.7563C39.3968 15.5706 37.6967 17.1281 36.8941 16.7955C36.0916 16.4629 36.0757 14.1555 37.269 11.3466C38.4623 8.53761 40.2047 6.96946 41.0072 7.3021H40.965Z" fill="white"/>
<path d="M40.7058 16.3255C41.5559 16.6898 42.237 16.6898 42.6594 16.3255C43.1874 15.8926 43.1874 15.0372 42.7861 13.9073C41.744 11.4445 39.9494 9.37457 37.6593 7.99372C36.6033 7.42348 35.7426 7.34429 35.2463 7.77196C34.75 8.19964 34.7183 9.06556 35.1196 10.1955C35.6246 11.4283 36.3392 12.5644 37.2316 13.5535C38.0846 14.5747 39.1104 15.4379 40.2623 16.1038C40.4043 16.1889 40.5526 16.263 40.7058 16.3255ZM37.0098 8.22604C37.1418 8.28412 37.2844 8.35276 37.4322 8.43196C38.5286 9.0722 39.5058 9.89751 40.3204 10.8713C42.3162 13.1681 42.9604 15.391 42.3479 15.9454C42.0206 16.2305 41.35 16.1249 40.4946 15.6655C39.3981 15.0256 38.4209 14.2002 37.6065 13.2262C36.7591 12.2806 36.0805 11.1965 35.6001 10.0212C35.2675 9.11307 35.2622 8.43724 35.6001 8.15212C35.938 7.867 36.3498 7.9462 36.9993 8.22604H37.0098Z" fill="white"/>
<path d="M34.6654 13.7487C34.8132 13.8068 34.9716 13.8702 35.1406 13.923C37.7222 14.6127 40.455 14.4761 42.955 13.5323C44.0585 13.0518 44.6498 12.4235 44.6182 11.7635C44.5865 11.1035 43.937 10.5438 42.7913 10.1795C40.2077 9.48813 37.4722 9.62667 34.9716 10.5755C33.8681 11.0559 33.282 11.679 33.3137 12.339C33.3296 12.8934 33.8048 13.3844 34.6654 13.7487ZM43.0817 10.8131C43.7311 11.0929 44.1007 11.4361 44.1377 11.7899C44.1799 12.6399 42.1155 13.6907 39.0742 13.8438C37.8076 13.9303 36.5356 13.7963 35.3148 13.4478C34.3961 13.1521 33.8576 12.735 33.8312 12.3073C33.8048 11.8796 34.3064 11.4097 35.1934 11.0243C37.5821 10.1241 40.1924 9.99303 42.6593 10.6494C42.786 10.7022 42.9338 10.755 43.0711 10.8131H43.0817Z" fill="white"/>
<path d="M37.8341 11.5627C37.7377 11.7885 37.7104 12.0378 37.7557 12.2791C37.801 12.5204 37.9169 12.7428 38.0887 12.9182C38.2605 13.0936 38.4804 13.2141 38.7207 13.2645C38.961 13.3148 39.2108 13.2927 39.4386 13.201C39.6663 13.1094 39.8617 12.9522 40.0001 12.7494C40.1385 12.5466 40.2136 12.3073 40.2159 12.0618C40.2182 11.8163 40.1477 11.5756 40.0132 11.3702C39.8787 11.1649 39.6863 11.004 39.4603 10.908C39.1578 10.7795 38.8167 10.7763 38.5118 10.899C38.2069 11.0218 37.9632 11.2605 37.8341 11.5627Z" fill="white"/>
<path d="M41.144 7.73498C41.0876 7.8676 41.0718 8.01397 41.0986 8.15556C41.1254 8.29716 41.1936 8.42763 41.2946 8.53048C41.3955 8.63332 41.5247 8.70393 41.6658 8.73336C41.8068 8.76279 41.9535 8.74973 42.0871 8.69583C42.2208 8.64193 42.3354 8.5496 42.4166 8.43054C42.4978 8.31147 42.5418 8.17099 42.5432 8.02689C42.5445 7.88279 42.5031 7.74152 42.4242 7.62096C42.3452 7.50039 42.2323 7.40594 42.0997 7.34955C42.0116 7.3121 41.9171 7.29237 41.8214 7.29147C41.7257 7.29058 41.6308 7.30853 41.542 7.34433C41.4533 7.38012 41.3725 7.43304 41.3042 7.50007C41.2359 7.5671 41.1815 7.64692 41.144 7.73498Z" fill="white"/>
<path d="M33.269 11.3093C33.2126 11.4419 33.1968 11.5883 33.2236 11.7299C33.2504 11.8715 33.3186 12.002 33.4196 12.1048C33.5205 12.2077 33.6497 12.2783 33.7908 12.3077C33.9318 12.3371 34.0785 12.3241 34.2121 12.2702C34.3458 12.2163 34.4604 12.1239 34.5416 12.0049C34.6228 11.8858 34.6668 11.7453 34.6682 11.6012C34.6695 11.4571 34.6281 11.3159 34.5492 11.1953C34.4702 11.0747 34.3573 10.9803 34.2247 10.9239C34.1366 10.8864 34.0421 10.8667 33.9464 10.8658C33.8507 10.8649 33.7558 10.8829 33.667 10.9187C33.5783 10.9545 33.4975 11.0074 33.4292 11.0744C33.3609 11.1414 33.3065 11.2213 33.269 11.3093Z" fill="white"/>
<path d="M41.9956 14.1392C41.9392 14.2718 41.9234 14.4182 41.9502 14.5598C41.977 14.7014 42.0452 14.8319 42.1461 14.9347C42.2471 15.0376 42.3763 15.1082 42.5173 15.1376C42.6584 15.167 42.805 15.154 42.9387 15.1001C43.0723 15.0462 43.187 14.9538 43.2682 14.8348C43.3493 14.7157 43.3934 14.5752 43.3947 14.4311C43.3961 14.287 43.3547 14.1458 43.2757 14.0252C43.1968 13.9046 43.0839 13.8102 42.9513 13.7538C42.8632 13.7163 42.7686 13.6966 42.673 13.6957C42.5773 13.6948 42.4823 13.7128 42.3936 13.7486C42.3049 13.7844 42.224 13.8373 42.1557 13.9043C42.0874 13.9713 42.033 14.0512 41.9956 14.1392Z" fill="white"/>
</svg>
