<svg width="131" height="136" viewBox="0 0 131 136" fill="none" xmlns="http://www.w3.org/2000/svg">
<path d="M88.9484 1.13492C88.9484 1.13492 95.1911 1.22066 92.5209 13.5835C89.8507 25.9464 90.1936 28.2818 90.1936 33.1812C90.1566 34.7802 90.57 36.3574 91.3865 37.7327C92.203 39.108 93.3898 40.2259 94.8113 40.959H86.3435L80.1172 12.0974V1.13492H88.9484Z" fill="#E0E0E0"/>
<path d="M90.7876 98.4414H5.29688L6.06037 14.8043L86.5782 10.5949L90.7876 98.4414Z" fill="#E0E0E0"/>
<path d="M87.8501 96.2816H2.35938L3.12287 12.6445L86.1312 11.0236L87.8501 96.2816Z" fill="#EBEBEB"/>
<path d="M86.0808 93.9503H0.765625V10.3132L86.1339 10.1131L86.0808 93.9503Z" fill="#FAFAFA"/>
<path d="M86.0762 93.9503C86.0762 93.1704 86.0761 60.4015 86.0353 10.1131L86.1292 10.207L0.895729 10.4193H0.760988L0.867146 10.3131C0.867146 40.91 0.867146 69.6002 0.867146 93.9503L0.777323 93.8604L86.1088 93.9503L0.777323 94.0442H0.6875V93.9503C0.6875 69.6002 0.6875 40.91 0.6875 10.3131V10.207H0.9243L86.1619 10.0233H86.2517V10.1131C86.1333 60.4015 86.0762 93.1704 86.0762 93.9503Z" fill="#263238"/>
<path d="M86.1326 9.88852C81.7231 4.75638 86.839 0.959335 88.5823 0.877678L7.33368 0.832767C6.33568 0.831824 5.34955 1.0492 4.44443 1.46964C3.53931 1.89008 2.73712 2.50342 2.09409 3.26666C1.45106 4.02989 0.982768 4.92454 0.722034 5.88788C0.461301 6.85123 0.414435 7.85994 0.584739 8.84331C0.666277 9.27353 0.776764 9.69775 0.915449 10.1131" fill="#F5F5F5"/>
<path d="M88.2848 40.959H88.3991H88.7257H89.9996L94.8133 40.9304V41.057C94.0844 40.831 93.414 40.4477 92.8494 39.9342C92.227 39.3424 91.7299 38.6315 91.3878 37.8438C91.0059 36.9856 90.7118 36.091 90.5099 35.1736C90.3997 34.6959 90.3017 34.21 90.2119 33.7119C90.1596 33.4596 90.1201 33.2048 90.0935 32.9485C90.0579 32.6886 90.0388 32.4268 90.0363 32.1645C90.0088 31.0746 90.0442 29.9841 90.1425 28.8983C90.2242 27.7877 90.3507 26.6486 90.4855 25.485C90.7631 23.1619 91.1101 20.7407 91.5225 18.2584C91.694 17.2009 91.9063 16.1516 92.0818 15.1268C92.2574 14.102 92.3881 13.0854 92.5187 12.0729C92.6494 11.0603 92.7555 10.0804 92.8739 9.11279C92.927 8.63101 92.9923 8.15332 93.0046 7.68379C93.0158 7.21838 92.9899 6.75282 92.927 6.29154C92.8083 5.39099 92.545 4.51551 92.1472 3.69893C91.7916 2.93363 91.2514 2.26863 90.5753 1.76367C89.9255 1.32061 89.1305 1.14378 88.3542 1.26964C87.634 1.35893 86.9513 1.64105 86.3781 2.08621C85.8713 2.50763 85.4547 3.02699 85.1533 3.61319C84.8803 4.13758 84.6798 4.69659 84.5572 5.27491C84.3578 6.20802 84.4711 7.18082 84.8797 8.04308C85.1293 8.59139 85.4301 9.11495 85.7779 9.60681L86.0556 9.98652C86.1168 10.0723 86.1454 10.1213 86.1454 10.1213C86.1454 10.1213 86.1046 10.0845 86.0352 10.0028L85.7453 9.63131C85.3774 9.14793 85.0626 8.62642 84.8062 8.07575C84.3751 7.2004 84.2459 6.20693 84.4388 5.25042C84.5597 4.65989 84.7602 4.08852 85.0348 3.55195C85.3432 2.94352 85.7725 2.40446 86.2965 1.96781C86.8881 1.50323 87.5927 1.20448 88.3379 1.10224C89.1561 0.967683 89.9948 1.15178 90.6814 1.61668C91.3847 2.13807 91.9461 2.82726 92.3146 3.62136C92.7168 4.45091 92.9816 5.34031 93.0985 6.2548C93.1641 6.72681 93.1928 7.20323 93.1842 7.67971C93.1842 8.16557 93.1066 8.64326 93.0536 9.12912C92.9474 10.0968 92.8331 11.0848 92.7024 12.0933C92.5718 13.1017 92.4371 14.1347 92.2697 15.1554C92.1023 16.1761 91.8818 17.2254 91.7144 18.2869C91.3061 20.7652 90.9509 23.1864 90.6692 25.5013C90.5345 26.6609 90.4079 27.7959 90.3221 28.9064C90.2228 29.9785 90.1833 31.0554 90.2037 32.1319C90.2068 32.3885 90.2245 32.6448 90.2568 32.8995C90.2772 33.1526 90.3303 33.4057 90.3711 33.6548C90.461 34.1488 90.5549 34.6347 90.6651 35.1083C90.8581 36.0153 91.1427 36.9003 91.5143 37.7499C91.8465 38.5176 92.3281 39.2116 92.9311 39.7913C93.4762 40.2955 94.1259 40.6733 94.8337 40.8978L95.242 41.0284H94.8337L90.02 40.9998H88.7462H88.4195L88.2848 40.959Z" fill="#263238"/>
<path d="M35.6695 3.43357C35.7022 3.45807 35.4572 3.78061 35.2163 4.37671C35.078 4.72329 34.9754 5.08308 34.9101 5.4505C34.8378 5.90259 34.8159 6.36132 34.8448 6.81825C34.8841 7.27369 34.9759 7.72306 35.1183 8.15743C35.2372 8.51308 35.3932 8.85521 35.5838 9.17814C35.9145 9.72524 36.2044 9.9947 36.1758 10.0396C36.1472 10.0845 36.086 9.98246 35.9553 9.85589C35.7668 9.67564 35.5996 9.47425 35.4572 9.25571C35.2416 8.93393 35.0661 8.58705 34.9346 8.22275C34.6054 7.32558 34.5305 6.35488 34.7182 5.41783C34.7941 5.0375 34.9147 4.66748 35.0775 4.31547C35.1874 4.07729 35.3244 3.8526 35.4858 3.64588C35.5879 3.50298 35.6573 3.4254 35.6695 3.43357Z" fill="#263238"/>
<path d="M33.6393 0.538818C33.2369 0.941321 32.8758 1.38311 32.5614 1.85758C31.8133 3.01657 31.5373 4.41801 31.7902 5.77411C32.043 7.13021 32.8055 8.33803 33.921 9.14954C34.3837 9.47854 34.8773 9.7616 35.3949 9.99469C35.2408 9.97232 35.09 9.93119 34.9458 9.87221C34.5474 9.72273 34.17 9.52237 33.823 9.27611C33.2368 8.87546 32.7357 8.36284 32.3484 7.76775C31.961 7.17267 31.6952 6.50686 31.5662 5.80866C31.4372 5.11045 31.4475 4.39362 31.5966 3.69942C31.7457 3.00522 32.0306 2.34735 32.4349 1.76367C32.6638 1.40946 32.9384 1.08687 33.2514 0.804204C33.3678 0.698237 33.4984 0.608924 33.6393 0.538818Z" fill="#263238"/>
<path d="M79.5546 65.8317H79.2892H78.5053L75.4881 65.8521L64.3827 65.9052L27.7963 65.9379H11.9141V65.8358C11.9141 55.3837 11.9426 46.3933 11.9549 40.0077C11.9549 36.8231 11.9753 34.2917 11.9835 32.5443C11.9835 31.6828 11.9835 31.0132 11.9835 30.5518C11.9835 30.3313 11.9835 30.164 11.9835 30.0415C11.9835 29.919 11.9835 29.8659 11.9835 29.8659C11.9835 29.8659 11.9835 29.9231 11.9835 30.0415C11.9835 30.1599 11.9835 30.3313 11.9835 30.5518C11.9835 31.0132 11.9835 31.6828 11.9835 32.5443C11.9835 34.2917 11.9835 36.8231 12.0121 40.0077C12.0121 46.3933 12.0365 55.3837 12.0529 65.8358L11.9508 65.7337H27.731L64.3174 65.7664L75.4064 65.799L78.4236 65.8195H79.2075L79.5546 65.8317Z" fill="#263238"/>
<path d="M24.3381 56.9433H17.5156V63.7657H24.3381V56.9433Z" fill="#5FD068"/>
<path d="M34.3459 52.0684H27.5234V63.7658H34.3459V52.0684Z" fill="#5FD068"/>
<path d="M44.3849 46.528H37.5625V63.7658H44.3849V46.528Z" fill="#5FD068"/>
<path d="M54.1193 40.3629H47.2969V63.7658H54.1193V40.3629Z" fill="#5FD068"/>
<path d="M64.0724 32.4667H57.25V63.7617H64.0724V32.4667Z" fill="#5FD068"/>
<path d="M73.9553 26.4486H67.1328V63.4433H73.9553V26.4486Z" fill="#5FD068"/>
<path d="M17.5156 49.9413C17.5411 49.9146 17.5699 49.8912 17.6014 49.8719L17.8667 49.6881L18.9079 48.994L22.8152 46.4178L36.3498 37.5702L36.509 37.4682V37.656C36.509 38.6236 36.509 39.6566 36.509 40.7099L36.3457 40.6242L41.6779 37.0476L60.4998 24.4725L66.2158 20.6795L67.7755 19.6588L68.1838 19.3975L68.3267 19.3158C68.2862 19.3524 68.2425 19.3852 68.196 19.4138L67.7877 19.6955L66.2485 20.7489L60.5897 24.6276L41.8086 37.2559L36.4723 40.8283L36.309 40.9386V37.6723L36.4682 37.758L22.8887 46.5403L18.9487 49.0675L17.8913 49.733L17.6177 49.9045L17.5156 49.9413Z" fill="#263238"/>
<path d="M68.3396 22.2147C68.2812 21.9383 68.2565 21.6559 68.2661 21.3736C68.2661 20.851 68.2375 20.1242 68.2334 19.3322L68.3396 19.4383H68.0783C67.2045 19.4383 66.4125 19.4383 65.8409 19.4057C65.5302 19.4149 65.2194 19.3903 64.9141 19.3322C65.219 19.2711 65.53 19.2451 65.8409 19.2546C66.4125 19.2546 67.2045 19.226 68.0783 19.226H68.4457V19.3199C68.4457 20.1365 68.4457 20.8592 68.4131 21.3613C68.4236 21.6477 68.3989 21.9343 68.3396 22.2147Z" fill="#263238"/>
<path d="M32.2979 71.3313C32.2979 71.3926 30.1911 71.4375 27.5903 71.4375C24.9896 71.4375 22.8828 71.3926 22.8828 71.3313C22.8828 71.2701 24.9896 71.2252 27.5903 71.2252C30.1911 71.2252 32.2979 71.2742 32.2979 71.3313Z" fill="#263238"/>
<path d="M27.4577 74.5568C27.3162 73.8287 27.3162 73.0801 27.4577 72.3521C27.5992 73.0801 27.5992 73.8287 27.4577 74.5568Z" fill="#263238"/>
<path d="M39.0012 75.6632C39.0012 75.7204 33.3382 75.7694 26.3443 75.7694C19.3504 75.7694 13.6875 75.7204 13.6875 75.6632C13.6875 75.6061 19.3463 75.5571 26.3443 75.5571C33.3423 75.5571 39.0012 75.602 39.0012 75.6632Z" fill="#263238"/>
<path d="M13.8875 78.7988C13.7458 77.7858 13.7458 76.7579 13.8875 75.7449C14.0292 76.7579 14.0292 77.7858 13.8875 78.7988Z" fill="#263238"/>
<path d="M22.8796 78.4599C22.7381 77.5892 22.7381 76.7013 22.8796 75.8306C23.0211 76.7013 23.0211 77.5892 22.8796 78.4599Z" fill="#263238"/>
<path d="M32.1296 78.6274C31.988 77.6717 31.988 76.7005 32.1296 75.7449C32.2712 76.7005 32.2712 77.6717 32.1296 78.6274Z" fill="#263238"/>
<path d="M39.1687 78.6273C39.0271 77.643 39.0271 76.6435 39.1687 75.6591C39.3102 76.6435 39.3102 77.643 39.1687 78.6273Z" fill="#263238"/>
<path d="M17.022 79.6481C16.0076 79.7531 14.9872 79.7886 13.968 79.7542C12.9488 79.7886 11.9284 79.7531 10.9141 79.6481C11.9283 79.5406 12.9488 79.5051 13.968 79.5419C14.9872 79.5051 16.0078 79.5406 17.022 79.6481Z" fill="#263238"/>
<path d="M24.8308 79.648C23.2784 79.7896 21.7164 79.7896 20.1641 79.648C21.7164 79.5065 23.2784 79.5065 24.8308 79.648Z" fill="#263238"/>
<path d="M34.7634 79.9012C33.0979 80.0427 31.4233 80.0427 29.7578 79.9012C31.4233 79.7597 33.0979 79.7597 34.7634 79.9012Z" fill="#263238"/>
<path d="M42.8132 79.4766C41.0345 79.6181 39.2474 79.6181 37.4688 79.4766C39.2474 79.335 41.0345 79.335 42.8132 79.4766Z" fill="#263238"/>
<path d="M13.9733 82.604C13.8318 82.0191 13.8318 81.4088 13.9733 80.8239C14.1149 81.4088 14.1149 82.0191 13.9733 82.604Z" fill="#263238"/>
<path d="M19.7778 82.604C19.7778 82.6612 17.3076 82.7102 14.2659 82.7102C11.2242 82.7102 8.75 82.6612 8.75 82.604C8.75 82.5469 11.2201 82.4979 14.2659 82.4979C17.3117 82.4979 19.7778 82.555 19.7778 82.604Z" fill="#263238"/>
<path d="M19.778 85.1599C19.6365 84.3179 19.6365 83.4582 19.778 82.6163C19.9196 83.4582 19.9196 84.3179 19.778 85.1599Z" fill="#263238"/>
<path d="M8.74678 85.3314C8.60524 84.4319 8.60524 83.5158 8.74678 82.6163C8.88833 83.5158 8.88833 84.4319 8.74678 85.3314Z" fill="#263238"/>
<path d="M32.3561 82.604C32.2146 82.0191 32.2146 81.4088 32.3561 80.8239C32.4977 81.4088 32.4977 82.0191 32.3561 82.604Z" fill="#263238"/>
<path d="M45.7628 82.604C45.7628 82.6612 41.5902 82.7102 36.4458 82.7102C31.3014 82.7102 27.1328 82.6612 27.1328 82.604C27.1328 82.5469 31.3014 82.4979 36.4458 82.4979C41.5902 82.4979 45.7628 82.555 45.7628 82.604Z" fill="#263238"/>
<path d="M38.1608 85.1599C38.0193 84.3179 38.0193 83.4582 38.1608 82.6163C38.3024 83.4582 38.3024 84.3179 38.1608 85.1599Z" fill="#263238"/>
<path d="M46.1374 85.1599C45.9959 84.3179 45.9959 83.4582 46.1374 82.6163C46.2789 83.4582 46.2789 84.3179 46.1374 85.1599Z" fill="#263238"/>
<path d="M27.1296 85.3314C26.9881 84.4319 26.9881 83.5158 27.1296 82.6163C27.2711 83.5158 27.2711 84.4319 27.1296 85.3314Z" fill="#263238"/>
<path d="M10.9223 86.8951C9.47768 87.0366 8.02272 87.0366 6.57812 86.8951C8.02272 86.7536 9.47768 86.7536 10.9223 86.8951Z" fill="#263238"/>
<path d="M21.7228 86.5848C20.1595 86.7263 18.5867 86.7263 17.0234 86.5848C18.5867 86.4433 20.1595 86.4433 21.7228 86.5848Z" fill="#263238"/>
<path d="M29.5266 86.5848C28.1515 86.7263 26.7656 86.7263 25.3906 86.5848C26.7656 86.4433 28.1515 86.4433 29.5266 86.5848Z" fill="#263238"/>
<path d="M40.0536 86.5848C38.5599 86.7266 37.0562 86.7266 35.5625 86.5848C37.0562 86.443 38.5599 86.443 40.0536 86.5848Z" fill="#263238"/>
<path d="M48.4627 86.3031C46.9472 86.4446 45.4218 86.4446 43.9062 86.3031C45.4218 86.1615 46.9472 86.1615 48.4627 86.3031Z" fill="#263238"/>
<path d="M79.4916 87.9567H50.6953V70.1228H79.4916V87.9567ZM50.7116 87.9363H79.4916V70.1432H50.7157L50.7116 87.9363Z" fill="#263238"/>
<path d="M72.5504 83.0123C70.5539 82.257 68.2594 84.3474 66.2996 83.4941C65.1646 83.0001 64.646 81.7099 64.0867 80.6034C63.5273 79.497 62.5679 78.3211 61.3349 78.4518C60.1018 78.5824 59.0811 80.0237 57.8767 79.6766C57.1173 79.4562 56.7417 78.6151 56.5498 77.8475C56.3579 77.0799 56.2272 76.2348 55.6475 75.6959C55.0677 75.1569 53.8673 75.2876 53.7734 76.1041V85.5478H76.2822C76.2822 85.5478 73.2282 83.2736 72.5504 83.0123Z" fill="#5FD068"/>
<path d="M76.8664 85.5314C76.8664 85.5519 71.4117 85.5682 64.6832 85.5682C57.9547 85.5682 52.5 85.5682 52.5 85.5314C52.5 85.4947 57.9547 85.4947 64.6832 85.4947C71.4117 85.4947 76.8664 85.511 76.8664 85.5314Z" fill="#E0E0E0"/>
<path d="M76.8664 81.4078C76.8664 81.4282 71.4117 81.4445 64.6832 81.4445C57.9547 81.4445 52.5 81.4445 52.5 81.4078C52.5 81.371 57.9547 81.371 64.6832 81.371C71.4117 81.371 76.8664 81.3792 76.8664 81.4078Z" fill="#263238"/>
<path d="M76.8664 77.2963C76.8664 77.2963 71.4117 77.329 64.6832 77.329C57.9547 77.329 52.5 77.329 52.5 77.2963C52.5 77.2637 57.9547 77.2596 64.6832 77.2596C71.4117 77.2596 76.8664 77.2637 76.8664 77.2963Z" fill="#263238"/>
<path d="M76.8664 73.3605C76.8664 73.3605 71.4117 73.3972 64.6832 73.3972C57.9547 73.3972 52.5 73.3972 52.5 73.3605C52.5 73.3237 57.9547 73.3237 64.6832 73.3237C71.4117 73.3237 76.8664 73.3401 76.8664 73.3605Z" fill="#263238"/>
<path d="M12.0386 16.172C12.0386 16.172 12.0386 16.172 12.0794 16.172H12.1937C12.3444 16.1712 12.4948 16.1849 12.6428 16.2128C12.8795 16.2546 13.1081 16.3332 13.3206 16.4456C13.6039 16.5971 13.8506 16.8089 14.0432 17.0662C14.2817 17.3787 14.4452 17.7419 14.5209 18.1277C14.5851 18.577 14.5273 19.0353 14.3535 19.4546C14.2639 19.6822 14.1532 19.9009 14.0228 20.1079C13.8869 20.3214 13.7629 20.5422 13.6513 20.7693C13.4138 21.2478 13.246 21.7579 13.1532 22.284V22.3208H13.1164L12.0508 22.2963L10.9321 22.2677H10.8994V22.2269C10.8717 21.6983 10.7132 21.1848 10.4381 20.7326C10.3197 20.5039 10.1849 20.2916 10.0584 20.0752C9.92946 19.8711 9.81223 19.6598 9.70724 19.4424C9.52414 19.0263 9.48256 18.5616 9.58885 18.1195C9.66689 17.7386 9.82408 17.3784 10.0502 17.0621C10.2388 16.8095 10.4834 16.6041 10.7647 16.4619C10.9773 16.3543 11.2041 16.2773 11.4384 16.2333C11.5848 16.2015 11.7337 16.1824 11.8834 16.1761H11.9977C12.0263 16.1761 12.0386 16.1761 12.0386 16.1761H11.9977H11.8834C11.7362 16.1877 11.5901 16.2109 11.4465 16.2455C11.2166 16.2949 10.9942 16.3746 10.7851 16.4823C10.5074 16.6265 10.2659 16.8317 10.0788 17.0825C9.86245 17.3954 9.71368 17.75 9.64193 18.1236C9.53967 18.551 9.58128 19.0002 9.76032 19.4016C9.86573 19.6161 9.98296 19.8247 10.1115 20.0262C10.238 20.2385 10.3728 20.4549 10.4952 20.6836C10.7785 21.1476 10.94 21.6756 10.9648 22.2187L10.928 22.1738L12.0467 22.2024L13.1123 22.231L13.0715 22.2636C13.1678 21.7308 13.3382 21.214 13.5778 20.7285C13.6919 20.4998 13.8187 20.2776 13.9575 20.063C14.0864 19.8601 14.1958 19.6455 14.2841 19.422C14.4589 19.0144 14.5182 18.5667 14.4556 18.1277C14.3839 17.7525 14.2291 17.3981 14.0024 17.0907C13.815 16.8342 13.5757 16.6199 13.3002 16.4619C13.0927 16.3495 12.8699 16.2683 12.6387 16.221C12.4919 16.1923 12.3432 16.1745 12.1937 16.1679H12.0753L12.0386 16.172Z" fill="#263238"/>
<path d="M12.3497 22.1779C12.3506 22.1657 12.3506 22.1534 12.3497 22.1412V22.0432C12.3497 21.9534 12.3253 21.8227 12.3048 21.6349C12.2722 21.296 12.2191 20.8183 12.1946 20.2018C12.1946 20.0507 12.1946 19.8915 12.1946 19.7282C12.1946 19.5649 12.1946 19.3893 12.1946 19.2097C12.2069 19.0238 12.2555 18.8421 12.3375 18.6748C12.4265 18.4915 12.5788 18.3465 12.7662 18.2665C12.8665 18.2308 12.9751 18.2249 13.0787 18.2495C13.1823 18.2742 13.2765 18.3283 13.3501 18.4054C13.3881 18.4448 13.4179 18.4915 13.4375 18.5427C13.4572 18.594 13.4663 18.6486 13.4644 18.7034C13.4568 18.8158 13.414 18.923 13.3419 19.0096C13.2677 19.0952 13.1758 19.1635 13.0724 19.2097C12.9689 19.2533 12.8606 19.2848 12.7499 19.3036C12.2955 19.3771 11.8324 19.3771 11.378 19.3036C11.267 19.2849 11.1596 19.2491 11.0596 19.1974C10.958 19.1484 10.8676 19.0789 10.7942 18.9933C10.72 18.9101 10.6693 18.8086 10.6472 18.6993C10.6294 18.5902 10.648 18.4783 10.7003 18.3809C10.7504 18.2833 10.8347 18.2077 10.9371 18.1686C10.9873 18.1519 11.0405 18.1459 11.0932 18.1508C11.1459 18.1557 11.197 18.1715 11.2433 18.1971C11.334 18.2438 11.4103 18.3144 11.4638 18.4013C11.515 18.4851 11.5496 18.578 11.5658 18.6748C11.5926 18.8573 11.6036 19.0417 11.5985 19.226C11.5985 19.5812 11.5985 19.916 11.5985 20.2181C11.5985 20.8224 11.5985 21.3123 11.5985 21.6512V22.1779C11.5995 22.167 11.5995 22.1561 11.5985 22.1452V22.0432C11.5985 21.9534 11.5985 21.8173 11.5985 21.6349C11.5985 21.296 11.5985 20.8183 11.574 20.2018C11.574 19.8997 11.574 19.569 11.574 19.2097C11.5792 19.0267 11.5683 18.8436 11.5414 18.6626C11.5253 18.5701 11.4921 18.4815 11.4434 18.4013C11.3913 18.3192 11.3179 18.2529 11.2311 18.2094C11.1886 18.1853 11.1415 18.1706 11.0929 18.1663C11.0443 18.1621 10.9953 18.1684 10.9493 18.1849C10.8555 18.2213 10.7785 18.2911 10.7329 18.3809C10.6839 18.4705 10.6667 18.5741 10.684 18.6748C10.7057 18.779 10.7534 18.8759 10.8228 18.9565C10.973 19.117 11.173 19.222 11.3903 19.2546C11.6139 19.2956 11.8407 19.3161 12.068 19.3158C12.2952 19.3208 12.5222 19.303 12.7458 19.2628C12.8556 19.2478 12.9628 19.2176 13.0642 19.1729C13.1627 19.1299 13.2505 19.0658 13.3215 18.9851C13.3886 18.9042 13.4285 18.8042 13.4358 18.6993C13.4384 18.6482 13.4303 18.5971 13.412 18.5493C13.3938 18.5015 13.3657 18.458 13.3296 18.4217C13.2607 18.3496 13.1724 18.2989 13.0753 18.2757C12.9783 18.2526 12.8766 18.2579 12.7825 18.291C12.6042 18.3649 12.459 18.5014 12.3742 18.6748C12.2914 18.8374 12.2428 19.0153 12.2314 19.1974C12.2314 19.373 12.2313 19.5445 12.2109 19.7119C12.1905 19.8793 12.2109 20.0344 12.2109 20.1855C12.2313 20.7897 12.2804 21.2797 12.3089 21.6145C12.3089 21.7819 12.3375 21.9125 12.3497 22.0228V22.1208V22.1779Z" fill="#263238"/>
<path d="M10.927 22.1779C10.927 22.1779 10.927 22.3127 10.927 22.5372C10.927 22.7618 10.927 23.1088 10.927 23.4722L11.6211 24.3377H11.5844H12.4254H12.3928L12.8296 23.8437L13.0501 23.5987V23.6314C13.0501 23.1374 13.0501 22.6719 13.0746 22.2473L13.1195 22.2922L11.5476 22.2432H11.0944H10.927C10.9758 22.2366 11.0252 22.2366 11.074 22.2432H11.519H13.1522V22.2882C13.1522 22.6964 13.1522 23.1782 13.1522 23.6722L12.9317 23.9213L12.4948 24.4112H12.4744H11.6293L10.8984 23.5089C10.8984 23.1374 10.9189 22.8189 10.927 22.5495C10.9166 22.4258 10.9166 22.3015 10.927 22.1779Z" fill="#263238"/>
<path d="M13.048 23.4926L12.9663 23.4558C12.8979 23.4195 12.8269 23.3881 12.754 23.3619C12.5136 23.2664 12.2574 23.2166 11.9987 23.2149C11.7411 23.212 11.4851 23.2563 11.2434 23.3456C11.1694 23.3709 11.0971 23.4009 11.027 23.4354L10.9453 23.4722C10.9673 23.4523 10.992 23.4358 11.0188 23.4232L11.2352 23.3211C11.4787 23.2268 11.7376 23.1784 11.9987 23.1782C12.261 23.1824 12.5201 23.2364 12.7622 23.3374C12.835 23.3686 12.9059 23.4041 12.9745 23.4436C13.0013 23.4562 13.026 23.4727 13.048 23.4926Z" fill="#263238"/>
<path d="M13.0595 23.1578L12.982 23.117L12.7656 23.0231C12.524 22.9314 12.2685 22.8817 12.0102 22.8761C11.7525 22.8763 11.4968 22.9219 11.2549 23.0108C11.181 23.0362 11.1087 23.0662 11.0385 23.1006L10.9609 23.1333L11.0344 23.0884C11.102 23.0481 11.173 23.0139 11.2467 22.9863C11.491 22.8898 11.7516 22.8412 12.0143 22.8434C12.2752 22.8481 12.5329 22.9021 12.7737 23.0027C12.8473 23.0322 12.9183 23.0677 12.986 23.1088C13.0128 23.1215 13.0376 23.138 13.0595 23.1578Z" fill="#263238"/>
<path d="M13.0517 22.8352C13.0246 22.8259 12.9985 22.8136 12.9741 22.7985C12.9042 22.7624 12.8319 22.731 12.7577 22.7046C12.2712 22.5194 11.7336 22.5194 11.2471 22.7046C11.1573 22.7373 11.0838 22.7699 11.0307 22.7944L10.9531 22.8312L11.0266 22.7822C11.0756 22.7577 11.1491 22.7209 11.2389 22.6842C11.4828 22.5864 11.7437 22.5378 12.0065 22.5413C12.2687 22.5428 12.528 22.5955 12.77 22.6964C12.8598 22.7373 12.9333 22.774 12.9823 22.8026L13.0517 22.8352Z" fill="#263238"/>
<path d="M20.8496 31.6256C20.8496 31.6256 20.033 39.1585 21.0823 43.2821L31.1465 42.8412C31.1465 42.8412 28.9907 35.4145 30.3299 32.1237L20.8496 31.6256Z" fill="#EBEBEB"/>
<path d="M20.8906 31.3847C20.8906 31.3847 20.96 39.5177 21.3724 42.0001L31.5795 41.5183C31.5795 41.5183 30.6813 33.5241 31.0283 31.3888L20.8906 31.3847Z" fill="#5FD068"/>
<path d="M29.4835 34.8021C29.4835 34.8388 27.9565 34.9613 26.0661 35.0757C24.1758 35.19 22.6447 35.2512 22.6406 35.2104C22.6366 35.1696 24.1676 35.0512 26.058 34.9368C27.9483 34.8225 29.4835 34.7613 29.4835 34.8021Z" fill="white"/>
<path d="M29.4835 36.521C29.4835 36.5618 27.9565 36.6843 26.0661 36.7945C24.1758 36.9048 22.6406 36.9701 22.6406 36.9333C22.6406 36.8966 24.1676 36.7741 26.058 36.6598C27.9483 36.5455 29.4794 36.4679 29.4835 36.521Z" fill="white"/>
<path d="M27.7507 38.2153C27.5652 38.2641 27.3748 38.2915 27.1832 38.297C26.832 38.3297 26.3462 38.3664 25.8072 38.3991C25.2683 38.4317 24.7784 38.4521 24.4272 38.4603C24.2362 38.4856 24.0426 38.4856 23.8516 38.4603C24.0366 38.4095 24.2272 38.3821 24.4191 38.3787C24.7743 38.346 25.2601 38.3092 25.7991 38.2766C26.338 38.2439 26.8239 38.2194 27.1791 38.2113C27.369 38.1882 27.5611 38.1896 27.7507 38.2153Z" fill="white"/>
<path d="M44.1369 18.1808C44.1369 18.242 38.1718 18.287 30.8145 18.287C23.4572 18.287 17.4922 18.242 17.4922 18.1808C17.4922 18.1196 23.4572 18.0746 30.8145 18.0746C38.1718 18.0746 44.1369 18.1236 44.1369 18.1808Z" fill="#263238"/>
<path d="M27.2839 20.6101C27.2839 20.6713 25.0465 20.7162 22.2865 20.7162C19.5265 20.7162 17.2891 20.6713 17.2891 20.6101C17.2891 20.5488 19.5265 20.5039 22.2865 20.5039C25.0465 20.5039 27.2839 20.5448 27.2839 20.6101Z" fill="#263238"/>
<path d="M32.5886 20.6101C31.3077 20.7515 30.0152 20.7515 28.7344 20.6101C30.0152 20.4686 31.3077 20.4686 32.5886 20.6101Z" fill="#263238"/>
<path d="M88.2805 46.2259C88.2764 46.1947 88.2764 46.1631 88.2805 46.132C88.2805 46.0585 88.2805 45.9687 88.256 45.8584C88.2356 45.6012 88.207 45.2501 88.1703 44.8091C88.109 43.8742 88.0192 42.5595 87.909 40.9427C87.7048 37.656 87.4231 33.1526 87.1128 28.1756C86.8025 23.1986 86.5739 18.6912 86.382 15.4045C86.3003 13.7713 86.235 12.4689 86.186 11.5339C86.186 11.093 86.1533 10.7419 86.1452 10.4806C86.1452 10.3703 86.1452 10.2805 86.1452 10.207C86.1391 10.176 86.1391 10.1441 86.1452 10.1131C86.1467 10.1444 86.1467 10.1757 86.1452 10.207L86.1697 10.4806C86.1901 10.7378 86.2187 11.0889 86.2513 11.5298C86.3167 12.4648 86.4065 13.7795 86.5167 15.3963C86.7208 18.6626 87.0026 23.1864 87.3088 28.1634C87.615 33.1404 87.8518 37.6478 88.0396 40.9304C88.1254 42.5636 88.1907 43.8701 88.2397 44.805C88.2397 45.246 88.2723 45.5971 88.2805 45.8584C88.2805 45.9687 88.2805 46.0585 88.2805 46.132C88.2866 46.163 88.2866 46.1949 88.2805 46.2259Z" fill="#263238"/>
<path d="M86.1338 0.877718H85.897H85.2029H82.5287H72.7094L40.2957 0.881801L6.75512 0.775647C5.08786 1.18597 3.59478 2.117 2.49262 3.43358C1.66841 4.42121 1.09921 5.59606 0.834989 6.85501C0.665317 7.64461 0.61167 8.45472 0.675752 9.2598C0.700249 9.53335 0.724756 9.74158 0.749253 9.88039C0.762542 9.95061 0.772072 10.0215 0.777824 10.0927C0.709201 9.82461 0.661422 9.5516 0.634921 9.27613C0.55259 8.46619 0.593898 7.64844 0.757414 6.85092C1.0075 5.57598 1.56848 4.3825 2.39055 3.37642C3.50168 2.0287 5.01568 1.07279 6.7102 0.649078L40.2549 0.689906L72.6523 0.791977L82.4756 0.849137L85.1458 0.873635H85.8399L86.1338 0.877718Z" fill="#263238"/>
<path d="M100.46 122.159L99.9616 128.434C99.9616 128.434 93.7632 130.427 93.7266 131.588L105.854 131.747L106.212 122.147L100.46 122.159Z" fill="#5FD068"/>
<path d="M103.694 127.795C103.811 127.828 103.913 127.902 103.98 128.005C104.046 128.107 104.073 128.231 104.054 128.351C104.026 128.47 103.953 128.573 103.852 128.64C103.75 128.707 103.627 128.733 103.507 128.712C103.38 128.681 103.269 128.603 103.196 128.494C103.124 128.384 103.095 128.252 103.116 128.122C103.158 128.002 103.246 127.903 103.36 127.846C103.474 127.789 103.606 127.778 103.727 127.817" fill="#EBEBEB"/>
<path d="M105.845 131.747L105.82 130.775L94.3345 130.845C94.3345 130.845 93.6774 131.237 93.6957 131.616L105.845 131.747Z" fill="#EBEBEB"/>
<path d="M99.7578 128.367C99.7578 128.425 100.063 128.443 100.369 128.627C100.675 128.81 100.831 129.051 100.883 129.027C100.935 129.003 100.84 128.66 100.476 128.446C100.112 128.232 99.7578 128.324 99.7578 128.367Z" fill="#263238"/>
<path d="M98.5 128.944C98.5 129.002 98.7476 129.094 98.9554 129.339C99.1632 129.583 99.2305 129.846 99.2916 129.843C99.3527 129.84 99.3772 129.501 99.1113 129.201C98.8454 128.902 98.5 128.886 98.5 128.944Z" fill="#263238"/>
<path d="M97.8203 130.488C97.8753 130.488 97.9487 130.201 97.7867 129.877C97.6247 129.553 97.3435 129.437 97.3221 129.488C97.3007 129.54 97.4749 129.705 97.6033 129.971C97.7317 130.237 97.7622 130.485 97.8203 130.488Z" fill="#263238"/>
<path d="M99.8225 126.945C99.85 126.997 100.128 126.909 100.455 126.921C100.782 126.933 101.066 127.031 101.085 126.979C101.103 126.927 100.856 126.722 100.473 126.713C100.091 126.704 99.7919 126.9 99.8225 126.945Z" fill="#263238"/>
<path d="M99.7578 125.683C99.9596 125.733 100.171 125.725 100.369 125.662C100.588 125.617 100.801 125.546 101.002 125.448C101.12 125.391 101.235 125.326 101.344 125.252C101.411 125.211 101.472 125.161 101.524 125.103C101.557 125.058 101.574 125.005 101.574 124.95C101.574 124.895 101.557 124.841 101.524 124.797C101.494 124.756 101.454 124.724 101.408 124.701C101.363 124.679 101.312 124.668 101.262 124.669C101.185 124.671 101.108 124.684 101.035 124.708C100.906 124.744 100.78 124.791 100.659 124.849C100.457 124.946 100.272 125.077 100.112 125.234C99.8373 125.503 99.7486 125.726 99.77 125.738C99.7914 125.751 99.929 125.567 100.207 125.341C100.372 125.212 100.551 125.105 100.742 125.02C100.854 124.972 100.969 124.933 101.087 124.904C101.213 124.864 101.323 124.861 101.359 124.904C101.396 124.947 101.359 124.934 101.359 124.974C101.32 125.015 101.276 125.051 101.228 125.081C101.13 125.152 101.028 125.216 100.922 125.274C100.737 125.374 100.543 125.456 100.342 125.518C100.143 125.56 99.9484 125.615 99.7578 125.683Z" fill="#263238"/>
<path d="M99.8445 125.766C99.9539 125.588 100.003 125.38 99.9851 125.173C99.9897 124.948 99.9556 124.723 99.8842 124.51C99.8391 124.384 99.7828 124.262 99.7161 124.146C99.6828 124.064 99.6285 123.993 99.5587 123.939C99.4889 123.886 99.4061 123.852 99.3188 123.84C99.2648 123.843 99.2126 123.861 99.1686 123.892C99.1246 123.924 99.0908 123.967 99.0712 124.018C99.0428 124.089 99.0243 124.164 99.0162 124.241C98.9946 124.376 98.9946 124.515 99.0162 124.65C99.0582 124.873 99.1536 125.083 99.2943 125.261C99.5419 125.567 99.7895 125.631 99.7956 125.613C99.8017 125.595 99.603 125.472 99.4135 125.176C99.3027 125.005 99.2307 124.812 99.2026 124.61C99.1873 124.494 99.1873 124.376 99.2026 124.259C99.2026 124.131 99.2638 124.024 99.3127 124.036C99.3616 124.048 99.4777 124.128 99.5327 124.228C99.5943 124.332 99.6474 124.44 99.6917 124.552C99.7653 124.749 99.8116 124.955 99.8292 125.164C99.8689 125.534 99.8109 125.757 99.8445 125.766Z" fill="#263238"/>
<path d="M126.686 121.114L128.085 128.449L130.867 133.926C130.914 134.02 130.942 134.122 130.948 134.226C130.954 134.33 130.939 134.435 130.903 134.533C130.867 134.632 130.812 134.722 130.74 134.797C130.668 134.873 130.581 134.934 130.485 134.975C130.373 135.023 130.25 135.044 130.128 135.035C130.007 135.026 129.889 134.987 129.785 134.923C128.443 134.094 123.519 131.026 123.446 130.482C123.363 129.871 121.453 122.841 121.453 122.841L126.686 121.114Z" fill="#5FD068"/>
<path d="M130.482 134.969L123.336 129.984L123.403 130.289C123.46 130.557 123.611 130.795 123.828 130.962C124.409 131.408 126.038 132.6 129.76 134.92C129.868 134.986 129.989 135.025 130.115 135.033C130.241 135.041 130.367 135.018 130.482 134.965V134.969Z" fill="#EBEBEB"/>
<path d="M124.331 127.835C124.435 127.881 124.519 127.964 124.565 128.068C124.611 128.172 124.617 128.289 124.582 128.397C124.539 128.503 124.458 128.588 124.354 128.635C124.251 128.683 124.133 128.688 124.026 128.651C123.913 128.601 123.823 128.51 123.774 128.397C123.725 128.284 123.721 128.156 123.763 128.04C123.819 127.934 123.915 127.855 124.028 127.818C124.142 127.781 124.266 127.789 124.374 127.841" fill="#EBEBEB"/>
<path d="M128.125 132.141C128.251 131.876 128.427 131.636 128.642 131.435C128.888 131.274 129.161 131.158 129.449 131.093C129.449 131.075 129.345 131.038 129.17 131.05C128.94 131.074 128.722 131.163 128.541 131.307C128.358 131.449 128.221 131.641 128.147 131.86C128.095 132.034 128.107 132.138 128.125 132.141Z" fill="#263238"/>
<path d="M128.859 133.006C128.899 133.031 129.082 132.744 129.437 132.554C129.662 132.459 129.893 132.376 130.127 132.306C130 132.262 129.864 132.248 129.73 132.266C129.596 132.284 129.468 132.333 129.357 132.41C128.954 132.627 128.816 132.994 128.859 133.006Z" fill="#263238"/>
<path d="M126.891 131.096C127.154 130.823 127.437 130.57 127.737 130.338C128.067 130.151 128.41 129.988 128.764 129.852C128.366 129.859 127.978 129.98 127.646 130.2C127.314 130.421 127.052 130.732 126.891 131.096Z" fill="#263238"/>
<path d="M126.273 128.905C126.301 128.944 126.668 128.691 127.19 128.556C127.713 128.422 128.153 128.461 128.159 128.413C127.83 128.318 127.481 128.313 127.149 128.4C126.817 128.487 126.515 128.661 126.273 128.905Z" fill="#263238"/>
<path d="M125.815 126.765C126.109 126.593 126.426 126.462 126.756 126.377C127.096 126.343 127.439 126.355 127.777 126.411C127.777 126.395 127.685 126.319 127.496 126.258C127.246 126.184 126.983 126.169 126.727 126.215C126.471 126.261 126.23 126.367 126.022 126.524C125.867 126.646 125.799 126.75 125.815 126.765Z" fill="#263238"/>
<path d="M126.649 125.974C126.649 125.974 126.649 125.87 126.6 125.695C126.523 125.447 126.396 125.217 126.227 125.02C126.116 124.865 125.957 124.75 125.775 124.693C125.713 124.68 125.649 124.686 125.591 124.71C125.533 124.735 125.484 124.777 125.451 124.83C125.392 124.939 125.376 125.065 125.405 125.185C125.474 125.427 125.626 125.637 125.833 125.779C126.041 125.921 126.291 125.987 126.542 125.964C126.789 125.937 127.022 125.836 127.212 125.676C127.402 125.515 127.54 125.302 127.608 125.063C127.627 125.003 127.633 124.939 127.626 124.876C127.619 124.814 127.598 124.753 127.566 124.699C127.525 124.651 127.47 124.616 127.409 124.6C127.347 124.584 127.282 124.588 127.223 124.61C127.054 124.689 126.907 124.81 126.798 124.962C126.634 125.163 126.507 125.392 126.422 125.637C126.384 125.724 126.364 125.818 126.364 125.912C126.495 125.597 126.672 125.303 126.887 125.038C126.986 124.906 127.116 124.801 127.266 124.733C127.298 124.72 127.334 124.718 127.367 124.727C127.401 124.736 127.43 124.755 127.452 124.782C127.472 124.818 127.484 124.858 127.487 124.899C127.491 124.94 127.487 124.981 127.474 125.02C127.409 125.221 127.289 125.401 127.127 125.536C126.964 125.672 126.767 125.759 126.557 125.787C126.346 125.806 126.135 125.752 125.958 125.635C125.782 125.518 125.65 125.344 125.585 125.142C125.561 125.059 125.567 124.97 125.603 124.892C125.621 124.862 125.648 124.838 125.68 124.824C125.711 124.81 125.747 124.806 125.781 124.812C125.935 124.861 126.07 124.956 126.169 125.084C126.382 125.349 126.545 125.65 126.649 125.974Z" fill="#263238"/>
<path d="M100.365 64.4883C100.289 64.4883 99.3594 125.967 99.3594 125.967L106.789 125.711L109.36 95.4831L109.971 73.2937L115.036 93.8296L121.341 126.041L128.759 124.179L119.315 64.0971L110.427 62.3794L100.365 64.4883Z" fill="#263238"/>
<path d="M116.525 26.5127C117.414 24.7584 117.692 21.6042 116.674 19.859C115.657 18.1138 113.591 16.8515 111.653 16.2769C111.334 16.1567 110.987 16.1354 110.656 16.2158C110.494 16.2617 110.355 16.3678 110.267 16.5125C110.18 16.6573 110.151 16.8298 110.186 16.9952C109.82 16.6962 109.406 16.4597 108.963 16.2953C108.742 16.2159 108.505 16.1916 108.272 16.2247C108.039 16.2577 107.818 16.347 107.628 16.4847C107.537 16.5576 107.463 16.6476 107.407 16.7495C107.352 16.8514 107.318 16.9632 107.306 17.0785C107.294 17.1938 107.305 17.3103 107.338 17.4214C107.371 17.5324 107.426 17.6358 107.499 17.7256C107.23 17.6099 106.933 17.5739 106.644 17.6221C106.355 17.6702 106.086 17.8005 105.869 17.9973C105.652 18.1941 105.496 18.4491 105.42 18.7321C105.344 19.015 105.35 19.3139 105.439 19.5931C105.667 20.1695 106.002 20.6975 106.426 21.1488C106.812 21.5583 106.848 21.9557 106.732 22.5089" fill="#263238"/>
<path d="M109.193 40.9725C109.248 40.1289 109.386 32.5063 109.383 32.4727C109.38 32.4391 106.553 32.1212 106.43 29.3063C106.372 27.9462 106.479 25.1374 106.605 22.5975C106.669 21.2813 107.226 20.0376 108.166 19.1134C109.105 18.1893 110.358 17.6524 111.675 17.6095H111.947C114.881 17.689 116.452 20.2258 116.29 23.1568L115.89 39.4688" fill="#FFBE9D"/>
<path d="M109.385 32.4727C110.686 32.4289 111.947 32.0131 113.019 31.2746C113.019 31.2746 112.173 33.0351 109.352 32.87L109.385 32.4727Z" fill="#EB996E"/>
<path d="M107.086 24.4986C107.089 24.6032 107.132 24.7026 107.207 24.7761C107.282 24.8495 107.382 24.8913 107.486 24.8929C107.538 24.8953 107.589 24.8875 107.637 24.8698C107.685 24.8521 107.73 24.825 107.767 24.79C107.805 24.7549 107.835 24.7127 107.856 24.6658C107.877 24.6189 107.889 24.5683 107.89 24.5169C107.889 24.4648 107.879 24.4132 107.858 24.3651C107.838 24.3171 107.808 24.2735 107.771 24.2369C107.734 24.2003 107.69 24.1713 107.642 24.1517C107.593 24.1321 107.542 24.1223 107.489 24.1227C107.438 24.1202 107.387 24.128 107.338 24.1457C107.29 24.1634 107.246 24.1905 107.208 24.2256C107.171 24.2606 107.141 24.3028 107.12 24.3497C107.099 24.3966 107.087 24.4472 107.086 24.4986Z" fill="#263238"/>
<path d="M107.249 23.9576C107.301 24.0065 107.597 23.7712 108.031 23.7589C108.465 23.7467 108.786 23.9546 108.832 23.8995C108.878 23.8445 108.802 23.7834 108.658 23.6856C108.467 23.562 108.243 23.5001 108.016 23.5083C107.794 23.517 107.58 23.595 107.405 23.7314C107.264 23.8384 107.224 23.9332 107.249 23.9576Z" fill="#263238"/>
<path d="M111.406 24.5597C111.409 24.6646 111.452 24.7644 111.527 24.838C111.601 24.9116 111.702 24.9532 111.807 24.954C111.858 24.9569 111.91 24.9494 111.958 24.9318C112.006 24.9143 112.051 24.8872 112.089 24.8521C112.126 24.817 112.156 24.7746 112.177 24.7275C112.198 24.6804 112.209 24.6296 112.21 24.5781C112.208 24.4732 112.165 24.3734 112.09 24.2998C112.015 24.2262 111.915 24.1846 111.81 24.1838C111.706 24.1805 111.606 24.2182 111.53 24.2886C111.455 24.359 111.41 24.4565 111.406 24.5597Z" fill="#263238"/>
<path d="M111.507 23.9056C111.558 23.9545 111.858 23.7192 112.289 23.707C112.72 23.6948 113.047 23.9026 113.09 23.8476C113.133 23.7926 113.059 23.7314 112.919 23.6336C112.727 23.5105 112.502 23.4487 112.274 23.4564C112.052 23.4656 111.838 23.5436 111.662 23.6795C111.525 23.7864 111.482 23.8812 111.507 23.9056Z" fill="#263238"/>
<path d="M110.039 27.1638C109.81 27.0964 109.572 27.0605 109.333 27.0568C109.223 27.0568 109.116 27.0293 109.095 26.9559C109.083 26.842 109.105 26.7271 109.159 26.6258L109.464 25.7762C109.883 24.5536 110.18 23.5664 110.131 23.5511C110.082 23.5358 109.706 24.5047 109.287 25.715C109.189 26.0207 109.091 26.2988 109.003 26.5708C108.936 26.7064 108.92 26.8614 108.957 27.0079C108.975 27.046 109.001 27.0798 109.033 27.1068C109.065 27.1337 109.103 27.1532 109.143 27.1638C109.206 27.1781 109.269 27.1843 109.333 27.1821C109.568 27.206 109.805 27.1998 110.039 27.1638Z" fill="#263238"/>
<path d="M111.321 27.4236C111.251 27.4236 111.263 27.8912 110.872 28.2366C110.481 28.5819 109.98 28.5422 109.977 28.6125C109.974 28.6828 110.093 28.6981 110.304 28.6981C110.582 28.6987 110.851 28.6013 111.065 28.423C111.263 28.2485 111.387 28.0045 111.41 27.7414C111.41 27.5336 111.352 27.4175 111.321 27.4236Z" fill="#263238"/>
<path d="M111.346 22.2124C111.395 22.3286 111.823 22.2583 112.333 22.3041C112.844 22.35 113.25 22.4753 113.32 22.3683C113.351 22.3163 113.275 22.2094 113.107 22.0993C112.882 21.9651 112.628 21.8856 112.367 21.8671C112.107 21.8439 111.845 21.8826 111.603 21.9801C111.419 22.0627 111.328 22.1574 111.346 22.2124Z" fill="#263238"/>
<path d="M107.371 22.6984C107.451 22.7962 107.747 22.6984 108.105 22.6678C108.462 22.6372 108.768 22.7137 108.835 22.6097C108.863 22.5578 108.814 22.46 108.676 22.3713C108.493 22.261 108.279 22.2108 108.065 22.2277C107.855 22.2375 107.652 22.3134 107.487 22.4447C107.374 22.5486 107.338 22.6525 107.371 22.6984Z" fill="#263238"/>
<path d="M116.135 25.2413C116.184 25.2199 118.051 24.6086 118.051 26.5372C118.051 28.4658 116.116 28.0654 116.11 28.0104C116.104 27.9554 116.135 25.2413 116.135 25.2413Z" fill="#FFBE9D"/>
<path d="M116.697 27.2799C116.697 27.2799 116.731 27.3044 116.789 27.3288C116.828 27.3453 116.871 27.3538 116.914 27.3538C116.957 27.3538 117 27.3453 117.039 27.3288C117.164 27.2498 117.265 27.1392 117.333 27.0081C117.4 26.877 117.432 26.7303 117.424 26.5831C117.428 26.4182 117.395 26.2545 117.33 26.1032C117.312 26.0434 117.279 25.9888 117.236 25.9441C117.192 25.8994 117.138 25.8659 117.079 25.8465C117.04 25.8355 116.999 25.8387 116.963 25.8556C116.926 25.8724 116.897 25.9017 116.88 25.9382C116.853 25.9901 116.88 26.0298 116.856 26.0329C116.831 26.036 116.816 25.9993 116.831 25.9198C116.842 25.873 116.868 25.831 116.905 25.8006C116.958 25.7607 117.025 25.7432 117.091 25.7517C117.171 25.7672 117.246 25.8036 117.308 25.8573C117.37 25.911 117.416 25.98 117.443 26.0574C117.525 26.2234 117.565 26.4071 117.559 26.5922C117.568 26.7643 117.526 26.9351 117.438 27.0835C117.351 27.2319 117.222 27.3512 117.067 27.4266C117.015 27.4412 116.961 27.4441 116.908 27.4352C116.855 27.4262 116.805 27.4055 116.761 27.3747C116.7 27.3258 116.691 27.283 116.697 27.2799Z" fill="#EB996E"/>
<path d="M105.379 18.9482C105.153 21.4452 108.231 22.4875 109.582 21.0876C110.193 20.4427 110.749 19.6359 111.599 19.3455C111.889 19.2583 112.194 19.2296 112.496 19.2611C112.798 19.2925 113.09 19.3836 113.356 19.5289C114.151 19.9415 114.618 20.8615 114.744 21.7478C114.915 22.9704 114.716 24.0707 115.049 25.2046C115.078 25.3728 115.162 25.5267 115.288 25.6417C115.417 25.704 115.564 25.7189 115.703 25.6837C115.842 25.6485 115.965 25.5654 116.049 25.4491C116.331 25.0816 116.499 24.6396 116.532 24.1777C116.701 23.1401 116.662 22.0791 116.416 21.0571C116.167 20.0306 115.623 19.0996 114.851 18.3797C113.849 17.5122 112.549 17.0673 111.226 17.1388C109.908 17.2205 108.65 17.7145 107.629 18.5508C107.139 18.9159 106.747 19.3969 106.488 19.9507" fill="#263238"/>
<path d="M107.411 17.582C107.323 17.5612 107.232 17.5612 107.145 17.582C106.904 17.639 106.684 17.7618 106.509 17.9365C106.245 18.1965 106.076 18.5377 106.029 18.9054C105.993 19.3602 106.125 19.8126 106.399 20.1769C106.665 20.5384 107.026 20.8197 107.441 20.9899C107.777 21.1249 108.132 21.2034 108.493 21.2222C108.733 21.2374 108.975 21.2302 109.214 21.2008C109.303 21.1968 109.391 21.1793 109.474 21.1488C109.474 21.1213 109.098 21.1733 108.502 21.1182C108.156 21.0846 107.817 20.9991 107.496 20.8646C107.107 20.6983 106.769 20.4301 106.518 20.0882C106.272 19.7609 106.149 19.3573 106.17 18.9482C106.204 18.6051 106.35 18.2828 106.586 18.0313C106.744 17.8602 106.942 17.7319 107.163 17.6584C107.319 17.6003 107.414 17.5973 107.411 17.582Z" fill="#455A64"/>
<path d="M108.705 16.7018C108.705 16.7018 108.634 16.6804 108.521 16.7323C108.443 16.7748 108.376 16.8338 108.323 16.905C108.27 16.9763 108.233 17.0581 108.216 17.145C108.177 17.4001 108.229 17.6606 108.362 17.8815C108.502 18.1508 108.679 18.3989 108.888 18.6181C109.269 19.0183 109.742 19.3185 110.266 19.4923C110.477 19.5782 110.705 19.6168 110.933 19.6053C110.933 19.5778 110.682 19.5473 110.303 19.3945C109.81 19.1999 109.364 18.9006 108.998 18.5173C108.797 18.307 108.623 18.0718 108.481 17.8174C108.357 17.6228 108.299 17.3934 108.316 17.1633C108.342 17.0116 108.424 16.8752 108.546 16.7812C108.64 16.7201 108.708 16.714 108.705 16.7018Z" fill="#455A64"/>
<path d="M91.9281 41.654L78.6664 40.3979L76.5698 39.8936C76.5698 39.8936 71.7773 39.0378 71.328 38.8941C70.8085 38.7321 70.6037 38.943 70.5578 39.1386C70.4845 39.4443 70.7871 39.7713 71.2272 39.9241C71.38 39.9791 73.8221 40.7188 73.8221 40.7188C73.5484 40.789 73.2798 40.8778 73.0182 40.9847C72.4497 41.2017 71.924 41.9689 71.6826 42.846C71.4411 43.7232 71.4503 43.9891 71.7865 44.0991C71.8506 44.1174 71.9181 44.1208 71.9837 44.1092C72.0494 44.0975 72.1116 44.0711 72.1655 44.0319C72.3537 43.9157 72.492 43.7338 72.5537 43.5215C72.9632 42.1217 73.8221 41.978 73.8221 41.978L74.0971 42.0453C74.0971 42.0453 73.2291 42.7024 73.275 43.4543C73.2832 43.5604 73.3112 43.664 73.3575 43.7599C73.2922 43.952 73.2794 44.158 73.3206 44.3567C73.3617 44.5554 73.4553 44.7394 73.5916 44.8897C73.7278 45.04 73.9019 45.1511 74.0956 45.2115C74.2893 45.2719 74.4956 45.2793 74.6931 45.2331C74.8826 45.1933 75.0813 45.0741 75.1027 44.8816C75.1043 44.7752 75.0791 44.67 75.0293 44.5759C75.0076 44.5266 74.9902 44.4755 74.9774 44.4231L75.772 44.4995C75.772 44.4995 77.5661 44.579 78.3425 44.7013L90.8339 47.9319C91.2452 48.0386 91.6737 48.0623 92.0942 48.0015C92.5148 47.9407 92.919 47.7966 93.2833 47.5778C93.6476 47.359 93.9645 47.0697 94.2157 46.7269C94.4668 46.3842 94.6472 45.9948 94.7461 45.5815C94.8522 45.1356 94.8613 44.6722 94.7728 44.2225C94.6843 43.7727 94.5002 43.3473 94.233 42.9749C93.9658 42.6025 93.6218 42.2919 93.2241 42.064C92.8264 41.8361 92.3845 41.6963 91.9281 41.654Z" fill="#FFBE9D"/>
<path d="M78.3881 40.7463C78.3648 40.8829 78.2996 41.0089 78.2016 41.1069C78.1036 41.2049 77.9776 41.2701 77.841 41.2934C77.569 41.3607 77.2878 41.3362 77.0127 41.382C76.1967 41.5257 75.5884 42.299 74.7632 42.4029C74.6501 42.4029 74.5034 42.4029 74.4576 42.2898C74.4117 42.1767 74.5034 42.0881 74.5829 42.0147L76.5665 40.1136" fill="#FFBE9D"/>
<path d="M76.5708 40.1136C76.4857 40.1657 76.4068 40.2272 76.3355 40.297C76.1918 40.4223 75.9871 40.6027 75.7242 40.8411L74.844 41.6571C74.7615 41.7366 74.6789 41.8161 74.5903 41.8955C74.5017 41.975 74.3855 42.0514 74.3672 42.2409C74.3674 42.2876 74.3819 42.333 74.4086 42.3713C74.4354 42.4095 74.4732 42.4387 74.5169 42.4548C74.588 42.4818 74.6646 42.4912 74.7401 42.4823C74.8744 42.4646 75.0066 42.4328 75.1343 42.3876C75.5806 42.1776 76.0116 41.9366 76.4241 41.6663C76.6054 41.5645 76.8013 41.4913 77.0048 41.4493C77.1943 41.4126 77.3808 41.4096 77.555 41.3912C77.6967 41.39 77.8365 41.3576 77.9643 41.2964C78.0922 41.2351 78.2049 41.1464 78.2946 41.0367C78.3298 40.9949 78.3552 40.9457 78.369 40.8928C78.3827 40.84 78.3845 40.7847 78.3741 40.731C78.3458 40.8222 78.3024 40.9079 78.2457 40.9847C78.155 41.0776 78.0459 41.1506 77.9254 41.199C77.8049 41.2474 77.6756 41.2702 77.5458 41.2659C77.3578 41.2698 77.1701 41.283 76.9835 41.3056C76.77 41.3469 76.5639 41.42 76.3722 41.5226C75.9598 41.7815 75.5321 42.0153 75.0915 42.2226C74.977 42.265 74.8581 42.2947 74.737 42.3112C74.6239 42.3112 74.5231 42.2867 74.5322 42.2256C74.5414 42.1645 74.6209 42.0697 74.7064 41.9903C74.792 41.9108 74.8745 41.8252 74.9571 41.7488L75.8129 40.9052C76.0543 40.6638 76.2499 40.4651 76.3813 40.3276C76.5128 40.1901 76.58 40.1228 76.5708 40.1136Z" fill="#EB996E"/>
<path d="M74.1243 42.0147C73.9522 41.9797 73.7744 41.9849 73.6047 42.03C73.4267 42.089 73.2724 42.2037 73.1646 42.3571C73.0302 42.5495 72.927 42.762 72.859 42.9867C72.7894 43.2183 72.6973 43.4425 72.5839 43.656C72.4848 43.8331 72.3416 43.9816 72.1682 44.087C72.1079 44.1218 72.0404 44.1421 71.9709 44.1464C71.9014 44.1506 71.8319 44.1387 71.7678 44.1114C71.6792 44.0686 71.6456 44.0258 71.6486 44.0228C71.6517 44.0197 71.6945 44.0472 71.7801 44.0748C71.8393 44.0927 71.9018 44.0973 71.9631 44.0883C72.0244 44.0793 72.0829 44.0569 72.1346 44.0228C72.2912 43.9179 72.4185 43.7748 72.5044 43.6071C72.6096 43.3969 72.6965 43.1781 72.7642 42.9531C72.8337 42.7186 72.9422 42.4974 73.0851 42.299C73.2074 42.1336 73.3818 42.0141 73.5803 41.9597C73.7116 41.9257 73.8494 41.9257 73.9806 41.9597C74.0324 41.9655 74.0819 41.9845 74.1243 42.0147Z" fill="#EB996E"/>
<path d="M71.0703 39.863C71.236 39.8972 71.3986 39.9453 71.5563 40.0067L72.7177 40.3826L73.8852 40.7402C74.0502 40.7816 74.2116 40.8357 74.3681 40.9022C74.1979 40.8922 74.0296 40.8614 73.8669 40.8105C73.5613 40.7372 73.1456 40.6241 72.6871 40.4804C72.2287 40.3368 71.8222 40.1901 71.5318 40.0739C71.3708 40.0204 71.2161 39.9497 71.0703 39.863Z" fill="#EB996E"/>
<path d="M74.4967 42.736C74.4967 42.736 74.4631 42.7849 74.3989 42.8613C74.351 42.9089 74.3142 42.9664 74.2909 43.0298C74.2677 43.0932 74.2587 43.1609 74.2644 43.2281C74.2722 43.2712 74.2914 43.3114 74.3198 43.3447C74.3483 43.378 74.3851 43.4032 74.4264 43.4176C74.5308 43.4566 74.6396 43.4822 74.7504 43.494C74.8883 43.5067 75.0168 43.5698 75.111 43.6713C75.1569 43.732 75.1879 43.8025 75.2017 43.8773C75.2155 43.9522 75.2117 44.0292 75.1905 44.1022C75.1678 44.1735 75.1309 44.2395 75.082 44.2962C75.0332 44.353 74.9734 44.3993 74.9063 44.4323C74.7844 44.4967 74.6458 44.5223 74.5089 44.5057C74.2959 44.469 74.0898 44.3999 73.8977 44.3009C73.763 44.2401 73.6399 44.1563 73.534 44.0533C73.4925 44.0164 73.4618 43.9688 73.4453 43.9158C73.4453 43.9158 73.485 43.9586 73.5615 44.0258C73.6721 44.113 73.7945 44.184 73.9252 44.2367C74.1199 44.3234 74.3256 44.383 74.5364 44.414C74.6557 44.4275 74.776 44.4017 74.8792 44.3404C74.9824 44.2792 75.0628 44.1859 75.108 44.0747C75.1251 44.017 75.1287 43.9562 75.1187 43.8968C75.1086 43.8375 75.0851 43.7812 75.0499 43.7324C74.9691 43.6482 74.8605 43.5961 74.7443 43.5857C74.6269 43.5692 74.5119 43.5384 74.402 43.494C74.3502 43.4723 74.3049 43.4375 74.2706 43.393C74.2363 43.3486 74.2142 43.2959 74.2063 43.2403C74.2106 43.1373 74.2409 43.0371 74.2943 42.9489C74.3478 42.8607 74.4226 42.7875 74.512 42.736H74.4967Z" fill="#EB996E"/>
<path d="M74.8459 44.3681C74.8459 44.3681 74.9009 44.3681 74.9774 44.4262C75.031 44.4692 75.0736 44.5243 75.1018 44.587C75.13 44.6497 75.1428 44.7182 75.1393 44.7869C75.1311 44.8887 75.0963 44.9867 75.0384 45.0709C74.9805 45.1551 74.9015 45.2226 74.8093 45.2667C74.585 45.3721 74.3286 45.3863 74.0941 45.3065C73.8601 45.2337 73.6548 45.0894 73.5072 44.8938C73.3896 44.7357 73.3168 44.5489 73.2963 44.3529C73.2808 44.2219 73.2902 44.0892 73.3239 43.9616C73.3483 43.873 73.3728 43.8272 73.3789 43.8302C73.3531 43.9994 73.3531 44.1715 73.3789 44.3406C73.4072 44.5226 73.482 44.6941 73.5959 44.8388C73.7346 45.014 73.9232 45.143 74.1369 45.2086C74.3463 45.281 74.5753 45.2723 74.7787 45.1842C74.8595 45.1481 74.9298 45.0922 74.9833 45.0217C75.0367 44.9512 75.0714 44.8683 75.0843 44.7808C75.0887 44.7212 75.0806 44.6613 75.0606 44.605C75.0406 44.5487 75.0092 44.4972 74.9682 44.4537C74.8918 44.3926 74.8429 44.3773 74.8459 44.3681Z" fill="#EB996E"/>
<path d="M76.9907 43.1975C76.9956 43.1157 77.022 43.0367 77.0671 42.9683C77.1723 42.7833 77.3356 42.6383 77.5317 42.5557V42.6443C77.4268 42.5984 77.3248 42.5463 77.226 42.4884C76.8682 42.3018 76.5705 42.0179 76.3672 41.6693C76.6444 41.9474 76.952 42.1934 77.2841 42.4028C77.385 42.4609 77.4858 42.5129 77.5897 42.5557L77.6937 42.6046L77.5867 42.6443C77.4063 42.7174 77.2504 42.8404 77.1374 42.9988C77.0335 43.118 77.006 43.2036 76.9907 43.1975Z" fill="#EB996E"/>
<path d="M72.8329 41.9505C72.8512 41.9322 72.9979 42.082 73.0224 42.3234C73.0468 42.5649 72.9398 42.7422 72.9154 42.7269C72.8909 42.7116 72.946 42.5465 72.9154 42.3357C72.8848 42.1248 72.8084 41.9689 72.8329 41.9505Z" fill="#EB996E"/>
<path d="M92.1559 48.1336L100.799 46.15C100.799 46.15 100.359 61.9821 100.359 62.1319C100.359 62.2816 99.6471 62.5292 99.7082 63.6815L100.319 65.0477L119.269 65.3013L119.783 49.9155L121.512 37.9956L117.539 35.5352L116.139 33.6189L110.675 39.3832L109.314 34.4624L109.354 32.9984L108.003 34.4655L100.714 36.5683L91.0831 41.0581L84.573 40.5599L82.8828 46.257L92.1559 48.1336Z" fill="#5FD068"/>
<path d="M109.924 37.6166C109.747 37.7127 109.609 37.8671 109.533 38.0537C109.449 38.2658 109.409 38.4922 109.413 38.72C109.426 39.0308 109.383 39.3415 109.285 39.6369L109.218 39.7928L109.151 39.6369C108.968 39.1823 108.825 38.713 108.723 38.234C108.493 37.2437 108.344 36.336 108.246 35.6819C108.179 35.328 108.141 34.9692 108.133 34.6091C108.23 34.9544 108.306 35.3056 108.359 35.6605C108.484 36.3115 108.665 37.2132 108.879 38.1973C108.978 38.6663 109.113 39.1271 109.282 39.5758H109.151C109.245 39.3015 109.293 39.0132 109.291 38.723C109.296 38.4823 109.35 38.2451 109.45 38.0262C109.515 37.8822 109.622 37.7609 109.756 37.6777C109.804 37.6411 109.863 37.6198 109.924 37.6166Z" fill="#263238"/>
<path d="M116.939 35.2021C116.889 35.2979 116.827 35.3872 116.755 35.468C116.627 35.63 116.45 35.8653 116.205 36.1526C115.735 36.7272 115.081 37.5127 114.347 38.3777L113.179 39.7316L113.088 39.8355L113.057 39.7041C112.889 39.0378 112.752 38.4816 112.666 38.0842C112.629 37.8856 112.519 37.7786 112.412 37.7786C112.36 37.774 112.308 37.7881 112.266 37.8183C112.266 37.8183 112.287 37.7389 112.412 37.7328C112.45 37.7317 112.487 37.7385 112.522 37.7527C112.557 37.7669 112.588 37.7882 112.614 37.8153C112.679 37.8864 112.725 37.9725 112.749 38.0659C112.862 38.4571 113.017 39.0134 113.195 39.6736L113.069 39.6461L114.225 38.2737C114.958 37.4118 115.628 36.6355 116.12 36.0793C116.364 35.8011 116.566 35.578 116.707 35.4252C116.847 35.2724 116.93 35.1929 116.939 35.2021Z" fill="#263238"/>
<path d="M108.878 60.515C108.864 60.4477 108.858 60.379 108.86 60.3103C108.86 60.1575 108.86 59.9649 108.86 59.7204C108.86 59.21 108.86 58.4703 108.86 57.5595C108.878 55.7257 108.967 53.2103 109.165 50.429C109.364 47.6477 109.667 45.1414 109.917 43.3321C110.039 42.4151 110.153 41.6969 110.223 41.1926L110.324 40.6119C110.333 40.5444 110.348 40.4779 110.37 40.4132C110.376 40.4813 110.376 40.5499 110.37 40.618C110.351 40.7677 110.327 40.9603 110.299 41.2018C110.232 41.7275 110.14 42.4549 110.027 43.3412C109.807 45.1537 109.535 47.6599 109.324 50.4381C109.113 53.2164 109.019 55.7349 108.964 57.5565C108.942 58.455 108.927 59.1886 108.912 59.7204C108.912 59.9618 108.912 60.1544 108.896 60.3072C108.895 60.3768 108.889 60.4463 108.878 60.515Z" fill="#263238"/>
<path d="M107.336 64.2224C107.203 63.7822 107.154 63.3207 107.193 62.8623C107.183 62.4048 107.237 61.9482 107.352 61.5052C107.395 61.9576 107.395 62.413 107.352 62.8653C107.33 63.6111 107.394 64.2163 107.336 64.2224Z" fill="#263238"/>
<path d="M115.099 59.7754C114.941 59.8473 114.779 59.9086 114.613 59.9588C114.307 60.0688 113.83 60.2125 113.256 60.3806C111.753 60.8105 110.229 61.1615 108.689 61.432C107.148 61.7104 105.593 61.9063 104.031 62.0188C103.436 62.0585 102.95 62.083 102.613 62.0891C102.44 62.1035 102.267 62.1035 102.094 62.0891C102.264 62.0578 102.437 62.0394 102.61 62.0341L104.022 61.9118C105.214 61.8018 106.859 61.6062 108.656 61.3005C110.453 60.9949 112.064 60.5945 113.219 60.2889L114.588 59.9129C114.754 59.8521 114.925 59.8061 115.099 59.7754Z" fill="#263238"/>
<path d="M100.711 49.4784C100.669 49.4784 100.641 47.232 100.65 44.4568C100.659 41.6816 100.702 39.4351 100.748 39.4382C100.794 39.4412 100.818 41.6846 100.809 44.4598C100.8 47.235 100.757 49.4784 100.711 49.4784Z" fill="#263238"/>
<path d="M121.168 37.7633C121.168 37.7633 123.555 39.8111 123.714 40.9725C123.833 41.868 126.184 50.2884 127.241 54.0599C127.572 55.2342 127.501 56.4852 127.039 57.6145L123.983 65.1638L119.047 62.2419L121.516 55.1633L119.472 49.1545L121.168 37.7633Z" fill="#5FD068"/>
<path d="M123.99 65.1638C123.958 65.1526 123.927 65.1372 123.898 65.1179L123.636 64.9743L122.636 64.4027L119.011 62.2969L118.965 62.2694L118.984 62.2235C119.674 60.2277 120.512 57.8009 121.429 55.1358V55.1877C121.142 54.4114 120.839 53.6015 120.53 52.7732C119.806 50.8263 119.118 48.968 118.489 47.2717C117.862 45.9605 117.321 44.6921 117.171 43.4757C117.096 42.9072 117.113 42.3304 117.22 41.7671C117.319 41.2885 117.486 40.8264 117.715 40.3948C118.041 39.7862 118.473 39.2415 118.993 38.7872C119.129 38.6655 119.272 38.5512 119.421 38.4449C119.47 38.4061 119.524 38.3723 119.58 38.344C119.536 38.3894 119.488 38.4304 119.436 38.4662C119.338 38.5427 119.198 38.6588 119.023 38.8208C118.526 39.2852 118.112 39.8322 117.801 40.4376C117.579 40.8625 117.42 41.3177 117.33 41.7885C117.23 42.3404 117.218 42.9049 117.297 43.4604C117.452 44.6493 117.993 45.9055 118.626 47.2106L120.68 52.7121C120.986 53.5403 121.291 54.3503 121.579 55.1297V55.1541V55.1816C120.643 57.8407 119.794 60.2644 119.094 62.2571L119.066 62.1838L122.651 64.3233L123.636 64.9345L123.889 65.0935C123.963 65.1393 123.993 65.1607 123.99 65.1638Z" fill="#263238"/>
<g opacity="0.3">
<path d="M111.27 38.8697C111.435 38.8643 111.597 38.9144 111.73 39.0119C111.863 39.1094 111.959 39.2488 112.004 39.4076C112.065 39.7377 112.019 40.08 112.104 40.404C112.19 40.728 112.486 41.0459 112.814 40.9756C113.008 40.9119 113.173 40.7821 113.281 40.6088C113.923 39.7398 114.438 38.7837 114.809 37.7694C114.809 37.7908 113.116 39.7133 113.116 39.7133C113.051 39.2272 112.924 38.7516 112.737 38.2982C112.679 38.1515 112.615 37.9039 112.474 37.8367C112.245 37.7327 111.939 38.0689 111.787 38.2707C111.63 38.4777 111.453 38.6682 111.258 38.8391" fill="black"/>
</g>
<g opacity="0.3">
<path d="M108.508 37.1275C108.539 38.2012 108.745 39.2626 109.119 40.2695C109.152 40.373 109.208 40.4673 109.284 40.5446C109.324 40.5839 109.375 40.6093 109.43 40.617C109.485 40.6247 109.541 40.6143 109.59 40.5874C109.712 40.3807 109.815 40.1627 109.895 39.9364C110.051 39.4993 110.687 39.4596 110.687 39.4596C110.581 38.966 110.442 38.48 110.271 38.0047C110.24 37.9269 110.185 37.8607 110.114 37.8153C110.044 37.7699 109.961 37.7474 109.877 37.7511C109.767 37.7884 109.669 37.8541 109.593 37.9416C109.517 38.0291 109.465 38.1353 109.443 38.2492C109.348 39.0347 109.361 39.3923 109.244 39.6674C108.939 38.833 108.706 37.8336 108.511 37.097" fill="black"/>
</g>
<g opacity="0.3">
<path d="M113.206 60.2796C113.279 60.2281 113.34 60.1627 113.386 60.0871C113.433 60.0116 113.464 59.9275 113.478 59.8398C113.491 59.7521 113.487 59.6626 113.466 59.5765C113.445 59.4903 113.406 59.4094 113.353 59.3383C113.24 59.1991 113.091 59.0922 112.923 59.0283C112.756 58.9645 112.574 58.9459 112.396 58.9746C112.043 59.036 111.711 59.1853 111.431 59.4086C111.14 59.6195 110.874 59.8609 110.569 60.0474C109.82 60.5058 108.909 60.6128 108.029 60.625C107.15 60.5881 106.269 60.628 105.397 60.7442C104.535 60.9093 103.673 61.3555 103.258 62.1288C103.246 62.1288 110.761 61.5847 113.206 60.2796Z" fill="black"/>
</g>
<path d="M118.099 71.3194C117.296 70.8026 116.623 70.1083 116.131 69.2899C116.135 69.2793 116.138 69.2679 116.138 69.2563C116.138 69.2448 116.135 69.2333 116.131 69.2227C116.112 69.1983 116.085 69.182 116.054 69.1768C115.843 68.8523 115.651 68.5155 115.48 68.1682C116.091 67.7709 116.895 67.1657 116.024 67.0435C114.951 66.8907 114.19 66.368 114.074 66.0838C114.056 66.0159 114.059 65.9441 114.084 65.8783C114.108 65.8124 114.153 65.7558 114.211 65.7162C114.269 65.6766 114.337 65.6561 114.408 65.6573C114.478 65.6585 114.546 65.6815 114.603 65.7231C114.929 65.8886 115.277 66.0089 115.636 66.0807C115.923 66.1478 116.219 66.1664 116.513 66.1357C116.693 66.1143 117.332 65.6773 118.017 65.3564C118.112 65.3117 118.218 65.2967 118.322 65.3136L118.582 65.2952C118.721 65.2867 118.855 65.2421 118.971 65.166C119.087 65.0899 119.182 64.9849 119.245 64.8612L120.239 62.954L123.234 64.7267L120.862 68.0154C120.002 69.166 119.079 70.269 118.099 71.3194Z" fill="#FFBE9D"/>
<path d="M118.723 71.6616C118.476 71.5919 118.243 71.4825 118.032 71.3377C117.503 71.017 117.025 70.6194 116.614 70.1579C116.203 69.7008 115.861 69.1859 115.599 68.6297C115.48 68.4022 115.397 68.158 115.352 67.9053C116.037 69.4909 117.216 70.8127 118.714 71.6739L118.723 71.6616Z" fill="#455A64"/>
<path d="M109.289 73.5902C109.289 73.5902 109.259 73.5902 109.204 73.5658C109.128 73.5287 109.057 73.4825 108.993 73.4282C108.763 73.2176 108.595 72.9496 108.504 72.6519C108.369 72.2222 108.258 71.7855 108.171 71.3438C108.061 70.8487 107.947 70.3046 107.834 69.73C107.608 68.5839 107.437 67.5386 107.327 66.7806C107.272 66.4016 107.232 66.0929 107.211 65.882C107.191 65.7722 107.184 65.6604 107.189 65.5489C107.23 65.6468 107.258 65.7495 107.272 65.8545L107.437 66.747C107.578 67.4989 107.764 68.538 107.99 69.6842C108.103 70.2557 108.213 70.7967 108.314 71.2979C108.415 71.7992 108.495 72.2424 108.62 72.6C108.698 72.8854 108.843 73.1482 109.042 73.3671C109.185 73.5291 109.295 73.578 109.289 73.5902Z" fill="#455A64"/>
<path d="M109.031 66.7286C109.031 66.7286 109.083 66.7103 109.166 66.7286C109.287 66.7733 109.387 66.8616 109.447 66.9762C109.495 67.0628 109.518 67.1613 109.512 67.2603C109.507 67.3592 109.473 67.4547 109.416 67.5355C109.346 67.6359 109.247 67.7129 109.133 67.7564C109.018 67.8 108.894 67.8083 108.774 67.78C108.658 67.7446 108.554 67.677 108.475 67.585C108.395 67.4931 108.343 67.3806 108.325 67.2604C108.313 67.1638 108.324 67.0657 108.358 66.9743C108.391 66.8828 108.446 66.8007 108.518 66.7348C108.771 66.5177 109.001 66.5819 108.988 66.5942C108.842 66.6359 108.708 66.7112 108.597 66.8142C108.544 66.8697 108.506 66.9368 108.484 67.0101C108.462 67.0834 108.458 67.1608 108.472 67.236C108.488 67.3261 108.529 67.4099 108.59 67.4783C108.651 67.5467 108.73 67.5972 108.817 67.6242C108.906 67.6435 108.998 67.6374 109.084 67.6065C109.169 67.5757 109.244 67.5214 109.3 67.4499C109.345 67.3895 109.372 67.3183 109.38 67.2437C109.388 67.1691 109.376 67.0937 109.346 67.0251C109.23 66.7775 109.019 66.75 109.031 66.7286Z" fill="#455A64"/>
<path d="M102.54 65.5C102.613 65.7267 102.64 65.9657 102.619 66.203C102.598 66.7808 102.444 67.346 102.17 67.8552C101.896 68.3644 101.509 68.804 101.039 69.1402C100.851 69.2834 100.635 69.3873 100.406 69.4458C100.406 69.4213 100.635 69.3021 100.972 69.0362C101.405 68.6872 101.763 68.2546 102.026 67.7642C102.288 67.2738 102.45 66.7356 102.5 66.1816C102.546 65.772 102.512 65.5031 102.54 65.5Z" fill="#455A64"/>
<path d="M90.6719 44.0564C90.6864 43.5439 90.7385 43.0331 90.8278 42.5282C90.8651 42.0203 90.9386 41.5158 91.0478 41.0184C91.0955 41.5283 91.0739 42.0424 90.9836 42.5466C90.9473 43.0615 90.8424 43.5692 90.6719 44.0564Z" fill="#263238"/>
<path d="M84.5804 40.566C84.578 40.6024 84.5708 40.6384 84.559 40.673C84.5407 40.7555 84.5132 40.8563 84.4796 40.9786C84.4001 41.2598 84.2931 41.651 84.1556 42.14L82.9453 46.2814L82.8964 46.1958C84.6232 46.6237 86.7046 46.9722 88.9266 47.3817C90.033 47.5896 91.0997 47.8127 92.0839 48.0572H92.0503L98.2486 46.6543L100.055 46.2631L100.538 46.1622C100.594 46.1463 100.651 46.1381 100.709 46.1378C100.655 46.1593 100.6 46.1767 100.544 46.1897L100.067 46.312L98.2822 46.7613L92.0961 48.2192H92.0594C91.0783 47.9777 90.0147 47.7577 88.9083 47.5529C86.6924 47.1433 84.6049 46.7857 82.875 46.3303L82.8047 46.315L82.8261 46.2447C83.3395 44.5484 83.7705 43.1333 84.0792 42.1217C84.229 41.6388 84.3512 41.2537 84.4399 40.9725C84.4786 40.8502 84.5122 40.7483 84.5407 40.6668C84.551 40.6321 84.5643 40.5984 84.5804 40.566Z" fill="#263238"/>
</svg>
