<svg width="411" height="425" viewBox="0 0 411 425" fill="none" xmlns="http://www.w3.org/2000/svg">
<rect x="30.1406" y="72.0854" width="281.392" height="336.722" transform="rotate(-6.68846 30.1406 72.0854)" fill="#EEEEEE"/>
<path d="M34.0719 317.743L23.5435 316.72C21.1848 311.69 20.0896 306.161 20.3528 300.612C26.1949 308.574 38.278 308.251 46.4011 313.868C48.9212 315.639 51.0105 317.954 52.514 320.643C54.0175 323.331 54.8968 326.323 55.0866 329.398L58.6637 335.992C53.73 336.613 48.7205 336.156 43.9803 334.654C39.24 333.152 34.8818 330.641 31.2058 327.292C29.1621 325.393 27.3658 323.244 25.8591 320.897C29.9744 319.578 34.0719 317.743 34.0719 317.743Z" fill="#F4DB25"/>
<path d="M86.3067 362.627C89.4978 361.473 92.1653 360.278 92.1653 360.278L85.6689 359.647C84.8047 356.17 83.4835 352.959 80.9394 350.402C85.8914 350.911 90.6704 352.505 94.9367 355.07C99.2031 357.636 102.852 361.109 105.624 365.244C108.397 369.378 110.224 374.073 110.977 378.994C111.73 383.915 111.39 388.941 109.981 393.716L104.018 389.163C101.01 388.501 98.1891 387.17 95.765 385.27C93.341 383.369 91.3757 380.947 90.0149 378.184C87.7286 373.451 87.2781 367.869 86.3067 362.627Z" fill="#F4DB25"/>
<path d="M44.7318 291.7C47.0267 292.042 49.2986 292.523 51.535 293.141L46.0082 289.447C46.6349 288.588 47.4409 287.876 48.3702 287.361C49.2996 286.845 50.33 286.538 51.39 286.461C53.9137 286.353 56.3559 287.733 57.9258 289.712C59.4359 291.756 60.3495 294.178 60.5649 296.711C61.0728 301.287 60.0795 305.905 57.7346 309.868C54.3521 308.346 50.9877 306.621 48.3497 304.017C45.6688 301.371 43.8088 297.661 44.1877 293.913C44.2683 293.154 44.4513 292.41 44.7318 291.7Z" fill="#F4DB25"/>
<path d="M46.6219 370.311L36.862 369.363C34.4588 366.807 32.4718 363.89 30.9737 360.718C39.877 364.992 50.3843 359.017 60.1953 360.147C63.2525 360.522 66.186 361.581 68.7784 363.245C71.3707 364.909 73.5555 367.134 75.1707 369.757L81.4316 373.89C77.3714 376.761 72.7371 378.717 67.8481 379.624C62.959 380.532 57.9314 380.368 53.1117 379.145C48.5102 377.921 44.2181 375.742 40.5145 372.749C43.8144 371.568 46.6219 370.311 46.6219 370.311Z" fill="#F4DB25"/>
<path d="M110.48 391.737C112.74 392.533 115.036 393.222 117.367 393.803C116.954 394.29 116.552 394.762 116.159 395.229C114.102 394.695 112.07 394.079 110.065 393.378C109.73 393.261 109.391 393.14 109.05 393.013C105.351 391.671 101.757 390.058 98.2962 388.187C91.6289 384.597 85.4943 380.096 80.0694 374.813C79.9713 374.723 79.881 374.634 79.7876 374.541C78.3068 373.083 76.8798 371.563 75.5204 369.992C75.2439 369.677 74.969 369.355 74.6972 369.037C73.963 368.157 73.2476 367.264 72.5511 366.36C70.0142 363.063 67.7462 359.567 65.7687 355.906C62.3874 349.645 59.8427 342.968 58.1999 336.045C58.083 335.553 57.9661 335.062 57.8664 334.566C57.7993 334.276 57.737 333.983 57.6746 333.69C56.0736 325.94 55.6125 317.999 56.306 310.116C56.3321 309.826 56.3613 309.541 56.3905 309.255C56.4599 308.577 56.537 307.9 56.6219 307.226C56.6329 307.11 56.6712 306.999 56.7337 306.902C56.7962 306.805 56.881 306.724 56.9811 306.665C57.0813 306.607 57.1938 306.574 57.3094 306.568C57.425 306.562 57.5403 306.584 57.6458 306.632C57.8466 306.687 58.0204 306.814 58.135 306.987C58.2495 307.161 58.2971 307.371 58.2687 307.577C58.1998 308.122 58.1339 308.671 58.0852 309.216C58.0084 309.872 57.9518 310.528 57.9077 311.184C56.8202 325.468 59.5985 339.781 65.9507 352.622C69.8885 360.52 75.1421 367.69 81.4863 373.826L81.491 373.823C85.3045 377.525 89.4819 380.833 93.9597 383.696C94.854 384.266 95.759 384.818 96.6746 385.353C99.0529 386.745 101.503 388.012 104.015 389.146C106.13 390.109 108.285 390.973 110.48 391.737Z" fill="#3F3D56"/>
<rect x="48.7812" y="89.6182" width="281.392" height="336.722" transform="rotate(-6.68846 48.7812 89.6182)" fill="#FDFAFA"/>
<path d="M399.166 158.773C386.223 157.094 370.149 163.27 369.191 170.019C368.403 175.574 377.982 180.646 377.079 181.264C376.236 181.842 370.3 175.746 362.881 175.641C351.67 175.483 338.215 189.017 342.372 197.008C345.71 203.423 360.009 205.521 359.726 206.005C359.459 206.461 348.564 201.483 337.64 202.631C321.998 204.275 307.021 218.403 310.821 227.372C315.067 237.394 342.555 240.497 342.372 240.867C342.179 241.258 314.707 231.231 304.51 237.493C297.672 241.693 298.652 251.484 302.933 257.736C311.867 270.785 339.738 275.409 353.416 268.981C364.051 263.983 359.573 244.956 370.308 229.184C383.491 209.815 403.724 214.778 403.898 200.382C403.914 199.073 403.965 194.858 400.743 193.635C395.598 191.681 385.667 198.711 384.967 198.133C384.21 197.508 397.503 190.662 405.476 179.015C407.984 175.352 413.689 167.018 408.631 162.147C406.056 159.667 401.755 159.109 399.166 158.773Z" fill="#EAEAEA"/>
<path d="M383.22 242.675C370.278 240.997 354.204 247.172 353.246 253.921C352.458 259.476 362.037 264.549 361.134 265.167C360.29 265.744 354.355 259.649 346.936 259.544C335.725 259.385 322.27 272.92 326.427 280.911C329.764 287.325 344.064 289.424 343.781 289.907C343.513 290.364 332.619 285.385 321.694 286.534C306.053 288.178 291.075 302.305 294.875 311.274C299.122 321.296 326.61 324.4 326.427 324.769C326.234 325.16 298.761 315.134 288.565 321.396C281.726 325.595 282.707 335.386 286.987 341.638C295.921 354.687 323.792 359.311 337.47 352.884C348.105 347.886 343.627 328.858 354.362 313.086C367.546 293.717 387.779 298.681 387.953 284.285C387.969 282.975 388.02 278.76 384.798 277.537C379.652 275.584 369.722 282.614 369.022 282.035C368.265 281.41 381.558 274.564 389.531 262.918C392.038 259.254 397.743 250.92 392.686 246.049C390.111 243.569 385.81 243.011 383.22 242.675Z" fill="#5FD068"/>
<rect x="67.5053" y="72.1688" width="281.225" height="336.556" fill="white" stroke="black" stroke-width="0.166765"/>
<path d="M143.305 95.9263C143.305 127.194 116.989 149.822 85.7396 149.822C54.4901 149.822 30.1406 127.194 30.1406 95.9263C30.1406 64.6591 55.4734 39.312 86.7229 39.312C117.972 39.312 143.305 64.6591 143.305 95.9263Z" fill="#F9F7F7"/>
<path d="M86.9033 55.9961C86.9033 55.9961 70.0188 54.9376 62.2094 63.2879C54.4 71.6382 77.313 83.8927 77.313 83.8927L86.9033 55.9961Z" fill="#2F2E41"/>
<path d="M74.9313 50.6995C83.4045 49.2984 89.1376 41.2938 87.7365 32.8206C86.3355 24.3474 78.3308 18.6143 69.8577 20.0154C61.3845 21.4165 55.6514 29.4211 57.0525 37.8943C58.4535 46.3674 66.4582 52.1005 74.9313 50.6995Z" fill="#FFB8B8"/>
<path d="M84.5357 53.3716L78.8642 67.1518L65.6839 57.7118L46.987 76.009C46.3309 76.6496 45.9112 77.4937 45.7967 78.4035C45.6822 79.3133 45.8795 80.2351 46.3565 81.0183C50.9388 88.5229 66.7325 120.822 68.8661 148.704C68.8661 148.704 77.769 149.58 95.2241 151.587C112.679 153.593 123.229 135.113 123.229 135.113C123.229 135.113 110.31 103.843 111.609 96.9014C112.686 91.1434 113.711 72.3498 114.029 66.1082C114.059 65.5186 113.899 64.9351 113.572 64.4437C113.245 63.9523 112.769 63.5791 112.213 63.3792L84.5357 53.3716Z" fill="#5FD068"/>
<path d="M118.535 142.841C118.067 142.036 117.781 141.139 117.698 140.212C117.614 139.285 117.735 138.351 118.052 137.475C118.368 136.6 118.873 135.805 119.53 135.146C120.187 134.487 120.981 133.979 121.855 133.66L121.491 111.038L131.409 117.352L130.234 137.866C130.673 139.371 130.545 140.984 129.874 142.4C129.203 143.816 128.036 144.937 126.594 145.55C125.152 146.163 123.535 146.226 122.049 145.727C120.564 145.227 119.313 144.2 118.535 142.841L118.535 142.841Z" fill="#FFB8B8"/>
<path d="M111.616 63.5527C112.255 63.351 112.945 63.3889 113.559 63.6594C114.172 63.9299 114.665 64.4145 114.947 65.0226L131.04 99.7438L132.301 122.163L120.696 122.247L119.327 106.573L107.745 88.3071L109.699 65.9421C109.746 65.3989 109.954 64.882 110.295 64.4567C110.636 64.0314 111.096 63.7168 111.616 63.5527Z" fill="#46BD50"/>
<path d="M56.9909 15.7829C57.7268 13.8772 58.975 12.212 60.5977 10.9711C62.2205 9.73025 64.1545 8.96198 66.1864 8.75115C68.3344 8.66709 70.4829 8.90237 72.5618 9.44926L83.2381 11.7032C86.0008 12.2864 89.0481 13.0565 90.5956 15.4182C92.0318 17.6101 91.7036 20.4702 91.3213 23.0628L89.5041 35.3864C88.6505 32.8064 87.5084 30.331 86.0994 28.0072C84.6048 25.7405 82.5078 23.7693 79.9222 22.9407C77.0961 22.035 74.0301 22.5704 71.1289 23.1947C67.0199 24.0789 62.6036 25.3506 60.1437 28.7586C58.8559 30.6761 58.1388 32.9197 58.0759 35.2286C58.0178 37.5245 58.1771 39.8207 58.5518 42.0865C56.3706 39.4477 54.4326 36.617 52.7617 33.6288C51.4282 31.4186 50.4766 28.9995 49.9468 26.4731C49.424 23.9232 49.86 21.27 51.1714 19.0215C52.5527 16.8476 55.1445 15.3687 57.6965 15.717" fill="#2F2E41"/>
<path d="M71.979 159.524C72.1629 158.612 72.1445 157.67 71.9251 156.765C71.7057 155.861 71.2906 155.015 70.7092 154.289C70.1277 153.562 69.3939 152.971 68.5596 152.559C67.7252 152.146 66.8106 151.922 65.88 151.901L58.9423 130.366L51.5849 139.537L59.301 158.581C59.3697 160.146 60.0103 161.632 61.1014 162.757C62.1925 163.882 63.6583 164.567 65.221 164.683C66.7837 164.8 68.3348 164.339 69.5803 163.388C70.8259 162.437 71.6794 161.062 71.979 159.524Z" fill="#FFB8B8"/>
<path d="M47.1682 75.7626C46.2916 76.0619 45.5437 76.652 45.0485 77.4348C44.5534 78.2177 44.3409 79.1463 44.4461 80.0666L52.3145 148.842L64.8152 146.775L62.9779 109.774L52.3261 78.3034C52.1549 77.7975 51.8855 77.3303 51.5335 76.9287C51.1814 76.527 50.7535 76.1988 50.2744 75.9628C49.7953 75.7267 49.2743 75.5876 48.7412 75.5532C48.2082 75.5189 47.6737 75.59 47.1682 75.7626Z" fill="#46BD50"/>
<path d="M161.932 119.214V107.314H166.777C167.423 107.314 168.006 107.478 168.528 107.807C169.06 108.124 169.485 108.561 169.803 109.116C170.12 109.671 170.279 110.289 170.279 110.969C170.279 111.649 170.12 112.267 169.803 112.822C169.485 113.377 169.06 113.825 168.528 114.165C168.006 114.494 167.423 114.658 166.777 114.658H163.768V119.214H161.932ZM163.768 112.89H166.743C167.049 112.89 167.326 112.805 167.576 112.635C167.825 112.454 168.023 112.221 168.171 111.938C168.329 111.643 168.409 111.32 168.409 110.969C168.409 110.618 168.329 110.3 168.171 110.017C168.023 109.734 167.825 109.507 167.576 109.337C167.326 109.167 167.049 109.082 166.743 109.082H163.768V112.89ZM177.538 119.384C176.62 119.384 175.804 119.191 175.09 118.806C174.387 118.409 173.832 117.871 173.424 117.191C173.027 116.511 172.829 115.729 172.829 114.845C172.829 114.142 172.942 113.502 173.169 112.924C173.396 112.346 173.707 111.847 174.104 111.428C174.512 110.997 174.994 110.669 175.549 110.442C176.116 110.204 176.728 110.085 177.385 110.085C177.963 110.085 178.501 110.198 179 110.425C179.499 110.64 179.929 110.941 180.292 111.326C180.666 111.711 180.949 112.17 181.142 112.703C181.346 113.224 181.442 113.797 181.431 114.42L181.414 115.168H174.121L173.73 113.774H179.901L179.646 114.063V113.655C179.612 113.281 179.487 112.947 179.272 112.652C179.057 112.357 178.785 112.125 178.456 111.955C178.127 111.785 177.77 111.7 177.385 111.7C176.773 111.7 176.257 111.819 175.838 112.057C175.419 112.284 175.101 112.624 174.886 113.077C174.671 113.519 174.563 114.069 174.563 114.726C174.563 115.349 174.693 115.893 174.954 116.358C175.215 116.811 175.583 117.163 176.059 117.412C176.535 117.661 177.085 117.786 177.708 117.786C178.15 117.786 178.558 117.712 178.932 117.565C179.317 117.418 179.731 117.151 180.173 116.766L181.057 118.007C180.785 118.279 180.451 118.517 180.054 118.721C179.669 118.925 179.255 119.089 178.813 119.214C178.382 119.327 177.957 119.384 177.538 119.384ZM184.609 119.214V110.289H186.377V113.094L186.207 112.414C186.332 111.983 186.541 111.592 186.836 111.241C187.142 110.89 187.488 110.612 187.873 110.408C188.27 110.204 188.678 110.102 189.097 110.102C189.29 110.102 189.471 110.119 189.641 110.153C189.822 110.187 189.964 110.227 190.066 110.272L189.607 112.176C189.471 112.119 189.318 112.074 189.148 112.04C188.989 111.995 188.831 111.972 188.672 111.972C188.366 111.972 188.071 112.034 187.788 112.159C187.516 112.272 187.272 112.437 187.057 112.652C186.853 112.856 186.689 113.1 186.564 113.383C186.439 113.655 186.377 113.955 186.377 114.284V119.214H184.609ZM195.715 119.384C194.967 119.384 194.293 119.254 193.692 118.993C193.092 118.732 192.593 118.347 192.196 117.837L193.386 116.817C193.726 117.214 194.095 117.503 194.491 117.684C194.899 117.854 195.358 117.939 195.868 117.939C196.072 117.939 196.259 117.916 196.429 117.871C196.611 117.814 196.764 117.735 196.888 117.633C197.024 117.531 197.126 117.412 197.194 117.276C197.262 117.129 197.296 116.97 197.296 116.8C197.296 116.505 197.189 116.267 196.973 116.086C196.86 116.007 196.679 115.922 196.429 115.831C196.191 115.729 195.88 115.627 195.494 115.525C194.837 115.355 194.299 115.162 193.879 114.947C193.46 114.732 193.137 114.488 192.91 114.216C192.74 114.001 192.616 113.768 192.536 113.519C192.457 113.258 192.417 112.975 192.417 112.669C192.417 112.295 192.497 111.955 192.655 111.649C192.825 111.332 193.052 111.06 193.335 110.833C193.63 110.595 193.97 110.414 194.355 110.289C194.752 110.164 195.171 110.102 195.613 110.102C196.033 110.102 196.446 110.159 196.854 110.272C197.274 110.385 197.659 110.55 198.01 110.765C198.362 110.98 198.656 111.235 198.894 111.53L197.891 112.635C197.676 112.42 197.438 112.233 197.177 112.074C196.928 111.904 196.673 111.774 196.412 111.683C196.152 111.592 195.914 111.547 195.698 111.547C195.46 111.547 195.245 111.57 195.052 111.615C194.86 111.66 194.695 111.728 194.559 111.819C194.435 111.91 194.338 112.023 194.27 112.159C194.202 112.295 194.168 112.448 194.168 112.618C194.18 112.765 194.214 112.907 194.27 113.043C194.338 113.168 194.429 113.275 194.542 113.366C194.667 113.457 194.854 113.553 195.103 113.655C195.353 113.757 195.67 113.853 196.055 113.944C196.622 114.091 197.087 114.256 197.449 114.437C197.823 114.607 198.118 114.805 198.333 115.032C198.56 115.247 198.719 115.497 198.809 115.78C198.9 116.063 198.945 116.381 198.945 116.732C198.945 117.242 198.798 117.701 198.503 118.109C198.22 118.506 197.835 118.817 197.347 119.044C196.86 119.271 196.316 119.384 195.715 119.384ZM206.162 119.384C205.29 119.384 204.508 119.186 203.816 118.789C203.136 118.381 202.598 117.831 202.201 117.14C201.805 116.437 201.606 115.638 201.606 114.743C201.606 113.848 201.805 113.054 202.201 112.363C202.598 111.66 203.136 111.111 203.816 110.714C204.508 110.306 205.29 110.102 206.162 110.102C207.024 110.102 207.794 110.306 208.474 110.714C209.166 111.111 209.71 111.66 210.106 112.363C210.503 113.054 210.701 113.848 210.701 114.743C210.701 115.638 210.503 116.437 210.106 117.14C209.71 117.831 209.166 118.381 208.474 118.789C207.794 119.186 207.024 119.384 206.162 119.384ZM206.162 117.786C206.695 117.786 207.171 117.656 207.59 117.395C208.01 117.123 208.338 116.76 208.576 116.307C208.814 115.842 208.928 115.321 208.916 114.743C208.928 114.154 208.814 113.632 208.576 113.179C208.338 112.714 208.01 112.352 207.59 112.091C207.171 111.83 206.695 111.7 206.162 111.7C205.63 111.7 205.148 111.836 204.717 112.108C204.298 112.369 203.969 112.731 203.731 113.196C203.493 113.649 203.38 114.165 203.391 114.743C203.38 115.321 203.493 115.842 203.731 116.307C203.969 116.76 204.298 117.123 204.717 117.395C205.148 117.656 205.63 117.786 206.162 117.786ZM213.884 119.214V110.289H215.635V112.125L215.329 112.329C215.442 111.932 215.663 111.57 215.992 111.241C216.321 110.901 216.712 110.629 217.165 110.425C217.618 110.21 218.083 110.102 218.559 110.102C219.239 110.102 219.806 110.238 220.259 110.51C220.712 110.771 221.052 111.173 221.279 111.717C221.506 112.261 221.619 112.947 221.619 113.774V119.214H219.868V113.893C219.868 113.383 219.8 112.964 219.664 112.635C219.528 112.295 219.318 112.051 219.035 111.904C218.752 111.745 218.4 111.677 217.981 111.7C217.641 111.7 217.329 111.757 217.046 111.87C216.763 111.972 216.513 112.119 216.298 112.312C216.094 112.505 215.93 112.731 215.805 112.992C215.692 113.241 215.635 113.513 215.635 113.808V119.214H214.768C214.621 119.214 214.473 119.214 214.326 119.214C214.179 119.214 214.031 119.214 213.884 119.214ZM228.704 119.384C227.967 119.384 227.293 119.18 226.681 118.772C226.08 118.364 225.598 117.809 225.236 117.106C224.873 116.403 224.692 115.61 224.692 114.726C224.692 113.831 224.873 113.037 225.236 112.346C225.61 111.643 226.108 111.094 226.732 110.697C227.366 110.3 228.075 110.102 228.857 110.102C229.321 110.102 229.746 110.17 230.132 110.306C230.517 110.442 230.851 110.635 231.135 110.884C231.429 111.122 231.667 111.4 231.849 111.717C232.041 112.034 232.16 112.374 232.206 112.737L231.815 112.601V110.289H233.583V119.214H231.815V117.089L232.223 116.97C232.155 117.276 232.013 117.576 231.798 117.871C231.594 118.154 231.327 118.409 230.999 118.636C230.681 118.863 230.324 119.044 229.928 119.18C229.542 119.316 229.134 119.384 228.704 119.384ZM229.163 117.769C229.695 117.769 230.166 117.639 230.574 117.378C230.982 117.117 231.299 116.76 231.526 116.307C231.764 115.842 231.883 115.315 231.883 114.726C231.883 114.148 231.764 113.632 231.526 113.179C231.299 112.726 230.982 112.369 230.574 112.108C230.166 111.847 229.695 111.717 229.163 111.717C228.641 111.717 228.177 111.847 227.769 112.108C227.372 112.369 227.055 112.726 226.817 113.179C226.59 113.632 226.477 114.148 226.477 114.726C226.477 115.315 226.59 115.842 226.817 116.307C227.055 116.76 227.372 117.117 227.769 117.378C228.177 117.639 228.641 117.769 229.163 117.769ZM237.336 119.214V106.634H239.087V119.214H237.336ZM249.326 119.214V107.314H253.984C254.834 107.314 255.599 107.456 256.279 107.739C256.97 108.022 257.559 108.43 258.047 108.963C258.534 109.496 258.908 110.125 259.169 110.85C259.429 111.575 259.56 112.38 259.56 113.264C259.56 114.148 259.429 114.958 259.169 115.695C258.908 116.42 258.534 117.049 258.047 117.582C257.571 118.103 256.987 118.506 256.296 118.789C255.604 119.072 254.834 119.214 253.984 119.214H249.326ZM251.162 117.633L251.111 117.446H253.899C254.499 117.446 255.032 117.35 255.497 117.157C255.973 116.964 256.369 116.692 256.687 116.341C257.015 115.978 257.265 115.536 257.435 115.015C257.605 114.494 257.69 113.91 257.69 113.264C257.69 112.618 257.605 112.04 257.435 111.53C257.265 111.009 257.015 110.567 256.687 110.204C256.358 109.841 255.961 109.564 255.497 109.371C255.032 109.178 254.499 109.082 253.899 109.082H251.06L251.162 108.929V117.633ZM267.04 119.384C266.122 119.384 265.306 119.191 264.592 118.806C263.89 118.409 263.334 117.871 262.926 117.191C262.53 116.511 262.331 115.729 262.331 114.845C262.331 114.142 262.445 113.502 262.671 112.924C262.898 112.346 263.21 111.847 263.606 111.428C264.014 110.997 264.496 110.669 265.051 110.442C265.618 110.204 266.23 110.085 266.887 110.085C267.465 110.085 268.004 110.198 268.502 110.425C269.001 110.64 269.432 110.941 269.794 111.326C270.168 111.711 270.452 112.17 270.644 112.703C270.848 113.224 270.945 113.797 270.933 114.42L270.916 115.168H263.623L263.232 113.774H269.403L269.148 114.063V113.655C269.114 113.281 268.99 112.947 268.774 112.652C268.559 112.357 268.287 112.125 267.958 111.955C267.63 111.785 267.273 111.7 266.887 111.7C266.275 111.7 265.76 111.819 265.34 112.057C264.921 112.284 264.604 112.624 264.388 113.077C264.173 113.519 264.065 114.069 264.065 114.726C264.065 115.349 264.196 115.893 264.456 116.358C264.717 116.811 265.085 117.163 265.561 117.412C266.037 117.661 266.587 117.786 267.21 117.786C267.652 117.786 268.06 117.712 268.434 117.565C268.82 117.418 269.233 117.151 269.675 116.766L270.559 118.007C270.287 118.279 269.953 118.517 269.556 118.721C269.171 118.925 268.757 119.089 268.315 119.214C267.885 119.327 267.46 119.384 267.04 119.384ZM275.216 119.214V108.011H276.967V119.214H275.216ZM273.363 111.989V110.289H279.041V111.989H273.363ZM285.262 119.384C284.525 119.384 283.851 119.18 283.239 118.772C282.638 118.364 282.156 117.809 281.794 117.106C281.431 116.403 281.25 115.61 281.25 114.726C281.25 113.831 281.431 113.037 281.794 112.346C282.168 111.643 282.666 111.094 283.29 110.697C283.924 110.3 284.633 110.102 285.415 110.102C285.879 110.102 286.304 110.17 286.69 110.306C287.075 110.442 287.409 110.635 287.693 110.884C287.987 111.122 288.225 111.4 288.407 111.717C288.599 112.034 288.718 112.374 288.764 112.737L288.373 112.601V110.289H290.141V119.214H288.373V117.089L288.781 116.97C288.713 117.276 288.571 117.576 288.356 117.871C288.152 118.154 287.885 118.409 287.557 118.636C287.239 118.863 286.882 119.044 286.486 119.18C286.1 119.316 285.692 119.384 285.262 119.384ZM285.721 117.769C286.253 117.769 286.724 117.639 287.132 117.378C287.54 117.117 287.857 116.76 288.084 116.307C288.322 115.842 288.441 115.315 288.441 114.726C288.441 114.148 288.322 113.632 288.084 113.179C287.857 112.726 287.54 112.369 287.132 112.108C286.724 111.847 286.253 111.717 285.721 111.717C285.199 111.717 284.735 111.847 284.327 112.108C283.93 112.369 283.613 112.726 283.375 113.179C283.148 113.632 283.035 114.148 283.035 114.726C283.035 115.315 283.148 115.842 283.375 116.307C283.613 116.76 283.93 117.117 284.327 117.378C284.735 117.639 285.199 117.769 285.721 117.769ZM294.15 119.214V110.289H295.901V119.214H294.15ZM295 108.317C294.626 108.317 294.337 108.221 294.133 108.028C293.929 107.835 293.827 107.563 293.827 107.212C293.827 106.883 293.929 106.617 294.133 106.413C294.348 106.209 294.637 106.107 295 106.107C295.374 106.107 295.663 106.203 295.867 106.396C296.071 106.589 296.173 106.861 296.173 107.212C296.173 107.541 296.065 107.807 295.85 108.011C295.646 108.215 295.362 108.317 295 108.317ZM299.901 119.214V106.634H301.652V119.214H299.901ZM308.384 119.384C307.636 119.384 306.961 119.254 306.361 118.993C305.76 118.732 305.261 118.347 304.865 117.837L306.055 116.817C306.395 117.214 306.763 117.503 307.16 117.684C307.568 117.854 308.027 117.939 308.537 117.939C308.741 117.939 308.928 117.916 309.098 117.871C309.279 117.814 309.432 117.735 309.557 117.633C309.693 117.531 309.795 117.412 309.863 117.276C309.931 117.129 309.965 116.97 309.965 116.8C309.965 116.505 309.857 116.267 309.642 116.086C309.528 116.007 309.347 115.922 309.098 115.831C308.86 115.729 308.548 115.627 308.163 115.525C307.505 115.355 306.967 115.162 306.548 114.947C306.128 114.732 305.805 114.488 305.579 114.216C305.409 114.001 305.284 113.768 305.205 113.519C305.125 113.258 305.086 112.975 305.086 112.669C305.086 112.295 305.165 111.955 305.324 111.649C305.494 111.332 305.72 111.06 306.004 110.833C306.298 110.595 306.638 110.414 307.024 110.289C307.42 110.164 307.84 110.102 308.282 110.102C308.701 110.102 309.115 110.159 309.523 110.272C309.942 110.385 310.327 110.55 310.679 110.765C311.03 110.98 311.325 111.235 311.563 111.53L310.56 112.635C310.344 112.42 310.106 112.233 309.846 112.074C309.596 111.904 309.341 111.774 309.081 111.683C308.82 111.592 308.582 111.547 308.367 111.547C308.129 111.547 307.913 111.57 307.721 111.615C307.528 111.66 307.364 111.728 307.228 111.819C307.103 111.91 307.007 112.023 306.939 112.159C306.871 112.295 306.837 112.448 306.837 112.618C306.848 112.765 306.882 112.907 306.939 113.043C307.007 113.168 307.097 113.275 307.211 113.366C307.335 113.457 307.522 113.553 307.772 113.655C308.021 113.757 308.338 113.853 308.724 113.944C309.29 114.091 309.755 114.256 310.118 114.437C310.492 114.607 310.786 114.805 311.002 115.032C311.228 115.247 311.387 115.497 311.478 115.78C311.568 116.063 311.614 116.381 311.614 116.732C311.614 117.242 311.466 117.701 311.172 118.109C310.888 118.506 310.503 118.817 310.016 119.044C309.528 119.271 308.984 119.384 308.384 119.384Z" fill="black"/>
<rect x="90.3077" y="177.468" width="112.619" height="26.6189" rx="2.85806" fill="white"/>
<path d="M97.2589 193.334C97.1469 193.334 97.0589 193.304 96.9949 193.246C96.9363 193.182 96.9069 193.091 96.9069 192.974V187.998C96.9069 187.88 96.9363 187.792 96.9949 187.734C97.0589 187.67 97.1496 187.638 97.2669 187.638H100.171C100.262 187.638 100.331 187.662 100.379 187.71C100.427 187.758 100.451 187.824 100.451 187.91C100.451 188 100.427 188.07 100.379 188.118C100.331 188.166 100.262 188.19 100.171 188.19H97.5629V190.158H100.003C100.094 190.158 100.163 190.182 100.211 190.23C100.264 190.278 100.291 190.344 100.291 190.43C100.291 190.52 100.264 190.59 100.211 190.638C100.163 190.686 100.094 190.71 100.003 190.71H97.5629V192.974C97.5629 193.214 97.4616 193.334 97.2589 193.334ZM101.67 193.318C101.564 193.318 101.484 193.288 101.43 193.23C101.377 193.166 101.35 193.078 101.35 192.966V189.694C101.35 189.582 101.377 189.496 101.43 189.438C101.484 189.379 101.564 189.35 101.67 189.35C101.772 189.35 101.852 189.379 101.91 189.438C101.969 189.496 101.998 189.582 101.998 189.694V192.966C101.998 193.078 101.969 193.166 101.91 193.23C101.857 193.288 101.777 193.318 101.67 193.318ZM101.67 188.454C101.537 188.454 101.433 188.419 101.358 188.35C101.284 188.275 101.246 188.176 101.246 188.054C101.246 187.926 101.284 187.83 101.358 187.766C101.433 187.696 101.537 187.662 101.67 187.662C101.809 187.662 101.913 187.696 101.982 187.766C102.057 187.83 102.094 187.926 102.094 188.054C102.094 188.176 102.057 188.275 101.982 188.35C101.913 188.419 101.809 188.454 101.67 188.454ZM103.538 193.334C103.431 193.334 103.348 193.304 103.29 193.246C103.236 193.187 103.21 193.104 103.21 192.998V189.662C103.21 189.555 103.236 189.475 103.29 189.422C103.343 189.363 103.42 189.334 103.522 189.334C103.623 189.334 103.7 189.363 103.754 189.422C103.812 189.475 103.842 189.555 103.842 189.662V190.31H103.762C103.847 189.995 104.01 189.752 104.25 189.582C104.49 189.411 104.786 189.32 105.138 189.31C105.218 189.304 105.282 189.323 105.33 189.366C105.378 189.403 105.404 189.47 105.41 189.566C105.415 189.656 105.394 189.728 105.346 189.782C105.298 189.835 105.223 189.867 105.122 189.878L104.994 189.894C104.631 189.926 104.351 190.043 104.154 190.246C103.962 190.443 103.866 190.715 103.866 191.062V192.998C103.866 193.104 103.836 193.187 103.778 193.246C103.724 193.304 103.644 193.334 103.538 193.334ZM107.35 193.35C107.11 193.35 106.867 193.32 106.622 193.262C106.382 193.203 106.158 193.102 105.95 192.958C105.896 192.92 105.859 192.878 105.838 192.83C105.816 192.776 105.808 192.726 105.814 192.678C105.824 192.624 105.846 192.579 105.878 192.542C105.915 192.504 105.958 192.483 106.006 192.478C106.059 192.467 106.118 192.478 106.182 192.51C106.39 192.638 106.59 192.728 106.782 192.782C106.979 192.83 107.174 192.854 107.366 192.854C107.67 192.854 107.899 192.798 108.054 192.686C108.208 192.574 108.286 192.422 108.286 192.23C108.286 192.08 108.235 191.963 108.134 191.878C108.032 191.787 107.872 191.718 107.654 191.67L106.926 191.51C106.59 191.44 106.339 191.32 106.174 191.15C106.014 190.979 105.934 190.758 105.934 190.486C105.934 190.246 105.995 190.04 106.118 189.87C106.246 189.694 106.424 189.558 106.654 189.462C106.883 189.366 107.15 189.318 107.454 189.318C107.688 189.318 107.91 189.35 108.118 189.414C108.331 189.472 108.523 189.568 108.694 189.702C108.747 189.739 108.782 189.784 108.798 189.838C108.819 189.886 108.822 189.936 108.806 189.99C108.795 190.038 108.771 190.08 108.734 190.118C108.696 190.15 108.651 190.168 108.598 190.174C108.544 190.179 108.488 190.163 108.43 190.126C108.27 190.019 108.107 189.942 107.942 189.894C107.776 189.84 107.614 189.814 107.454 189.814C107.155 189.814 106.928 189.872 106.774 189.99C106.619 190.107 106.542 190.262 106.542 190.454C106.542 190.603 106.59 190.726 106.686 190.822C106.782 190.918 106.931 190.987 107.134 191.03L107.862 191.182C108.208 191.256 108.467 191.376 108.638 191.542C108.814 191.702 108.902 191.92 108.902 192.198C108.902 192.55 108.76 192.83 108.478 193.038C108.195 193.246 107.819 193.35 107.35 193.35ZM111.41 193.35C111.106 193.35 110.85 193.296 110.642 193.19C110.44 193.078 110.288 192.918 110.186 192.71C110.085 192.496 110.034 192.238 110.034 191.934V189.894H109.498C109.408 189.894 109.338 189.872 109.29 189.83C109.242 189.782 109.218 189.718 109.218 189.638C109.218 189.558 109.242 189.496 109.29 189.454C109.338 189.411 109.408 189.39 109.498 189.39H110.034V188.47C110.034 188.363 110.064 188.283 110.122 188.23C110.181 188.171 110.261 188.142 110.362 188.142C110.464 188.142 110.541 188.171 110.594 188.23C110.653 188.283 110.682 188.363 110.682 188.47V189.39H111.69C111.781 189.39 111.85 189.411 111.898 189.454C111.946 189.496 111.97 189.558 111.97 189.638C111.97 189.718 111.946 189.782 111.898 189.83C111.85 189.872 111.781 189.894 111.69 189.894H110.682V191.87C110.682 192.174 110.746 192.406 110.874 192.566C111.002 192.72 111.21 192.798 111.498 192.798C111.6 192.798 111.685 192.787 111.754 192.766C111.829 192.744 111.89 192.734 111.938 192.734C111.986 192.728 112.026 192.744 112.058 192.782C112.09 192.819 112.106 192.883 112.106 192.974C112.106 193.038 112.093 193.096 112.066 193.15C112.045 193.203 112.005 193.24 111.946 193.262C111.882 193.283 111.797 193.302 111.69 193.318C111.589 193.339 111.496 193.35 111.41 193.35ZM115.03 193.334C114.923 193.334 114.843 193.304 114.79 193.246C114.736 193.187 114.71 193.104 114.71 192.998V189.662C114.71 189.555 114.736 189.475 114.79 189.422C114.843 189.363 114.92 189.334 115.022 189.334C115.123 189.334 115.2 189.363 115.254 189.422C115.312 189.475 115.342 189.555 115.342 189.662V190.35L115.254 190.254C115.366 189.944 115.547 189.712 115.798 189.558C116.054 189.398 116.347 189.318 116.678 189.318C116.987 189.318 117.243 189.374 117.446 189.486C117.654 189.598 117.808 189.768 117.91 189.998C118.011 190.222 118.062 190.507 118.062 190.854V192.998C118.062 193.104 118.032 193.187 117.974 193.246C117.92 193.304 117.843 193.334 117.742 193.334C117.635 193.334 117.552 193.304 117.494 193.246C117.44 193.187 117.414 193.104 117.414 192.998V190.894C117.414 190.531 117.342 190.267 117.198 190.102C117.059 189.931 116.835 189.846 116.526 189.846C116.168 189.846 115.883 189.958 115.67 190.182C115.462 190.4 115.358 190.694 115.358 191.062V192.998C115.358 193.222 115.248 193.334 115.03 193.334ZM120.48 193.35C120.214 193.35 119.974 193.299 119.76 193.198C119.552 193.091 119.387 192.947 119.264 192.766C119.142 192.584 119.08 192.382 119.08 192.158C119.08 191.87 119.152 191.643 119.296 191.478C119.446 191.312 119.688 191.195 120.024 191.126C120.366 191.056 120.83 191.022 121.416 191.022H121.776V191.446H121.424C120.992 191.446 120.651 191.467 120.4 191.51C120.155 191.547 119.982 191.614 119.88 191.71C119.784 191.806 119.736 191.942 119.736 192.118C119.736 192.336 119.811 192.515 119.96 192.654C120.115 192.792 120.323 192.862 120.584 192.862C120.798 192.862 120.984 192.811 121.144 192.71C121.31 192.608 121.438 192.47 121.528 192.294C121.624 192.118 121.672 191.915 121.672 191.686V190.774C121.672 190.443 121.606 190.206 121.472 190.062C121.339 189.912 121.12 189.838 120.816 189.838C120.63 189.838 120.443 189.862 120.256 189.91C120.07 189.958 119.872 190.035 119.664 190.142C119.59 190.179 119.526 190.192 119.472 190.182C119.419 190.166 119.376 190.136 119.344 190.094C119.312 190.051 119.294 190.003 119.288 189.95C119.283 189.891 119.294 189.835 119.32 189.782C119.352 189.728 119.4 189.686 119.464 189.654C119.699 189.536 119.931 189.451 120.16 189.398C120.39 189.344 120.608 189.318 120.816 189.318C121.152 189.318 121.43 189.374 121.648 189.486C121.867 189.592 122.03 189.758 122.136 189.982C122.243 190.2 122.296 190.483 122.296 190.83V192.998C122.296 193.104 122.27 193.187 122.216 193.246C122.168 193.304 122.096 193.334 122 193.334C121.899 193.334 121.822 193.304 121.768 193.246C121.715 193.187 121.688 193.104 121.688 192.998V192.374H121.76C121.718 192.576 121.635 192.75 121.512 192.894C121.395 193.038 121.248 193.15 121.072 193.23C120.896 193.31 120.699 193.35 120.48 193.35ZM123.835 193.334C123.728 193.334 123.648 193.304 123.595 193.246C123.541 193.187 123.515 193.104 123.515 192.998V189.662C123.515 189.555 123.541 189.475 123.595 189.422C123.648 189.363 123.725 189.334 123.827 189.334C123.928 189.334 124.005 189.363 124.059 189.422C124.117 189.475 124.147 189.555 124.147 189.662V190.366L124.059 190.254C124.16 189.955 124.323 189.726 124.547 189.566C124.776 189.4 125.048 189.318 125.363 189.318C125.693 189.318 125.96 189.398 126.163 189.558C126.371 189.712 126.509 189.955 126.579 190.286H126.459C126.555 189.987 126.725 189.752 126.971 189.582C127.221 189.406 127.512 189.318 127.843 189.318C128.136 189.318 128.376 189.374 128.563 189.486C128.755 189.598 128.899 189.768 128.995 189.998C129.091 190.222 129.139 190.507 129.139 190.854V192.998C129.139 193.104 129.109 193.187 129.051 193.246C128.997 193.304 128.917 193.334 128.811 193.334C128.709 193.334 128.629 193.304 128.571 193.246C128.517 193.187 128.491 193.104 128.491 192.998V190.886C128.491 190.528 128.429 190.267 128.307 190.102C128.184 189.931 127.976 189.846 127.683 189.846C127.363 189.846 127.109 189.958 126.923 190.182C126.741 190.4 126.651 190.699 126.651 191.078V192.998C126.651 193.104 126.621 193.187 126.563 193.246C126.509 193.304 126.429 193.334 126.323 193.334C126.221 193.334 126.141 193.304 126.083 193.246C126.029 193.187 126.003 193.104 126.003 192.998V190.886C126.003 190.528 125.939 190.267 125.811 190.102C125.688 189.931 125.483 189.846 125.195 189.846C124.875 189.846 124.621 189.958 124.435 190.182C124.253 190.4 124.163 190.699 124.163 191.078V192.998C124.163 193.222 124.053 193.334 123.835 193.334ZM132.102 193.35C131.692 193.35 131.337 193.27 131.038 193.11C130.745 192.944 130.516 192.712 130.35 192.414C130.19 192.115 130.11 191.758 130.11 191.342C130.11 190.936 130.19 190.584 130.35 190.286C130.51 189.982 130.729 189.744 131.006 189.574C131.289 189.403 131.614 189.318 131.982 189.318C132.244 189.318 132.478 189.363 132.686 189.454C132.894 189.539 133.07 189.664 133.214 189.83C133.364 189.995 133.476 190.195 133.55 190.43C133.63 190.664 133.67 190.928 133.67 191.222C133.67 191.307 133.646 191.371 133.598 191.414C133.55 191.451 133.481 191.47 133.39 191.47H130.606V191.046H133.238L133.11 191.15C133.11 190.862 133.068 190.619 132.982 190.422C132.897 190.219 132.772 190.064 132.606 189.958C132.446 189.851 132.244 189.798 131.998 189.798C131.726 189.798 131.494 189.862 131.302 189.99C131.116 190.112 130.974 190.286 130.878 190.51C130.782 190.728 130.734 190.984 130.734 191.278V191.326C130.734 191.816 130.852 192.19 131.086 192.446C131.326 192.702 131.665 192.83 132.102 192.83C132.284 192.83 132.462 192.806 132.638 192.758C132.82 192.71 132.996 192.63 133.166 192.518C133.241 192.47 133.308 192.448 133.366 192.454C133.43 192.454 133.481 192.472 133.518 192.51C133.556 192.542 133.58 192.584 133.59 192.638C133.606 192.686 133.601 192.739 133.574 192.798C133.553 192.856 133.508 192.907 133.438 192.95C133.262 193.078 133.054 193.176 132.814 193.246C132.574 193.315 132.337 193.35 132.102 193.35Z" fill="#828282"/>
<rect x="90.3077" y="177.468" width="112.619" height="26.6189" rx="2.85806" stroke="#BDBDBD" stroke-width="0.381074"/>
<rect x="214.308" y="177.468" width="111.619" height="26.6189" rx="2.85806" fill="white"/>
<path d="M221.243 193.278C221.136 193.278 221.054 193.248 220.995 193.19C220.936 193.126 220.907 193.04 220.907 192.934V187.942C220.907 187.83 220.934 187.744 220.987 187.686C221.046 187.627 221.128 187.598 221.235 187.598C221.342 187.598 221.422 187.627 221.475 187.686C221.534 187.744 221.563 187.83 221.563 187.942V192.702H224.187C224.283 192.702 224.358 192.728 224.411 192.782C224.464 192.83 224.491 192.899 224.491 192.99C224.491 193.08 224.464 193.152 224.411 193.206C224.358 193.254 224.283 193.278 224.187 193.278H221.243ZM226.387 193.35C226.12 193.35 225.88 193.299 225.667 193.198C225.459 193.091 225.293 192.947 225.171 192.766C225.048 192.584 224.987 192.382 224.987 192.158C224.987 191.87 225.059 191.643 225.203 191.478C225.352 191.312 225.595 191.195 225.931 191.126C226.272 191.056 226.736 191.022 227.323 191.022H227.683V191.446H227.331C226.899 191.446 226.557 191.467 226.307 191.51C226.061 191.547 225.888 191.614 225.787 191.71C225.691 191.806 225.643 191.942 225.643 192.118C225.643 192.336 225.717 192.515 225.867 192.654C226.021 192.792 226.229 192.862 226.491 192.862C226.704 192.862 226.891 192.811 227.051 192.71C227.216 192.608 227.344 192.47 227.435 192.294C227.531 192.118 227.579 191.915 227.579 191.686V190.774C227.579 190.443 227.512 190.206 227.379 190.062C227.245 189.912 227.027 189.838 226.723 189.838C226.536 189.838 226.349 189.862 226.163 189.91C225.976 189.958 225.779 190.035 225.571 190.142C225.496 190.179 225.432 190.192 225.379 190.182C225.325 190.166 225.283 190.136 225.251 190.094C225.219 190.051 225.2 190.003 225.195 189.95C225.189 189.891 225.2 189.835 225.227 189.782C225.259 189.728 225.307 189.686 225.371 189.654C225.605 189.536 225.837 189.451 226.067 189.398C226.296 189.344 226.515 189.318 226.723 189.318C227.059 189.318 227.336 189.374 227.555 189.486C227.773 189.592 227.936 189.758 228.043 189.982C228.149 190.2 228.203 190.483 228.203 190.83V192.998C228.203 193.104 228.176 193.187 228.123 193.246C228.075 193.304 228.003 193.334 227.907 193.334C227.805 193.334 227.728 193.304 227.675 193.246C227.621 193.187 227.595 193.104 227.595 192.998V192.374H227.667C227.624 192.576 227.541 192.75 227.419 192.894C227.301 193.038 227.155 193.15 226.979 193.23C226.803 193.31 226.605 193.35 226.387 193.35ZM230.717 193.35C230.477 193.35 230.234 193.32 229.989 193.262C229.749 193.203 229.525 193.102 229.317 192.958C229.264 192.92 229.226 192.878 229.205 192.83C229.184 192.776 229.176 192.726 229.181 192.678C229.192 192.624 229.213 192.579 229.245 192.542C229.282 192.504 229.325 192.483 229.373 192.478C229.426 192.467 229.485 192.478 229.549 192.51C229.757 192.638 229.957 192.728 230.149 192.782C230.346 192.83 230.541 192.854 230.733 192.854C231.037 192.854 231.266 192.798 231.421 192.686C231.576 192.574 231.653 192.422 231.653 192.23C231.653 192.08 231.602 191.963 231.501 191.878C231.4 191.787 231.24 191.718 231.021 191.67L230.293 191.51C229.957 191.44 229.706 191.32 229.541 191.15C229.381 190.979 229.301 190.758 229.301 190.486C229.301 190.246 229.362 190.04 229.485 189.87C229.613 189.694 229.792 189.558 230.021 189.462C230.25 189.366 230.517 189.318 230.821 189.318C231.056 189.318 231.277 189.35 231.485 189.414C231.698 189.472 231.89 189.568 232.061 189.702C232.114 189.739 232.149 189.784 232.165 189.838C232.186 189.886 232.189 189.936 232.173 189.99C232.162 190.038 232.138 190.08 232.101 190.118C232.064 190.15 232.018 190.168 231.965 190.174C231.912 190.179 231.856 190.163 231.797 190.126C231.637 190.019 231.474 189.942 231.309 189.894C231.144 189.84 230.981 189.814 230.821 189.814C230.522 189.814 230.296 189.872 230.141 189.99C229.986 190.107 229.909 190.262 229.909 190.454C229.909 190.603 229.957 190.726 230.053 190.822C230.149 190.918 230.298 190.987 230.501 191.03L231.229 191.182C231.576 191.256 231.834 191.376 232.005 191.542C232.181 191.702 232.269 191.92 232.269 192.198C232.269 192.55 232.128 192.83 231.845 193.038C231.562 193.246 231.186 193.35 230.717 193.35ZM234.777 193.35C234.473 193.35 234.217 193.296 234.009 193.19C233.807 193.078 233.655 192.918 233.553 192.71C233.452 192.496 233.401 192.238 233.401 191.934V189.894H232.865C232.775 189.894 232.705 189.872 232.657 189.83C232.609 189.782 232.585 189.718 232.585 189.638C232.585 189.558 232.609 189.496 232.657 189.454C232.705 189.411 232.775 189.39 232.865 189.39H233.401V188.47C233.401 188.363 233.431 188.283 233.489 188.23C233.548 188.171 233.628 188.142 233.729 188.142C233.831 188.142 233.908 188.171 233.961 188.23C234.02 188.283 234.049 188.363 234.049 188.47V189.39H235.057C235.148 189.39 235.217 189.411 235.265 189.454C235.313 189.496 235.337 189.558 235.337 189.638C235.337 189.718 235.313 189.782 235.265 189.83C235.217 189.872 235.148 189.894 235.057 189.894H234.049V191.87C234.049 192.174 234.113 192.406 234.241 192.566C234.369 192.72 234.577 192.798 234.865 192.798C234.967 192.798 235.052 192.787 235.121 192.766C235.196 192.744 235.257 192.734 235.305 192.734C235.353 192.728 235.393 192.744 235.425 192.782C235.457 192.819 235.473 192.883 235.473 192.974C235.473 193.038 235.46 193.096 235.433 193.15C235.412 193.203 235.372 193.24 235.313 193.262C235.249 193.283 235.164 193.302 235.057 193.318C234.956 193.339 234.863 193.35 234.777 193.35ZM238.397 193.334C238.29 193.334 238.21 193.304 238.157 193.246C238.103 193.187 238.077 193.104 238.077 192.998V189.662C238.077 189.555 238.103 189.475 238.157 189.422C238.21 189.363 238.287 189.334 238.389 189.334C238.49 189.334 238.567 189.363 238.621 189.422C238.679 189.475 238.709 189.555 238.709 189.662V190.35L238.621 190.254C238.733 189.944 238.914 189.712 239.165 189.558C239.421 189.398 239.714 189.318 240.045 189.318C240.354 189.318 240.61 189.374 240.813 189.486C241.021 189.598 241.175 189.768 241.277 189.998C241.378 190.222 241.429 190.507 241.429 190.854V192.998C241.429 193.104 241.399 193.187 241.341 193.246C241.287 193.304 241.21 193.334 241.109 193.334C241.002 193.334 240.919 193.304 240.861 193.246C240.807 193.187 240.781 193.104 240.781 192.998V190.894C240.781 190.531 240.709 190.267 240.565 190.102C240.426 189.931 240.202 189.846 239.893 189.846C239.535 189.846 239.25 189.958 239.037 190.182C238.829 190.4 238.725 190.694 238.725 191.062V192.998C238.725 193.222 238.615 193.334 238.397 193.334ZM243.848 193.35C243.581 193.35 243.341 193.299 243.128 193.198C242.92 193.091 242.754 192.947 242.632 192.766C242.509 192.584 242.448 192.382 242.448 192.158C242.448 191.87 242.52 191.643 242.664 191.478C242.813 191.312 243.056 191.195 243.392 191.126C243.733 191.056 244.197 191.022 244.784 191.022H245.144V191.446H244.792C244.36 191.446 244.018 191.467 243.768 191.51C243.522 191.547 243.349 191.614 243.248 191.71C243.152 191.806 243.104 191.942 243.104 192.118C243.104 192.336 243.178 192.515 243.328 192.654C243.482 192.792 243.69 192.862 243.952 192.862C244.165 192.862 244.352 192.811 244.512 192.71C244.677 192.608 244.805 192.47 244.896 192.294C244.992 192.118 245.04 191.915 245.04 191.686V190.774C245.04 190.443 244.973 190.206 244.84 190.062C244.706 189.912 244.488 189.838 244.184 189.838C243.997 189.838 243.81 189.862 243.624 189.91C243.437 189.958 243.24 190.035 243.032 190.142C242.957 190.179 242.893 190.192 242.84 190.182C242.786 190.166 242.744 190.136 242.712 190.094C242.68 190.051 242.661 190.003 242.656 189.95C242.65 189.891 242.661 189.835 242.688 189.782C242.72 189.728 242.768 189.686 242.832 189.654C243.066 189.536 243.298 189.451 243.528 189.398C243.757 189.344 243.976 189.318 244.184 189.318C244.52 189.318 244.797 189.374 245.016 189.486C245.234 189.592 245.397 189.758 245.504 189.982C245.61 190.2 245.664 190.483 245.664 190.83V192.998C245.664 193.104 245.637 193.187 245.584 193.246C245.536 193.304 245.464 193.334 245.368 193.334C245.266 193.334 245.189 193.304 245.136 193.246C245.082 193.187 245.056 193.104 245.056 192.998V192.374H245.128C245.085 192.576 245.002 192.75 244.88 192.894C244.762 193.038 244.616 193.15 244.44 193.23C244.264 193.31 244.066 193.35 243.848 193.35ZM247.202 193.334C247.095 193.334 247.015 193.304 246.962 193.246C246.908 193.187 246.882 193.104 246.882 192.998V189.662C246.882 189.555 246.908 189.475 246.962 189.422C247.015 189.363 247.092 189.334 247.194 189.334C247.295 189.334 247.372 189.363 247.426 189.422C247.484 189.475 247.514 189.555 247.514 189.662V190.366L247.426 190.254C247.527 189.955 247.69 189.726 247.914 189.566C248.143 189.4 248.415 189.318 248.73 189.318C249.06 189.318 249.327 189.398 249.53 189.558C249.738 189.712 249.876 189.955 249.946 190.286H249.826C249.922 189.987 250.092 189.752 250.338 189.582C250.588 189.406 250.879 189.318 251.21 189.318C251.503 189.318 251.743 189.374 251.93 189.486C252.122 189.598 252.266 189.768 252.362 189.998C252.458 190.222 252.506 190.507 252.506 190.854V192.998C252.506 193.104 252.476 193.187 252.418 193.246C252.364 193.304 252.284 193.334 252.178 193.334C252.076 193.334 251.996 193.304 251.938 193.246C251.884 193.187 251.858 193.104 251.858 192.998V190.886C251.858 190.528 251.796 190.267 251.674 190.102C251.551 189.931 251.343 189.846 251.05 189.846C250.73 189.846 250.476 189.958 250.29 190.182C250.108 190.4 250.018 190.699 250.018 191.078V192.998C250.018 193.104 249.988 193.187 249.93 193.246C249.876 193.304 249.796 193.334 249.69 193.334C249.588 193.334 249.508 193.304 249.45 193.246C249.396 193.187 249.37 193.104 249.37 192.998V190.886C249.37 190.528 249.306 190.267 249.178 190.102C249.055 189.931 248.85 189.846 248.562 189.846C248.242 189.846 247.988 189.958 247.802 190.182C247.62 190.4 247.53 190.699 247.53 191.078V192.998C247.53 193.222 247.42 193.334 247.202 193.334ZM255.469 193.35C255.059 193.35 254.704 193.27 254.405 193.11C254.112 192.944 253.883 192.712 253.717 192.414C253.557 192.115 253.477 191.758 253.477 191.342C253.477 190.936 253.557 190.584 253.717 190.286C253.877 189.982 254.096 189.744 254.373 189.574C254.656 189.403 254.981 189.318 255.349 189.318C255.611 189.318 255.845 189.363 256.053 189.454C256.261 189.539 256.437 189.664 256.581 189.83C256.731 189.995 256.843 190.195 256.917 190.43C256.997 190.664 257.037 190.928 257.037 191.222C257.037 191.307 257.013 191.371 256.965 191.414C256.917 191.451 256.848 191.47 256.757 191.47H253.973V191.046H256.605L256.477 191.15C256.477 190.862 256.435 190.619 256.349 190.422C256.264 190.219 256.139 190.064 255.973 189.958C255.813 189.851 255.611 189.798 255.365 189.798C255.093 189.798 254.861 189.862 254.669 189.99C254.483 190.112 254.341 190.286 254.245 190.51C254.149 190.728 254.101 190.984 254.101 191.278V191.326C254.101 191.816 254.219 192.19 254.453 192.446C254.693 192.702 255.032 192.83 255.469 192.83C255.651 192.83 255.829 192.806 256.005 192.758C256.187 192.71 256.363 192.63 256.533 192.518C256.608 192.47 256.675 192.448 256.733 192.454C256.797 192.454 256.848 192.472 256.885 192.51C256.923 192.542 256.947 192.584 256.957 192.638C256.973 192.686 256.968 192.739 256.941 192.798C256.92 192.856 256.875 192.907 256.805 192.95C256.629 193.078 256.421 193.176 256.181 193.246C255.941 193.315 255.704 193.35 255.469 193.35Z" fill="#828282"/>
<rect x="214.308" y="177.468" width="111.619" height="26.6189" rx="2.85806" stroke="#BDBDBD" stroke-width="0.381074"/>
<rect x="90.3733" y="226.534" width="235.488" height="26.4878" rx="3.84153" fill="white"/>
<path d="M99.3685 242.278C99.2512 242.278 99.1605 242.248 99.0965 242.19C99.0378 242.126 99.0085 242.035 99.0085 241.918V236.998C99.0085 236.88 99.0378 236.792 99.0965 236.734C99.1605 236.67 99.2512 236.638 99.3685 236.638H102.345C102.435 236.638 102.505 236.662 102.553 236.71C102.601 236.758 102.625 236.824 102.625 236.91C102.625 237 102.601 237.07 102.553 237.118C102.505 237.166 102.435 237.19 102.345 237.19H99.6485V239.142H102.177C102.267 239.142 102.337 239.166 102.385 239.214C102.433 239.256 102.457 239.323 102.457 239.414C102.457 239.504 102.433 239.574 102.385 239.622C102.337 239.67 102.267 239.694 102.177 239.694H99.6485V241.726H102.345C102.435 241.726 102.505 241.75 102.553 241.798C102.601 241.846 102.625 241.912 102.625 241.998C102.625 242.088 102.601 242.158 102.553 242.206C102.505 242.254 102.435 242.278 102.345 242.278H99.3685ZM103.921 242.334C103.814 242.334 103.734 242.304 103.681 242.246C103.627 242.187 103.601 242.104 103.601 241.998V238.662C103.601 238.555 103.627 238.475 103.681 238.422C103.734 238.363 103.811 238.334 103.913 238.334C104.014 238.334 104.091 238.363 104.145 238.422C104.203 238.475 104.233 238.555 104.233 238.662V239.366L104.145 239.254C104.246 238.955 104.409 238.726 104.633 238.566C104.862 238.4 105.134 238.318 105.449 238.318C105.779 238.318 106.046 238.398 106.249 238.558C106.457 238.712 106.595 238.955 106.665 239.286H106.545C106.641 238.987 106.811 238.752 107.057 238.582C107.307 238.406 107.598 238.318 107.929 238.318C108.222 238.318 108.462 238.374 108.649 238.486C108.841 238.598 108.985 238.768 109.081 238.998C109.177 239.222 109.225 239.507 109.225 239.854V241.998C109.225 242.104 109.195 242.187 109.137 242.246C109.083 242.304 109.003 242.334 108.897 242.334C108.795 242.334 108.715 242.304 108.657 242.246C108.603 242.187 108.577 242.104 108.577 241.998V239.886C108.577 239.528 108.515 239.267 108.393 239.102C108.27 238.931 108.062 238.846 107.769 238.846C107.449 238.846 107.195 238.958 107.009 239.182C106.827 239.4 106.737 239.699 106.737 240.078V241.998C106.737 242.104 106.707 242.187 106.649 242.246C106.595 242.304 106.515 242.334 106.409 242.334C106.307 242.334 106.227 242.304 106.169 242.246C106.115 242.187 106.089 242.104 106.089 241.998V239.886C106.089 239.528 106.025 239.267 105.897 239.102C105.774 238.931 105.569 238.846 105.281 238.846C104.961 238.846 104.707 238.958 104.521 239.182C104.339 239.4 104.249 239.699 104.249 240.078V241.998C104.249 242.222 104.139 242.334 103.921 242.334ZM111.66 242.35C111.393 242.35 111.153 242.299 110.94 242.198C110.732 242.091 110.567 241.947 110.444 241.766C110.321 241.584 110.26 241.382 110.26 241.158C110.26 240.87 110.332 240.643 110.476 240.478C110.625 240.312 110.868 240.195 111.204 240.126C111.545 240.056 112.009 240.022 112.596 240.022H112.956V240.446H112.604C112.172 240.446 111.831 240.467 111.58 240.51C111.335 240.547 111.161 240.614 111.06 240.71C110.964 240.806 110.916 240.942 110.916 241.118C110.916 241.336 110.991 241.515 111.14 241.654C111.295 241.792 111.503 241.862 111.764 241.862C111.977 241.862 112.164 241.811 112.324 241.71C112.489 241.608 112.617 241.47 112.708 241.294C112.804 241.118 112.852 240.915 112.852 240.686V239.774C112.852 239.443 112.785 239.206 112.652 239.062C112.519 238.912 112.3 238.838 111.996 238.838C111.809 238.838 111.623 238.862 111.436 238.91C111.249 238.958 111.052 239.035 110.844 239.142C110.769 239.179 110.705 239.192 110.652 239.182C110.599 239.166 110.556 239.136 110.524 239.094C110.492 239.051 110.473 239.003 110.468 238.95C110.463 238.891 110.473 238.835 110.5 238.782C110.532 238.728 110.58 238.686 110.644 238.654C110.879 238.536 111.111 238.451 111.34 238.398C111.569 238.344 111.788 238.318 111.996 238.318C112.332 238.318 112.609 238.374 112.828 238.486C113.047 238.592 113.209 238.758 113.316 238.982C113.423 239.2 113.476 239.483 113.476 239.83V241.998C113.476 242.104 113.449 242.187 113.396 242.246C113.348 242.304 113.276 242.334 113.18 242.334C113.079 242.334 113.001 242.304 112.948 242.246C112.895 242.187 112.868 242.104 112.868 241.998V241.374H112.94C112.897 241.576 112.815 241.75 112.692 241.894C112.575 242.038 112.428 242.15 112.252 242.23C112.076 242.31 111.879 242.35 111.66 242.35ZM114.998 242.318C114.892 242.318 114.812 242.288 114.758 242.23C114.705 242.166 114.678 242.078 114.678 241.966V238.694C114.678 238.582 114.705 238.496 114.758 238.438C114.812 238.379 114.892 238.35 114.998 238.35C115.1 238.35 115.18 238.379 115.238 238.438C115.297 238.496 115.326 238.582 115.326 238.694V241.966C115.326 242.078 115.297 242.166 115.238 242.23C115.185 242.288 115.105 242.318 114.998 242.318ZM114.998 237.454C114.865 237.454 114.761 237.419 114.686 237.35C114.612 237.275 114.574 237.176 114.574 237.054C114.574 236.926 114.612 236.83 114.686 236.766C114.761 236.696 114.865 236.662 114.998 236.662C115.137 236.662 115.241 236.696 115.31 236.766C115.385 236.83 115.422 236.926 115.422 237.054C115.422 237.176 115.385 237.275 115.31 237.35C115.241 237.419 115.137 237.454 114.998 237.454ZM117.722 242.35C117.338 242.35 117.044 242.232 116.842 241.998C116.639 241.763 116.538 241.427 116.538 240.99V236.91C116.538 236.803 116.564 236.723 116.618 236.67C116.671 236.611 116.751 236.582 116.858 236.582C116.959 236.582 117.039 236.611 117.098 236.67C117.156 236.723 117.186 236.803 117.186 236.91V240.942C117.186 241.23 117.242 241.446 117.354 241.59C117.471 241.728 117.642 241.798 117.866 241.798C117.914 241.798 117.956 241.795 117.994 241.79C118.031 241.784 118.068 241.782 118.106 241.782C118.164 241.776 118.204 241.79 118.226 241.822C118.252 241.854 118.266 241.918 118.266 242.014C118.266 242.11 118.244 242.182 118.202 242.23C118.159 242.278 118.09 242.31 117.994 242.326C117.951 242.331 117.906 242.336 117.858 242.342C117.81 242.347 117.764 242.35 117.722 242.35ZM121.287 242.318C121.181 242.318 121.101 242.288 121.047 242.23C120.994 242.166 120.967 242.078 120.967 241.966V238.694C120.967 238.582 120.994 238.496 121.047 238.438C121.101 238.379 121.181 238.35 121.287 238.35C121.389 238.35 121.469 238.379 121.527 238.438C121.586 238.496 121.615 238.582 121.615 238.694V241.966C121.615 242.078 121.586 242.166 121.527 242.23C121.474 242.288 121.394 242.318 121.287 242.318ZM121.287 237.454C121.154 237.454 121.05 237.419 120.975 237.35C120.901 237.275 120.863 237.176 120.863 237.054C120.863 236.926 120.901 236.83 120.975 236.766C121.05 236.696 121.154 236.662 121.287 236.662C121.426 236.662 121.53 236.696 121.599 236.766C121.674 236.83 121.711 236.926 121.711 237.054C121.711 237.176 121.674 237.275 121.599 237.35C121.53 237.419 121.426 237.454 121.287 237.454ZM124.307 242.35C123.96 242.35 123.656 242.267 123.395 242.102C123.139 241.936 122.939 241.704 122.795 241.406C122.656 241.102 122.587 240.744 122.587 240.334C122.587 239.918 122.656 239.56 122.795 239.262C122.939 238.958 123.139 238.726 123.395 238.566C123.656 238.4 123.96 238.318 124.307 238.318C124.659 238.318 124.96 238.406 125.211 238.582C125.461 238.758 125.629 238.995 125.715 239.294H125.627V236.91C125.627 236.803 125.653 236.723 125.707 236.67C125.765 236.611 125.848 236.582 125.955 236.582C126.056 236.582 126.133 236.611 126.187 236.67C126.245 236.723 126.275 236.803 126.275 236.91V241.998C126.275 242.104 126.248 242.187 126.195 242.246C126.141 242.304 126.061 242.334 125.955 242.334C125.853 242.334 125.773 242.304 125.715 242.246C125.661 242.187 125.635 242.104 125.635 241.998V241.238L125.723 241.35C125.637 241.654 125.467 241.896 125.211 242.078C124.96 242.259 124.659 242.35 124.307 242.35ZM124.443 241.83C124.683 241.83 124.893 241.771 125.075 241.654C125.256 241.536 125.395 241.366 125.491 241.142C125.592 240.918 125.643 240.648 125.643 240.334C125.643 239.848 125.533 239.478 125.315 239.222C125.101 238.966 124.811 238.838 124.443 238.838C124.197 238.838 123.984 238.896 123.803 239.014C123.627 239.126 123.488 239.294 123.387 239.518C123.291 239.736 123.243 240.008 123.243 240.334C123.243 240.814 123.352 241.184 123.571 241.446C123.789 241.702 124.08 241.83 124.443 241.83Z" fill="#828282"/>
<rect x="90.3733" y="226.534" width="235.488" height="26.4878" rx="3.84153" stroke="#BDBDBD" stroke-width="0.512205"/>
<rect x="91.3315" y="275.471" width="235.618" height="26.6152" rx="2.86299" fill="white" stroke="#BDBDBD" stroke-width="0.381732"/>
<line x1="138.223" y1="302.278" x2="138.223" y2="275.278" stroke="#BDBDBD" stroke-width="0.381732"/>
<path d="M129.547 286.943L131.836 290.612L134.125 286.943H129.547Z" fill="#BDBDBD"/>
<path d="M145.639 290.799C145.555 290.799 145.49 290.775 145.443 290.729C145.396 290.677 145.373 290.607 145.373 290.519V286.046C145.373 285.952 145.396 285.882 145.443 285.836C145.49 285.789 145.555 285.766 145.639 285.766C145.714 285.766 145.772 285.782 145.814 285.815C145.861 285.843 145.903 285.892 145.94 285.962L147.858 289.574H147.648L149.559 285.962C149.596 285.892 149.636 285.843 149.678 285.815C149.72 285.782 149.781 285.766 149.86 285.766C149.939 285.766 150.002 285.789 150.049 285.836C150.096 285.882 150.119 285.952 150.119 286.046V290.519C150.119 290.607 150.096 290.677 150.049 290.729C150.007 290.775 149.942 290.799 149.853 290.799C149.769 290.799 149.704 290.775 149.657 290.729C149.61 290.677 149.587 290.607 149.587 290.519V286.585H149.755L148.005 289.868C147.972 289.928 147.937 289.973 147.9 290.001C147.867 290.024 147.818 290.036 147.753 290.036C147.688 290.036 147.636 290.022 147.599 289.994C147.562 289.966 147.529 289.924 147.501 289.868L145.73 286.578H145.898V290.519C145.898 290.607 145.875 290.677 145.828 290.729C145.786 290.775 145.723 290.799 145.639 290.799ZM152.684 290.813C152.353 290.813 152.066 290.74 151.823 290.596C151.581 290.451 151.392 290.248 151.256 289.987C151.126 289.721 151.06 289.408 151.06 289.049C151.06 288.778 151.098 288.535 151.172 288.321C151.247 288.101 151.357 287.915 151.501 287.761C151.646 287.607 151.816 287.49 152.012 287.411C152.213 287.327 152.437 287.285 152.684 287.285C153.016 287.285 153.303 287.357 153.545 287.502C153.788 287.646 153.975 287.852 154.105 288.118C154.241 288.379 154.308 288.689 154.308 289.049C154.308 289.319 154.271 289.562 154.196 289.777C154.122 289.991 154.012 290.178 153.867 290.337C153.723 290.491 153.55 290.61 153.349 290.694C153.153 290.773 152.932 290.813 152.684 290.813ZM152.684 290.358C152.894 290.358 153.079 290.306 153.237 290.204C153.396 290.101 153.517 289.952 153.601 289.756C153.69 289.56 153.734 289.324 153.734 289.049C153.734 288.624 153.639 288.3 153.447 288.076C153.261 287.852 153.006 287.74 152.684 287.74C152.47 287.74 152.283 287.791 152.124 287.894C151.97 287.992 151.849 288.139 151.76 288.335C151.676 288.526 151.634 288.764 151.634 289.049C151.634 289.469 151.73 289.793 151.921 290.022C152.113 290.246 152.367 290.358 152.684 290.358ZM156.882 290.813C156.574 290.813 156.308 290.733 156.084 290.575C155.865 290.416 155.718 290.204 155.643 289.938L155.72 289.861V290.505C155.72 290.598 155.694 290.67 155.643 290.722C155.596 290.773 155.529 290.799 155.44 290.799C155.347 290.799 155.277 290.773 155.23 290.722C155.183 290.67 155.16 290.598 155.16 290.505V286.053C155.16 285.959 155.183 285.889 155.23 285.843C155.277 285.791 155.347 285.766 155.44 285.766C155.529 285.766 155.599 285.791 155.65 285.843C155.701 285.889 155.727 285.959 155.727 286.053V288.139H155.643C155.722 287.877 155.872 287.67 156.091 287.516C156.31 287.362 156.574 287.285 156.882 287.285C157.19 287.285 157.456 287.357 157.68 287.502C157.904 287.642 158.077 287.845 158.198 288.111C158.324 288.372 158.387 288.685 158.387 289.049C158.387 289.408 158.324 289.721 158.198 289.987C158.077 290.248 157.902 290.451 157.673 290.596C157.449 290.74 157.185 290.813 156.882 290.813ZM156.763 290.358C156.978 290.358 157.162 290.306 157.316 290.204C157.475 290.101 157.596 289.952 157.68 289.756C157.769 289.56 157.813 289.324 157.813 289.049C157.813 288.624 157.717 288.3 157.526 288.076C157.339 287.852 157.085 287.74 156.763 287.74C156.553 287.74 156.369 287.791 156.21 287.894C156.051 287.992 155.928 288.139 155.839 288.335C155.755 288.526 155.713 288.764 155.713 289.049C155.713 289.469 155.809 289.793 156 290.022C156.191 290.246 156.446 290.358 156.763 290.358ZM159.521 290.785C159.428 290.785 159.358 290.759 159.311 290.708C159.264 290.652 159.241 290.575 159.241 290.477V287.614C159.241 287.516 159.264 287.441 159.311 287.39C159.358 287.338 159.428 287.313 159.521 287.313C159.61 287.313 159.68 287.338 159.731 287.39C159.782 287.441 159.808 287.516 159.808 287.614V290.477C159.808 290.575 159.782 290.652 159.731 290.708C159.684 290.759 159.614 290.785 159.521 290.785ZM159.521 286.529C159.404 286.529 159.313 286.498 159.248 286.438C159.183 286.372 159.15 286.286 159.15 286.179C159.15 286.067 159.183 285.983 159.248 285.927C159.313 285.866 159.404 285.836 159.521 285.836C159.642 285.836 159.733 285.866 159.794 285.927C159.859 285.983 159.892 286.067 159.892 286.179C159.892 286.286 159.859 286.372 159.794 286.438C159.733 286.498 159.642 286.529 159.521 286.529ZM161.904 290.813C161.568 290.813 161.311 290.71 161.134 290.505C160.957 290.299 160.868 290.005 160.868 289.623V286.053C160.868 285.959 160.891 285.889 160.938 285.843C160.985 285.791 161.055 285.766 161.148 285.766C161.237 285.766 161.307 285.791 161.358 285.843C161.409 285.889 161.435 285.959 161.435 286.053V289.581C161.435 289.833 161.484 290.022 161.582 290.148C161.685 290.269 161.834 290.33 162.03 290.33C162.072 290.33 162.109 290.327 162.142 290.323C162.175 290.318 162.207 290.316 162.24 290.316C162.291 290.311 162.326 290.323 162.345 290.351C162.368 290.379 162.38 290.435 162.38 290.519C162.38 290.603 162.361 290.666 162.324 290.708C162.287 290.75 162.226 290.778 162.142 290.792C162.105 290.796 162.065 290.801 162.023 290.806C161.981 290.81 161.941 290.813 161.904 290.813ZM164.438 290.813C164.079 290.813 163.768 290.743 163.507 290.603C163.25 290.458 163.05 290.255 162.905 289.994C162.765 289.732 162.695 289.42 162.695 289.056C162.695 288.701 162.765 288.393 162.905 288.132C163.045 287.866 163.236 287.658 163.479 287.509C163.726 287.359 164.011 287.285 164.333 287.285C164.562 287.285 164.767 287.324 164.949 287.404C165.131 287.478 165.285 287.588 165.411 287.733C165.542 287.877 165.64 288.052 165.705 288.258C165.775 288.463 165.81 288.694 165.81 288.951C165.81 289.025 165.789 289.081 165.747 289.119C165.705 289.151 165.644 289.168 165.565 289.168H163.129V288.797H165.432L165.32 288.888C165.32 288.636 165.283 288.423 165.208 288.251C165.133 288.073 165.024 287.938 164.879 287.845C164.739 287.751 164.562 287.705 164.347 287.705C164.109 287.705 163.906 287.761 163.738 287.873C163.575 287.98 163.451 288.132 163.367 288.328C163.283 288.519 163.241 288.743 163.241 289V289.042C163.241 289.471 163.344 289.798 163.549 290.022C163.759 290.246 164.055 290.358 164.438 290.358C164.597 290.358 164.753 290.337 164.907 290.295C165.066 290.253 165.22 290.183 165.369 290.085C165.434 290.043 165.493 290.024 165.544 290.029C165.6 290.029 165.644 290.045 165.677 290.078C165.71 290.106 165.731 290.143 165.74 290.19C165.754 290.232 165.749 290.278 165.726 290.33C165.707 290.381 165.668 290.425 165.607 290.463C165.453 290.575 165.271 290.661 165.061 290.722C164.851 290.782 164.643 290.813 164.438 290.813ZM168.715 290.799C168.622 290.799 168.552 290.773 168.505 290.722C168.459 290.67 168.435 290.598 168.435 290.505V287.586C168.435 287.492 168.459 287.422 168.505 287.376C168.552 287.324 168.62 287.299 168.708 287.299C168.797 287.299 168.865 287.324 168.911 287.376C168.963 287.422 168.988 287.492 168.988 287.586V288.188L168.911 288.104C169.009 287.833 169.168 287.63 169.387 287.495C169.611 287.355 169.868 287.285 170.157 287.285C170.428 287.285 170.652 287.334 170.829 287.432C171.011 287.53 171.147 287.679 171.235 287.88C171.324 288.076 171.368 288.325 171.368 288.629V290.505C171.368 290.598 171.343 290.67 171.291 290.722C171.245 290.773 171.177 290.799 171.088 290.799C170.995 290.799 170.923 290.773 170.871 290.722C170.825 290.67 170.801 290.598 170.801 290.505V288.664C170.801 288.346 170.738 288.115 170.612 287.971C170.491 287.821 170.295 287.747 170.024 287.747C169.712 287.747 169.462 287.845 169.275 288.041C169.093 288.232 169.002 288.489 169.002 288.811V290.505C169.002 290.701 168.907 290.799 168.715 290.799ZM173.618 290.813C173.343 290.813 173.114 290.764 172.932 290.666C172.755 290.563 172.619 290.411 172.526 290.211C172.437 290.01 172.393 289.76 172.393 289.462V287.586C172.393 287.488 172.416 287.415 172.463 287.369C172.514 287.322 172.584 287.299 172.673 287.299C172.766 287.299 172.836 287.322 172.883 287.369C172.934 287.415 172.96 287.488 172.96 287.586V289.455C172.96 289.753 173.021 289.977 173.142 290.127C173.268 290.271 173.464 290.344 173.73 290.344C174.019 290.344 174.255 290.246 174.437 290.05C174.619 289.854 174.71 289.597 174.71 289.28V287.586C174.71 287.488 174.733 287.415 174.78 287.369C174.831 287.322 174.904 287.299 174.997 287.299C175.086 287.299 175.153 287.322 175.2 287.369C175.251 287.415 175.277 287.488 175.277 287.586V290.505C175.277 290.701 175.186 290.799 175.004 290.799C174.915 290.799 174.845 290.773 174.794 290.722C174.747 290.67 174.724 290.598 174.724 290.505V289.868L174.815 289.966C174.722 290.241 174.568 290.451 174.353 290.596C174.143 290.74 173.898 290.813 173.618 290.813ZM176.632 290.799C176.538 290.799 176.468 290.773 176.422 290.722C176.375 290.67 176.352 290.598 176.352 290.505V287.586C176.352 287.492 176.375 287.422 176.422 287.376C176.468 287.324 176.536 287.299 176.625 287.299C176.713 287.299 176.781 287.324 176.828 287.376C176.879 287.422 176.905 287.492 176.905 287.586V288.202L176.828 288.104C176.916 287.842 177.059 287.642 177.255 287.502C177.455 287.357 177.693 287.285 177.969 287.285C178.258 287.285 178.491 287.355 178.669 287.495C178.851 287.63 178.972 287.842 179.033 288.132H178.928C179.012 287.87 179.161 287.665 179.376 287.516C179.595 287.362 179.849 287.285 180.139 287.285C180.395 287.285 180.605 287.334 180.769 287.432C180.937 287.53 181.063 287.679 181.147 287.88C181.231 288.076 181.273 288.325 181.273 288.629V290.505C181.273 290.598 181.247 290.67 181.196 290.722C181.149 290.773 181.079 290.799 180.986 290.799C180.897 290.799 180.827 290.773 180.776 290.722C180.729 290.67 180.706 290.598 180.706 290.505V288.657C180.706 288.344 180.652 288.115 180.545 287.971C180.437 287.821 180.255 287.747 179.999 287.747C179.719 287.747 179.497 287.845 179.334 288.041C179.175 288.232 179.096 288.493 179.096 288.825V290.505C179.096 290.598 179.07 290.67 179.019 290.722C178.972 290.773 178.902 290.799 178.809 290.799C178.72 290.799 178.65 290.773 178.599 290.722C178.552 290.67 178.529 290.598 178.529 290.505V288.657C178.529 288.344 178.473 288.115 178.361 287.971C178.253 287.821 178.074 287.747 177.822 287.747C177.542 287.747 177.32 287.845 177.157 288.041C176.998 288.232 176.919 288.493 176.919 288.825V290.505C176.919 290.701 176.823 290.799 176.632 290.799ZM184.055 290.813C183.747 290.813 183.481 290.733 183.257 290.575C183.037 290.416 182.89 290.204 182.816 289.938L182.893 289.861V290.505C182.893 290.598 182.867 290.67 182.816 290.722C182.769 290.773 182.701 290.799 182.613 290.799C182.519 290.799 182.449 290.773 182.403 290.722C182.356 290.67 182.333 290.598 182.333 290.505V286.053C182.333 285.959 182.356 285.889 182.403 285.843C182.449 285.791 182.519 285.766 182.613 285.766C182.701 285.766 182.771 285.791 182.823 285.843C182.874 285.889 182.9 285.959 182.9 286.053V288.139H182.816C182.895 287.877 183.044 287.67 183.264 287.516C183.483 287.362 183.747 287.285 184.055 287.285C184.363 287.285 184.629 287.357 184.853 287.502C185.077 287.642 185.249 287.845 185.371 288.111C185.497 288.372 185.56 288.685 185.56 289.049C185.56 289.408 185.497 289.721 185.371 289.987C185.249 290.248 185.074 290.451 184.846 290.596C184.622 290.74 184.358 290.813 184.055 290.813ZM183.936 290.358C184.15 290.358 184.335 290.306 184.489 290.204C184.647 290.101 184.769 289.952 184.853 289.756C184.941 289.56 184.986 289.324 184.986 289.049C184.986 288.624 184.89 288.3 184.699 288.076C184.512 287.852 184.258 287.74 183.936 287.74C183.726 287.74 183.541 287.791 183.383 287.894C183.224 287.992 183.1 288.139 183.012 288.335C182.928 288.526 182.886 288.764 182.886 289.049C182.886 289.469 182.981 289.793 183.173 290.022C183.364 290.246 183.618 290.358 183.936 290.358ZM187.947 290.813C187.588 290.813 187.277 290.743 187.016 290.603C186.759 290.458 186.559 290.255 186.414 289.994C186.274 289.732 186.204 289.42 186.204 289.056C186.204 288.701 186.274 288.393 186.414 288.132C186.554 287.866 186.745 287.658 186.988 287.509C187.235 287.359 187.52 287.285 187.842 287.285C188.071 287.285 188.276 287.324 188.458 287.404C188.64 287.478 188.794 287.588 188.92 287.733C189.051 287.877 189.149 288.052 189.214 288.258C189.284 288.463 189.319 288.694 189.319 288.951C189.319 289.025 189.298 289.081 189.256 289.119C189.214 289.151 189.153 289.168 189.074 289.168H186.638V288.797H188.941L188.829 288.888C188.829 288.636 188.792 288.423 188.717 288.251C188.642 288.073 188.533 287.938 188.388 287.845C188.248 287.751 188.071 287.705 187.856 287.705C187.618 287.705 187.415 287.761 187.247 287.873C187.084 287.98 186.96 288.132 186.876 288.328C186.792 288.519 186.75 288.743 186.75 289V289.042C186.75 289.471 186.853 289.798 187.058 290.022C187.268 290.246 187.564 290.358 187.947 290.358C188.106 290.358 188.262 290.337 188.416 290.295C188.575 290.253 188.729 290.183 188.878 290.085C188.943 290.043 189.002 290.024 189.053 290.029C189.109 290.029 189.153 290.045 189.186 290.078C189.219 290.106 189.24 290.143 189.249 290.19C189.263 290.232 189.258 290.278 189.235 290.33C189.216 290.381 189.177 290.425 189.116 290.463C188.962 290.575 188.78 290.661 188.57 290.722C188.36 290.782 188.152 290.813 187.947 290.813ZM190.426 290.799C190.333 290.799 190.261 290.773 190.209 290.722C190.163 290.67 190.139 290.598 190.139 290.505V287.586C190.139 287.492 190.163 287.422 190.209 287.376C190.256 287.324 190.324 287.299 190.412 287.299C190.501 287.299 190.569 287.324 190.615 287.376C190.667 287.422 190.692 287.492 190.692 287.586V288.153H190.622C190.697 287.877 190.839 287.665 191.049 287.516C191.259 287.366 191.518 287.287 191.826 287.278C191.896 287.273 191.952 287.289 191.994 287.327C192.036 287.359 192.06 287.418 192.064 287.502C192.069 287.581 192.05 287.644 192.008 287.691C191.966 287.737 191.901 287.765 191.812 287.775L191.7 287.789C191.383 287.817 191.138 287.919 190.965 288.097C190.797 288.269 190.713 288.507 190.713 288.811V290.505C190.713 290.598 190.688 290.67 190.636 290.722C190.59 290.773 190.52 290.799 190.426 290.799Z" fill="#828282"/>
<path d="M97.8696 289.792C97.7896 289.792 97.7276 289.77 97.6836 289.726C97.6436 289.678 97.6236 289.614 97.6236 289.534V285.736C97.6236 285.652 97.6436 285.588 97.6836 285.544C97.7276 285.5 97.7896 285.478 97.8696 285.478C97.9496 285.478 98.0096 285.5 98.0496 285.544C98.0936 285.588 98.1156 285.652 98.1156 285.736V289.534C98.1156 289.614 98.0956 289.678 98.0556 289.726C98.0156 289.77 97.9536 289.792 97.8696 289.792ZM99.3386 289.792C99.2586 289.792 99.1986 289.77 99.1586 289.726C99.1186 289.682 99.0986 289.62 99.0986 289.54V287.038C99.0986 286.958 99.1186 286.898 99.1586 286.858C99.1986 286.814 99.2566 286.792 99.3326 286.792C99.4086 286.792 99.4666 286.814 99.5066 286.858C99.5506 286.898 99.5726 286.958 99.5726 287.038V287.554L99.5066 287.482C99.5906 287.25 99.7266 287.076 99.9146 286.96C100.107 286.84 100.327 286.78 100.575 286.78C100.807 286.78 100.999 286.822 101.151 286.906C101.307 286.99 101.423 287.118 101.499 287.29C101.575 287.458 101.613 287.672 101.613 287.932V289.54C101.613 289.62 101.591 289.682 101.547 289.726C101.507 289.77 101.449 289.792 101.373 289.792C101.293 289.792 101.231 289.77 101.187 289.726C101.147 289.682 101.127 289.62 101.127 289.54V287.962C101.127 287.69 101.073 287.492 100.965 287.368C100.861 287.24 100.693 287.176 100.461 287.176C100.193 287.176 99.9786 287.26 99.8186 287.428C99.6626 287.592 99.5846 287.812 99.5846 288.088V289.54C99.5846 289.708 99.5026 289.792 99.3386 289.792ZM103.619 289.804C103.359 289.804 103.131 289.742 102.935 289.618C102.743 289.494 102.593 289.32 102.485 289.096C102.381 288.868 102.329 288.6 102.329 288.292C102.329 287.98 102.381 287.712 102.485 287.488C102.593 287.26 102.743 287.086 102.935 286.966C103.131 286.842 103.359 286.78 103.619 286.78C103.883 286.78 104.109 286.846 104.297 286.978C104.485 287.11 104.611 287.288 104.675 287.512H104.609V285.724C104.609 285.644 104.629 285.584 104.669 285.544C104.713 285.5 104.775 285.478 104.855 285.478C104.931 285.478 104.989 285.5 105.029 285.544C105.073 285.584 105.095 285.644 105.095 285.724V289.54C105.095 289.62 105.075 289.682 105.035 289.726C104.995 289.77 104.935 289.792 104.855 289.792C104.779 289.792 104.719 289.77 104.675 289.726C104.635 289.682 104.615 289.62 104.615 289.54V288.97L104.681 289.054C104.617 289.282 104.489 289.464 104.297 289.6C104.109 289.736 103.883 289.804 103.619 289.804ZM103.721 289.414C103.901 289.414 104.059 289.37 104.195 289.282C104.331 289.194 104.435 289.066 104.507 288.898C104.583 288.73 104.621 288.528 104.621 288.292C104.621 287.928 104.539 287.65 104.375 287.458C104.215 287.266 103.997 287.17 103.721 287.17C103.537 287.17 103.377 287.214 103.241 287.302C103.109 287.386 103.005 287.512 102.929 287.68C102.857 287.844 102.821 288.048 102.821 288.292C102.821 288.652 102.903 288.93 103.067 289.126C103.231 289.318 103.449 289.414 103.721 289.414ZM106.247 289.78C106.167 289.78 106.107 289.758 106.067 289.714C106.027 289.666 106.007 289.6 106.007 289.516V287.062C106.007 286.978 106.027 286.914 106.067 286.87C106.107 286.826 106.167 286.804 106.247 286.804C106.323 286.804 106.383 286.826 106.427 286.87C106.471 286.914 106.493 286.978 106.493 287.062V289.516C106.493 289.6 106.471 289.666 106.427 289.714C106.387 289.758 106.327 289.78 106.247 289.78ZM106.247 286.132C106.147 286.132 106.069 286.106 106.013 286.054C105.957 285.998 105.929 285.924 105.929 285.832C105.929 285.736 105.957 285.664 106.013 285.616C106.069 285.564 106.147 285.538 106.247 285.538C106.351 285.538 106.429 285.564 106.481 285.616C106.537 285.664 106.565 285.736 106.565 285.832C106.565 285.924 106.537 285.998 106.481 286.054C106.429 286.106 106.351 286.132 106.247 286.132ZM108.319 289.804C108.119 289.804 107.939 289.766 107.779 289.69C107.623 289.61 107.499 289.502 107.407 289.366C107.315 289.23 107.269 289.078 107.269 288.91C107.269 288.694 107.323 288.524 107.431 288.4C107.543 288.276 107.725 288.188 107.977 288.136C108.233 288.084 108.581 288.058 109.021 288.058H109.291V288.376H109.027C108.703 288.376 108.447 288.392 108.259 288.424C108.075 288.452 107.945 288.502 107.869 288.574C107.797 288.646 107.761 288.748 107.761 288.88C107.761 289.044 107.817 289.178 107.929 289.282C108.045 289.386 108.201 289.438 108.397 289.438C108.557 289.438 108.697 289.4 108.817 289.324C108.941 289.248 109.037 289.144 109.105 289.012C109.177 288.88 109.213 288.728 109.213 288.556V287.872C109.213 287.624 109.163 287.446 109.063 287.338C108.963 287.226 108.799 287.17 108.571 287.17C108.431 287.17 108.291 287.188 108.151 287.224C108.011 287.26 107.863 287.318 107.707 287.398C107.651 287.426 107.603 287.436 107.563 287.428C107.523 287.416 107.491 287.394 107.467 287.362C107.443 287.33 107.429 287.294 107.425 287.254C107.421 287.21 107.429 287.168 107.449 287.128C107.473 287.088 107.509 287.056 107.557 287.032C107.733 286.944 107.907 286.88 108.079 286.84C108.251 286.8 108.415 286.78 108.571 286.78C108.823 286.78 109.031 286.822 109.195 286.906C109.359 286.986 109.481 287.11 109.561 287.278C109.641 287.442 109.681 287.654 109.681 287.914V289.54C109.681 289.62 109.661 289.682 109.621 289.726C109.585 289.77 109.531 289.792 109.459 289.792C109.383 289.792 109.325 289.77 109.285 289.726C109.245 289.682 109.225 289.62 109.225 289.54V289.072H109.279C109.247 289.224 109.185 289.354 109.093 289.462C109.005 289.57 108.895 289.654 108.763 289.714C108.631 289.774 108.483 289.804 108.319 289.804ZM112.934 290.764C112.71 290.352 112.546 289.93 112.442 289.498C112.338 289.062 112.286 288.62 112.286 288.172C112.286 287.872 112.308 287.576 112.352 287.284C112.4 286.992 112.472 286.704 112.568 286.42C112.664 286.136 112.786 285.856 112.934 285.58C112.962 285.528 113 285.496 113.048 285.484C113.1 285.472 113.148 285.476 113.192 285.496C113.24 285.512 113.274 285.546 113.294 285.598C113.314 285.646 113.31 285.708 113.282 285.784C113.178 286.048 113.09 286.312 113.018 286.576C112.946 286.84 112.892 287.104 112.856 287.368C112.82 287.632 112.802 287.9 112.802 288.172C112.802 288.444 112.82 288.712 112.856 288.976C112.896 289.24 112.952 289.502 113.024 289.762C113.096 290.026 113.182 290.292 113.282 290.56C113.314 290.636 113.318 290.698 113.294 290.746C113.274 290.798 113.24 290.832 113.192 290.848C113.148 290.868 113.1 290.872 113.048 290.86C113 290.848 112.962 290.816 112.934 290.764ZM115.378 289.552C115.314 289.552 115.266 289.534 115.234 289.498C115.202 289.462 115.186 289.414 115.186 289.354V288.214H114.064C114.004 288.214 113.956 288.198 113.92 288.166C113.888 288.134 113.872 288.088 113.872 288.028C113.872 287.968 113.888 287.922 113.92 287.89C113.956 287.858 114.004 287.842 114.064 287.842H115.186V286.738C115.186 286.674 115.202 286.626 115.234 286.594C115.266 286.558 115.314 286.54 115.378 286.54C115.442 286.54 115.49 286.558 115.522 286.594C115.554 286.626 115.57 286.674 115.57 286.738V287.842H116.692C116.752 287.842 116.798 287.858 116.83 287.89C116.866 287.922 116.884 287.968 116.884 288.028C116.884 288.088 116.866 288.134 116.83 288.166C116.798 288.198 116.752 288.214 116.692 288.214H115.57V289.354C115.57 289.414 115.554 289.462 115.522 289.498C115.49 289.534 115.442 289.552 115.378 289.552ZM118.682 289.804C118.502 289.804 118.314 289.768 118.118 289.696C117.922 289.624 117.75 289.52 117.602 289.384C117.558 289.352 117.53 289.314 117.518 289.27C117.51 289.226 117.512 289.184 117.524 289.144C117.536 289.1 117.556 289.064 117.584 289.036C117.616 289.004 117.654 288.988 117.698 288.988C117.742 288.984 117.788 289 117.836 289.036C117.972 289.152 118.112 289.236 118.256 289.288C118.4 289.34 118.546 289.366 118.694 289.366C118.954 289.366 119.174 289.302 119.354 289.174C119.538 289.046 119.676 288.852 119.768 288.592C119.864 288.332 119.912 288.01 119.912 287.626V287.068H119.966C119.942 287.292 119.874 287.488 119.762 287.656C119.654 287.824 119.514 287.952 119.342 288.04C119.17 288.128 118.976 288.172 118.76 288.172C118.512 288.172 118.292 288.116 118.1 288.004C117.908 287.892 117.758 287.734 117.65 287.53C117.542 287.326 117.488 287.096 117.488 286.84C117.488 286.572 117.544 286.336 117.656 286.132C117.772 285.924 117.93 285.762 118.13 285.646C118.334 285.526 118.568 285.466 118.832 285.466C119.164 285.466 119.446 285.548 119.678 285.712C119.914 285.872 120.092 286.106 120.212 286.414C120.332 286.722 120.392 287.094 120.392 287.53C120.392 287.898 120.354 288.222 120.278 288.502C120.202 288.782 120.09 289.02 119.942 289.216C119.794 289.408 119.614 289.554 119.402 289.654C119.19 289.754 118.95 289.804 118.682 289.804ZM118.862 287.758C119.042 287.758 119.2 287.718 119.336 287.638C119.472 287.558 119.578 287.448 119.654 287.308C119.73 287.164 119.768 287 119.768 286.816C119.768 286.632 119.73 286.47 119.654 286.33C119.578 286.19 119.472 286.08 119.336 286C119.2 285.92 119.042 285.88 118.862 285.88C118.686 285.88 118.53 285.92 118.394 286C118.262 286.08 118.156 286.19 118.076 286.33C118 286.47 117.962 286.632 117.962 286.816C117.962 287 118 287.164 118.076 287.308C118.156 287.448 118.262 287.558 118.394 287.638C118.53 287.718 118.686 287.758 118.862 287.758ZM121.703 289.75C121.631 289.75 121.575 289.732 121.535 289.696C121.495 289.656 121.475 289.602 121.475 289.534C121.475 289.466 121.495 289.416 121.535 289.384C121.575 289.348 121.631 289.33 121.703 289.33H122.483V285.928H122.741L121.871 286.504C121.819 286.532 121.769 286.544 121.721 286.54C121.677 286.536 121.639 286.52 121.607 286.492C121.579 286.46 121.559 286.424 121.547 286.384C121.535 286.34 121.537 286.296 121.553 286.252C121.569 286.204 121.603 286.164 121.655 286.132L122.483 285.586C122.535 285.554 122.585 285.528 122.633 285.508C122.681 285.488 122.729 285.478 122.777 285.478C122.833 285.478 122.879 285.496 122.915 285.532C122.955 285.564 122.975 285.616 122.975 285.688V289.33H123.695C123.767 289.33 123.823 289.348 123.863 289.384C123.903 289.416 123.923 289.466 123.923 289.534C123.923 289.606 123.903 289.66 123.863 289.696C123.823 289.732 123.767 289.75 123.695 289.75H121.703ZM125.019 290.764C124.987 290.816 124.947 290.848 124.899 290.86C124.851 290.872 124.803 290.868 124.755 290.848C124.707 290.828 124.673 290.794 124.653 290.746C124.633 290.698 124.637 290.636 124.665 290.56C124.773 290.292 124.861 290.026 124.929 289.762C125.001 289.502 125.055 289.24 125.091 288.976C125.127 288.712 125.145 288.444 125.145 288.172C125.145 287.9 125.125 287.632 125.085 287.368C125.049 287.104 124.995 286.842 124.923 286.582C124.855 286.318 124.769 286.052 124.665 285.784C124.637 285.708 124.633 285.646 124.653 285.598C124.677 285.546 124.711 285.512 124.755 285.496C124.799 285.476 124.845 285.472 124.893 285.484C124.945 285.496 124.987 285.528 125.019 285.58C125.239 285.988 125.401 286.41 125.505 286.846C125.609 287.282 125.661 287.724 125.661 288.172C125.661 288.472 125.637 288.77 125.589 289.066C125.545 289.358 125.475 289.646 125.379 289.93C125.287 290.214 125.167 290.492 125.019 290.764Z" fill="#828282"/>
<rect x="289.234" y="279.68" width="33.1934" height="18.1961" rx="3.1547" fill="#2DBB54"/>
<path d="M295.183 290.216C295.053 290.216 294.924 290.206 294.794 290.185C294.665 290.167 294.543 290.139 294.428 290.101C294.313 290.06 294.21 290.01 294.119 289.951C294.066 289.916 294.029 289.873 294.008 289.823C293.988 289.773 293.98 289.724 293.986 289.677C293.995 289.627 294.014 289.584 294.044 289.549C294.076 289.511 294.116 289.487 294.163 289.478C294.21 289.47 294.261 289.483 294.317 289.518C294.447 289.595 294.584 289.651 294.728 289.686C294.872 289.721 295.024 289.739 295.183 289.739C295.416 289.739 295.585 289.701 295.691 289.624C295.797 289.545 295.85 289.443 295.85 289.319C295.85 289.216 295.812 289.135 295.735 289.077C295.661 289.018 295.533 288.969 295.351 288.931L294.865 288.829C294.585 288.77 294.376 288.672 294.238 288.533C294.102 288.392 294.035 288.206 294.035 287.977C294.035 287.833 294.064 287.702 294.123 287.584C294.182 287.466 294.264 287.364 294.37 287.279C294.479 287.194 294.607 287.129 294.755 287.085C294.905 287.038 295.07 287.014 295.249 287.014C295.426 287.014 295.594 287.036 295.753 287.08C295.912 287.124 296.055 287.189 296.181 287.275C296.228 287.307 296.259 287.347 296.274 287.394C296.292 287.441 296.296 287.488 296.287 287.535C296.278 287.579 296.258 287.618 296.225 287.65C296.193 287.682 296.152 287.702 296.102 287.707C296.055 287.713 296 287.699 295.938 287.663C295.829 287.601 295.719 287.557 295.607 287.531C295.495 287.504 295.374 287.491 295.245 287.491C295.109 287.491 294.993 287.51 294.896 287.548C294.799 287.587 294.724 287.641 294.671 287.712C294.621 287.78 294.596 287.861 294.596 287.955C294.596 288.061 294.631 288.146 294.702 288.211C294.772 288.273 294.893 288.321 295.064 288.357L295.545 288.458C295.837 288.52 296.053 288.617 296.194 288.75C296.339 288.882 296.411 289.059 296.411 289.28C296.411 289.421 296.381 289.549 296.322 289.664C296.267 289.779 296.184 289.877 296.075 289.96C295.969 290.042 295.841 290.106 295.691 290.15C295.541 290.194 295.371 290.216 295.183 290.216ZM297.472 290.172C297.374 290.172 297.299 290.147 297.246 290.097C297.196 290.044 297.171 289.969 297.171 289.872V287.359C297.171 287.261 297.196 287.188 297.246 287.138C297.299 287.085 297.374 287.058 297.472 287.058H299.048C299.122 287.058 299.178 287.077 299.216 287.116C299.257 287.154 299.278 287.208 299.278 287.279C299.278 287.353 299.257 287.41 299.216 287.451C299.178 287.49 299.122 287.509 299.048 287.509H297.714V288.365H298.951C299.028 288.365 299.085 288.385 299.123 288.423C299.162 288.461 299.181 288.517 299.181 288.591C299.181 288.664 299.162 288.72 299.123 288.759C299.085 288.797 299.028 288.816 298.951 288.816H297.714V289.721H299.048C299.122 289.721 299.178 289.741 299.216 289.779C299.257 289.817 299.278 289.873 299.278 289.947C299.278 290.02 299.257 290.076 299.216 290.114C299.178 290.153 299.122 290.172 299.048 290.172H297.472ZM300.347 290.207C300.261 290.207 300.195 290.184 300.148 290.137C300.104 290.089 300.082 290.022 300.082 289.933V287.306C300.082 287.214 300.104 287.145 300.148 287.098C300.195 287.048 300.255 287.023 300.329 287.023C300.397 287.023 300.447 287.036 300.479 287.063C300.514 287.086 300.556 287.127 300.603 287.186L302.294 289.381H302.179V287.292C302.179 287.207 302.202 287.141 302.246 287.094C302.293 287.046 302.359 287.023 302.444 287.023C302.53 287.023 302.595 287.046 302.639 287.094C302.683 287.141 302.705 287.207 302.705 287.292V289.942C302.705 290.025 302.684 290.089 302.643 290.137C302.602 290.184 302.546 290.207 302.475 290.207C302.408 290.207 302.353 290.194 302.312 290.167C302.274 290.141 302.231 290.098 302.184 290.039L300.497 287.844H300.607V289.933C300.607 290.022 300.585 290.089 300.541 290.137C300.497 290.184 300.432 290.207 300.347 290.207ZM303.961 290.172C303.864 290.172 303.789 290.147 303.736 290.097C303.686 290.044 303.661 289.969 303.661 289.872V287.359C303.661 287.261 303.686 287.188 303.736 287.138C303.789 287.085 303.864 287.058 303.961 287.058H304.818C305.339 287.058 305.741 287.192 306.023 287.46C306.309 287.728 306.452 288.112 306.452 288.613C306.452 288.863 306.415 289.085 306.341 289.28C306.271 289.471 306.165 289.633 306.023 289.766C305.885 289.898 305.714 290 305.511 290.07C305.311 290.138 305.08 290.172 304.818 290.172H303.961ZM304.226 289.704H304.782C304.965 289.704 305.122 289.682 305.255 289.637C305.39 289.59 305.502 289.523 305.591 289.434C305.682 289.343 305.75 289.23 305.794 289.094C305.838 288.956 305.86 288.795 305.86 288.613C305.86 288.248 305.77 287.975 305.591 287.796C305.411 287.616 305.142 287.526 304.782 287.526H304.226V289.704ZM310.17 290.216C309.869 290.216 309.606 290.15 309.379 290.017C309.155 289.885 308.982 289.699 308.858 289.461C308.734 289.219 308.673 288.937 308.673 288.613C308.673 288.368 308.708 288.149 308.779 287.955C308.849 287.757 308.949 287.59 309.079 287.451C309.211 287.31 309.369 287.202 309.551 287.129C309.737 287.052 309.943 287.014 310.17 287.014C310.473 287.014 310.737 287.08 310.96 287.213C311.184 287.342 311.358 287.526 311.482 287.765C311.605 288.003 311.667 288.285 311.667 288.608C311.667 288.853 311.632 289.074 311.561 289.271C311.49 289.468 311.389 289.637 311.256 289.779C311.127 289.92 310.969 290.029 310.784 290.106C310.601 290.179 310.396 290.216 310.17 290.216ZM310.17 289.73C310.361 289.73 310.523 289.686 310.656 289.598C310.791 289.509 310.894 289.381 310.965 289.213C311.038 289.046 311.075 288.845 311.075 288.613C311.075 288.259 310.996 287.986 310.837 287.791C310.681 287.597 310.458 287.5 310.17 287.5C309.981 287.5 309.819 287.544 309.684 287.632C309.549 287.718 309.444 287.844 309.37 288.012C309.3 288.177 309.264 288.377 309.264 288.613C309.264 288.963 309.344 289.237 309.503 289.434C309.662 289.632 309.884 289.73 310.17 289.73ZM313.361 290.207C313.269 290.207 313.199 290.182 313.149 290.132C313.102 290.079 313.078 290.007 313.078 289.916V287.531H312.217C312.14 287.531 312.08 287.51 312.036 287.469C311.995 287.425 311.974 287.366 311.974 287.292C311.974 287.216 311.995 287.158 312.036 287.12C312.08 287.079 312.14 287.058 312.217 287.058H314.505C314.581 287.058 314.64 287.079 314.681 287.12C314.725 287.158 314.748 287.216 314.748 287.292C314.748 287.366 314.725 287.425 314.681 287.469C314.64 287.51 314.581 287.531 314.505 287.531H313.643V289.916C313.643 290.007 313.62 290.079 313.573 290.132C313.526 290.182 313.455 290.207 313.361 290.207ZM315.628 290.207C315.537 290.207 315.466 290.182 315.416 290.132C315.369 290.079 315.346 290.007 315.346 289.916V287.345C315.346 287.251 315.371 287.18 315.421 287.133C315.471 287.083 315.541 287.058 315.633 287.058H316.697C317.039 287.058 317.302 287.144 317.488 287.314C317.673 287.485 317.766 287.724 317.766 288.03C317.766 288.336 317.673 288.576 317.488 288.75C317.302 288.921 317.039 289.006 316.697 289.006H315.911V289.916C315.911 290.007 315.887 290.079 315.84 290.132C315.793 290.182 315.722 290.207 315.628 290.207ZM315.911 288.56H316.609C316.809 288.56 316.961 288.516 317.064 288.427C317.167 288.336 317.218 288.204 317.218 288.03C317.218 287.856 317.167 287.725 317.064 287.637C316.961 287.548 316.809 287.504 316.609 287.504H315.911V288.56Z" fill="white"/>
<path d="M262.75 355.91C262.75 354.763 263.68 353.833 264.827 353.833H324.755C325.902 353.833 326.832 354.763 326.832 355.91V375.843C326.832 376.99 325.902 377.92 324.755 377.92H264.827C263.68 377.92 262.75 376.99 262.75 375.843V355.91Z" fill="#EBF1F5" fill-opacity="0.53" stroke="#C2D0DA" stroke-width="0.593354"/>
<path d="M277.347 369.249C277.164 369.249 277.021 369.198 276.92 369.097C276.825 368.996 276.778 368.85 276.778 368.66V363.011C276.778 362.815 276.825 362.667 276.92 362.565C277.021 362.458 277.151 362.404 277.309 362.404C277.455 362.404 277.562 362.432 277.632 362.489C277.708 362.54 277.797 362.629 277.898 362.755L281.534 367.473H281.287V362.983C281.287 362.799 281.334 362.657 281.429 362.556C281.531 362.455 281.673 362.404 281.857 362.404C282.04 362.404 282.179 362.455 282.274 362.556C282.369 362.657 282.417 362.799 282.417 362.983V368.679C282.417 368.856 282.372 368.996 282.284 369.097C282.195 369.198 282.075 369.249 281.923 369.249C281.778 369.249 281.66 369.22 281.572 369.163C281.49 369.106 281.398 369.015 281.296 368.888L277.67 364.17H277.907V368.66C277.907 368.85 277.86 368.996 277.765 369.097C277.67 369.198 277.531 369.249 277.347 369.249ZM286.571 369.268C286.045 369.268 285.593 369.17 285.213 368.973C284.833 368.777 284.539 368.499 284.33 368.138C284.128 367.777 284.027 367.35 284.027 366.856C284.027 366.375 284.125 365.955 284.321 365.594C284.523 365.233 284.799 364.951 285.147 364.749C285.501 364.54 285.903 364.436 286.352 364.436C286.682 364.436 286.976 364.489 287.235 364.597C287.501 364.705 287.726 364.86 287.909 365.062C288.099 365.265 288.242 365.511 288.337 365.803C288.438 366.087 288.489 366.41 288.489 366.771C288.489 366.885 288.447 366.973 288.365 367.037C288.289 367.094 288.178 367.122 288.033 367.122H284.985V366.439H287.653L287.501 366.581C287.501 366.29 287.457 366.046 287.368 365.85C287.286 365.654 287.163 365.505 286.998 365.404C286.84 365.296 286.64 365.242 286.4 365.242C286.134 365.242 285.906 365.306 285.716 365.432C285.533 365.553 285.39 365.727 285.289 365.955C285.194 366.176 285.147 366.442 285.147 366.752V366.818C285.147 367.337 285.267 367.727 285.508 367.986C285.754 368.239 286.115 368.366 286.59 368.366C286.754 368.366 286.938 368.347 287.14 368.309C287.349 368.265 287.545 368.192 287.729 368.091C287.862 368.015 287.979 367.983 288.08 367.996C288.182 368.002 288.261 368.037 288.318 368.1C288.381 368.163 288.419 368.242 288.432 368.337C288.444 368.426 288.425 368.518 288.375 368.613C288.33 368.708 288.251 368.79 288.137 368.86C287.916 368.999 287.659 369.103 287.368 369.173C287.083 369.236 286.818 369.268 286.571 369.268ZM290.241 369.22C290.102 369.22 289.985 369.182 289.89 369.106C289.801 369.024 289.753 368.92 289.747 368.793C289.747 368.667 289.801 368.534 289.909 368.394L291.447 366.496V367.056L290.003 365.28C289.89 365.141 289.836 365.008 289.842 364.882C289.848 364.755 289.896 364.654 289.985 364.578C290.079 364.496 290.197 364.455 290.336 364.455C290.481 364.455 290.602 364.48 290.697 364.53C290.798 364.581 290.89 364.66 290.972 364.768L292.111 366.23H291.693L292.842 364.768C292.931 364.66 293.022 364.581 293.117 364.53C293.212 364.48 293.329 364.455 293.469 364.455C293.614 364.455 293.731 364.496 293.82 364.578C293.909 364.66 293.953 364.765 293.953 364.891C293.959 365.018 293.905 365.151 293.791 365.29L292.358 367.046V366.515L293.896 368.394C294.01 368.527 294.064 368.657 294.057 368.784C294.051 368.91 294 369.015 293.905 369.097C293.817 369.179 293.7 369.22 293.554 369.22C293.415 369.22 293.298 369.195 293.203 369.144C293.108 369.094 293.016 369.015 292.928 368.907L291.693 367.35H292.092L290.867 368.907C290.785 369.008 290.697 369.087 290.602 369.144C290.507 369.195 290.386 369.22 290.241 369.22ZM297.745 369.268C297.333 369.268 296.988 369.198 296.71 369.059C296.438 368.92 296.235 368.717 296.102 368.451C295.969 368.179 295.903 367.844 295.903 367.445V365.423H295.409C295.257 365.423 295.14 365.385 295.058 365.309C294.976 365.227 294.935 365.116 294.935 364.977C294.935 364.831 294.976 364.72 295.058 364.644C295.14 364.568 295.257 364.53 295.409 364.53H295.903V363.667C295.903 363.47 295.954 363.322 296.055 363.22C296.162 363.119 296.311 363.068 296.501 363.068C296.691 363.068 296.837 363.119 296.938 363.22C297.039 363.322 297.09 363.47 297.09 363.667V364.53H298.096C298.248 364.53 298.365 364.568 298.447 364.644C298.53 364.72 298.571 364.831 298.571 364.977C298.571 365.116 298.53 365.227 298.447 365.309C298.365 365.385 298.248 365.423 298.096 365.423H297.09V367.379C297.09 367.682 297.156 367.91 297.289 368.062C297.422 368.214 297.637 368.29 297.935 368.29C298.042 368.29 298.137 368.28 298.219 368.261C298.302 368.242 298.374 368.23 298.438 368.223C298.514 368.217 298.577 368.242 298.628 368.299C298.678 368.35 298.704 368.458 298.704 368.622C298.704 368.749 298.681 368.863 298.637 368.964C298.599 369.059 298.526 369.125 298.419 369.163C298.337 369.189 298.229 369.211 298.096 369.23C297.963 369.255 297.846 369.268 297.745 369.268Z" fill="#848484"/>
<path fill-rule="evenodd" clip-rule="evenodd" d="M304.59 365.68C304.59 365.784 304.634 365.883 304.711 365.956C304.789 366.029 304.895 366.07 305.005 366.07H309.816L308.033 367.745C307.994 367.781 307.964 367.824 307.943 367.871C307.922 367.919 307.911 367.97 307.911 368.021C307.911 368.072 307.922 368.123 307.943 368.17C307.964 368.218 307.994 368.261 308.033 368.297C308.072 368.333 308.117 368.362 308.168 368.382C308.218 368.401 308.272 368.412 308.327 368.412C308.382 368.412 308.436 368.401 308.486 368.382C308.537 368.362 308.582 368.333 308.621 368.297L311.112 365.957C311.151 365.92 311.182 365.877 311.203 365.83C311.224 365.783 311.234 365.732 311.234 365.68C311.234 365.629 311.224 365.578 311.203 365.531C311.182 365.483 311.151 365.44 311.112 365.404L308.621 363.064C308.543 362.99 308.437 362.949 308.327 362.949C308.217 362.949 308.111 362.99 308.033 363.064C307.955 363.137 307.911 363.236 307.911 363.34C307.911 363.443 307.955 363.543 308.033 363.616L309.816 365.29H305.005C304.895 365.29 304.789 365.331 304.711 365.405C304.634 365.478 304.59 365.577 304.59 365.68Z" fill="#808080"/>
</svg>
