<svg width="773" height="575" viewBox="0 0 773 575" fill="none" xmlns="http://www.w3.org/2000/svg">
<path d="M415.203 528.882C405.293 545.712 386.523 555.302 366.993 554.742C356.923 554.442 340.533 554.062 325.993 554.152C291.343 554.352 270.673 500.792 315.513 492.152C354.883 484.552 348.233 473.302 364.793 465.642C387.563 455.102 414.793 468.392 420.733 492.772C423.529 504.006 422.105 515.877 416.733 526.132C416.733 526.212 416.643 526.292 416.603 526.372C416.203 527.182 415.713 528.052 415.203 528.882Z" fill="#E4FFE7"/>
<path d="M125.923 418.972C62.2832 350.512 64.3832 237.182 124.203 165.302C141.402 144.522 162.883 127.7 187.18 115.983C211.476 104.267 238.014 97.9319 264.983 97.4117C288.473 96.9217 311.153 86.7617 324.623 67.5117C343.123 41.0717 364.163 10.2217 406.923 4.33172C455.043 -2.29828 496.813 30.1317 515.873 66.7817C533.873 101.442 555.963 109.312 581.333 123.932C598.399 133.787 613.819 146.251 627.033 160.872C690.753 231.162 692.343 335.702 631.033 408.122C581.363 466.822 497.033 504.272 436.033 467.782C382.853 435.972 361.033 445.522 317.293 467.142C253.823 498.532 183.123 480.502 125.923 418.972Z" fill="#E4FFE7"/>
<path d="M274.979 84.4717C298.242 84.4717 317.099 65.6139 317.099 42.3517C317.099 19.0895 298.242 0.231689 274.979 0.231689C251.717 0.231689 232.859 19.0895 232.859 42.3517C232.859 65.6139 251.717 84.4717 274.979 84.4717Z" fill="#E4FFE7"/>
<path d="M234.708 313.182C234.708 313.182 203.388 234.602 196.118 216.182C187.058 193.262 168.338 163.972 179.938 157.372C193.038 149.912 197.498 183.032 206.468 215.462C210.208 228.982 239.028 310.312 239.258 310.992C239.828 312.702 235.588 315.352 234.708 313.182Z" fill="#F07D18"/>
<path d="M226.628 301.182C226.468 301.532 209.278 312.082 205.678 311.362C202.078 310.642 208.128 298.282 208.488 298.062C208.848 297.842 216.318 292.782 216.318 292.782C216.318 292.782 228.888 296.512 226.628 301.182Z" fill="#FFB9A0"/>
<path d="M221.142 301.122C220.872 300.882 214.602 293.662 215.532 286.322C216.462 278.982 218.842 275.162 219.812 271.812C220.252 270.302 222.942 270.242 223.152 271.602C223.312 272.602 223.372 277.902 223.372 277.902L229.992 275.742L233.802 295.742C233.802 295.742 225.312 304.862 221.142 301.122Z" fill="#FFE5CF"/>
<path opacity="0.5" d="M221.142 301.122C220.872 300.882 214.602 293.662 215.532 286.322C216.462 278.982 218.842 275.162 219.812 271.812C220.252 270.302 222.942 270.242 223.152 271.602C223.312 272.602 223.372 277.902 223.372 277.902L229.992 275.742L233.802 295.742C233.802 295.742 225.312 304.862 221.142 301.122Z" fill="#FFB9A0"/>
<path d="M228.379 288.302C228.379 288.302 225.649 289.592 225.119 290.792C224.589 291.992 225.789 293.192 227.519 293.042C230.147 292.678 232.743 292.103 235.279 291.322C236.959 290.742 236.189 287.532 234.559 287.392C232.469 287.44 230.393 287.745 228.379 288.302Z" fill="#FFE5CF"/>
<path d="M224.511 286.241C224.511 286.241 221.911 287.881 221.661 289.171C221.411 290.461 222.841 291.361 224.501 290.841C226.161 290.321 232.571 288.301 234.081 287.371C235.591 286.441 234.081 283.262 232.471 283.252C229.951 283.242 226.001 285.311 224.511 286.241Z" fill="#FFE5CF"/>
<path d="M223.647 281.852C223.647 281.852 220.997 283.522 220.747 284.852C220.497 286.182 221.937 287.062 223.627 286.532C225.317 286.002 231.847 283.962 233.387 283.022C234.927 282.082 233.497 278.632 231.837 278.632C229.277 278.582 225.197 280.912 223.647 281.852Z" fill="#FFE5CF"/>
<path d="M222.709 277.692C222.709 277.692 220.649 279.232 220.509 280.532C220.369 281.832 221.879 282.602 223.509 281.942C225.139 281.282 230.169 279.432 231.609 278.372C233.049 277.312 231.349 274.032 229.699 274.172C227.199 274.382 224.129 276.632 222.709 277.692Z" fill="#FFE5CF"/>
<path d="M8.7136 537.242C6.41255 539.26 4.36129 541.546 2.6036 544.052C0.293599 547.592 2.7536 555.462 4.8436 559.692C6.9336 563.922 18.6036 572.182 22.4436 572.182C26.2836 572.182 24.7836 559.722 25.9536 555.032C26.6738 552.16 27.5586 549.332 28.6036 546.562C26.3955 543.402 23.3958 540.877 19.905 539.242C16.4142 537.606 12.5549 536.916 8.7136 537.242Z" fill="#070540"/>
<path d="M22.4402 572.182C18.6002 572.182 6.94024 563.872 4.84024 559.652C2.95024 555.832 0.770245 549.052 2.07024 545.172C1.75024 545.592 1.44024 546.022 1.15024 546.462C-1.15976 550.002 1.30024 557.872 3.40024 562.092C5.50024 566.312 17.1602 574.612 20.9902 574.622C22.1002 574.622 22.7602 573.622 23.1702 571.992C22.9471 572.116 22.6958 572.182 22.4402 572.182Z" fill="#E6E8F4"/>
<path d="M187.969 555.002C188.052 556.373 188.349 557.722 188.849 559.002C189.509 560.162 203.849 564.002 209.129 564.482C215.929 565.142 226.189 563.842 226.779 562.212C227.369 560.582 225.069 555.882 222.779 553.662C220.489 551.442 211.019 545.662 207.669 544.022C204.319 542.382 188.379 549.922 187.969 555.002Z" fill="#070540"/>
<path d="M209.131 564.512C203.841 564.002 189.511 560.192 188.851 559.032C188.748 559.704 188.906 560.391 189.291 560.952C189.961 562.102 203.831 566.042 209.121 566.552C215.921 567.212 226.191 565.902 226.771 564.272C226.912 563.648 226.877 562.997 226.671 562.392C225.521 563.952 215.721 565.182 209.131 564.512Z" fill="#E6E8F4"/>
<path d="M88.8391 356.271C88.8391 356.271 75.6091 375.271 73.0191 387.621C70.4291 399.971 65.1591 449.621 64.2991 454.131C64.0791 455.261 52.4591 462.041 47.2291 469.761C31.3891 493.161 8.22913 535.381 8.01913 536.891C7.72913 538.891 25.5491 542.151 28.0691 548.281C32.5591 544.561 82.8791 476.281 88.8391 469.591C95.1991 462.431 117.599 430.021 117.599 430.021C117.599 430.021 161.719 473.021 163.909 476.211C164.619 477.211 164.419 487.291 167.259 498.211C173.109 520.641 186.809 553.211 187.969 554.771C187.969 554.771 200.429 543.941 207.619 543.771C207.619 543.771 190.939 480.881 186.619 462.771C182.299 444.661 147.789 382.191 144.049 377.471C140.309 372.751 92.4291 356.561 88.8391 356.271Z" fill="#2E3451"/>
<g style="mix-blend-mode:multiply" opacity="0.33">
<path d="M144.064 377.391C140.324 372.661 92.4338 356.561 88.8438 356.271C88.8438 356.271 75.6138 375.271 73.0238 387.621C72.5438 389.921 71.9638 393.521 71.3438 397.871C71.3438 397.871 84.2438 376.741 149.524 386.351C146.794 381.601 144.814 378.341 144.064 377.391Z" fill="#6B78B7"/>
<path d="M131.982 409.811C127.382 415.621 117.602 430.021 117.602 430.021C117.602 430.021 128.862 441.021 140.282 452.271C128.262 436.871 136.582 404.011 131.982 409.811Z" fill="#6B78B7"/>
</g>
<path d="M208.92 326.072C208.92 326.072 212.92 327.652 216.47 321.682C220.02 315.712 222.47 303.062 222.47 303.062L206.07 307.591C206.07 307.591 201.58 320.752 208.92 326.072Z" fill="#ACB3D8"/>
<path d="M146.2 265.022C138.58 265.102 119.04 270.122 112.38 279.862C102.55 294.182 106.2 317.442 99.1997 328.082C92.1997 338.722 83.9697 346.922 85.2597 355.982C86.5497 365.042 134.71 381.372 150.68 376.982C163.82 373.362 176.27 328.982 181.46 316.602C181.46 316.602 200.46 325.372 208.93 326.092C208.93 326.092 203.68 317.532 209 305.452C214.32 293.372 216.33 292.842 216.33 292.842C216.33 292.842 209.65 293.162 194.69 283.522C179.73 273.882 166.09 264.822 146.2 265.022Z" fill="#E6E8F4"/>
<g style="mix-blend-mode:multiply">
<path d="M194.679 283.502C179.679 273.872 166.089 264.822 146.149 265.032C142.569 265.032 133.759 264.522 141.799 274.702C154.039 290.212 187.169 295.702 181.449 316.582C181.449 316.582 200.449 325.352 208.919 326.072C208.919 326.072 203.669 317.512 208.989 305.432C214.309 293.352 216.319 292.822 216.319 292.822C216.319 292.822 209.639 293.182 194.679 283.502Z" fill="#E6E8F4"/>
</g>
<path d="M139.322 337.032C139.322 337.032 141.622 338.732 158.232 322.482C174.842 306.232 149.742 309.172 143.232 314.282C136.722 319.392 131.062 330.272 139.322 337.032Z" fill="#ACB3D8"/>
<path d="M166.872 307.382C166.872 307.382 212.322 306.032 215.442 305.552C218.562 305.072 225.302 293.352 226.962 291.742C228.622 290.132 237.892 291.412 239.052 291.742C240.212 292.072 239.652 294.942 239.312 295.512C239.312 295.512 241.922 296.512 242.472 297.512C242.882 298.302 242.042 300.862 242.042 300.862C242.042 300.862 243.812 301.542 244.102 302.462C244.064 303.262 243.902 304.052 243.622 304.802C243.622 304.802 245.682 305.662 245.472 307.382C245.332 308.482 242.642 311.382 241.402 311.082C240.162 310.782 236.842 310.452 235.402 311.472C234.831 311.788 234.379 312.28 234.114 312.876C233.849 313.471 233.785 314.137 233.932 314.772C234.182 315.572 230.722 319.272 226.402 319.132C222.082 318.992 216.722 317.042 206.772 321.502C196.822 325.962 175.772 329.632 167.422 329.702C159.072 329.772 147.212 321.502 147.072 321.502C146.932 321.502 158.392 307.632 166.872 307.382Z" fill="#FFE5CF"/>
<path opacity="0.5" d="M243.623 304.841C243.904 304.091 244.066 303.302 244.103 302.501C243.813 301.581 242.043 300.901 242.043 300.901C242.043 300.901 242.883 298.341 242.473 297.551C241.923 296.471 239.313 295.551 239.313 295.551C239.653 294.981 240.203 292.101 239.053 291.781C236.302 291.247 233.506 290.982 230.703 290.991C231.483 291.051 234.643 291.441 235.313 292.241C235.983 293.041 235.183 295.341 235.973 296.591C237.601 299.218 239.083 301.932 240.413 304.721C240.953 306.231 240.703 310.721 238.413 310.861C239.421 310.85 240.427 310.95 241.413 311.161C242.653 311.461 245.343 308.561 245.483 307.461C245.683 305.701 243.623 304.841 243.623 304.841Z" fill="#FFB9A0"/>
<path d="M166.869 307.382C166.869 307.332 158.729 304.932 148.229 294.582C137.729 284.232 122.629 279.682 115.729 284.402C108.829 289.122 103.789 303.792 115.369 314.142C131.479 328.522 135.219 337.032 139.369 337.032C139.369 337.032 135.699 336.212 146.769 326.032C157.839 315.852 162.929 313.272 166.869 307.382Z" fill="#F3F4FA"/>
<path d="M151.959 280.362C151.959 280.362 154.959 281.772 156.429 280.962C157.899 280.152 155.429 271.202 153.039 269.492C150.649 267.782 150.959 278.812 151.959 280.362Z" fill="#ACB3D8"/>
<path d="M161.488 258.182C160.89 259.49 159.956 260.616 158.78 261.445C157.605 262.275 156.231 262.777 154.798 262.902C149.918 263.242 154.998 250.192 154.998 250.192H162.638C162.439 252.878 162.054 255.548 161.488 258.182Z" fill="#070540"/>
<g style="mix-blend-mode:multiply">
<path d="M161.488 258.182C160.89 259.49 159.956 260.616 158.78 261.445C157.605 262.275 156.231 262.777 154.798 262.902C149.918 263.242 154.998 250.192 154.998 250.192H162.638C162.439 252.878 162.054 255.548 161.488 258.182Z" fill="#070540"/>
</g>
<path d="M133.952 249.872C133.952 249.872 133.242 241.742 135.462 238.352C137.462 235.202 155.142 233.802 158.242 238.992C162.352 245.882 157.952 258.992 157.952 258.992C157.952 258.992 136.252 271.412 133.952 249.872Z" fill="#D14122"/>
<path d="M140.282 269.952C140.282 269.952 140.012 272.882 140.082 273.422C140.152 273.962 149.552 279.352 151.962 280.362C151.962 280.362 158.212 259.492 157.962 259.552C157.712 259.612 140.282 269.952 140.282 269.952Z" fill="#FFB9A0"/>
<path d="M133.946 249.872C133.946 250.172 134.946 269.072 135.156 271.182C135.366 273.292 141.086 274.032 143.706 272.872C146.326 271.712 152.556 267.292 153.266 266.232C153.848 265.018 154.255 263.729 154.476 262.402C154.476 262.402 154.376 263.802 156.386 263.402C158.396 263.002 160.386 260.272 160.466 258.652C160.716 254.042 155.886 253.302 154.526 259.572C154.396 260.202 152.676 260.572 152.716 260.062C152.756 259.552 153.206 254.472 153.266 253.572C153.326 252.672 151.356 251.652 151.266 250.802C151.176 249.952 152.726 244.052 152.326 243.102C151.926 242.152 145.566 245.012 140.066 243.802C134.566 242.592 133.796 244.892 133.946 249.872Z" fill="#FFE5CF"/>
<path d="M134.347 257.822C139.477 256.522 144.517 262.712 152.837 258.612C152.987 256.892 153.227 254.182 153.267 253.552C153.317 252.642 151.357 251.632 151.267 250.782C151.177 249.932 152.727 244.032 152.327 243.082C151.927 242.132 145.567 244.992 140.067 243.782C134.567 242.572 133.757 244.892 133.907 249.872C133.947 250.002 134.127 253.602 134.347 257.822Z" fill="#FFB9A0"/>
<path d="M161.49 258.182C161.49 258.182 162.36 252.762 158.78 253.182C150.78 254.182 139.48 246.962 132.97 248.182C132.97 248.182 131.76 239.182 138.34 235.092C145.46 230.732 159.67 233.332 162.74 242.142C163.602 244.765 163.935 247.534 163.721 250.287C163.506 253.04 162.748 255.723 161.49 258.182Z" fill="#070540"/>
<path d="M155.002 254.551C152.368 255.803 149.446 256.325 146.542 256.061C142.102 255.511 137.152 250.931 127.742 251.231L127.352 250.431C127.352 250.431 131.892 249.951 132.972 249.651C136.007 249.03 139.152 249.202 142.102 250.151C145.812 251.281 155.002 253.151 155.002 253.151V254.551Z" fill="#070540"/>
<path d="M155.002 253.112C152.425 254.547 149.482 255.19 146.542 254.962C142.102 254.402 136.762 250.122 127.352 250.432C127.352 250.432 131.352 248.662 132.972 248.212C136.008 247.596 139.151 247.769 142.102 248.712C146.202 249.972 152.902 252.682 155.002 253.112Z" fill="#6B78B7"/>
<path d="M240.819 311.182C240.099 309.552 237.819 308.982 235.699 309.912C233.579 310.842 232.459 312.912 233.179 314.552C233.899 316.192 236.179 316.752 238.309 315.822C240.439 314.892 241.539 312.782 240.819 311.182Z" fill="#FF946E"/>
<path d="M694.402 348.522L688.922 350.552L698.882 377.412L704.362 375.372L709.842 373.342L699.882 346.482L694.402 348.522Z" fill="#ACB3D8"/>
<path d="M704.363 375.372L696.383 378.332L698.233 383.332L706.213 380.372L714.193 377.412L712.343 372.412L704.363 375.372Z" fill="#070540"/>
<path d="M692.549 343.531L685.789 346.031L687.639 351.021L694.399 348.521L701.149 346.011L699.299 341.021L692.549 343.531Z" fill="#070540"/>
<path d="M651.281 302.322C651.331 302.472 651.391 302.602 651.441 302.752L651.281 302.322Z" fill="#6B78B7"/>
<path d="M681.965 267.812L651.945 278.953L652.328 279.984L682.348 268.843L681.965 267.812Z" fill="#070540"/>
<path d="M684.754 270.718L650.266 283.517L650.648 284.548L685.137 271.75L684.754 270.718Z" fill="#070540"/>
<path d="M688.29 273.331L649.781 287.622L650.164 288.653L688.673 274.363L688.29 273.331Z" fill="#070540"/>
<path d="M691.399 276.113L649.953 291.494L650.336 292.525L691.781 277.144L691.399 276.113Z" fill="#070540"/>
<path d="M693.36 279.318L649.633 295.546L650.016 296.577L693.743 280.35L693.36 279.318Z" fill="#070540"/>
<path d="M695.57 282.42L650.484 299.151L650.867 300.183L695.953 283.451L695.57 282.42Z" fill="#070540"/>
<path d="M695.12 286.574L652.773 302.341L653.158 303.375L695.505 287.608L695.12 286.574Z" fill="#070540"/>
<path d="M698.14 289.347L653.055 306.078L653.437 307.109L698.523 290.378L698.14 289.347Z" fill="#070540"/>
<path d="M698.779 293.028L654.922 309.304L655.305 310.335L699.162 294.059L698.779 293.028Z" fill="#070540"/>
<path d="M699.831 296.576L656.547 312.638L656.93 313.669L700.213 297.607L699.831 296.576Z" fill="#070540"/>
<path d="M698.663 301.782L659.953 316.195L660.338 317.229L699.048 302.816L698.663 301.782Z" fill="#070540"/>
<path d="M698.992 304.755L662.211 318.405L662.594 319.436L699.374 305.787L698.992 304.755Z" fill="#070540"/>
<path d="M696.831 309.492L665.406 321.153L665.789 322.185L697.213 310.523L696.831 309.492Z" fill="#070540"/>
<path d="M651.984 279.268L650.953 279.65L667.067 323.097L668.099 322.714L651.984 279.268Z" fill="#070540"/>
<path d="M654.695 275.043L653.664 275.426L671.306 322.991L672.338 322.609L654.695 275.043Z" fill="#070540"/>
<path d="M657.789 271.708L656.758 272.09L675.997 323.935L677.029 323.552L657.789 271.708Z" fill="#070540"/>
<path d="M661.063 269.172L660.031 269.555L680.067 323.573L681.098 323.19L661.063 269.172Z" fill="#070540"/>
<path d="M664.594 266.985L663.562 267.368L684.026 322.509L685.057 322.127L664.594 266.985Z" fill="#070540"/>
<path d="M668.719 266.562L667.688 266.944L687.667 320.782L688.698 320.399L668.719 266.562Z" fill="#070540"/>
<path d="M672.82 266.126L671.789 266.509L690.528 317.004L691.559 316.621L672.82 266.126Z" fill="#070540"/>
<path d="M677.344 266.955L676.312 267.338L693.661 314.112L694.692 313.729L677.344 266.955Z" fill="#070540"/>
<path d="M682.125 268.168L681.094 268.55L695.173 306.511L696.205 306.128L682.125 268.168Z" fill="#070540"/>
<path d="M697.782 287.642C697.632 287.182 697.472 286.722 697.302 286.272C691.432 270.432 676.432 261.382 663.812 266.072C651.192 270.762 645.722 287.392 651.592 303.182C651.762 303.642 651.942 304.092 652.122 304.532C660.702 327.672 681.242 328.662 687.512 345.352L690.362 344.302L689.162 341.672C685.752 334.812 680.112 330.672 674.162 326.242C672.712 325.172 671.262 324.082 669.812 322.952C674.647 325.068 680.113 325.233 685.066 323.412C690.02 321.591 694.078 317.925 696.392 313.182C696.042 314.982 695.642 316.752 695.242 318.512C693.612 325.712 692.062 332.512 693.952 339.972L694.772 342.742L697.602 341.742C691.472 325.002 706.392 310.852 697.812 287.742L697.782 287.642ZM684.052 320.642C672.992 324.752 659.682 316.482 654.392 302.212C649.102 287.942 653.792 272.992 664.852 268.892C675.912 264.792 689.212 273.052 694.502 287.322C699.792 301.592 695.112 316.522 684.052 320.622V320.642Z" fill="#6B78B7"/>
<path d="M696.953 285.382C696.953 285.382 696.953 285.382 696.953 285.332C696.953 285.482 697.043 285.622 697.093 285.762L696.953 285.382Z" fill="#6B78B7"/>
<path d="M532.903 516.412C532.903 516.412 529.573 524.672 526.713 524.672C523.853 524.672 515.713 521.832 508.433 522.462C501.153 523.092 471.873 538.022 456.943 537.862L446.453 562.022C446.453 562.022 466.313 554.232 481.453 551.852C496.593 549.472 540.453 548.352 547.573 545.852C554.693 543.352 569.823 509.932 569.823 509.932L532.903 516.412Z" fill="#FFD2B3"/>
<path d="M532.898 516.412C532.137 518.254 531.217 520.028 530.148 521.712C532.148 521.102 537.148 523.712 542.758 529.362C546.978 533.642 551.168 537.152 555.758 536.572C562.588 525.892 569.828 509.892 569.828 509.892L532.898 516.412Z" fill="#FFB98B"/>
<path d="M455.771 536.862C455.771 536.862 462.971 539.082 484.571 529.992C484.571 529.992 495.821 538.992 488.931 551.482C488.931 551.482 474.101 553.602 464.351 556.992C454.601 560.382 445.281 563.182 445.281 563.182L455.771 536.862Z" fill="#E6E8F4"/>
<path d="M453.54 531.981C453.54 531.981 460.8 537.281 461.01 542.981C461.2 547.981 455.43 549.981 453.01 554.931C450.59 559.881 452.77 562.321 445.94 564.701C439.11 567.081 432.43 565.581 423.45 570.701C414.47 575.821 403.82 570.701 403.82 570.701L453.54 531.981Z" fill="#070540"/>
<path d="M422.478 566.582C435.208 557.852 436.708 551.412 442.188 547.752C447.668 544.092 454.428 537.982 453.628 532.572C453.418 531.142 449.778 528.092 448.838 527.442C446.218 525.642 400.348 567.682 400.398 570.092C401.57 570.953 402.788 571.748 404.048 572.472C407.518 573.882 415.198 571.572 422.478 566.582Z" fill="#E6E8F4"/>
<path d="M419.508 564.562C432.228 555.832 433.728 549.392 439.208 545.732C444.688 542.072 451.448 535.962 450.658 530.552C449.868 525.142 442.868 525.552 436.988 530.072C431.108 534.592 432.698 538.822 421.568 542.312C410.438 545.802 404.728 554.232 402.028 559.312C400.888 561.452 398.028 567.942 400.028 569.802C402.748 572.362 411.398 570.182 419.508 564.562Z" fill="white"/>
<path d="M633.141 484.182C633.141 484.182 656.231 484.392 663.021 485.452C669.811 486.512 674.251 501.342 680.391 505.792C686.531 510.242 698.831 513.422 711.541 529.792C724.251 546.162 723.411 548.012 723.411 548.012L742.481 546.532C742.481 546.532 677.851 465.792 672.551 461.532C667.251 457.272 640.551 451.362 640.551 451.362C640.551 451.362 635.041 478.482 633.141 484.182Z" fill="#FFD2B3"/>
<path d="M658.501 471.472C659.501 467.872 662.431 460.472 660.771 456.652C651.501 453.792 640.551 451.352 640.551 451.352C640.551 451.352 635.041 478.482 633.141 484.202C633.141 484.202 643.511 484.292 652.401 484.682C655.017 480.572 657.068 476.128 658.501 471.472Z" fill="#FFB98B"/>
<path d="M721.344 543.432C723.704 547.322 723.414 547.982 723.414 547.982L742.484 546.502L740.024 543.432H721.344Z" fill="#FFD2B3"/>
<path d="M696.958 516.512C696.678 516.112 707.958 505.512 710.268 505.602C712.578 505.692 733.898 535.062 736.648 537.922C739.398 540.782 721.298 542.862 719.018 541.242C716.738 539.622 712.608 532.722 706.558 526.582C699.438 519.342 697.558 517.362 696.958 516.512Z" fill="#E6E8F4"/>
<path d="M716.081 538.042C717.799 539.31 719.784 540.168 721.885 540.551C723.985 540.934 726.146 540.832 728.201 540.252C734.951 538.182 729.521 532.252 729.201 529.562C728.881 526.872 730.631 526.682 733.151 529.202C735.871 531.922 759.521 542.712 765.401 544.062C771.281 545.412 772.951 549.472 772.711 551.212C772.471 552.952 760.001 554.312 747.121 555.112C734.241 555.912 714.621 555.662 713.831 554.712C713.041 553.762 713.571 538.352 716.081 538.042Z" fill="#070540"/>
<path d="M772.328 551.651C770.328 553.201 758.888 554.401 747.068 555.131C734.608 555.901 715.818 555.701 713.908 554.821C713.593 555.773 713.593 556.8 713.908 557.751C714.708 558.751 734.228 559.131 747.098 558.341C759.968 557.551 772.448 556.191 772.688 554.441C772.749 553.497 772.627 552.549 772.328 551.651Z" fill="#E6E8F4"/>
<path d="M535.658 448.392C535.658 448.392 529.938 457.292 533.328 474.032C536.718 490.772 534.388 514.532 530.148 518.332C530.148 518.332 536.288 525.332 549.008 521.092C561.728 516.852 570.408 511.092 578.008 510.472C578.008 510.472 580.338 490.772 579.708 484.622C579.708 484.622 627.168 492.622 631.408 492.252C635.648 491.882 654.198 465.552 654.198 454.742C654.198 454.742 621.308 441.392 602.018 435.042C582.728 428.692 535.658 448.392 535.658 448.392Z" fill="#56BB5E"/>
<g style="mix-blend-mode:multiply" opacity="0.4">
<path d="M601.992 435.042C582.702 428.682 535.662 448.392 535.662 448.392C535.662 448.392 529.942 457.292 533.332 474.032C534.221 478.629 534.736 483.291 534.872 487.972C537.352 478.112 610.142 483.352 608.082 437.112C605.952 436.362 603.902 435.662 601.992 435.042Z" fill="#56BB5E"/>
<path d="M578.871 502.662C579.461 496.452 580.111 488.222 579.741 484.662C579.741 484.662 566.741 482.542 560.451 481.912C554.161 481.282 579.691 494.852 578.871 502.662Z" fill="#56BB5E"/>
</g>
<path d="M646.201 367.812C646.201 367.812 684.731 364.392 688.071 363.362C691.411 362.332 697.681 353.662 698.801 352.872C699.921 352.082 707.591 352.602 708.921 352.872C710.251 353.142 709.291 357.802 709.291 357.802C709.291 357.802 711.681 364.192 711.671 365.982C711.671 367.162 710.511 370.352 709.291 370.192C708.071 370.032 708.701 368.502 707.431 368.192C706.161 367.882 704.311 372.592 702.771 373.442C701.231 374.292 699.171 374.442 695.771 373.972C692.371 373.502 670.101 384.692 663.661 385.732C657.221 386.772 639.201 385.182 637.801 385.182C636.401 385.182 640.821 368.302 646.201 367.812Z" fill="#FFD2B3"/>
<path d="M648.072 367.642L646.232 367.812C640.822 368.302 636.372 385.212 637.802 385.212C638.472 385.212 642.862 385.572 647.982 385.832C647.202 384.572 650.302 376.742 648.072 367.642Z" fill="#FFB98B"/>
<path d="M709.319 370.182C710.539 370.342 711.689 367.182 711.699 365.972C711.699 364.182 709.319 357.792 709.319 357.792C709.319 357.792 710.319 353.122 708.949 352.862C706.138 352.492 703.3 352.375 700.469 352.512C701.159 352.462 703.319 352.452 703.279 354.242C703.219 356.362 706.189 361.442 706.989 362.342C707.789 363.242 708.099 366.342 706.339 368.902C706.739 368.442 707.119 368.152 707.459 368.222C708.729 368.502 708.099 370.032 709.319 370.182Z" fill="#FFB98B"/>
<path d="M594.363 341.182C594.803 340.332 616.613 334.982 618.513 333.922C620.413 332.862 621.913 328.332 623.263 326.512C624.613 324.692 630.753 320.062 631.263 318.742C631.773 317.422 631.873 316.362 632.883 316.362C633.893 316.362 634.763 318.702 634.403 321.172C634.043 323.642 630.523 326.552 630.123 327.302C630.123 327.302 638.063 326.712 639.453 327.222C640.843 327.732 640.183 329.162 639.343 329.472C637.993 329.982 631.343 330.282 631.023 330.722C630.703 331.162 640.773 330.632 641.723 330.982C641.991 331.098 642.215 331.295 642.365 331.545C642.515 331.795 642.584 332.086 642.561 332.377C642.538 332.668 642.424 332.944 642.236 333.167C642.049 333.39 641.796 333.549 641.513 333.622C640.363 333.862 633.383 334.432 632.753 334.622C632.123 334.812 642.433 334.332 643.623 334.622C644.813 334.912 644.773 337.082 643.223 337.362C641.673 337.642 632.893 338.362 632.453 338.712C632.013 339.062 642.673 340.302 643.353 340.932C644.033 341.562 643.503 343.162 641.913 343.322C640.323 343.482 632.453 342.732 631.783 342.852C631.113 342.972 625.663 345.472 623.323 345.352C622.001 345.12 620.665 344.979 619.323 344.932C613.683 345.932 597.433 353.772 596.473 353.772C595.513 353.772 593.443 342.932 594.363 341.182Z" fill="#FF946E"/>
<path d="M613.509 335.501C606.509 337.501 594.679 340.501 594.359 341.161C593.439 342.931 595.359 353.821 596.479 353.821C597.289 353.821 609.169 348.161 616.169 345.821C614.49 342.636 613.579 339.102 613.509 335.501Z" fill="#F07D18"/>
<path d="M584.93 321.772C584.93 321.772 577.19 312.421 565.64 316.341C554.09 320.261 548.64 336.182 548.37 357.272C548.12 374.332 551.37 407.542 546.57 418.512C541.77 429.482 531 443.942 529.25 450.452C529.25 450.452 546.25 477.451 573.91 470.801C611.91 461.742 603.63 411.201 607.91 388.421C615.73 389.041 629.41 392.602 634.34 393.082C639.27 393.562 647.7 374.962 646.27 367.812C635.513 364.464 625.013 360.343 614.85 355.481C606.385 351.372 599.266 344.933 594.33 336.921L584.93 321.772Z" fill="#2E3451"/>
<g style="mix-blend-mode:multiply" opacity="0.33">
<path d="M582.43 338.962C597.43 355.872 615.43 361.372 625.36 360.212C621.65 358.672 618.23 357.132 615.04 355.592C606.482 351.478 599.282 344.999 594.29 336.922L593.86 336.222C592.79 337.442 582.08 338.572 582.43 338.962Z" fill="#6B78B7"/>
</g>
<g style="mix-blend-mode:multiply" opacity="0.44">
<path d="M584.933 321.771C581.85 318.36 577.666 316.14 573.113 315.501C576.233 316.101 578.543 322.931 573.753 323.941C568.963 324.951 564.043 327.861 565.693 327.191C571.373 324.851 577.193 324.621 574.333 325.701C571.473 326.781 569.723 328.701 570.613 328.541C575.993 327.491 579.893 328.541 578.923 329.541C579.638 330.631 580.423 331.673 581.273 332.661C581.373 332.661 583.913 329.101 586.623 325.251L584.933 321.771Z" fill="#6B78B7"/>
</g>
<g style="mix-blend-mode:multiply">
<path d="M594.102 388.902C591.242 390.372 606.012 404.902 605.632 417.622C606.432 406.522 606.462 395.952 607.872 388.422C606.982 388.232 596.982 387.422 594.102 388.902Z" fill="#6B78B7"/>
</g>
<path d="M578.917 329.542C578.917 329.542 583.317 328.952 584.917 325.892L609.057 338.052C601.187 337.162 596.377 343.862 594.627 345.832C592.197 348.552 575.687 336.102 578.917 329.542Z" fill="#FFB98B"/>
<path d="M589.287 328.082C589.287 328.082 585.987 331.592 585.287 331.322C584.587 331.052 583.537 328.322 583.287 327.752C583.037 327.182 586.287 324.922 585.857 317.752C585.427 310.582 584.747 301.842 585.307 300.452C585.867 299.062 612.707 300.772 614.307 301.642C615.157 302.102 613.107 312.282 613.397 313.642C613.687 315.002 599.987 331.282 599.987 331.282L589.287 328.082Z" fill="#070540"/>
<path d="M590.931 321.792C587.801 321.922 588.291 325.262 588.881 327.092C589.681 329.592 592.251 332.022 593.621 330.462C594.034 332.342 594.62 334.18 595.371 335.952C596.481 338.402 607.611 343.222 610.571 341.662C612.801 340.492 612.571 327.662 612.951 325.162C613.331 322.662 614.501 321.342 614.541 320.262C614.244 317.793 613.81 315.342 613.241 312.922C612.951 311.512 609.871 314.292 605.791 312.922C601.711 311.552 595.291 307.992 595.661 308.662C595.941 309.142 601.601 311.662 601.931 312.742C602.261 313.822 600.191 318.742 600.191 319.492C600.191 320.242 597.781 320.262 597.521 321.042C597.261 321.822 597.001 326.752 596.931 327.352C596.861 327.952 594.931 327.612 594.931 327.092C594.931 326.572 594.341 321.642 590.931 321.792Z" fill="#FFD2B3"/>
<path d="M266.461 269.292C266.461 269.292 269.751 277.792 301.351 286.852C332.951 295.912 337.351 276.952 337.351 276.952L336.201 255.442C336.201 255.442 275.891 247.212 275.491 246.672C275.091 246.132 267.421 258.182 266.461 269.292Z" fill="#ACB3D8"/>
<path d="M266.771 358.722C266.771 358.722 264.091 383.172 264.891 389.492C265.691 395.812 300.631 427.632 306.061 430.342C306.061 430.342 318.511 418.442 317.891 416.852C317.271 415.262 293.331 391.242 291.021 387.922C288.711 384.602 292.121 364.102 292.121 364.102L266.771 358.722Z" fill="#450603"/>
<path d="M317.468 415.292C320.808 420.072 333.808 442.082 341.198 449.292C341.198 449.292 339.048 459.412 334.428 462.352C333.428 462.982 328.818 459.632 328.008 459.862C324.943 454.64 321.556 449.614 317.868 444.812C313.687 439.562 309.192 434.569 304.408 429.862C302.328 427.872 316.128 413.372 317.468 415.292Z" fill="#E6E8F4"/>
<path d="M355.369 453.952C355.899 454.792 344.789 479.392 338.919 486.872C336.469 489.982 330.049 495.772 329.719 495.212C328.621 493.23 328.085 490.986 328.169 488.722C328.459 486.492 330.669 472.362 330.069 468.972C329.469 465.582 326.209 459.632 323.359 457.752C324.355 457.635 325.359 457.609 326.359 457.672C328.359 457.762 332.559 461.202 332.779 460.572C333.069 459.712 329.639 455.082 329.439 452.732C329.239 450.382 336.979 444.792 335.689 442.732C336.759 441.612 338.029 443.032 341.889 446.732C343.659 448.452 352.679 449.702 355.369 453.952Z" fill="#6B78B7"/>
<path d="M338.92 486.871C344.49 479.771 354.78 457.241 355.35 454.271C356.131 454.788 356.756 455.507 357.16 456.351C357.7 457.181 346.58 481.791 340.71 489.271C338.26 492.381 331.84 498.171 331.52 497.621C331.047 496.78 330.681 495.883 330.43 494.951C333.55 492.58 336.397 489.87 338.92 486.871Z" fill="#070540"/>
<g style="mix-blend-mode:multiply" opacity="0.4">
<path d="M326.349 457.671C328.349 457.761 332.549 461.201 332.769 460.571C333.059 459.711 329.629 455.081 329.429 452.731C329.329 451.581 331.159 449.631 332.889 447.731C334.299 458.671 344.159 469.731 349.939 473.211C346.799 479.561 343.259 486.041 340.709 489.291C338.159 492.541 331.839 498.191 331.519 497.641C331.046 496.8 330.68 495.903 330.429 494.971C330.039 495.221 329.779 495.331 329.719 495.231C328.621 493.25 328.085 491.006 328.169 488.741C328.459 486.511 330.669 472.381 330.069 468.991C329.469 465.601 326.209 459.651 323.359 457.771C324.351 457.649 325.352 457.616 326.349 457.671Z" fill="#6B78B7"/>
</g>
<path d="M313.96 382.932C314.34 383.632 313.32 389.212 314.28 392.932C315.24 396.652 327.14 432.152 327.89 448.432L309.98 452.372C309.98 452.372 287.46 401.962 286.43 395.712C285.4 389.462 285.43 376.132 285.43 376.132L313.96 382.932Z" fill="#691813"/>
<path d="M286.048 392.552C285.398 385.822 285.398 376.082 285.398 376.082L313.958 382.932C314.298 383.572 313.498 388.212 314.068 391.812C305.388 388.912 294.258 388.712 286.048 392.552Z" fill="#450603"/>
<path d="M329.479 447.002C329.949 454.162 331.679 484.362 334.829 496.702C334.829 496.702 328.109 504.432 321.629 505.072C319.159 505.312 315.759 499.822 314.199 499.392C314.306 491.94 313.952 484.489 313.139 477.082C312.101 468.884 310.558 460.759 308.519 452.752C307.629 449.302 329.289 444.122 329.479 447.002Z" fill="white"/>
<path d="M343.518 510.051C343.518 511.271 336.708 516.362 330.588 522.312C326.448 526.312 320.088 534.931 309.138 539.051C304.578 540.761 293.428 538.461 293.438 537.661C293.552 534.873 294.419 532.167 295.948 529.832C297.678 527.672 309.038 514.222 310.568 510.272C312.098 506.322 310.978 498.201 309.168 494.411C309.168 494.411 313.928 493.892 315.978 495.262C318.028 496.632 320.868 502.361 321.498 501.841C322.348 501.121 321.698 494.052 322.998 491.462C324.298 488.872 333.388 489.372 332.998 486.462C334.998 485.722 335.518 488.042 337.218 494.462C337.968 497.352 343.408 503.851 343.518 510.051Z" fill="#6B78B7"/>
<path d="M309.143 539.052C320.093 534.932 326.453 526.332 330.593 522.312C336.123 516.942 342.203 512.312 343.323 510.532C343.675 511.906 343.824 513.324 343.763 514.742C343.643 515.952 335.943 521.742 329.823 527.662C325.683 531.662 319.323 540.282 308.373 544.392C303.813 546.112 293.053 543.822 293.073 543.032C293.005 541.234 293.129 539.434 293.443 537.662C293.433 538.462 304.583 540.762 309.143 539.052Z" fill="#070540"/>
<path d="M337.299 276.952C337.299 276.952 336.579 285.282 337.299 288.072C337.299 288.072 288.639 295.072 285.739 272.922C285.449 270.752 284.869 256.392 284.109 256.102C284.109 256.102 335.389 265.762 337.299 276.952Z" fill="#691813"/>
<path d="M285.509 270.112C285.189 265.252 284.709 256.322 284.109 256.112C284.109 256.112 335.389 265.772 337.299 276.962C337.299 276.962 337.229 277.762 337.159 278.962C322.459 268.772 285.509 270.112 285.509 270.112Z" fill="#450603"/>
<path d="M285.529 270.282C285.529 280.592 271.719 315.172 261.359 361.522C263.059 368.032 279.499 368.372 279.499 368.372C279.499 368.372 278.789 375.122 278.629 378.472C282.119 386.522 311.629 389.072 316.049 385.092C318.149 378.092 324.049 350.992 326.049 343.732C328.049 336.472 337.899 323.982 340.049 312.252C342.199 300.522 340.139 286.042 336.959 283.452C336.079 289.862 286.489 284.062 285.529 270.282Z" fill="#56BB5E"/>
<g style="mix-blend-mode:multiply" opacity="0.3">
<path d="M282.891 283.582C284.541 277.582 285.531 273.052 285.531 270.282C286.531 284.062 336.081 289.862 336.981 283.452C339.981 285.872 341.981 298.672 340.441 309.912C334.451 300.182 306.051 285.262 282.891 283.582Z" fill="#6B78B7"/>
</g>
<g style="mix-blend-mode:multiply" opacity="0.3">
<path d="M263.312 364.302C272.023 367.242 286.413 322.872 284.993 330.412C282.713 342.412 279.503 368.412 279.503 368.412C279.503 368.412 268.113 368.182 263.312 364.302Z" fill="#6B78B7"/>
</g>
<path d="M339.62 61.8317C332.13 61.2917 341.29 38.9817 341.77 34.5117C342.01 32.3317 336.64 33.8217 333.44 35.9817C330.24 38.1417 330.06 44.4117 330.06 44.4117L327.5 63.8317C327.5 63.8317 338.93 63.6617 339.62 61.8317Z" fill="#450603"/>
<g style="mix-blend-mode:multiply" opacity="0.5">
<path d="M339.62 61.8317C332.13 61.2917 341.29 38.9817 341.77 34.5117C342.01 32.3317 336.64 33.8217 333.44 35.9817C330.24 38.1417 330.06 44.4117 330.06 44.4117L327.5 63.8317C327.5 63.8317 338.93 63.6617 339.62 61.8317Z" fill="#450603"/>
</g>
<path d="M365.122 61.2733C378.807 55.9321 385.572 40.508 380.23 26.8226C374.889 13.1372 359.465 6.3729 345.78 11.7141C332.094 17.0553 325.33 32.4795 330.671 46.1649C336.012 59.8503 351.436 66.6146 365.122 61.2733Z" fill="#F07D18"/>
<path d="M342.597 22.3916C343.846 20.5431 345.273 18.8216 346.857 17.2516C344.84 16.3609 342.888 15.3283 341.017 14.1616C341.82 13.6385 342.651 13.1611 343.507 12.7316C345.244 13.7402 347.049 14.629 348.907 15.3916C350.409 14.1639 352.026 13.0854 353.737 12.1716C355.368 11.3117 357.084 10.6246 358.857 10.1216H359.247C361.192 10.4076 363.1 10.9039 364.937 11.6016C361.445 11.7795 358.033 12.7144 354.937 14.3416C353.811 14.9302 352.728 15.5986 351.697 16.3416C355.339 17.5497 359.062 18.4987 362.837 19.1816C368.957 20.3516 374.597 21.4316 379.527 25.2516C380.313 26.9307 380.923 28.6867 381.347 30.4916C376.137 24.2616 369.817 23.0616 362.347 21.6316C357.926 20.913 353.576 19.8088 349.347 18.3316C347.739 19.806 346.294 21.4487 345.037 23.2316C356.887 27.2316 370.287 35.3716 379.387 48.0416C378.982 48.877 378.535 49.6914 378.047 50.4816C369.107 37.3916 355.467 29.1116 343.677 25.2916C341.575 28.795 339.963 32.5702 338.887 36.5116C342.997 38.5116 346.007 42.1016 349.247 45.9516C353.477 50.9516 358.177 56.5416 366.367 60.7616C365.392 61.212 364.39 61.6027 363.367 61.9316C355.837 57.5916 351.247 52.1516 347.367 47.5616C344.237 43.8416 341.617 40.7416 338.297 38.9416C337.089 44.2703 336.482 49.7176 336.487 55.1816C335.614 54.291 334.802 53.3421 334.057 52.3416C334.226 47.4893 334.876 42.6657 335.997 37.9416C333.687 37.2482 331.254 37.0673 328.867 37.4116C328.867 36.5816 328.867 35.7516 328.867 34.9116C331.459 34.6002 334.088 34.8283 336.587 35.5816C337.667 31.735 339.226 28.0394 341.227 24.5816C338.393 23.7763 335.491 23.2307 332.557 22.9516C333.025 22.1667 333.533 21.4057 334.077 20.6716C336.959 21.0153 339.808 21.5905 342.597 22.3916Z" fill="#070540"/>
<path d="M323.434 142.352C323.434 142.352 319.064 134.282 317.604 131.352C316.144 128.422 335.114 74.2216 336.604 72.0216C340.364 66.4116 350.334 65.2916 350.754 62.5516C350.994 60.9416 349.754 60.3416 348.004 60.1116C344.794 59.7016 341.604 60.8916 339.724 61.2716C337.844 61.6516 332.904 62.2716 331.594 61.0616C329.474 59.0616 329.804 50.6316 329.914 48.3916C330.024 46.1516 330.394 42.2516 329.454 41.5416C328.514 40.8316 326.674 42.1016 325.934 47.2416C325.194 52.3816 325.294 67.9716 324.244 70.8116C323.194 73.6516 309.914 98.9216 307.244 103.892C304.574 108.862 298.554 124.442 297.854 127.122C297.154 129.802 311.134 157.452 312.854 160.702C314.574 163.952 324.724 145.422 323.434 142.352Z" fill="#450603"/>
<g style="mix-blend-mode:multiply" opacity="0.3">
<path d="M320.391 136.682C321.931 139.572 323.391 142.352 323.391 142.352C324.681 145.422 314.651 163.952 312.871 160.692C312.131 159.322 309.211 153.632 306.141 147.292C311.821 145.216 316.773 141.529 320.391 136.682Z" fill="#450603"/>
</g>
<path d="M341.681 162.112C341.081 161.872 327.271 148.182 323.091 140.482C323.091 140.482 313.641 146.962 310.951 156.692C308.261 166.422 335.701 181.342 342.011 182.182C348.321 183.022 350.471 165.612 341.681 162.112Z" fill="#5FD068"/>
<path d="M370.322 169.292C370.322 169.292 372.432 165.612 379.912 162.472C385.602 160.082 389.812 156.152 388.142 147.922C386.472 139.692 377.862 134.642 374.462 134.032C371.062 133.422 368.622 136.762 368.622 136.762C368.622 136.762 359.632 163.592 370.322 169.292Z" fill="#330300"/>
<path d="M347.446 152.672C346.936 154.922 351.446 158.722 351.596 159.412C351.746 160.102 349.146 166.852 349.146 166.852C349.146 166.852 367.036 176.072 367.636 176.552C367.636 176.552 368.996 172.252 370.316 169.292C370.316 169.292 368.506 163.522 374.626 159.082C377.766 156.792 374.436 155.952 374.436 155.952C374.436 155.952 350.516 148.182 347.446 152.672Z" fill="#450603"/>
<path d="M367.433 157.412C368.723 158.972 373.433 161.342 375.893 157.862C378.353 154.382 374.743 152.732 370.303 153.532C369.593 153.662 374.623 148.282 374.683 147.722C374.683 147.352 374.683 145.282 375.293 144.612C376.673 143.152 378.373 142.412 377.883 141.002C376.793 137.842 373.293 136.462 371.323 136.332C369.353 136.202 363.533 138.152 359.143 141.262C357.463 142.462 348.373 150.852 347.453 152.672C349.743 150.792 354.773 156.372 360.453 158.482C361.605 158.947 362.862 159.092 364.09 158.904C365.318 158.716 366.473 158.2 367.433 157.412Z" fill="#691813"/>
<path d="M374.198 186.251C374.198 186.251 372.038 196.541 356.848 226.141C347.078 245.141 337.678 263.201 337.298 276.951C337.918 274.291 268.818 255.171 266.458 269.291C266.458 269.291 263.998 254.131 275.398 237.471C286.798 220.811 318.208 174.601 332.058 168.771C345.908 162.941 374.198 186.251 374.198 186.251Z" fill="#E6E8F4"/>
<path d="M359.324 199.042C331.884 195.712 312.664 213.132 295.094 209.412C308.204 191.412 323.494 172.412 332.094 168.772C343.024 164.162 362.934 177.702 370.854 183.622C370.564 183.672 365.044 199.732 359.324 199.042Z" fill="#ACB3D8"/>
<path d="M321.283 187.762C321.283 187.762 317.723 187.622 317.113 174.052C316.503 160.482 340.543 180.112 340.543 180.112C340.543 180.112 329.073 190.552 321.283 187.762Z" fill="#1B9B25"/>
<path d="M325.198 158.462C325.198 158.462 316.328 156.462 313.558 153.972C310.788 151.482 292.878 112.602 291.778 109.712C290.678 106.822 295.148 103.212 296.398 101.042C297.648 98.8717 302.608 95.4618 304.008 94.3218C305.408 93.1818 302.748 91.4517 301.158 91.8317C299.568 92.2117 294.398 95.2917 293.058 95.2617C291.718 95.2317 291.058 89.1917 290.918 86.7617C290.778 84.3317 292.018 70.9717 292.078 69.4817C292.065 69.1283 291.93 68.7905 291.694 68.527C291.458 68.2635 291.137 68.0911 290.787 68.0399C290.437 67.9888 290.08 68.062 289.779 68.2469C289.478 68.4318 289.251 68.7167 289.138 69.0517C288.558 70.8417 286.498 83.2318 286.018 84.0518C285.538 84.8717 284.758 84.6117 284.728 84.0518C284.698 83.4918 285.158 68.1117 285.228 66.8917C285.298 65.6717 282.938 64.5818 282.338 66.4718C281.738 68.3618 280.338 82.7717 279.908 83.3018C279.478 83.8318 275.298 69.3017 274.908 68.2317C274.518 67.1617 272.028 67.4417 272.128 69.3317C272.228 71.2217 276.288 84.6517 275.928 85.6117C275.568 86.5717 269.098 78.4717 268.238 77.7617C267.378 77.0517 265.028 77.7617 266.238 79.8317C267.448 81.9017 271.898 88.0918 272.728 89.7118C273.558 91.3318 274.198 100.612 275.198 103.592C275.918 105.822 278.788 108.712 279.558 109.732C280.328 110.752 292.098 158.492 294.478 163.522C296.858 168.552 329.628 184.742 332.228 186.722C334.828 188.702 338.508 163.012 325.198 158.462Z" fill="#691813"/>
<path opacity="0.5" d="M323.123 157.942C324.363 158.272 325.203 158.462 325.203 158.462C338.513 163.012 334.803 188.702 332.203 186.722C331.203 185.982 326.123 183.292 319.953 179.942C326.033 176.802 323.203 158.282 323.123 157.942Z" fill="#450603"/>
<path d="M374.471 179.792C372.841 172.732 366.291 166.332 352.721 164.122C339.151 161.912 325.201 158.462 325.201 158.462C332.011 164.112 331.011 191.132 321.281 187.762C321.281 187.762 348.101 198.302 359.281 199.042C370.461 199.782 375.851 185.792 374.471 179.792Z" fill="#5FD068"/>
<path d="M374.702 481.692C374.702 481.692 372.262 482.222 371.332 482.452C370.772 482.592 370.762 485.042 371.112 485.612C371.462 486.182 375.012 486.612 375.012 486.612C375.012 486.612 375.272 481.942 374.702 481.692Z" fill="#070540"/>
<path d="M374.818 488.182L371.528 489.182C370.988 489.362 371.178 491.812 371.578 492.352C371.978 492.892 375.578 493.052 375.578 493.052C375.578 493.052 375.408 488.372 374.818 488.182Z" fill="#070540"/>
<path d="M377.199 510.512C377.199 510.512 374.859 510.512 373.959 510.512C373.429 510.512 372.959 512.772 373.129 513.362C373.299 513.952 376.479 515.092 376.479 515.092C376.479 515.092 377.699 510.862 377.199 510.512Z" fill="#070540"/>
<path d="M375.704 521.882C375.704 521.882 373.834 522.702 373.114 523.032C372.694 523.232 373.114 525.212 373.444 525.612C373.774 526.012 376.744 525.822 376.744 525.822C376.744 525.822 376.204 521.992 375.704 521.882Z" fill="#070540"/>
<path d="M377.403 528.411C377.403 528.411 376.283 530.121 375.863 530.791C375.613 531.181 377.133 532.581 377.723 532.571C378.681 532.22 379.588 531.746 380.423 531.161C380.423 531.161 377.883 528.241 377.403 528.411Z" fill="#070540"/>
<path d="M437.201 454.332C438.581 462.022 404.141 480.652 394.761 499.802C393.961 501.432 389.141 510.602 387.511 511.242C383.091 513.002 380.801 506.302 380.431 503.752C379.431 496.882 380.291 481.972 387.211 476.832C394.431 471.472 402.881 458.312 407.051 449.932C410.421 443.162 419.721 430.012 426.771 429.932C433.821 429.852 437.201 454.332 437.201 454.332Z" fill="#E6E8F4"/>
<path d="M413.822 439.472C414.372 438.772 414.942 438.082 415.532 437.412C415.455 437.63 415.395 437.854 415.352 438.082C412.872 450.762 419.932 463.392 425.872 466.522C426.211 466.702 426.566 466.852 426.932 466.972L425.802 467.972L425.262 467.722C419.202 464.502 412.112 452.182 413.822 439.472Z" fill="#6B78B7"/>
<path d="M393.902 500.702C395.902 496.462 390.682 492.702 386.562 497.522L386.172 507.262C386.172 507.262 391.562 508.492 391.462 508.342C391.362 508.192 393.902 500.702 393.902 500.702Z" fill="#6B78B7"/>
<path d="M387.204 476.832C385.134 478.042 378.634 476.121 374.534 479.901C370.944 483.201 376.754 500.902 375.984 505.122C375.214 509.342 372.484 514.552 373.614 522.882C374.744 531.212 381.104 535.132 386.354 534.052C390.354 533.242 390.354 520.141 391.694 511.901C393.174 502.811 396.754 498.562 396.754 498.562C396.754 498.562 392.354 498.372 389.554 505.562C389.554 505.562 391.674 500.432 387.714 496.742C383.754 493.052 381.254 483.552 387.204 476.832Z" fill="#ACB3D8"/>
<path d="M421.931 393.982C421.931 393.982 426.391 396.562 447.311 395.462C468.231 394.362 460.151 384.012 451.311 383.242C442.471 382.472 421.771 388.282 421.931 393.982Z" fill="#070540"/>
<path d="M472.617 394.182C472.617 394.182 466.717 414.892 461.127 424.612C455.537 434.332 454.537 440.552 451.297 443.692C448.667 446.232 444.457 448.872 436.627 456.862C432.317 461.252 421.537 446.752 424.057 433.862C425.057 428.792 430.517 429.392 431.287 424.592C432.057 419.792 430.287 393.942 429.947 388.752C429.607 383.562 470.077 377.322 472.617 394.182Z" fill="#FFD2B3"/>
<path d="M430.758 401.662C430.428 395.902 430.088 390.822 429.948 388.822C429.598 383.642 470.078 377.322 472.618 394.212C472.618 394.212 472.118 395.962 471.278 398.682C459.788 392.532 435.628 398.432 430.758 401.662Z" fill="#FFB98B"/>
<path d="M468.271 312.182C468.271 312.182 478.121 344.612 477.451 361.002C476.781 377.392 472.971 394.642 472.511 394.642C472.581 394.092 473.951 388.932 457.761 388.192C439.341 387.352 422.631 390.682 421.931 393.942C417.931 393.532 428.011 378.402 425.611 352.992C423.211 327.582 404.461 318.572 404.461 318.572C404.461 318.572 409.291 313.922 407.711 309.122C407.711 309.182 456.251 317.972 468.271 312.182Z" fill="#6B78B7"/>
<g style="mix-blend-mode:multiply" opacity="0.3">
<path d="M468.271 312.182C468.271 312.182 478.121 344.612 477.451 361.002C476.781 377.392 472.971 394.642 472.511 394.642C472.581 394.092 473.951 388.932 457.761 388.192C439.341 387.352 422.631 390.682 421.931 393.942C417.931 393.532 428.011 378.402 425.611 352.992C423.211 327.582 404.461 318.572 404.461 318.572C404.461 318.572 409.291 313.922 407.711 309.122C407.711 309.182 456.251 317.972 468.271 312.182Z" fill="#6B78B7"/>
</g>
<path d="M429.602 383.642C429.602 383.642 436.782 389.032 453.002 371.532C470.062 353.122 436.262 352.532 435.492 352.612C434.722 352.692 422.052 374.302 429.602 383.642Z" fill="#070540"/>
<path d="M472.548 338.832C472.548 338.832 499.438 360.942 505.798 369.962C507.878 372.962 504.618 386.962 504.158 402.182C499.668 400.672 481.548 401.672 476.108 403.422C477.388 396.692 479.938 391.042 479.928 389.422C479.928 386.822 446.338 372.882 437.208 366.642C428.078 360.402 445.008 328.512 472.548 338.832Z" fill="#FFD2B3"/>
<path d="M472.548 338.832C472.548 338.832 473.628 339.712 475.378 341.192L475.018 341.292C460.188 346.292 454.138 360.532 452.538 374.862C446.128 371.742 440.278 368.762 437.208 366.662C428.078 360.432 445.008 328.512 472.548 338.832Z" fill="#FFB98B"/>
<path d="M472.549 338.832C475.709 336.242 416.889 302.522 405.619 308.562C395.919 313.762 400.739 336.262 404.049 347.032C409.719 365.482 421.299 371.532 429.599 383.642C427.509 381.142 427.929 374.822 438.749 365.712C451.089 355.332 452.359 338.942 472.549 338.832Z" fill="#6B78B7"/>
<path d="M481.593 457.942C480.593 446.872 475.343 421.762 475.423 403.072C475.523 402.492 488.823 395.982 504.613 401.752C503.743 422.952 500.803 447.682 500.093 464.602C499.773 472.192 503.493 481.472 503.403 483.302C503.403 483.302 491.263 491.922 478.763 470.672C479.933 469.702 482.423 467.432 481.593 457.942Z" fill="#E6E8F4"/>
<path d="M504.199 409.432L504.109 410.782C494.816 407.724 484.734 408.107 475.699 411.862C475.659 411.395 475.629 410.925 475.609 410.452C480.199 408.412 491.449 405.402 504.199 409.432Z" fill="#6B78B7"/>
<path d="M506.821 492.062C505.554 487.151 504.773 482.126 504.491 477.062C504.491 475.192 500.291 476.932 500.491 480.792C500.601 483.842 507.871 496.372 506.821 492.062Z" fill="#6B78B7"/>
<path d="M482.108 489.182C480.939 489.991 479.708 490.706 478.428 491.322C477.668 491.742 475.628 489.692 475.988 489.012C476.348 488.332 477.718 484.782 478.178 484.802C478.638 484.822 481.918 488.232 482.108 489.182Z" fill="#070540"/>
<path d="M495.2 502.481C494.028 502.994 492.818 503.415 491.58 503.741C490.84 503.991 489.39 501.831 489.82 501.291C490.25 500.751 492.07 497.841 492.48 497.941C492.89 498.041 495.2 501.601 495.2 502.481Z" fill="#070540"/>
<path d="M500.33 507.242C499.422 507.951 498.463 508.593 497.46 509.162C496.86 509.552 495.11 507.992 495.36 507.422C495.61 506.852 496.54 503.902 496.91 503.892C498.273 504.756 499.438 505.897 500.33 507.242Z" fill="#070540"/>
<path d="M506.56 512.792C505.809 513.493 505.007 514.138 504.16 514.722C503.67 515.102 501.99 513.862 502.16 513.342C502.33 512.822 502.93 510.132 503.27 510.102C504.542 510.761 505.662 511.677 506.56 512.792Z" fill="#070540"/>
<path d="M513.368 514.722C512.882 515.542 512.333 516.325 511.728 517.062C511.388 517.532 509.568 516.862 509.598 516.352C509.628 515.842 509.448 513.282 509.738 513.172C511.045 513.425 512.282 513.953 513.368 514.722Z" fill="#070540"/>
<path d="M477.811 484.182C476.641 484.988 475.41 485.704 474.131 486.322C473.371 486.742 471.331 484.692 471.691 484.012C472.051 483.332 473.421 479.782 473.881 479.802C474.341 479.822 477.621 483.232 477.811 484.182Z" fill="#070540"/>
<path d="M508.971 497.642C506.191 490.102 503.421 484.072 502.451 480.642C501.561 477.522 492.611 481.642 488.071 479.762C479.561 476.152 480.131 469.162 480.131 469.162C479.841 469.222 472.501 472.282 472.461 479.642C472.468 480.218 472.676 480.774 473.051 481.212C476.276 485.002 479.733 488.589 483.401 491.952C491.051 499.112 496.171 507.822 504.121 513.252C512.071 518.682 516.471 516.502 517.301 514.862C518.131 513.222 510.671 502.272 508.971 497.642Z" fill="#ACB3D8"/>
<path d="M376.288 242.092C376.288 242.092 366.878 245.542 364.668 246.532C362.458 247.522 357.738 255.402 351.808 261.172C345.878 266.942 338.658 274.812 337.748 277.802C336.838 280.792 339.108 287.002 338.388 289.802C337.316 293.433 336.034 296.999 334.548 300.482C333.938 301.672 331.748 301.362 330.848 299.482C330.848 299.482 325.028 300.632 322.908 298.012C321.518 296.192 320.798 291.242 320.598 289.342C320.398 287.442 326.758 276.342 328.268 273.782C329.778 271.222 346.808 239.882 351.618 236.402C356.428 232.922 361.438 232.252 366.748 229.672C366.748 229.652 376.098 238.992 376.288 242.092Z" fill="#FFD2B3"/>
<path d="M322.907 297.991C322.307 297.074 321.87 296.059 321.617 294.991C323.174 295.175 324.752 295.084 326.277 294.721C329.977 293.841 333.357 286.011 331.587 291.001C330.517 293.699 330.26 296.65 330.847 299.491C330.847 299.491 325.027 300.611 322.907 297.991Z" fill="#FFB98B"/>
<path d="M366.75 229.652C366.75 229.652 376.1 238.992 376.29 242.092C376.29 242.092 366.88 245.542 364.67 246.532C363.714 247.147 362.88 247.933 362.21 248.852C364.76 245.632 360.96 233.322 356.57 233.662C359.86 232.242 363.2 231.352 366.75 229.652Z" fill="#FFB98B"/>
<path d="M484.098 247.972C484.098 247.972 488.728 248.332 490.198 239.972C491.668 231.612 470.688 225.642 470.688 225.642C470.688 225.642 477.198 244.682 484.098 247.972Z" fill="#00B09D"/>
<path d="M489.423 220.242C489.423 220.242 512.354 231.342 515.794 232.242C519.234 233.142 523.643 252.242 521.633 252.152C514.633 251.812 477.904 239.722 476.784 238.892C475.664 238.062 478.823 218.422 489.423 220.242Z" fill="#FFD2B3"/>
<path opacity="0.4" d="M505.789 227.981C510.379 230.091 514.489 231.911 515.789 232.251C519.239 233.171 523.639 252.251 521.629 252.161C519.239 252.041 513.359 250.541 506.629 248.601C512.049 248.881 507.659 232.431 505.789 227.981Z" fill="#FFB98B"/>
<path d="M489.422 220.242L492.202 221.582C489.202 221.992 486.202 240.212 486.712 242.422C481.172 240.602 477.132 239.172 476.772 238.902C475.662 238.072 478.822 218.422 489.422 220.242Z" fill="#FFB98B"/>
<path d="M523.063 233.182C523.063 233.182 523.433 235.182 526.713 239.422C529.993 243.662 528.203 250.182 524.203 251.722C520.203 253.262 514.613 249.812 512.983 244.782C511.983 241.523 511.445 238.14 511.383 234.732L523.063 233.182Z" fill="#FFE5CF"/>
<path d="M525.298 224.342C525.298 224.342 524.888 232.472 523.248 235.482C520.838 239.882 514.248 239.592 510.898 237.482C507.548 235.372 505.898 228.812 505.898 227.212C505.898 225.612 506.468 224.822 508.968 224.332C511.468 223.842 525.298 224.342 525.298 224.342Z" fill="#FFB98B"/>
<path d="M520.893 226.932C520.893 226.932 520.303 229.822 521.163 230.872C522.023 231.922 523.703 231.392 524.393 229.722C525.104 227.569 525.603 225.352 525.883 223.102C526.143 221.272 523.173 219.652 522.263 221.102C521.353 222.552 521.143 225.772 520.893 226.932Z" fill="#FFE5CF"/>
<path d="M516.41 230.462C516.41 230.462 516.41 232.852 518.09 233.282C519.41 233.622 520.69 232.772 520.99 230.992C521.29 229.212 522.38 222.772 522.23 220.932C522.08 219.092 518.61 218.422 517.83 219.932C516.63 222.272 516.25 228.642 516.41 230.462Z" fill="#FFE5CF"/>
<path d="M511.812 229.452C511.812 229.452 511.812 232.452 513.812 232.962C515.152 233.282 516.132 232.042 516.432 230.232C516.732 228.422 517.942 221.372 517.792 219.492C517.642 217.612 513.792 217.312 512.982 218.852C511.792 221.232 511.652 227.602 511.812 229.452Z" fill="#FFE5CF"/>
<path d="M507.853 226.912C507.853 226.912 508.303 229.542 509.443 230.292C510.583 231.042 512.023 230.002 512.173 228.192C512.323 226.382 512.993 220.822 512.683 218.982C512.373 217.142 508.533 217.172 507.883 218.762C506.883 221.182 507.543 225.092 507.853 226.912Z" fill="#FFE5CF"/>
<path d="M450.334 175.282C450.334 175.282 451.874 164.442 437.994 162.662C426.304 161.202 419.774 169.472 419.844 178.102C419.904 185.182 418.034 186.162 409.304 184.432C400.574 182.702 389.504 187.322 389.394 197.942C389.204 216.052 397.394 221.002 416.304 224.542C435.214 228.082 446.534 205.112 443.574 194.862C440.614 184.612 444.434 174.662 450.334 175.282Z" fill="#F07D18"/>
<path d="M468.269 312.182C468.269 312.182 478.089 308.032 476.119 301.182C474.149 294.332 464.769 278.182 467.239 263.412C469.709 248.642 471.939 251.592 468.989 238.982C468.989 238.982 478.849 246.822 484.099 247.892C484.099 247.892 479.609 245.322 480.699 235.892C481.789 226.462 486.529 221.892 489.419 220.172C489.419 220.172 475.099 214.172 467.329 209.002C459.559 203.832 449.569 205.172 437.499 206.942C421.289 209.312 402.569 205.852 392.209 209.182C381.849 212.512 372.709 224.622 361.519 231.702C358.809 233.422 371.519 250.702 381.849 246.702C383.719 245.992 391.319 240.892 392.669 240.072C394.019 239.252 401.779 244.642 404.779 263.182C406.479 273.652 405.609 298.382 404.239 302.582C402.869 306.782 403.979 308.452 407.709 309.092C411.439 309.732 445.199 321.722 468.269 312.182Z" fill="#5BCFDE"/>
<g opacity="0.5">
<path d="M479.248 245.972C475.664 243.921 472.235 241.612 468.988 239.062C468.988 239.062 465.618 228.522 465.738 224.622C465.858 220.722 475.198 243.922 479.248 245.972Z" fill="#00B09D"/>
<path d="M479.729 246.232L479.359 246.032C480.249 246.432 480.249 246.452 479.729 246.232Z" fill="#00B09D"/>
<path d="M437.289 207.032H437.499C445.389 205.872 452.389 204.932 458.499 205.842C455.499 205.522 446.718 206.112 453.238 209.162C460.238 212.442 464.379 221.602 458.769 223.552C453.159 225.502 437.579 217.552 437.579 217.552C436.509 214.14 436.409 210.497 437.289 207.032Z" fill="#00B09D"/>
</g>
<path d="M450.343 203.072C448 203.953 445.547 204.508 443.053 204.722C443.123 205.722 444.493 213.012 443.853 217.062C443.023 222.322 423.853 211.672 424.583 207.902C424.583 207.902 429.723 198.412 427.813 191.502C427.813 191.502 452.383 202.182 450.343 203.072Z" fill="#FFB98B"/>
<g style="mix-blend-mode:multiply" opacity="0.33">
<path d="M433.93 194.182C433.525 193.97 433.065 193.883 432.61 193.932C430.963 194.055 429.409 194.744 428.21 195.882C428.324 194.394 428.192 192.897 427.82 191.452C427.82 191.452 430.46 192.642 433.93 194.182Z" fill="#FFB98B"/>
</g>
<g style="mix-blend-mode:multiply" opacity="0.33">
<path d="M432.508 198.312C432.508 198.312 451.978 202.312 450.338 203.072C447.995 203.952 445.542 204.508 443.048 204.722C435.728 202.762 432.508 198.312 432.508 198.312Z" fill="#FFB98B"/>
</g>
<path d="M449.707 173.341C451.927 177.751 451.707 199.861 451.467 202.081C451.277 203.491 447.377 203.701 444.627 203.131C440.527 202.185 436.575 200.688 432.877 198.681C431.667 197.821 431.247 194.771 431.117 193.161C429.977 193.961 427.517 192.731 426.777 190.161C426.557 189.081 429.677 188.061 431.017 188.471C431.829 189.339 432.461 190.359 432.877 191.471C431.637 182.241 439.347 181.471 438.227 174.401C437.677 170.941 445.377 173.101 446.127 172.711C446.877 172.321 447.497 168.921 449.707 173.341Z" fill="#FFD2B3"/>
<path opacity="0.5" d="M409.201 256.822C414.111 264.042 430.121 271.912 430.561 274.762C431.001 277.612 406.341 266.862 405.691 274.652C405.638 270.837 405.347 267.03 404.821 263.252C401.821 244.712 394.061 239.332 392.711 240.142C392.711 240.142 401.651 233.402 404.051 233.562C406.451 233.722 404.201 249.612 409.201 256.822Z" fill="#00B09D"/>
<path d="M465.761 131.252L468.981 122.952L463.521 118.872L454.781 122.072L451.781 129.432L457.181 134.162L465.761 131.252Z" fill="#F4F3F3"/>
<path d="M452.303 128.982L454.933 122.552C454.963 122.48 455.006 122.415 455.061 122.36C455.116 122.305 455.181 122.261 455.253 122.232L463.193 119.332C463.281 119.298 463.376 119.287 463.469 119.301C463.562 119.315 463.65 119.353 463.723 119.412L468.263 122.802C468.362 122.874 468.433 122.977 468.468 123.095C468.502 123.212 468.497 123.337 468.453 123.452L465.623 130.752C465.594 130.83 465.547 130.9 465.486 130.957C465.426 131.014 465.353 131.057 465.273 131.082L457.563 133.712C457.468 133.741 457.367 133.747 457.269 133.727C457.172 133.708 457.08 133.665 457.003 133.602L452.453 129.602C452.368 129.526 452.308 129.426 452.281 129.315C452.255 129.204 452.262 129.088 452.303 128.982Z" fill="white"/>
<path d="M451.777 129.432L446.938 135.632L449.167 143.782L455.407 143.062L457.177 134.162L451.777 129.432Z" fill="#070540"/>
<path d="M468.977 122.952L477.907 124.262L479.907 122.012C475.936 118.52 470.781 116.678 465.497 116.862L463.547 118.862L468.977 122.952Z" fill="#F4F3F3"/>
<path d="M465.844 117.182C470.619 117.106 475.271 118.701 478.994 121.692C479.053 121.74 479.101 121.799 479.136 121.867C479.171 121.934 479.192 122.008 479.198 122.084C479.204 122.16 479.194 122.236 479.169 122.308C479.144 122.379 479.105 122.446 479.054 122.502L477.994 123.722C477.931 123.792 477.851 123.845 477.762 123.876C477.673 123.908 477.577 123.916 477.484 123.902L469.204 122.672C469.112 122.661 469.025 122.622 468.954 122.562L464.514 119.182C464.448 119.135 464.394 119.075 464.354 119.006C464.314 118.936 464.29 118.858 464.283 118.778C464.276 118.698 464.287 118.617 464.315 118.542C464.343 118.467 464.387 118.398 464.444 118.342L465.444 117.342C465.497 117.29 465.559 117.248 465.628 117.221C465.697 117.194 465.77 117.18 465.844 117.182Z" fill="white"/>
<path d="M463.523 118.872L465.473 116.872C461.194 117.007 457.06 118.456 453.633 121.022L454.783 122.082L463.523 118.872Z" fill="#070540"/>
<path d="M451.783 129.432L454.783 122.072L453.633 121.012C451.385 122.701 449.502 124.827 448.097 127.262C446.691 129.697 445.792 132.391 445.453 135.182L446.943 135.682L451.783 129.432Z" fill="#F4F3F3"/>
<path d="M446.198 135.072C446.073 135.029 445.966 134.943 445.897 134.83C445.827 134.717 445.799 134.583 445.818 134.452C446.441 130.638 448.129 127.078 450.688 124.182C451.467 123.301 452.317 122.485 453.228 121.742C453.331 121.652 453.462 121.602 453.598 121.602C453.734 121.602 453.866 121.652 453.968 121.742L454.128 121.882C454.21 121.962 454.267 122.064 454.292 122.176C454.317 122.288 454.309 122.404 454.268 122.512L451.538 129.182C451.518 129.232 451.491 129.279 451.458 129.322L447.068 134.932C446.997 135.024 446.9 135.092 446.789 135.126C446.677 135.16 446.559 135.158 446.448 135.122L446.198 135.072Z" fill="white"/>
<path d="M446.939 135.632L445.449 135.132C444.82 140.312 446.158 145.54 449.199 149.782V143.782L446.939 135.632Z" fill="#F4F3F3"/>
<path d="M447.791 146.912C446.135 143.618 445.396 139.939 445.651 136.262C445.66 136.177 445.688 136.095 445.733 136.022C445.778 135.949 445.838 135.887 445.91 135.841C445.983 135.795 446.064 135.766 446.149 135.756C446.234 135.745 446.32 135.754 446.401 135.782C446.487 135.812 446.564 135.862 446.627 135.928C446.69 135.994 446.736 136.074 446.761 136.162L448.841 143.752C448.846 143.802 448.846 143.852 448.841 143.902V146.662C448.836 146.784 448.792 146.902 448.714 146.996C448.637 147.091 448.53 147.158 448.411 147.186C448.292 147.214 448.167 147.203 448.055 147.153C447.943 147.104 447.85 147.019 447.791 146.912Z" fill="white"/>
<path d="M462.201 149.032L458.791 146.032L455.381 143.032L449.141 143.762V149.762C450.079 151.079 451.166 152.284 452.381 153.352C453.606 154.416 454.948 155.339 456.381 156.102L462.321 155.292L462.201 149.032Z" fill="#F4F3F3"/>
<path d="M452.61 153.182C451.491 152.192 450.485 151.082 449.61 149.872C449.537 149.774 449.498 149.654 449.5 149.532V144.602C449.504 144.465 449.556 144.335 449.648 144.234C449.74 144.133 449.865 144.068 450 144.052L455.08 143.452C455.159 143.442 455.24 143.449 455.316 143.473C455.391 143.497 455.461 143.538 455.52 143.592L461.75 149.052C461.866 149.158 461.938 149.304 461.95 149.462L462.03 154.582C462.031 154.72 461.983 154.854 461.892 154.959C461.802 155.064 461.677 155.132 461.54 155.152L456.65 155.812C456.529 155.824 456.407 155.799 456.3 155.742C454.98 155.026 453.742 154.168 452.61 153.182Z" fill="white"/>
<path d="M472.584 137.222L469.174 134.232L465.764 131.252L457.184 134.162L455.414 143.062L458.824 146.042L462.234 149.032L470.824 146.112L472.584 137.222Z" fill="#F4F3F3"/>
<path d="M455.822 142.622L457.392 134.722C457.409 134.624 457.452 134.533 457.517 134.459C457.583 134.385 457.668 134.33 457.762 134.302L465.382 131.702C465.477 131.672 465.578 131.667 465.676 131.686C465.774 131.705 465.865 131.748 465.942 131.812L472.002 137.122C472.076 137.186 472.132 137.27 472.163 137.363C472.195 137.456 472.201 137.555 472.182 137.652L470.612 145.562C470.593 145.658 470.548 145.747 470.483 145.821C470.419 145.895 470.335 145.95 470.242 145.982L462.612 148.572C462.519 148.607 462.419 148.615 462.321 148.595C462.224 148.576 462.134 148.53 462.062 148.462L456.002 143.182C455.922 143.115 455.863 143.027 455.831 142.928C455.799 142.829 455.796 142.722 455.822 142.622Z" fill="white"/>
<path d="M472.58 137.222L480.38 132.942L485.14 137.812L483.12 146.902L476.21 150.842L470.82 146.112L472.58 137.222Z" fill="#F4F3F3"/>
<path d="M471.199 145.682L472.789 137.682C472.804 137.601 472.837 137.525 472.885 137.46C472.934 137.394 472.997 137.34 473.069 137.302L479.929 133.532C480.036 133.473 480.16 133.451 480.281 133.469C480.402 133.487 480.514 133.544 480.599 133.632L484.599 137.692C484.663 137.761 484.709 137.844 484.733 137.935C484.757 138.025 484.759 138.12 484.739 138.212L482.909 146.452C482.87 146.606 482.774 146.738 482.639 146.822L476.639 150.262C476.538 150.32 476.421 150.345 476.305 150.334C476.188 150.323 476.078 150.277 475.989 150.202L471.439 146.202C471.355 146.146 471.288 146.067 471.246 145.976C471.204 145.884 471.187 145.782 471.199 145.682Z" fill="white"/>
<path d="M477.908 124.262L468.978 122.952L465.758 131.252L469.168 134.232L472.578 137.222L480.378 132.942L477.908 124.262Z" fill="#070540"/>
<path d="M476.207 150.842L470.707 156.462L462.327 155.312L462.227 149.032L470.817 146.112L476.207 150.842Z" fill="#070540"/>
<path d="M480.384 132.942L477.914 124.262L479.914 122.012C483.897 125.49 486.401 130.359 486.914 135.622L485.174 137.812L480.384 132.942Z" fill="#F4F3F3"/>
<path d="M480.622 132.642L478.342 124.642C478.316 124.552 478.313 124.457 478.334 124.366C478.355 124.275 478.399 124.191 478.462 124.122L479.522 122.902C479.574 122.847 479.637 122.803 479.706 122.774C479.776 122.744 479.851 122.729 479.927 122.729C480.002 122.729 480.077 122.744 480.147 122.774C480.217 122.803 480.279 122.847 480.332 122.902C483.788 126.197 485.982 130.598 486.532 135.342C486.548 135.492 486.505 135.643 486.412 135.762L485.512 136.892C485.46 136.953 485.396 137.002 485.323 137.036C485.251 137.069 485.172 137.087 485.092 137.087C485.012 137.087 484.933 137.069 484.86 137.036C484.788 137.002 484.723 136.953 484.672 136.892L480.762 132.892C480.699 132.819 480.651 132.734 480.622 132.642Z" fill="white"/>
<path d="M485.137 137.812L486.877 135.622C487.309 139.881 486.415 144.17 484.317 147.902L483.117 146.902L485.137 137.812Z" fill="#070540"/>
<path d="M476.203 150.842L483.113 146.902L484.313 147.902C483.606 149.163 482.768 150.346 481.813 151.432C479.065 154.575 475.434 156.819 471.393 157.872L470.703 156.462L476.203 150.842Z" fill="#F4F3F3"/>
<path d="M471.358 156.232L476.358 151.152L476.488 151.052L482.748 147.472C482.842 147.406 482.953 147.371 483.068 147.371C483.182 147.371 483.294 147.406 483.388 147.472L483.558 147.612C483.661 147.699 483.73 147.821 483.752 147.954C483.774 148.088 483.748 148.225 483.678 148.342C481.038 152.677 476.889 155.882 472.028 157.342C471.9 157.378 471.764 157.368 471.643 157.313C471.522 157.258 471.424 157.162 471.368 157.042L471.268 156.842C471.224 156.742 471.209 156.631 471.225 156.524C471.241 156.416 471.287 156.314 471.358 156.232Z" fill="white"/>
<path d="M470.708 156.462L471.398 157.872C466.355 159.178 461.006 158.554 456.398 156.122L462.338 155.312L470.708 156.462Z" fill="#F4F3F3"/>
<path d="M462.41 155.642L470.2 156.702C470.292 156.714 470.379 156.748 470.454 156.803C470.53 156.857 470.59 156.928 470.63 157.012C470.669 157.088 470.69 157.172 470.691 157.257C470.692 157.343 470.673 157.428 470.637 157.505C470.6 157.582 470.546 157.65 470.479 157.703C470.412 157.756 470.334 157.793 470.25 157.812C466.642 158.55 462.901 158.305 459.42 157.102C459.298 157.062 459.193 156.983 459.123 156.875C459.053 156.768 459.021 156.64 459.034 156.512C459.047 156.384 459.103 156.265 459.194 156.174C459.284 156.083 459.403 156.026 459.53 156.012L462.26 155.642H462.41Z" fill="white"/>
</svg>
