<svg width="562" height="607" viewBox="0 0 562 607" fill="none" xmlns="http://www.w3.org/2000/svg">
<path d="M484.341 524.294H114.478C77.1816 508.008 46.9341 469.863 35.233 429.515C23.5318 389.168 29.9855 343.496 52.3696 308.38C66.342 286.52 86.4705 267.783 92.8928 242.284C99.0331 217.973 91.3264 192.1 80.1578 169.803C68.9893 147.506 54.4842 126.957 45.5087 103.676C36.5331 80.3953 33.9015 52.3989 46.5425 30.9917C60.4053 7.57028 89.807 -2.1262 115.935 1.82422C142.063 5.77463 165.387 20.9986 186.063 38.1431C206.74 55.2876 225.756 74.7274 248.046 89.4829C270.337 104.238 297.107 114.06 323.093 109.173C343.708 105.316 361.659 92.7306 380.377 82.9092C399.096 73.0879 421.104 65.8584 440.763 73.3845C465.606 82.8936 477.95 113.388 476.963 140.979C475.976 168.569 464.776 194.442 455.816 220.424C446.856 246.407 440.027 274.949 447.796 301.338C456.255 330.068 480.237 350.507 495.149 376.286C519.93 418.945 513.664 484.868 484.341 524.294Z" fill="#FFEBDB"/>
<path d="M555.409 521.42H488.852C487.177 521.42 485.572 520.757 484.388 519.577C483.204 518.397 482.539 516.797 482.539 515.128C482.539 513.459 483.204 511.858 484.388 510.678C485.572 509.498 487.177 508.835 488.852 508.835H502.84C504.514 508.835 506.119 508.172 507.303 506.992C508.487 505.812 509.152 504.211 509.152 502.543C509.152 500.874 508.487 499.273 507.303 498.093C506.119 496.913 504.514 496.25 502.84 496.25H66.6551C64.9808 496.25 63.3752 496.913 62.1913 498.093C61.0075 499.273 60.3424 500.874 60.3424 502.543C60.3424 504.211 61.0075 505.812 62.1913 506.992C63.3752 508.172 64.9808 508.835 66.6551 508.835H80.6275C82.3017 508.835 83.9074 509.498 85.0912 510.678C86.2751 511.858 86.9402 513.459 86.9402 515.128C86.9402 516.797 86.2751 518.397 85.0912 519.577C83.9074 520.757 82.3017 521.42 80.6275 521.42H14.0861C12.4119 521.42 10.8062 522.083 9.62237 523.263C8.43852 524.443 7.77344 526.044 7.77344 527.713C7.77344 529.382 8.43852 530.982 9.62237 532.162C10.8062 533.342 12.4119 534.005 14.0861 534.005H117.626C119.301 534.005 120.906 534.668 122.09 535.848C123.274 537.028 123.939 538.629 123.939 540.298C123.939 541.967 123.274 543.567 122.09 544.747C120.906 545.928 119.301 546.59 117.626 546.59H90.3393C88.6671 546.59 87.0635 547.253 85.8811 548.431C84.6987 549.61 84.0345 551.208 84.0345 552.875C84.0345 554.542 84.6987 556.141 85.8811 557.319C87.0635 558.498 88.6671 559.16 90.3393 559.16H109.418C107.943 559.824 106.742 560.973 106.015 562.414C105.288 563.856 105.08 565.502 105.424 567.078C105.769 568.654 106.647 570.065 107.91 571.073C109.173 572.082 110.745 572.628 112.363 572.62H457.132C458.749 572.624 460.318 572.076 461.579 571.066C462.839 570.056 463.713 568.646 464.056 567.07C464.399 565.495 464.189 563.85 463.462 562.411C462.735 560.971 461.534 559.824 460.061 559.16H460.452C462.125 559.16 463.728 558.498 464.911 557.319C466.093 556.141 466.757 554.542 466.757 552.875C466.757 551.208 466.093 549.61 464.911 548.431C463.728 547.253 462.125 546.59 460.452 546.59H451.868C450.194 546.59 448.589 545.928 447.405 544.747C446.221 543.567 445.556 541.967 445.556 540.298C445.556 538.629 446.221 537.028 447.405 535.848C448.589 534.668 450.194 534.005 451.868 534.005H555.409C557.083 534.005 558.688 533.342 559.872 532.162C561.056 530.982 561.721 529.382 561.721 527.713C561.721 526.044 561.056 524.443 559.872 523.263C558.688 522.083 557.083 521.42 555.409 521.42V521.42Z" fill="#E2BEA6"/>
<path d="M57.031 546.59H41.5548C39.8827 546.59 38.279 547.252 37.0967 548.431C35.9143 549.609 35.25 551.208 35.25 552.875C35.25 554.541 35.9143 556.14 37.0967 557.319C38.279 558.497 39.8827 559.159 41.5548 559.159H57.031C58.7032 559.159 60.3068 558.497 61.4892 557.319C62.6716 556.14 63.3359 554.541 63.3359 552.875C63.3359 551.208 62.6716 549.609 61.4892 548.431C60.3068 547.252 58.7032 546.59 57.031 546.59V546.59Z" fill="#E2BEA6"/>
<path d="M528.978 546.59H484.805C483.133 546.59 481.529 547.252 480.347 548.431C479.164 549.609 478.5 551.208 478.5 552.875C478.5 554.541 479.164 556.14 480.347 557.319C481.529 558.497 483.133 559.159 484.805 559.159H528.978C530.65 559.159 532.254 558.497 533.436 557.319C534.618 556.14 535.283 554.541 535.283 552.875C535.283 551.208 534.618 549.609 533.436 548.431C532.254 547.252 530.65 546.59 528.978 546.59V546.59Z" fill="#E2BEA6"/>
<path d="M35.4409 171.255C35.4409 171.255 71.6252 206.497 70.2624 241.519C68.8996 276.542 26.8256 267.861 8.92148 224.469C-8.98267 181.077 4.67649 143.587 35.4409 171.255Z" fill="#FFEBDB"/>
<path d="M54.5014 144.271C73.7846 144.271 89.4168 128.688 89.4168 109.466C89.4168 90.2445 73.7846 74.6621 54.5014 74.6621C35.2181 74.6621 19.5859 90.2445 19.5859 109.466C19.5859 128.688 35.2181 144.271 54.5014 144.271Z" stroke="#E2BEA6" stroke-width="3.13894" stroke-miterlimit="10"/>
<path d="M281.96 224.812C288.56 224.812 293.911 219.478 293.911 212.898C293.911 206.318 288.56 200.984 281.96 200.984C275.359 200.984 270.008 206.318 270.008 212.898C270.008 219.478 275.359 224.812 281.96 224.812Z" fill="#E2BEA6"/>
<path d="M515.367 402.373C517.893 386.759 507.242 372.061 491.579 369.543C475.915 367.025 461.169 377.642 458.644 393.256C456.118 408.87 466.768 423.568 482.432 426.086C498.096 428.604 512.841 417.987 515.367 402.373Z" stroke="#E2BEA6" stroke-width="3.13894" stroke-miterlimit="10"/>
<path d="M131.959 458.786C133.87 450.685 128.831 442.574 120.704 440.669C112.577 438.765 104.44 443.788 102.53 451.889C100.619 459.99 105.658 468.101 113.785 470.005C121.912 471.91 130.049 466.886 131.959 458.786Z" stroke="#E2BEA6" stroke-width="3.13894" stroke-miterlimit="10"/>
<path d="M43.0189 358.978C44.7668 348.244 37.4545 338.13 26.6864 336.388C15.9183 334.645 5.77214 341.934 4.02424 352.668C2.27633 363.402 9.5886 373.516 20.3567 375.258C31.1248 377.001 41.271 369.712 43.0189 358.978Z" fill="#E2BEA6"/>
<path d="M265.567 133.855L257.5 150.391H274.966L265.567 133.855Z" stroke="#E2BEA6" stroke-width="3.13894" stroke-miterlimit="10"/>
<path d="M442.395 433.715L434.344 450.25H451.794L442.395 433.715Z" fill="#E2BEA6"/>
<path d="M118.939 44.7148L108.867 64.1234H129.45L118.939 44.7148Z" fill="#E2BEA6"/>
<path d="M492.181 181.746L482.109 201.155H502.692L492.181 181.746Z" fill="#E2BEA6"/>
<path d="M224.984 259.681C231.688 251.545 240.288 252.03 245.582 252.56C245.356 253.791 244.787 254.933 243.939 255.856C243.091 256.778 241.999 257.444 240.789 257.776C239.874 258.016 238.982 258.34 238.126 258.744L234.79 270.517C231.657 275.029 228.524 277.09 220.504 276.435C219.47 268.237 224.984 259.681 224.984 259.681Z" fill="#A64F5A"/>
<path d="M137.688 231.369L143.75 231.838C148.111 232.164 152.282 233.752 155.751 236.406C159.221 239.06 161.838 242.666 163.283 246.78L175.329 280.976L215.789 269.046C217.877 261.698 222.167 255.16 228.085 250.309C228.783 251.277 229.137 252.448 229.092 253.639C229.047 254.83 228.604 255.971 227.835 256.883C226.779 258.095 225.893 259.445 225.203 260.896C225.972 263.661 225.939 266.587 225.107 269.334C224.275 272.081 222.679 274.537 220.504 276.416L179.996 300.041C177.148 301.706 173.778 302.252 170.548 301.57C167.317 300.888 164.458 299.029 162.531 296.356L141.901 267.75L137.688 231.369Z" fill="#BD6C67"/>
<path d="M238.133 258.74C235.881 259.645 233.844 261.006 232.149 262.738C231.532 263.382 231.082 264.167 230.839 265.024C230.596 265.882 230.567 266.785 230.755 267.656C231.267 270.084 231.591 272.548 231.726 275.026C231.74 275.327 231.83 275.619 231.989 275.875C232.147 276.132 232.368 276.344 232.631 276.492C232.894 276.64 233.19 276.72 233.492 276.723C233.794 276.726 234.092 276.652 234.357 276.509C235.86 275.682 237.19 274.574 238.273 273.246C238.989 272.348 239.514 271.315 239.819 270.21C240.123 269.104 240.199 267.949 240.044 266.813C239.716 264.058 239.075 261.35 238.133 258.74Z" fill="#BD6C67"/>
<path d="M160.297 293.28L171.184 269.234L163.289 246.78L138.352 237.068L141.907 267.766L160.297 293.28Z" fill="#A64F5A"/>
<path d="M168.176 283.427C168.095 283.41 168.023 283.366 167.971 283.302C167.919 283.238 167.891 283.158 167.891 283.076C167.891 282.993 167.919 282.913 167.971 282.85C168.023 282.786 168.095 282.741 168.176 282.724L189.824 276.322C189.915 276.298 190.013 276.311 190.095 276.358C190.177 276.405 190.237 276.482 190.263 276.572C190.277 276.616 190.282 276.663 190.278 276.709C190.274 276.755 190.261 276.8 190.239 276.841C190.217 276.882 190.187 276.918 190.151 276.947C190.114 276.976 190.072 276.997 190.028 277.009L168.38 283.411L168.176 283.427Z" fill="#422C4F"/>
<path d="M126.985 368.229C100.356 362.092 60.271 374.615 51.8906 353.161C60.4119 330.458 99.9327 340.654 126.985 368.229Z" fill="#7CA566"/>
<path d="M210.467 522.125C193.095 521.532 181.441 516.332 176.898 513.693C177.181 515.008 177.585 516.294 178.105 517.535C181.645 519.845 191.607 524.155 210.576 524.811C211.103 524.803 211.618 524.663 212.076 524.403C212.534 524.144 212.918 523.774 213.195 523.328C213.471 522.881 213.63 522.372 213.657 521.848C213.684 521.324 213.578 520.802 213.349 520.329C213.112 520.888 212.708 521.359 212.192 521.681C211.676 522.002 211.074 522.157 210.467 522.125V522.125Z" fill="white"/>
<path d="M186.541 500.717L177.361 504.574C176.263 507.489 176.077 510.669 176.829 513.692C181.371 516.331 193.026 521.499 210.397 522.124C211.004 522.156 211.607 522.001 212.123 521.68C212.638 521.358 213.042 520.886 213.279 520.328C213.137 520.082 212.969 519.852 212.778 519.641C205.114 511.963 196.253 505.573 186.541 500.717V500.717Z" fill="#454F6B"/>
<path d="M193.75 496.704C194.561 496.328 195.466 496.197 196.35 496.329C196.78 496.414 197.168 496.64 197.452 496.971C197.737 497.303 197.9 497.72 197.917 498.156C197.917 499.265 196.695 499.921 195.661 500.327C194.627 500.733 188.362 503.699 187.359 502.076C186.357 500.452 192.56 497.157 193.75 496.704Z" fill="#454F6B"/>
<path d="M156.516 363.951L170.911 410.513C171.757 413.276 172.411 416.093 172.869 418.945L186.497 500.67C184.539 506.76 177.318 504.527 177.318 504.527C152.114 465.569 147.65 433.794 146.71 416.493L115.852 358.393L156.516 363.951Z" fill="#BD6C67"/>
<path d="M161.599 380.346L156.524 363.951L115.797 358.393L124.318 374.288C138.51 384.344 153.97 386.264 161.599 380.346Z" fill="#422C4F"/>
<path d="M175.679 435.619L174.3 427.344C166.039 430.979 156.806 431.797 148.031 429.67C148.376 432.2 148.814 434.87 149.363 437.68C158.123 439.901 167.374 439.176 175.679 435.619Z" fill="white"/>
<path d="M178.508 452.498C170.631 455.757 161.934 456.499 153.617 454.622C159.172 472.293 167.164 489.109 177.364 504.587C177.364 504.587 184.585 506.82 186.543 500.731L178.508 452.498Z" fill="white"/>
<path d="M176.654 441.383L175.683 435.621C167.378 439.178 158.127 439.903 149.367 437.682C149.727 439.493 150.119 441.383 150.573 443.319C159.247 445.517 168.403 444.837 176.654 441.383V441.383Z" fill="#ADBF53"/>
<path d="M178.496 452.498L177.556 446.736C169.471 450.149 160.503 450.899 151.961 448.876C152.478 450.734 153.026 452.654 153.621 454.622C161.934 456.495 170.624 455.754 178.496 452.498V452.498Z" fill="#F4D071"/>
<path d="M177.575 446.739L176.682 441.383C168.431 444.837 159.275 445.517 150.602 443.319C151.009 445.115 151.479 446.973 151.98 448.878C160.523 450.901 169.49 450.151 177.575 446.739V446.739Z" fill="white"/>
<path d="M12.1373 504.385C4.10157 489.005 2.9111 476.28 2.98942 471.096C1.9783 471.99 1.05514 472.978 0.232525 474.047C-0.0494304 478.231 1.09405 489.021 9.85033 505.791C10.0987 506.262 10.4673 506.66 10.9189 506.944C11.3706 507.228 11.8894 507.388 12.423 507.409C12.9567 507.429 13.4864 507.309 13.9587 507.061C14.431 506.813 14.8293 506.444 15.1135 505.994C14.5122 506.059 13.9053 505.94 13.3736 505.652C12.8419 505.365 12.4107 504.923 12.1373 504.385V504.385Z" fill="white"/>
<path d="M19.087 473.142L11.2549 467.084C8.17012 467.563 5.30313 468.962 3.03125 471.097C3.03125 476.343 4.1434 489.006 12.1791 504.387C12.4594 504.916 12.8936 505.348 13.4247 505.626C13.9559 505.905 14.5591 506.017 15.1553 505.948C15.3187 505.71 15.4405 505.446 15.5156 505.167C18.4261 494.753 19.6321 483.939 19.087 473.142V473.142Z" fill="#454F6B"/>
<path d="M26.1553 477.421C26.8635 477.953 27.4065 478.672 27.7218 479.498C27.871 479.915 27.8749 480.37 27.7328 480.789C27.5907 481.208 27.3108 481.568 26.9385 481.809C25.9517 482.309 24.7926 481.606 23.931 480.919C23.0695 480.232 17.3834 476.235 18.3232 474.58C19.2631 472.924 25.1685 476.625 26.1553 477.421Z" fill="#454F6B"/>
<path d="M109.762 348.773L85.6391 401.627C84.0956 405.042 81.9764 408.169 79.3734 410.871L19.0977 473.141C17.3795 472.888 15.7557 472.198 14.3836 471.137C13.0115 470.075 11.9375 468.679 11.2656 467.082C24.9561 427.359 44.74 404.766 62.0489 390.244L72.4029 337.031C100.536 336.188 109.762 348.773 109.762 348.773Z" fill="#BD6C67"/>
<path d="M69.2109 353.255C85.627 351.553 93.3964 355.035 103.985 361.421L109.765 348.773L94.8219 331.598L72.3594 337.063L69.2109 353.255Z" fill="#422C4F"/>
<path d="M39.0025 414.152C37.624 415.932 36.256 417.79 34.8984 419.727C38.9368 427.655 45.8122 433.784 54.1654 436.902L58.6297 432.296C49.9767 429.01 42.9404 422.506 39.0025 414.152V414.152Z" fill="#F4D071"/>
<path d="M34.903 419.725C24.8016 434.315 16.8274 450.26 11.2188 467.083C11.8906 468.679 12.9646 470.076 14.3367 471.137C15.7088 472.199 17.3326 472.889 19.0508 473.141L54.1229 436.885C45.79 433.76 38.9331 427.638 34.903 419.725V419.725Z" fill="white"/>
<path d="M42.7124 409.576C41.4749 411.06 40.2375 412.605 39 414.26C42.9412 422.608 49.9771 429.107 58.6272 432.389L62.7782 428.11C58.3733 426.492 54.3328 424.021 50.8892 420.84C47.4456 417.659 44.6667 413.831 42.7124 409.576V409.576Z" fill="white"/>
<path d="M53.8056 397.662C51.6127 399.786 49.3883 402.065 47.1797 404.486C49.097 408.816 51.8662 412.72 55.3236 415.965C58.7809 419.21 62.8562 421.731 67.3082 423.379L73.5738 416.946C69.154 415.21 65.1278 412.609 61.7326 409.297C58.3374 405.986 55.6421 402.029 53.8056 397.662Z" fill="white"/>
<path d="M47.1126 404.486C45.6401 406.089 44.1729 407.771 42.7109 409.53C44.672 413.773 47.4538 417.589 50.8971 420.759C54.3404 423.929 58.3774 426.39 62.7767 428.001L67.241 423.317C62.7948 421.677 58.723 419.165 55.266 415.931C51.809 412.697 49.0367 408.806 47.1126 404.486V404.486Z" fill="#ADBF53"/>
<path d="M95.9069 294.029C92.2102 303.179 54.6475 327.397 51.8906 353.114C85.0517 315.764 129.538 399.004 162.292 373.412C155.118 338.577 139.547 302.008 139.547 302.008L95.9069 294.029Z" fill="#ADBF53"/>
<path d="M142.935 364.169C131.25 362.014 120.489 355.284 111.231 348.695L108.647 346.868C103.054 342.533 97.0093 338.811 90.6171 335.766C82.2055 332.128 73.8564 331.597 67.1208 334.205C67.0313 334.236 66.933 334.233 66.8458 334.195C66.7587 334.158 66.689 334.089 66.6509 334.002C66.6332 333.958 66.6244 333.911 66.625 333.863C66.6257 333.816 66.6358 333.769 66.6547 333.725C66.6736 333.682 66.7011 333.642 66.7354 333.609C66.7697 333.576 66.8102 333.551 66.8546 333.533C73.7625 330.816 82.2994 331.379 90.8991 335.095C97.3437 338.155 103.436 341.904 109.07 346.275L111.607 348.101C122.572 355.909 135.793 363.981 150.016 364.137C150.111 364.137 150.203 364.175 150.27 364.243C150.338 364.31 150.376 364.401 150.376 364.496C150.376 364.592 150.338 364.683 150.27 364.75C150.203 364.818 150.111 364.856 150.016 364.856C147.64 364.829 145.271 364.599 142.935 364.169V364.169Z" fill="#422C4F"/>
<path d="M117.691 347.977C116.704 347.789 115.733 347.586 114.746 347.368C114.7 347.357 114.656 347.337 114.617 347.309C114.578 347.281 114.546 347.245 114.521 347.205C114.496 347.164 114.48 347.119 114.473 347.072C114.466 347.025 114.468 346.977 114.48 346.93C114.505 346.839 114.565 346.761 114.646 346.711C114.728 346.662 114.825 346.646 114.918 346.665C125.058 348.976 135.59 348.976 145.73 346.665C145.775 346.653 145.822 346.651 145.868 346.658C145.915 346.666 145.959 346.682 145.998 346.707C146.038 346.732 146.072 346.765 146.099 346.803C146.125 346.841 146.143 346.885 146.153 346.93C146.164 346.976 146.166 347.023 146.159 347.069C146.152 347.115 146.135 347.159 146.11 347.198C146.085 347.238 146.053 347.272 146.014 347.298C145.976 347.324 145.932 347.343 145.886 347.352C136.629 349.479 127.033 349.691 117.691 347.977V347.977Z" fill="#422C4F"/>
<path d="M106.587 230.01L137.68 231.384C140.435 231.5 143.129 232.226 145.568 233.508C148.006 234.791 150.128 236.599 151.778 238.801C153.662 241.309 154.875 244.253 155.302 247.357L157.026 259.849C157.409 262.674 157.008 265.551 155.868 268.166C154.727 270.78 152.89 273.034 150.556 274.682L149.491 275.432L139.591 302.195C118.037 311.079 95.9039 294.028 95.9039 294.028L98.5198 282.927C99.1014 280.468 99.1601 277.915 98.6921 275.432L93.7109 248.481L106.587 230.01Z" fill="white"/>
<path d="M118.033 298.293C113.447 297.459 109.065 295.752 105.126 293.265C105.051 293.209 104.998 293.127 104.978 293.036C104.958 292.944 104.971 292.848 105.017 292.765C105.071 292.687 105.152 292.632 105.246 292.612C105.339 292.592 105.436 292.608 105.518 292.656C109.791 295.336 114.58 297.094 119.577 297.817C124.573 298.541 129.666 298.213 134.528 296.856C134.573 296.842 134.621 296.836 134.668 296.84C134.716 296.844 134.762 296.857 134.804 296.879C134.846 296.901 134.884 296.931 134.914 296.967C134.945 297.003 134.968 297.045 134.982 297.09C135.007 297.184 134.994 297.283 134.948 297.367C134.901 297.451 134.824 297.514 134.731 297.543C129.297 299.071 123.583 299.327 118.033 298.293V298.293Z" fill="#422C4F"/>
<path d="M119.7 293.811C119.611 293.796 119.532 293.747 119.479 293.674C119.426 293.601 119.404 293.51 119.418 293.421C119.43 293.329 119.477 293.244 119.55 293.186C119.623 293.128 119.716 293.1 119.81 293.109C125.877 293.885 132.035 292.726 137.4 289.799C137.442 289.769 137.489 289.748 137.539 289.738C137.589 289.728 137.641 289.728 137.691 289.739C137.74 289.75 137.787 289.772 137.828 289.803C137.869 289.833 137.903 289.872 137.927 289.917C137.952 289.961 137.967 290.01 137.971 290.061C137.975 290.112 137.968 290.163 137.951 290.211C137.934 290.259 137.906 290.302 137.871 290.339C137.835 290.376 137.793 290.404 137.745 290.423C132.252 293.426 125.946 294.618 119.731 293.827L119.7 293.811Z" fill="#422C4F"/>
<path d="M75.814 208.324C81.1551 208.71 86.5236 208.235 91.7132 206.919C87.7253 209.603 83.178 211.348 78.4143 212.025C84.4286 218.832 92.3238 223.721 101.112 226.077C110.332 228.586 120.136 227.881 128.9 224.079C133.24 222.147 137.148 219.368 140.392 215.906C143.637 212.444 146.153 208.368 147.791 203.921C149.677 198.921 149.924 193.454 148.496 188.306C146.005 180.187 138.267 174.254 129.871 172.895C125.643 172.36 121.35 172.72 117.271 173.952C113.192 175.184 109.421 177.261 106.203 180.046C99.9369 185.277 95.3473 192.772 87.8441 195.973C85.3382 197.021 82.6394 197.534 79.9223 197.477C77.2052 197.421 74.5302 196.797 72.0703 195.645C72.4234 200.084 73.6983 204.402 75.814 208.324V208.324Z" fill="#422C4F"/>
<path d="M118.339 219.457L116.992 231.589L131.717 242.301L131.983 231.62L134.802 216.365L118.339 219.457Z" fill="#BD6C67"/>
<path d="M117.461 227.467C123.586 230.075 131.089 222.096 134.457 218.301L134.817 216.365L118.338 219.488L117.461 227.467Z" fill="#422C4F"/>
<path d="M137.419 206.449C133.127 204.841 129.322 202.16 126.37 198.662C123.418 195.165 121.419 190.969 120.564 186.479C117.108 191.914 112.022 196.127 106.028 198.517L105.683 204.763C105.374 210.244 107.134 215.641 110.617 219.893C112.552 222.269 115.268 223.886 118.284 224.458C121.3 225.029 124.422 224.519 127.096 223.016L130.605 221.049C133.355 219.488 135.737 217.359 137.591 214.803C136.881 212.07 136.822 209.209 137.419 206.449V206.449Z" fill="#BD6C67"/>
<path d="M139.668 208.981C141.101 207.859 142.916 207.338 144.727 207.529C145.74 207.618 146.699 208.023 147.469 208.684C147.876 209.092 148.193 209.581 148.398 210.119C148.603 210.657 148.692 211.232 148.659 211.807C148.57 212.954 148.127 214.045 147.39 214.93C146.517 215.989 145.35 216.769 144.036 217.175C142.722 217.58 141.318 217.592 139.997 217.21C139.221 217 138.517 216.585 137.96 216.007C135.987 213.884 137.741 210.511 139.668 208.981Z" fill="#BD6C67"/>
<path d="M140.171 214.472C140.082 214.432 140.002 214.373 139.937 214.3C139.855 214.21 139.796 214.103 139.763 213.986C139.731 213.87 139.726 213.747 139.749 213.629C139.951 212.609 140.505 211.692 141.315 211.037C142.207 210.354 143.33 210.041 144.448 210.162C144.811 210.193 145.163 210.3 145.482 210.475L145.654 210.6C145.915 210.903 146.049 211.294 146.03 211.693C145.973 212.301 145.733 212.878 145.341 213.348C144.795 213.987 144.078 214.457 143.273 214.703C142.468 214.949 141.609 214.961 140.798 214.737C140.575 214.688 140.362 214.598 140.171 214.472V214.472Z" fill="#A64F5A"/>
<path d="M215.569 164.774L215.459 164.071L212.828 164.477L212.342 161.354L215.475 160.855L215.679 162.166L216.383 162.057L216.195 160.745H216.571L216.462 160.027H216.07L215.585 156.904L217.308 156.639L217.198 155.92L215.475 156.201L214.989 153.079L217.245 152.735L217.135 152.032L214.88 152.376L214.394 149.253L217.652 148.738L217.543 148.035L214.284 148.535L213.799 145.412L217.057 144.912L216.947 144.21L213.689 144.709L213.204 141.586L216.462 141.071L216.352 140.369L213.094 140.868L212.608 137.745L214.848 137.402L214.739 136.684L212.499 137.043L212.013 133.92L213.72 133.654L213.611 132.936L211.888 133.202L211.402 130.079H211.794L211.684 129.376H211.293L211.089 128.08L210.384 128.189L210.588 129.485L207.455 129.969L206.969 126.847L209.601 126.425L209.491 125.722L206.86 126.128L206.374 123.005L206.922 122.927L206.813 122.209L202.411 122.896L201.925 119.773L202.818 119.633L202.709 118.915L201.816 119.055L201.69 118.29L200.986 118.399L201.111 119.164L197.978 119.648L197.445 116.182H197.085V115.823L193.608 116.369L193.341 114.652L192.621 114.777L192.887 116.479L189.754 116.963L189.347 114.308L188.532 114.464L188.955 117.119L185.823 117.603L185.227 113.855L184.522 113.965L185.102 117.712L181.969 118.196L181.562 115.542L180.841 115.667L181.264 118.321L178.131 118.805L177.865 117.088L177.16 117.197L177.427 118.915L173.933 119.445V119.805H173.573L174.121 123.286L170.989 123.771L170.879 123.005L170.174 123.115L170.284 123.88L169.391 124.02L169.501 124.739L170.393 124.598L170.879 127.721L166.603 128.517L166.712 129.22H167.276L167.762 132.343L165.13 132.749L165.24 133.451L167.871 133.045L168.357 136.168L165.224 136.652L165.021 135.356L164.316 135.466L164.504 136.762H164.128L164.237 137.48H164.629L165.115 140.603L163.391 140.868L163.501 141.571L165.224 141.305L165.71 144.428L163.454 144.772L163.564 145.474L165.819 145.131L166.305 148.254L163.047 148.753L163.157 149.472L166.415 148.956L166.9 152.079L163.642 152.579L163.752 153.282L167.01 152.782L167.496 155.905L164.237 156.404L164.347 157.123L167.605 156.623L168.091 159.746L165.851 160.089L165.96 160.792L168.2 160.449L168.686 163.571L166.979 163.837L167.088 164.555L168.796 164.29L169.297 167.413H168.905L169.015 168.115H169.407L169.61 169.411L170.315 169.302L170.111 168.006L173.244 167.522L173.73 170.645L171.098 171.051L171.208 171.769L173.839 171.363L174.325 174.486H173.777L173.886 175.204L178.288 174.517L178.774 177.64L177.881 177.78L178.006 178.483L178.883 178.358L179.009 179.123L179.714 179.014L179.588 178.233L182.721 177.749L183.254 181.231H183.614V181.575L187.091 181.044L187.358 182.746L188.078 182.636L187.812 180.935L190.945 180.45L191.352 183.105L192.073 182.996L191.65 180.341L194.783 179.841L195.362 183.589L196.067 183.48L195.487 179.732L198.62 179.248L199.027 181.903L199.748 181.793L199.325 179.139L202.458 178.655L202.724 180.372L203.429 180.263L203.163 178.545L206.656 178.015V177.655H207.016L206.468 174.174L209.601 173.689L209.71 174.455L210.431 174.345L210.306 173.58L211.199 173.455L211.089 172.737L210.196 172.878L209.71 169.755L214.112 169.068L214.002 168.365H213.439L212.953 165.242L215.569 164.774ZM212.123 164.586L208.99 165.07L208.489 161.948L211.621 161.463L212.123 164.586ZM194.563 148.394L197.696 147.91L198.197 151.033L195.064 151.517L194.563 148.394ZM194.344 151.626L191.211 152.11L190.725 148.988L193.858 148.504L194.344 151.626ZM194.454 147.692L193.968 144.569L197.101 144.085L197.586 147.208L194.454 147.692ZM193.749 147.801L190.616 148.285L190.13 145.162L193.263 144.678L193.749 147.801ZM190.099 144.444L189.598 141.321L192.73 140.837L193.216 143.96L190.099 144.444ZM189.488 140.618L189.002 137.496L192.135 137.011L192.637 140.134L189.488 140.618ZM188.783 140.728L185.65 141.212L185.165 138.089L188.298 137.589L188.783 140.728ZM188.893 141.43L189.378 144.553L186.246 145.037L185.76 141.914L188.893 141.43ZM189.488 145.271L189.974 148.394L186.841 148.878L186.355 145.755L189.488 145.271ZM186.136 148.988L183.003 149.472L182.502 146.349L185.635 145.865L186.136 148.988ZM186.246 149.69L186.731 152.813L183.598 153.313L183.113 150.19L186.246 149.69ZM186.95 149.581L190.083 149.097L190.569 152.22L187.436 152.704L186.95 149.581ZM190.694 152.938L191.18 156.061L188.047 156.545L187.561 153.422L190.694 152.938ZM191.289 156.764L191.775 159.886L188.642 160.386L188.141 157.263L191.289 156.764ZM191.994 156.654L195.127 156.17L195.613 159.293L192.48 159.777L191.994 156.654ZM191.885 155.952L191.399 152.829L194.532 152.345L195.017 155.468L191.885 155.952ZM195.237 152.22L198.37 151.736L198.855 154.859L195.722 155.343L195.237 152.22ZM199.09 151.626L202.223 151.142L202.709 154.265L199.576 154.765L199.09 151.626ZM198.98 150.924L198.495 147.801L201.628 147.317L202.113 150.44L198.98 150.924ZM198.385 147.083L197.9 143.96L201.033 143.476L201.518 146.599L198.385 147.083ZM197.79 143.257L197.304 140.134L200.437 139.65L200.923 142.773L197.79 143.257ZM197.069 143.366L193.937 143.851L193.451 140.728L196.584 140.244L197.069 143.366ZM193.232 140.009L192.746 136.887L195.879 136.403L196.365 139.525L193.232 140.009ZM192.637 136.184L192.151 133.061L195.284 132.577L195.769 135.7L192.637 136.184ZM191.916 136.293L188.783 136.777L188.298 133.654L191.43 133.17L191.916 136.293ZM188.188 132.952L187.702 129.829L190.835 129.345L191.321 132.468L188.188 132.952ZM187.483 133.061L184.35 133.545L183.849 130.422L186.982 129.938L187.483 133.061ZM187.593 133.764L188.078 136.887L184.945 137.371L184.46 134.248L187.593 133.764ZM184.225 137.48L181.092 137.964L180.606 134.841L183.739 134.357L184.225 137.48ZM184.335 138.198L184.82 141.321L181.687 141.805L181.202 138.682L184.335 138.198ZM184.945 142.024L185.431 145.147L182.298 145.631L181.813 142.508L184.945 142.024ZM181.609 145.693L178.476 146.193L177.991 143.07L181.123 142.586L181.609 145.693ZM181.719 146.411L182.204 149.534L179.071 150.018L178.586 146.895L181.719 146.411ZM182.314 150.237L182.799 153.36L179.667 153.844L179.181 150.721L182.314 150.237ZM182.909 154.078L183.395 157.201L180.262 157.685L179.776 154.562L182.909 154.078ZM183.63 153.969L186.762 153.485L187.248 156.607L184.115 157.091L183.63 153.969ZM187.358 157.31L187.843 160.433L184.71 160.917L184.225 157.794L187.358 157.31ZM187.953 161.151L188.439 164.274L185.306 164.758L184.82 161.635L187.953 161.151ZM188.673 161.042L191.806 160.558L192.292 163.681L189.159 164.165L188.673 161.042ZM192.402 164.383L192.887 167.506L189.754 167.99L189.269 164.867L192.402 164.383ZM193.106 164.274L196.239 163.79L196.741 166.913L193.608 167.397L193.106 164.274ZM192.997 163.571L192.511 160.449L195.644 159.964L196.13 163.087L192.997 163.571ZM196.365 159.902L199.497 159.402L199.983 162.525L196.85 163.009L196.365 159.902ZM196.255 159.184L195.769 156.061L198.902 155.577L199.388 158.7L196.255 159.184ZM199.607 155.468L202.74 154.984L203.226 158.106L200.093 158.59L199.607 155.468ZM203.46 154.874L206.593 154.39L207.079 157.513L203.946 157.997L203.46 154.874ZM203.351 154.156L202.85 151.033L205.982 150.549L206.468 153.672L203.351 154.156ZM202.74 150.33L202.254 147.208L205.387 146.724L205.873 149.846L202.74 150.33ZM202.145 146.489L201.659 143.366L204.792 142.882L205.293 146.005L202.145 146.489ZM201.549 142.664L201.064 139.541L204.197 139.041L204.682 142.164L201.549 142.664ZM200.954 138.823L200.469 135.7L203.601 135.216L204.087 138.339L200.954 138.823ZM200.249 138.932L197.116 139.416L196.631 136.293L199.764 135.809L200.249 138.932ZM196.506 135.591L196.02 132.468L199.153 131.968L199.654 135.091L196.506 135.591ZM195.91 131.749L195.425 128.627L198.558 128.143L199.043 131.265L195.91 131.749ZM195.205 131.859L192.073 132.343L191.587 129.22L194.72 128.736L195.205 131.859ZM191.462 128.517L190.976 125.394L194.109 124.91L194.595 128.033L191.462 128.517ZM190.757 128.627L187.624 129.111L187.138 125.988L190.271 125.504L190.757 128.627ZM186.919 129.22L183.786 129.704L183.301 126.581L186.434 126.097L186.919 129.22ZM183.066 129.813L179.933 130.297L179.447 127.174L182.58 126.69L183.066 129.813ZM183.175 130.516L183.661 133.639L180.528 134.123L180.043 131L183.175 130.516ZM179.823 134.248L176.69 134.732L176.205 131.609L179.338 131.125L179.823 134.248ZM179.933 134.95L180.418 138.073L177.286 138.573L176.784 135.45L179.933 134.95ZM180.528 138.792L181.014 141.914L177.881 142.398L177.395 139.276L180.528 138.792ZM177.16 142.57L174.027 143.054L173.542 139.931L176.675 139.447L177.16 142.57ZM177.27 143.273L177.771 146.396L174.638 146.88L174.153 143.757L177.27 143.273ZM177.881 147.114L178.366 150.237L175.234 150.721L174.748 147.598L177.881 147.114ZM178.476 150.955L178.962 154.078L175.829 154.562L175.328 151.439L178.476 150.955ZM179.071 154.781L179.557 157.903L176.424 158.387L175.939 155.265L179.071 154.781ZM179.667 158.622L180.152 161.745L177.019 162.229L176.534 159.106L179.667 158.622ZM180.371 158.512L183.504 158.013L183.99 161.136L180.857 161.62L180.371 158.512ZM184.115 161.854L184.601 164.977L181.468 165.461L180.967 162.338L184.115 161.854ZM184.71 165.695L185.196 168.818L182.063 169.302L181.578 166.179L184.71 165.695ZM185.415 165.586L188.548 165.086L189.034 168.209L185.901 168.693L185.415 165.586ZM189.159 168.927L189.645 172.05L186.512 172.534L186.026 169.411L189.159 168.927ZM189.864 168.818L192.997 168.334L193.482 171.457L190.35 171.941L189.864 168.818ZM193.702 168.224L196.835 167.74L197.32 170.863L194.187 171.347L193.702 168.224ZM197.555 167.631L200.688 167.147L201.173 170.27L198.041 170.754L197.555 167.631ZM197.445 166.913L196.96 163.79L200.093 163.306L200.578 166.429L197.445 166.913ZM200.798 163.197L203.93 162.713L204.416 165.835L201.283 166.32L200.798 163.197ZM200.688 162.494L200.202 159.371L203.335 158.887L203.836 162.01L200.688 162.494ZM204.056 158.762L207.189 158.278L207.674 161.401L204.541 161.901L204.056 158.762ZM207.893 158.169L211.026 157.685L211.512 160.808L208.379 161.292L207.893 158.169ZM207.784 157.466L207.298 154.343L210.431 153.844L210.932 156.967L207.784 157.466ZM207.189 153.625L206.703 150.502L209.836 150.018L210.321 153.141L207.189 153.625ZM206.593 149.8L206.108 146.677L209.241 146.193L209.726 149.316L206.593 149.8ZM205.998 145.958L205.512 142.836L208.645 142.352L209.131 145.474L205.998 145.958ZM205.403 142.133L204.917 139.01L208.05 138.526L208.536 141.649L205.403 142.133ZM204.808 138.292L204.306 135.169L207.439 134.685L207.925 137.808L204.808 138.292ZM204.197 134.466L203.711 131.343L206.844 130.859L207.33 133.982L204.197 134.466ZM203.492 134.576L200.359 135.06L199.873 131.937L203.006 131.453L203.492 134.576ZM199.764 131.219L199.278 128.096L202.411 127.612L202.897 130.735L199.764 131.219ZM199.168 127.393L198.667 124.27L201.8 123.786L202.286 126.909L199.168 127.393ZM198.448 127.502L195.315 127.986L194.83 124.864L197.962 124.38L198.448 127.502ZM194.798 124.083L194.313 120.96L197.445 120.476L197.931 123.599L194.798 124.083ZM194.093 124.192L190.96 124.676L190.475 121.553L193.608 121.069L194.093 124.192ZM190.24 124.785L187.107 125.27L186.621 122.147L189.754 121.663L190.24 124.785ZM186.387 125.379L183.254 125.878L182.768 122.756L185.901 122.272L186.387 125.379ZM182.549 125.988L179.416 126.472L178.93 123.349L182.063 122.865L182.549 125.988ZM178.695 126.581L175.563 127.065L175.077 123.942L178.21 123.458L178.695 126.581ZM178.805 127.284L179.291 130.407L176.158 130.891L175.672 127.768L178.805 127.284ZM175.453 131L172.32 131.5L171.834 128.377L174.967 127.893L175.453 131ZM175.563 131.718L176.048 134.841L172.915 135.325L172.43 132.202L175.563 131.718ZM176.158 135.544L176.643 138.667L173.511 139.151L173.025 136.028L176.158 135.544ZM172.806 139.276L169.673 139.76L169.187 136.637L172.32 136.137L172.806 139.276ZM172.915 139.978L173.401 143.101L170.268 143.585L169.782 140.462L172.915 139.978ZM173.511 143.819L173.996 146.942L170.863 147.426L170.378 144.303L173.511 143.819ZM174.106 147.645L174.591 150.768L171.459 151.252L170.973 148.129L174.106 147.645ZM174.701 151.486L175.187 154.609L172.054 155.093L171.568 151.97L174.701 151.486ZM175.296 155.311L175.782 158.434L172.649 158.934L172.163 155.811L175.296 155.311ZM175.891 159.153L176.393 162.275L173.26 162.759L172.774 159.637L175.891 159.153ZM176.502 162.978L176.988 166.101L173.855 166.585L173.37 163.462L176.502 162.978ZM177.207 162.869L180.34 162.385L180.826 165.508L177.693 166.007L177.207 162.869ZM180.935 166.226L181.421 169.349L178.288 169.833L177.803 166.71L180.935 166.226ZM181.531 170.051L182.032 173.174L178.899 173.674L178.413 170.551L181.531 170.051ZM182.251 169.942L185.384 169.458L185.87 172.581L182.737 173.065L182.251 169.942ZM185.979 173.299L186.465 176.422L183.332 176.906L182.846 173.783L185.979 173.299ZM186.684 173.19L189.817 172.706L190.303 175.829L187.17 176.313L186.684 173.19ZM190.538 172.596L193.67 172.097L194.156 175.22L191.023 175.704L190.538 172.596ZM194.391 171.987L197.524 171.503L198.009 174.626L194.876 175.126L194.391 171.987ZM198.229 171.394L201.361 170.91L201.847 174.033L198.714 174.517L198.229 171.394ZM202.082 170.801L205.215 170.317L205.7 173.44L202.568 173.924L202.082 170.801ZM201.972 170.098L201.487 166.975L204.62 166.491L205.105 169.614L201.972 170.098ZM205.324 166.366L208.457 165.882L208.943 169.005L205.81 169.505L205.324 166.366ZM205.215 165.664L204.729 162.541L207.862 162.057L208.348 165.18L205.215 165.664ZM215.444 160.152L212.311 160.636L211.825 157.513L214.958 157.029L215.444 160.152ZM214.848 156.326L211.715 156.81L211.23 153.688L214.363 153.203L214.848 156.326ZM214.253 152.485L211.12 152.969L210.635 149.846L213.767 149.362L214.253 152.485ZM213.658 148.644L210.525 149.144L210.024 146.021L213.157 145.537L213.658 148.644ZM213.063 144.819L209.93 145.303L209.444 142.18L212.577 141.696L213.063 144.819ZM212.452 140.977L209.319 141.462L208.833 138.339L211.966 137.855L212.452 140.977ZM211.856 137.152L208.724 137.636L208.238 134.513L211.371 134.029L211.856 137.152ZM210.776 130.188L211.261 133.311L208.128 133.795L207.643 130.672L210.776 130.188ZM206.813 130.079L203.68 130.563L203.194 127.44L206.327 126.956L206.813 130.079ZM205.732 123.115L206.217 126.238L203.085 126.722L202.599 123.599L205.732 123.115ZM201.299 119.883L201.784 123.005L198.652 123.489L198.166 120.367L201.299 119.883ZM196.85 116.635L197.336 119.758L194.203 120.257L193.717 117.134L196.85 116.635ZM192.997 117.228L193.482 120.351L190.35 120.835L189.864 117.712L192.997 117.228ZM189.159 117.837L189.645 120.96L186.512 121.444L186.026 118.321L189.159 117.837ZM185.306 118.43L185.791 121.553L182.658 122.037L182.173 118.915L185.306 118.43ZM181.468 119.024L181.954 122.147L178.821 122.631L178.319 119.508L181.468 119.024ZM174.482 120.101L177.615 119.617L178.1 122.74L174.967 123.224L174.482 120.101ZM171.224 124.536L174.356 124.052L174.842 127.174L171.709 127.659L171.224 124.536ZM167.981 128.954L171.114 128.47L171.6 131.593L168.467 132.077L167.981 128.954ZM168.576 132.796L171.709 132.312L172.21 135.434L169.078 135.918L168.576 132.796ZM165.334 137.23L168.467 136.746L168.952 139.869L165.819 140.353L165.334 137.23ZM165.929 141.056L169.062 140.572L169.548 143.694L166.415 144.178L165.929 141.056ZM166.524 144.897L169.657 144.413L170.143 147.535L167.01 148.02L166.524 144.897ZM167.12 148.722L170.252 148.238L170.754 151.361L167.621 151.861L167.12 148.722ZM167.715 152.563L170.848 152.079L171.333 155.202L168.2 155.686L167.715 152.563ZM168.326 156.389L171.459 155.905L171.944 159.028L168.811 159.512L168.326 156.389ZM168.921 160.23L172.054 159.746L172.539 162.869L169.407 163.353L168.921 160.23ZM170.002 167.194L169.516 164.071L172.649 163.571L173.135 166.694L170.002 167.194ZM173.949 167.303L177.082 166.819L177.568 169.942L174.435 170.426L173.949 167.303ZM175.046 174.267L174.56 171.144L177.693 170.645L178.178 173.768L175.046 174.267ZM179.479 177.499L178.993 174.376L182.126 173.892L182.611 177.015L179.479 177.499ZM183.927 180.747L183.442 177.624L186.574 177.14L187.06 180.263L183.927 180.747ZM187.781 180.138L187.295 177.015L190.428 176.531L190.913 179.654L187.781 180.138ZM191.618 179.545L191.133 176.422L194.266 175.938L194.751 179.061L191.618 179.545ZM195.472 178.951L194.986 175.829L198.119 175.345L198.605 178.467L195.472 178.951ZM199.309 178.358L198.824 175.235L201.957 174.751L202.458 177.874L199.309 178.358ZM206.296 177.281L203.163 177.765L202.677 174.642L205.81 174.158L206.296 177.281ZM209.554 172.846L206.421 173.33L205.935 170.207L209.068 169.723L209.554 172.846ZM212.796 168.412L209.663 168.896L209.178 165.773L212.311 165.289L212.796 168.412Z" fill="#E2BEA6"/>
<path d="M204.174 260.536L207.714 259.989L211.27 259.443L204.065 213.256L196.969 214.349L204.174 260.536Z" fill="#454F6B"/>
<path d="M208.649 175.984C207.276 177.368 205.722 178.561 204.028 179.529L203.433 179.888C198.588 182.693 192.863 183.579 187.393 182.371L186.719 182.214C184.818 181.793 182.981 181.126 181.253 180.231L174 176.468L186.735 190.396C191.847 195.974 195.193 202.932 196.353 210.398L196.964 214.349L204.075 213.256L203.449 209.305C202.308 201.834 203.397 194.194 206.581 187.336L214.414 170.16L208.649 175.984ZM202.618 185.54C200.219 190.752 198.893 196.391 198.718 202.123C196.813 196.706 193.829 191.73 189.946 187.492L189.539 187.055C194.086 187.524 198.678 186.814 202.869 184.994L202.618 185.54Z" fill="#CC6164"/>
<path d="M184.81 113.105C169.318 115.51 159.246 133.404 162.317 153.015C165.387 172.627 180.409 186.649 195.901 184.244C211.392 181.839 221.464 163.945 218.41 144.334C215.355 124.722 200.302 110.716 184.81 113.105ZM195.462 181.418C181.568 183.573 167.971 170.628 165.152 152.578C162.332 134.528 171.417 118.102 185.265 115.947C199.112 113.792 212.755 126.721 215.575 144.771C218.394 162.821 209.356 179.263 195.462 181.418Z" fill="#E8916A"/>
<path d="M95.9442 234.694C98.2016 232.037 101.408 230.36 104.885 230.019C108.362 229.678 111.835 230.699 114.569 232.868L148.106 259.537L191.966 234.835L198.122 222L199.688 226.684L209.384 222.984C209.778 222.825 210.2 222.748 210.625 222.757C211.05 222.765 211.469 222.86 211.855 223.036C212.242 223.211 212.589 223.463 212.875 223.776C213.161 224.089 213.381 224.457 213.52 224.857C213.725 225.402 213.774 225.994 213.661 226.565C213.547 227.136 213.276 227.664 212.877 228.09L211.436 229.651L211.342 238.333C211.337 239.38 210.947 240.389 210.246 241.169C209.544 241.949 208.58 242.446 207.536 242.564L197.119 243.766L158.303 276.994C155.978 278.985 153.074 280.184 150.016 280.414C146.959 280.645 143.907 279.895 141.308 278.274L107.645 257.335C104.513 277.852 96.4298 258.897 93.2187 246.811C92.6609 244.722 92.6175 242.529 93.092 240.42C93.5665 238.31 94.545 236.346 95.9442 234.694V234.694Z" fill="#BD6C67"/>
<path d="M107.662 257.334L99.25 252.354C101.584 263.299 104.2 265.922 107.662 257.334Z" fill="#A64F5A"/>
<path d="M119.262 264.971H119.137L99.0396 252.698C98.9597 252.649 98.902 252.572 98.8786 252.481C98.8552 252.391 98.868 252.295 98.9143 252.214C98.9385 252.172 98.9708 252.136 99.0093 252.107C99.0478 252.078 99.0917 252.058 99.1385 252.046C99.1852 252.034 99.2338 252.032 99.2814 252.039C99.329 252.047 99.3746 252.064 99.4156 252.089L119.513 264.362C119.582 264.407 119.633 264.474 119.658 264.552C119.684 264.629 119.682 264.714 119.652 264.79C119.623 264.867 119.568 264.931 119.497 264.973C119.426 265.014 119.343 265.03 119.262 265.018V264.971Z" fill="#422C4F"/>
<path d="M27.8415 264.956C27.4192 267.323 26.3013 269.511 24.6296 271.243C22.9579 272.975 20.8077 274.173 18.4519 274.685C16.096 275.197 13.6407 275 11.3973 274.119C9.1539 273.238 7.22358 271.713 5.85121 269.737C4.47883 267.761 3.72626 265.422 3.68896 263.019C3.65165 260.616 4.3313 258.256 5.64167 256.238C6.95205 254.221 8.8341 252.636 11.0491 251.687C13.264 250.737 15.7121 250.464 18.0827 250.904C21.2383 251.492 24.0334 253.299 25.8607 255.93C27.6879 258.561 28.3998 261.805 27.8415 264.956Z" fill="#ADBF53"/>
<path d="M6.12558 257.994C5.73225 260.304 6.01504 262.678 6.94011 264.833C7.42248 265.931 8.15738 266.9 9.08535 267.662C10.0133 268.424 11.1083 268.958 12.2816 269.22V269.22C13.4988 269.456 14.7599 269.287 15.8717 268.74C16.9836 268.193 17.8849 267.297 18.4376 266.191C18.9255 264.804 19.0758 263.322 18.8762 261.866C18.8762 261.507 18.8762 261.132 18.8762 260.789C18.7763 257.64 19.6276 254.534 21.3198 251.873C20.9962 251.7 20.6613 251.548 20.3173 251.42C18.5617 254.225 17.6736 257.483 17.7641 260.789C17.7641 261.163 17.7641 261.538 17.7641 261.913C17.9488 263.197 17.8308 264.507 17.4195 265.738C16.9536 266.616 16.2201 267.323 15.3248 267.758C14.4295 268.193 13.4187 268.333 12.4382 268.158V268.158C11.4394 267.921 10.51 267.454 9.72411 266.796C8.93818 266.137 8.31743 265.304 7.9113 264.364C7.07595 262.394 6.83111 260.225 7.2064 258.118C7.48227 256.401 7.91752 254.712 8.50653 253.075C7.94467 253.503 7.42061 253.979 6.94011 254.496C6.58215 255.64 6.3099 256.809 6.12558 257.994V257.994Z" fill="#CFE88B"/>
<path d="M488.529 284.363L497.928 320.151C499.038 324.383 498.64 328.867 496.804 332.84C494.967 336.812 491.804 340.026 487.856 341.933V341.933C485.072 343.278 481.999 343.922 478.908 343.808C475.816 343.693 472.8 342.824 470.124 341.277L430.039 318.137L438.654 310.252C445.39 313.874 458.125 310.611 465.957 315.326L459.033 300.274L488.529 284.363Z" fill="#BD6C67"/>
<path d="M463.59 310.205C475.165 309.159 488.198 299.447 490.657 292.514L488.527 284.363L459.031 300.274L463.59 310.205Z" fill="#422C4F"/>
<path d="M472.853 330.332L463.595 310.205L465.961 315.327C464.052 314.249 461.968 313.514 459.805 313.156C461.183 317.559 464.739 325.851 472.853 330.332Z" fill="#A64F5A"/>
<path d="M447.724 317.327C448.705 315.384 450.119 313.69 451.859 312.377C446.862 312.159 442.006 312.065 438.654 310.254L430.039 318.139L446.988 327.929C445.845 324.434 446.109 320.632 447.724 317.327Z" fill="#ADBF53"/>
<path d="M388.192 463.272C377.368 457.37 367.703 445.129 363.239 433.324C362.542 434.132 361.957 435.031 361.5 435.994C365.6 448.63 374.37 459.237 386.03 465.661C387.596 466.551 389.649 467.348 391.262 466.473C392.092 465.983 392.694 465.186 392.938 464.256C392.121 464.415 391.28 464.409 390.466 464.24C389.651 464.072 388.878 463.742 388.192 463.272Z" fill="white"/>
<path d="M392.949 460.308C391.467 451.267 387.693 442.754 381.985 435.575L371.02 428.064C368.031 429.182 365.348 430.985 363.188 433.326C367.652 445.131 377.285 457.373 388.141 463.275C388.819 463.741 389.584 464.07 390.39 464.241C391.197 464.413 392.029 464.424 392.84 464.274C392.906 464.091 392.959 463.903 392.996 463.712C393.176 462.583 393.16 461.432 392.949 460.308Z" fill="#454F6B"/>
<path d="M405.889 304.443C405.889 304.443 402.85 340.731 398.965 362.997C388.862 369.383 385.056 379.611 381.547 392.664C383.793 395.962 386.836 398.645 390.394 400.465C393.952 402.284 397.912 403.183 401.91 403.079L420.363 373.162C423.037 368.821 425.143 364.156 426.628 359.281L440.726 313.156L405.889 304.443Z" fill="#BD6C67"/>
<path d="M405.094 313.14C413.756 324.523 428.12 327.724 436.955 325.46L440.698 313.156L405.877 304.443L405.094 313.14Z" fill="#422C4F"/>
<path d="M389.922 400.284C386.566 398.465 383.693 395.874 381.542 392.727C378.816 402.907 376.263 414.836 371.062 428.062C371.062 428.062 376.388 436.29 382.027 435.572L401.999 403.141C397.793 403.252 393.63 402.267 389.922 400.284V400.284Z" fill="white"/>
<path d="M389.924 400.284C386.568 398.465 383.695 395.874 381.544 392.727C380.902 395.1 380.275 397.567 379.633 400.128C381.976 404.089 385.566 407.169 389.846 408.887C392.206 409.848 394.68 410.504 397.208 410.839L401.907 403.141C397.732 403.236 393.604 402.252 389.924 400.284V400.284Z" fill="#ADBF53"/>
<path d="M413.532 264.752L400.906 304.194C406.211 309.838 412.91 313.993 420.333 316.243C427.756 318.493 435.641 318.759 443.2 317.014L450.123 284.348L454.822 305.646C477.629 305.881 486.151 298.136 492.416 287.987C483.206 256.898 473.98 234.164 473.98 234.164L413.532 264.752Z" fill="#454F6B"/>
<path d="M475.657 237.911C464.3 271.779 436.324 281.241 409.867 276.151L413.517 264.752L473.949 234.164L475.657 237.911Z" fill="#422C4F"/>
<path d="M450.164 284.35L467.285 273.123L455.741 286.786L454.769 305.648L450.164 284.35Z" fill="#422C4F"/>
<path d="M448.562 132.423L461.673 113.561L478.418 54.2271C473.5 44.1871 477.134 28.9475 477.134 28.9475C478.094 29.2408 478.948 29.8082 479.588 30.5797C480.228 31.3512 480.628 32.2929 480.737 33.2883C480.954 35.237 481.624 37.1083 482.695 38.7533C485.091 34.678 485.593 28.8694 485.608 24.841C485.615 23.9774 485.842 23.1296 486.267 22.377C486.691 21.6244 487.301 20.9915 488.038 20.5376C488.775 20.0836 489.616 19.8235 490.481 19.7814C491.346 19.7394 492.208 19.9169 492.986 20.2972C493.387 20.4886 493.775 20.7077 494.145 20.953C496.447 22.5358 498.2 24.7914 499.163 27.409C500.125 30.0265 500.249 32.8772 499.518 35.568C497.401 43.2364 493.438 50.2739 487.974 56.0696L487.566 109.377C487.535 113.982 486.281 118.496 483.932 122.462L467.626 149.974L448.562 132.423Z" fill="#BD6C67"/>
<path d="M451.962 127.408C466.059 127.83 473.891 139.353 473.891 139.353L467.626 150.033L448.562 132.42L451.962 127.408Z" fill="#A64F5A"/>
<path d="M482.683 39.2618C482.621 39.333 482.586 39.4246 482.586 39.5194C482.586 39.6142 482.621 39.7058 482.683 39.777C484.319 41.6186 485.221 43.9929 485.221 46.4522C485.221 48.9114 484.319 51.2857 482.683 53.1273C482.651 53.1632 482.627 53.2049 482.611 53.2503C482.596 53.2956 482.589 53.3435 482.592 53.3914C482.595 53.4392 482.607 53.486 482.628 53.5291C482.649 53.5722 482.679 53.6108 482.715 53.6425C482.751 53.6743 482.793 53.6987 482.838 53.7144C482.884 53.73 482.932 53.7365 482.98 53.7336C483.028 53.7307 483.075 53.7185 483.118 53.6975C483.161 53.6765 483.2 53.6472 483.232 53.6113C484.988 51.6374 485.958 49.0905 485.958 46.4522C485.958 43.8138 484.988 41.2669 483.232 39.293C483.199 39.2536 483.158 39.2213 483.112 39.1982C483.066 39.1752 483.016 39.1617 482.964 39.1588C482.913 39.1559 482.861 39.1635 482.813 39.1812C482.765 39.1989 482.721 39.2263 482.683 39.2618V39.2618Z" fill="#422C4F"/>
<path d="M497.393 28.3054C497.044 28.3848 496.722 28.5553 496.46 28.7995C496.199 29.0437 496.007 29.3528 495.905 29.6951C495.737 30.1986 495.652 30.726 495.654 31.2565V31.4595C495.474 34.7419 494.455 37.9239 492.694 40.7032C492.215 39.6634 491.534 38.7291 490.689 37.9551C492.307 35.043 493.134 31.7593 493.085 28.4304C493.085 28.243 493.085 28.0556 493.085 27.8526C492.982 27.0515 493.014 26.2387 493.179 25.448C493.414 24.6361 494.135 23.7773 495.012 23.8866C495.105 23.8835 495.195 23.8472 495.264 23.7842C495.333 23.7212 495.377 23.6357 495.388 23.5431C495.39 23.4946 495.382 23.4462 495.365 23.4009C495.348 23.3555 495.322 23.314 495.288 23.279C495.254 23.244 495.214 23.2161 495.169 23.1971C495.124 23.1781 495.076 23.1683 495.028 23.1683C494.414 23.1817 493.823 23.3998 493.349 23.7876C492.875 24.1754 492.545 24.7106 492.412 25.3075C492.217 26.1784 492.169 27.0755 492.271 27.9619V28.524C492.322 31.6682 491.555 34.772 490.046 37.5335C489.086 36.8403 487.993 36.3513 486.835 36.097C488.097 32.7982 488.719 29.2905 488.668 25.7603V25.4636C488.619 24.7371 488.666 24.0073 488.809 23.2933C488.878 22.92 489.037 22.569 489.271 22.2699C489.506 21.9709 489.809 21.7327 490.156 21.5757C490.201 21.5622 490.243 21.5391 490.279 21.508C490.314 21.477 490.343 21.4387 490.362 21.3957C490.381 21.3527 490.391 21.3061 490.391 21.2591C490.39 21.212 490.38 21.1655 490.36 21.1229C490.346 21.0778 490.323 21.0361 490.292 21.0003C490.261 20.9646 490.223 20.9355 490.18 20.915C490.138 20.8945 490.091 20.883 490.044 20.8811C489.997 20.8793 489.95 20.8872 489.905 20.9043C489.45 21.1046 489.049 21.4102 488.736 21.7958C488.423 22.1814 488.206 22.6358 488.104 23.1215C487.951 23.8975 487.898 24.6899 487.947 25.4793V25.8228C488.004 29.2846 487.393 32.725 486.146 35.9565C485.585 35.882 485.02 35.8455 484.454 35.8472C484.407 35.8492 484.361 35.8605 484.318 35.8804C484.275 35.9003 484.236 35.9285 484.204 35.9633C484.172 35.9981 484.147 36.0389 484.131 36.0832C484.115 36.1276 484.108 36.1747 484.11 36.2219C484.11 36.2704 484.119 36.3184 484.139 36.363C484.158 36.4077 484.186 36.448 484.221 36.4815C484.256 36.5151 484.297 36.5412 484.343 36.5583C484.388 36.5754 484.437 36.5831 484.486 36.581C486.209 36.581 491.895 36.9401 492.944 44.5131C492.952 44.5987 492.992 44.6782 493.056 44.736C493.119 44.7939 493.203 44.8257 493.289 44.8254V44.8254C493.381 44.8067 493.464 44.7554 493.522 44.6808C493.579 44.6062 493.608 44.5133 493.602 44.4194C493.47 43.4562 493.24 42.5092 492.913 41.5932C494.906 38.6042 496.058 35.1371 496.249 31.5532V31.3502C496.251 30.8695 496.32 30.3913 496.453 29.9293C496.524 29.7133 496.646 29.5178 496.81 29.3599C496.974 29.202 497.174 29.0866 497.393 29.0237C497.487 29.0047 497.571 28.9505 497.626 28.872C497.681 28.7936 497.704 28.697 497.691 28.6021C497.676 28.5287 497.64 28.4612 497.587 28.4084C497.534 28.3555 497.467 28.3197 497.393 28.3054Z" fill="#422C4F"/>
<path d="M364.935 191.946C360.658 201.315 369.133 222.706 380.051 222.612C389.324 204.297 372.312 188.417 364.935 191.946Z" fill="#52969E"/>
<path d="M368.382 191.349L353.815 204.044L341.44 163.852C344.937 154.995 345.486 145.251 343.006 136.059C342.073 136.423 341.256 137.031 340.641 137.82C340.026 138.609 339.636 139.549 339.513 140.54C339.381 141.682 339.171 142.814 338.887 143.928C338.198 138.526 337.649 130.313 337.32 125.831C337.263 124.902 336.908 124.015 336.307 123.301C335.707 122.587 334.892 122.084 333.984 121.865V121.865C332.992 121.628 331.949 121.741 331.032 122.185C330.115 122.63 329.381 123.378 328.956 124.301L327.264 128.033C326.486 129.751 326.147 131.634 326.277 133.514C327.765 155.748 330.334 163.852 330.334 163.852L333.279 221.047C333.446 224.382 334.617 227.588 336.64 230.248C338.664 232.908 341.444 234.899 344.62 235.959V235.959C347.461 236.916 350.508 237.092 353.441 236.468C356.375 235.845 359.085 234.444 361.287 232.415L386.036 209.602L368.382 191.349Z" fill="#BD6C67"/>
<path d="M364.922 194.363C373.396 204.825 374.32 217.425 372.347 222.282L386.1 209.603L368.384 191.35L364.922 194.363Z" fill="#A64F5A"/>
<path d="M357.186 215.334C357.109 215.337 357.033 215.314 356.971 215.269C356.908 215.223 356.863 215.158 356.842 215.084L349.01 189.852C348.995 189.807 348.989 189.759 348.993 189.712C348.997 189.665 349.011 189.619 349.032 189.576C349.054 189.534 349.084 189.497 349.121 189.467C349.157 189.436 349.199 189.413 349.245 189.399C349.29 189.382 349.338 189.375 349.386 189.378C349.434 189.38 349.481 189.393 349.524 189.415C349.567 189.437 349.604 189.468 349.634 189.506C349.665 189.543 349.687 189.587 349.699 189.633L357.531 214.866C357.555 214.959 357.543 215.058 357.496 215.142C357.45 215.226 357.372 215.29 357.28 215.319L357.186 215.334Z" fill="#422C4F"/>
<path d="M336.575 158.341C336.52 158.343 336.465 158.331 336.416 158.307C336.366 158.282 336.324 158.246 336.293 158.201C333.692 154.656 334.554 149.238 338.595 143.711C338.662 143.646 338.752 143.609 338.846 143.609C338.939 143.609 339.029 143.646 339.097 143.711C339.136 143.737 339.17 143.771 339.196 143.811C339.221 143.851 339.238 143.896 339.246 143.943C339.253 143.99 339.251 144.038 339.238 144.084C339.226 144.13 339.205 144.173 339.175 144.21C335.337 149.472 334.476 154.578 336.872 157.841C336.938 157.911 336.975 158.003 336.975 158.099C336.975 158.195 336.938 158.287 336.872 158.357C336.824 158.375 336.773 158.384 336.722 158.381C336.67 158.378 336.62 158.365 336.575 158.341V158.341Z" fill="#422C4F"/>
<path d="M335.254 137.745C335.207 137.747 335.16 137.74 335.117 137.724C335.073 137.707 335.033 137.682 335 137.65C334.966 137.618 334.939 137.58 334.921 137.537C334.903 137.494 334.893 137.448 334.893 137.402L334 123.505C333.996 123.408 334.029 123.313 334.094 123.24C334.158 123.168 334.248 123.123 334.345 123.115C334.394 123.108 334.444 123.112 334.491 123.126C334.539 123.14 334.583 123.164 334.62 123.197C334.657 123.23 334.686 123.27 334.707 123.315C334.727 123.36 334.737 123.409 334.737 123.458L335.614 137.37C335.616 137.418 335.609 137.465 335.592 137.509C335.576 137.553 335.551 137.594 335.519 137.629C335.487 137.664 335.449 137.692 335.406 137.712C335.363 137.732 335.317 137.743 335.269 137.745H335.254Z" fill="#422C4F"/>
<path d="M333.049 141.01C332.959 141.01 332.871 140.977 332.805 140.916C332.738 140.855 332.696 140.772 332.689 140.682L330.543 124.974C330.529 124.877 330.554 124.778 330.613 124.699C330.671 124.62 330.759 124.568 330.856 124.552C330.903 124.546 330.951 124.549 330.998 124.561C331.044 124.573 331.087 124.594 331.125 124.623C331.163 124.652 331.195 124.689 331.219 124.73C331.242 124.772 331.257 124.817 331.263 124.865L333.409 140.588C333.418 140.636 333.417 140.685 333.406 140.732C333.394 140.779 333.373 140.823 333.344 140.861C333.314 140.899 333.277 140.931 333.234 140.954C333.191 140.977 333.144 140.991 333.096 140.994L333.049 141.01Z" fill="#422C4F"/>
<path d="M330.549 146.163C330.46 146.167 330.373 146.137 330.306 146.079C330.239 146.021 330.197 145.939 330.189 145.85L327.949 131.048C327.935 130.951 327.961 130.852 328.019 130.773C328.078 130.695 328.165 130.642 328.262 130.626C328.31 130.62 328.358 130.623 328.404 130.635C328.45 130.647 328.494 130.668 328.531 130.698C328.569 130.727 328.601 130.763 328.625 130.804C328.648 130.846 328.664 130.891 328.669 130.939L330.925 145.741C330.939 145.838 330.913 145.937 330.855 146.016C330.796 146.094 330.709 146.147 330.612 146.163H330.549Z" fill="#422C4F"/>
<path d="M422.817 173.442L403.127 172.536L397.065 172.255C393.306 172.086 389.553 172.701 386.046 174.062C382.539 175.422 379.357 177.498 376.701 180.156L364.922 191.944C369.345 194.872 373.007 198.805 375.605 203.42C378.204 208.035 379.664 213.2 379.866 218.489L380.038 222.658L391.003 211.416C412.118 229.013 413.089 260.71 410.426 270.625C462.353 279.338 475.699 237.96 475.699 237.96C473.224 205.263 451.686 173.442 451.686 173.442L471.094 149.13C464.546 133.641 447.801 128.082 447.801 128.082L434.205 142.994C428.799 148.909 424.331 155.612 420.953 162.871V162.871L422.817 173.442Z" fill="#ADBF53"/>
<path d="M397.579 204.545L390.953 211.368C404.738 222.845 409.922 240.333 411.144 253.855C412.789 243.097 410.314 225.546 397.579 204.545Z" fill="#7CA566"/>
<path d="M451.618 173.441L441.922 158.374L448.563 163.854L467.517 153.533L451.618 173.441Z" fill="#7CA566"/>
<path d="M380.04 222.969C379.968 222.97 379.898 222.951 379.838 222.912C379.778 222.874 379.73 222.819 379.702 222.753C379.673 222.688 379.665 222.616 379.678 222.546C379.69 222.476 379.724 222.411 379.773 222.36L400.137 201.421C400.205 201.353 400.298 201.314 400.395 201.314C400.492 201.314 400.585 201.353 400.654 201.421C400.722 201.489 400.761 201.582 400.761 201.679C400.761 201.775 400.722 201.868 400.654 201.936L380.29 222.86C380.26 222.896 380.221 222.924 380.178 222.943C380.134 222.962 380.087 222.971 380.04 222.969V222.969Z" fill="#422C4F"/>
<path d="M420.363 263.879C419.016 263.879 417.684 263.879 416.353 263.739C416.256 263.731 416.166 263.686 416.102 263.613C416.037 263.54 416.004 263.445 416.008 263.348C416.012 263.301 416.025 263.255 416.047 263.213C416.069 263.171 416.099 263.134 416.135 263.103C416.172 263.073 416.214 263.05 416.259 263.036C416.305 263.021 416.352 263.016 416.4 263.021C426.659 263.738 436.921 261.672 446.097 257.042C455.273 252.412 463.02 245.392 468.514 236.726C468.54 236.686 468.573 236.651 468.612 236.624C468.651 236.596 468.696 236.577 468.742 236.567C468.789 236.557 468.837 236.556 468.884 236.564C468.931 236.573 468.976 236.591 469.016 236.617C469.097 236.668 469.155 236.749 469.178 236.842C469.201 236.935 469.188 237.033 469.141 237.116C463.933 245.315 456.73 252.067 448.202 256.746C439.674 261.425 430.097 263.879 420.363 263.879V263.879Z" fill="#422C4F"/>
<path d="M420.985 258.54C420.884 258.545 420.785 258.51 420.709 258.443C420.633 258.376 420.586 258.282 420.578 258.181C420.578 258.133 420.588 258.085 420.607 258.04C420.626 257.996 420.654 257.955 420.689 257.922C420.724 257.888 420.766 257.862 420.811 257.845C420.857 257.828 420.905 257.82 420.954 257.822V257.822C434.398 257.811 447.427 253.178 457.843 244.706C457.913 244.64 458.005 244.604 458.102 244.604C458.198 244.604 458.29 244.64 458.36 244.706C458.425 244.773 458.462 244.863 458.462 244.956C458.462 245.049 458.425 245.139 458.36 245.206C447.81 253.802 434.611 258.511 420.985 258.54V258.54Z" fill="#422C4F"/>
<path d="M430.633 175.956L399.806 175.363C399.757 175.363 399.709 175.353 399.664 175.334C399.62 175.315 399.579 175.287 399.545 175.252C399.512 175.217 399.486 175.176 399.468 175.13C399.451 175.085 399.444 175.036 399.446 174.988C399.45 174.891 399.491 174.8 399.561 174.733C399.631 174.666 399.725 174.629 399.822 174.629L430.649 175.222C430.744 175.222 430.836 175.26 430.903 175.327C430.971 175.395 431.009 175.486 431.009 175.581C431.009 175.677 430.971 175.768 430.903 175.835C430.836 175.903 430.744 175.941 430.649 175.941L430.633 175.956Z" fill="#422C4F"/>
<path d="M425.391 171.378C425.303 171.375 425.22 171.343 425.154 171.286C425.089 171.229 425.045 171.151 425.03 171.066L423.965 164.164C423.958 164.117 423.96 164.069 423.972 164.022C423.983 163.976 424.003 163.932 424.032 163.894C424.06 163.856 424.096 163.823 424.137 163.798C424.178 163.774 424.223 163.757 424.271 163.75C424.318 163.743 424.366 163.745 424.413 163.757C424.459 163.768 424.503 163.789 424.541 163.817C424.58 163.845 424.612 163.881 424.637 163.921C424.662 163.962 424.678 164.008 424.686 164.055L425.751 170.956C425.757 171.003 425.755 171.052 425.742 171.098C425.73 171.144 425.709 171.187 425.68 171.225C425.65 171.262 425.614 171.294 425.572 171.318C425.531 171.341 425.485 171.356 425.438 171.362L425.391 171.378Z" fill="#422C4F"/>
<path d="M422.802 173.441L403.144 172.536L401.844 158.826L421.173 159.638L422.802 173.441Z" fill="#BD6C67"/>
<path d="M401.844 158.826C408.893 168.991 417.508 170.631 422.098 167.367L421.173 159.638L401.844 158.826Z" fill="#422C4F"/>
<path d="M416.537 125.128L417.493 126.143C421.662 130.575 424.278 136.234 424.949 142.273L426.03 151.923C426.263 154.032 425.914 156.166 425.019 158.092C424.125 160.019 422.719 161.665 420.955 162.853V162.853C419.644 163.728 418.168 164.33 416.618 164.623C415.067 164.915 413.473 164.892 411.932 164.555L410.522 164.242C404.927 163.022 399.912 159.945 396.299 155.514L393.292 151.829C390.6 148.546 389.133 144.436 389.141 140.196V140.196C389.137 137.238 389.846 134.322 391.209 131.694C392.572 129.067 394.549 126.804 396.973 125.097L399.495 123.333C402.169 121.476 405.442 120.68 408.674 121.1V121.1C411.686 121.487 414.468 122.912 416.537 125.128Z" fill="#BD6C67"/>
<path d="M400.537 159.638C401.571 157.155 402.621 153.205 400.804 149.848C401.711 147.504 402.091 144.99 401.918 142.484C401.745 139.978 401.022 137.54 399.801 135.342C407.851 132.302 415.235 127.737 421.543 121.898C422.622 121.025 423.489 119.92 424.081 118.666C424.419 118.09 424.564 117.422 424.494 116.758C424.423 116.094 424.142 115.47 423.69 114.978C423.238 114.486 422.639 114.15 421.983 114.022C421.326 113.893 420.645 113.977 420.039 114.263C418.899 114.676 417.839 115.284 416.906 116.058C417.797 114.9 418.309 113.497 418.374 112.04C418.438 110.582 418.052 109.139 417.267 107.908C416.466 106.776 415.317 105.936 413.995 105.513C412.672 105.09 411.247 105.109 409.936 105.566C407.226 106.581 405.597 109.282 403.936 111.655C401.099 115.758 397.619 119.38 393.629 122.382C390.966 124.396 388.069 126.114 385.5 128.269C382.801 130.328 380.765 133.128 379.641 136.326C377.965 141.884 380.691 148.021 384.936 151.94C389.181 155.859 395.133 157.452 400.537 159.638Z" fill="#422C4F"/>
<path d="M395.627 153.19C394.786 153.084 393.933 153.157 393.122 153.405C392.312 153.652 391.564 154.069 390.928 154.626C390.305 155.196 389.854 155.927 389.625 156.738C389.395 157.548 389.396 158.407 389.627 159.217C390.102 160.255 390.861 161.138 391.817 161.765C392.773 162.392 393.887 162.737 395.032 162.761C396.47 162.947 397.932 162.72 399.245 162.105C399.898 161.793 400.469 161.335 400.915 160.766C401.361 160.197 401.668 159.533 401.814 158.826C402.362 155.672 398.258 153.502 395.627 153.19Z" fill="#BD6C67"/>
<path d="M396.057 159.904H395.352C393.926 159.763 392.673 159.092 392.438 158.342C392.382 158.06 392.4 157.767 392.491 157.494C392.581 157.22 392.741 156.974 392.955 156.781C393.509 156.313 394.219 156.068 394.944 156.094H395.305C396.624 156.27 397.844 156.886 398.767 157.842C399.002 158.155 398.986 158.311 398.97 158.373C398.896 158.629 398.766 158.864 398.59 159.064C398.414 159.264 398.196 159.423 397.952 159.529C397.359 159.802 396.709 159.93 396.057 159.904V159.904Z" fill="#422C4F"/>
<path d="M435.929 65.4995C449.563 65.4995 460.616 54.482 460.616 40.8913C460.616 27.3006 449.563 16.2832 435.929 16.2832C422.295 16.2832 411.242 27.3006 411.242 40.8913C411.242 54.482 422.295 65.4995 435.929 65.4995Z" fill="#E4E4E0"/>
<path d="M445.563 18.2344C449.152 22.4556 451.21 27.7594 451.403 33.2895C451.596 38.8196 449.913 44.2532 446.627 48.7129C443.341 53.1726 438.643 56.398 433.291 57.8685C427.94 59.339 422.247 58.9687 417.133 56.8173C419.544 59.653 422.568 61.9074 425.979 63.4112C429.389 64.9149 433.097 65.629 436.824 65.4997C440.551 65.3705 444.2 64.4012 447.497 62.6649C450.794 60.9285 453.654 58.47 455.861 55.4741C458.069 52.4782 459.567 49.0227 460.243 45.367C460.919 41.7114 460.755 37.9505 459.764 34.367C458.773 30.7834 456.981 27.4702 454.521 24.6761C452.062 21.882 448.999 19.6796 445.563 18.2344V18.2344Z" fill="#D4CFBE"/>
<path d="M460.17 40.577C460.084 40.5314 459.984 40.5205 459.891 40.5467C459.798 40.5729 459.718 40.6341 459.669 40.7175C456.536 46.0107 448.704 51.0698 437.739 50.6169C438.789 48.2352 439.541 45.7337 439.979 43.1689V43.1689C453.168 43.1689 458.995 34.784 459.246 34.4249C459.296 34.3451 459.314 34.2494 459.297 34.1568C459.279 34.0642 459.228 33.9815 459.152 33.9253C459.069 33.8742 458.971 33.8556 458.875 33.8729C458.78 33.8902 458.694 33.9422 458.635 34.019C458.111 34.7595 457.513 35.4449 456.849 36.0644C454.077 24.4786 446.213 18.3578 432.131 16.8588C432.085 16.8523 432.037 16.8553 431.992 16.8677C431.947 16.88 431.904 16.9015 431.868 16.9308C431.831 16.96 431.801 16.9964 431.779 17.0377C431.757 17.0791 431.743 17.1245 431.739 17.1711C431.733 17.2183 431.736 17.2664 431.748 17.3125C431.76 17.3586 431.782 17.4018 431.811 17.4396C431.84 17.4774 431.876 17.509 431.918 17.5326C431.959 17.5562 432.005 17.5713 432.053 17.5771C445.947 19.1385 453.638 25.1188 456.238 36.6265C454.293 38.3554 452.055 39.7248 449.628 40.6706C448.602 37.1601 446.88 33.8905 444.563 31.0555C442.246 28.2206 439.383 25.8779 436.141 24.1663C433.586 22.8104 430.775 22.0029 427.889 21.7958C425.002 21.5887 422.104 21.9867 419.38 22.964C419.335 22.9797 419.293 23.0044 419.257 23.0367C419.221 23.0689 419.191 23.1081 419.171 23.1518C419.151 23.1955 419.139 23.2429 419.137 23.2911C419.136 23.3393 419.144 23.3874 419.161 23.4325C419.175 23.4775 419.198 23.5192 419.229 23.555C419.26 23.5908 419.298 23.6198 419.341 23.6403C419.383 23.6608 419.43 23.6723 419.477 23.6742C419.524 23.676 419.571 23.6682 419.615 23.6511C422.246 22.7051 425.047 22.3193 427.837 22.5183C430.626 22.7173 433.343 23.4968 435.812 24.8065C438.973 26.4798 441.764 28.7681 444.021 31.536C446.279 34.3038 447.956 37.4949 448.954 40.9205C446.079 41.9667 443.04 42.4953 439.979 42.4819H439.838C436.298 37.7976 425.865 28.3197 415.402 27.9606C415.307 27.9603 415.216 27.9954 415.146 28.0591C415.077 28.1228 415.034 28.2102 415.026 28.3041C415.021 28.3518 415.027 28.3998 415.042 28.4452C415.058 28.4905 415.083 28.5322 415.115 28.5675C415.147 28.6028 415.187 28.6309 415.231 28.6501C415.275 28.6693 415.322 28.6791 415.37 28.6789C417.513 28.7824 419.626 29.2142 421.636 29.9592C416.766 36.2695 414.138 44.014 414.164 51.9754C414.167 52.0686 414.204 52.1576 414.267 52.2264C414.33 52.2951 414.416 52.339 414.509 52.3501C414.601 52.3466 414.688 52.3098 414.754 52.2465C414.821 52.1832 414.862 52.0979 414.869 52.0066C414.816 44.0937 417.437 36.3934 422.31 30.1466C425.627 31.4748 428.742 33.2563 431.567 35.4399C422.827 45.8546 420.477 55.3949 419.882 59.0174C419.873 59.0647 419.873 59.1132 419.884 59.1602C419.894 59.2072 419.913 59.2517 419.941 59.291C419.969 59.3303 420.004 59.3637 420.045 59.3891C420.086 59.4145 420.132 59.4315 420.179 59.439V59.439C420.266 59.4366 420.35 59.4042 420.416 59.3472C420.481 59.2903 420.525 59.2123 420.54 59.1267C421.119 55.5511 423.437 46.1669 432.068 35.877C434.718 37.9126 437.121 40.2498 439.227 42.841C437.807 50.8255 433.547 58.0322 427.228 63.1396C427.194 63.1717 427.167 63.2105 427.148 63.2534C427.13 63.2964 427.12 63.3427 427.12 63.3894C427.12 63.4362 427.13 63.4825 427.148 63.5255C427.167 63.5684 427.194 63.6072 427.228 63.6393C427.263 63.6796 427.306 63.7117 427.355 63.7333C427.404 63.7549 427.457 63.7655 427.51 63.7642C427.586 63.793 427.669 63.793 427.745 63.7642C429.477 62.2673 431.09 60.6385 432.57 58.8925C434.573 59.3595 436.622 59.6005 438.679 59.6108C445.947 59.4603 452.865 56.4718 457.946 51.2884C458.008 51.2171 458.043 51.1255 458.043 51.0307C458.043 50.9359 458.008 50.8443 457.946 50.7731C457.912 50.7386 457.872 50.7112 457.827 50.6925C457.783 50.6738 457.735 50.6642 457.687 50.6642C457.639 50.6642 457.591 50.6738 457.547 50.6925C457.502 50.7112 457.462 50.7386 457.429 50.7731C450.239 57.5497 441.859 60.1417 433.118 58.1743C434.823 56.0742 436.279 53.7845 437.457 51.3508H439.117C449.565 51.3508 457.194 46.3074 460.233 41.0454C460.281 40.973 460.301 40.8856 460.289 40.7995C460.278 40.7133 460.236 40.6343 460.17 40.577V40.577Z" fill="#422C4F"/>
<path d="M238.464 350.49C231.284 362.118 227.207 375.384 226.622 389.026L224.727 433.137L252.75 381.469L238.464 350.49Z" fill="#BD6C67"/>
<path d="M488.717 603.194C490.23 601.928 491.406 600.31 492.141 598.482C492.876 596.654 493.147 594.674 492.93 592.717C492.457 588.81 491.329 585.009 489.594 581.475L479.13 557.647C478.942 557.569 478.786 557.46 478.598 557.397L473.773 555.586C472.727 554.752 471.723 553.866 470.765 552.932V552.932C470.765 552.932 470.515 563.768 458.328 565.595L462.354 570.42C464.403 572.883 465.77 575.838 466.317 578.992C467.05 584.013 468.457 588.913 470.499 593.56C472.254 597.752 475.111 601.393 478.77 604.1L478.989 604.225C480.577 604.832 482.286 605.056 483.977 604.877C485.668 604.698 487.293 604.121 488.717 603.194V603.194Z" fill="#ADBF53"/>
<path d="M495.761 594.014C495.28 590.108 494.153 586.309 492.424 582.772L483.699 562.223C482.832 560.141 481.202 558.466 479.141 557.539L489.605 581.366C491.34 584.901 492.468 588.702 492.941 592.609C493.158 594.566 492.887 596.546 492.152 598.374C491.417 600.202 490.241 601.82 488.727 603.086C487.305 604.015 485.681 604.595 483.99 604.777C482.299 604.958 480.589 604.738 479 604.132C482.775 606.49 487.944 607.021 491.531 604.413C493.04 603.16 494.215 601.556 494.953 599.742C495.691 597.928 495.968 595.96 495.761 594.014V594.014Z" fill="#422C4F"/>
<path d="M470.773 552.896C453.981 536.798 448.702 507.068 426.474 498.777L416.559 464.223L377.398 478.572L387.33 503.789C390.711 512.348 396.431 519.791 403.84 525.275L458.367 565.606C470.491 563.733 470.773 552.896 470.773 552.896Z" fill="#BD6C67"/>
<path d="M377.359 478.527L416.52 464.178L419.794 475.623C410.286 497.358 384.769 497.405 384.769 497.405L377.359 478.527Z" fill="#422C4F"/>
<path d="M448.085 518.706C446.427 516.064 444.617 513.52 442.666 511.086C442.212 517.557 439.326 523.62 434.584 528.063C429.843 532.506 423.594 535.003 417.086 535.054L423.242 539.613C429.162 539.501 434.862 537.362 439.386 533.555C443.91 529.748 446.982 524.504 448.085 518.706V518.706Z" fill="white"/>
<path d="M453.443 527.715C451.688 524.592 449.934 521.609 448.086 518.705C446.982 524.504 443.911 529.747 439.387 533.554C434.863 537.362 429.162 539.501 423.242 539.613L430.933 545.296C436.012 544.923 440.865 543.052 444.873 539.921C448.882 536.79 451.865 532.541 453.443 527.715V527.715Z" fill="#F0BF6C"/>
<path d="M470.771 552.883C463.644 546.06 458.585 536.769 453.447 527.713C451.869 532.539 448.886 536.789 444.877 539.919C440.869 543.05 436.016 544.922 430.938 545.295L458.334 565.593C470.521 563.766 470.771 552.93 470.771 552.93V552.883Z" fill="white"/>
<path d="M260.987 430.982C243.365 458.369 267.504 481.822 292.159 478.152C319.07 437.056 278.703 420.676 260.987 430.982Z" fill="#CE9F5B"/>
<path d="M278.862 469.971L296.406 456.964C294.051 450.428 290.341 444.46 285.518 439.448C280.695 434.436 274.867 430.492 268.414 427.875L258.592 435.448C250.499 441.683 244.937 450.621 242.928 460.618L224.805 550.463C231.227 555.366 239.686 554.491 245.56 552.946C245.81 551.853 246.108 550.76 246.468 549.682C255.882 521.342 277.656 504.104 278.862 469.971Z" fill="#BD6C67"/>
<path d="M213.371 584.955L218.29 584.455C222.65 583.988 226.766 582.219 230.101 579.381V579.381C231.934 577.815 234.201 576.84 236.601 576.586L241.457 576.07C242.461 575.963 243.415 575.581 244.214 574.966C245.013 574.352 245.626 573.529 245.984 572.588C245.828 571.464 245.64 570.434 245.42 569.465C244.191 564.027 244.191 558.384 245.42 552.946C239.546 554.507 231.088 555.366 224.665 550.463L223.099 553.055C219.279 559.258 214.18 564.58 208.14 568.669L192.945 578.928V581.192L194.512 581.41C200.315 584.406 206.872 585.638 213.371 584.955V584.955Z" fill="#ADBF53"/>
<path d="M241.489 576.072L236.633 576.587C234.232 576.842 231.965 577.817 230.132 579.382C226.789 582.226 222.661 583.995 218.29 584.457L213.34 584.956C206.866 585.642 200.333 584.426 194.543 581.459L192.977 581.24V586.018L194.543 586.814C200.334 589.778 206.865 590.999 213.34 590.328L218.29 589.812C222.65 589.357 226.768 587.593 230.101 584.753V584.753C231.933 583.183 234.199 582.203 236.601 581.943L241.457 581.428C242.818 581.293 244.077 580.647 244.976 579.62C245.875 578.593 246.348 577.262 246.297 575.9C246.297 574.729 246.125 573.605 245.984 572.559C245.633 573.5 245.027 574.327 244.233 574.947C243.44 575.567 242.49 575.956 241.489 576.072V576.072Z" fill="#422C4F"/>
<path d="M261.758 432.996C280.993 442.584 284.627 459.541 284.017 466.177L296.423 456.98L295.859 429.171L268.431 427.875L261.758 432.996Z" fill="#422C4F"/>
<path d="M251.191 513.862C244.762 512.988 238.706 510.338 233.71 506.211L224.781 550.462C231.204 555.365 239.662 554.49 245.536 552.945C245.787 551.852 246.085 550.759 246.445 549.681C251.144 535.769 258.757 524.527 265.43 512.644C260.823 514.046 255.97 514.461 251.191 513.862V513.862Z" fill="white"/>
<path d="M253.683 505.744C246.912 504.833 240.559 501.955 235.418 497.469L233.664 506.213C238.66 510.34 244.716 512.99 251.145 513.864C255.925 514.462 260.777 514.047 265.384 512.646C266.95 509.773 268.517 506.853 270.083 503.855C264.849 505.795 259.223 506.443 253.683 505.744V505.744Z" fill="#F0BF6C"/>
<path d="M255.965 499.123C248.826 498.158 242.164 495.004 236.902 490.098L235.414 497.468C240.057 501.569 245.733 504.33 251.833 505.456C257.932 506.581 264.224 506.027 270.032 503.854C271.128 501.59 272.147 499.294 273.165 496.921C267.712 499.097 261.793 499.855 255.965 499.123V499.123Z" fill="white"/>
<path d="M278.867 470.471C278.753 470.463 278.647 470.412 278.571 470.327C278.495 470.243 278.455 470.132 278.459 470.019C278.992 456.809 275.577 453.686 275.546 453.67C275.466 453.589 275.422 453.48 275.422 453.366C275.422 453.252 275.466 453.143 275.546 453.062C275.625 452.983 275.732 452.939 275.843 452.939C275.955 452.939 276.062 452.983 276.141 453.062C276.298 453.186 279.9 456.356 279.368 470.112C279.349 470.226 279.285 470.327 279.191 470.395C279.097 470.462 278.981 470.49 278.867 470.471V470.471Z" fill="#422C4F"/>
<path d="M319.999 393.147C289.047 408.106 260.992 430.981 260.992 430.981C290.175 435.228 293.574 465.723 292.164 478.152L347.693 435.65L366.96 491.143C396.143 494.531 421.08 470.532 421.08 470.532C421.08 470.532 403.849 412.369 395.876 400.783C387.903 389.197 319.999 393.147 319.999 393.147Z" fill="#F0BF6C"/>
<path d="M347.703 435.653L324.05 431.062L334.889 440.166L333.73 440.509C329.595 441.741 325.752 443.792 322.43 446.539C319.109 449.287 316.378 452.674 314.401 456.498L310.438 464.227L347.703 435.653Z" fill="#CE9F5B"/>
<path d="M366.974 491.564C366.887 491.565 366.802 491.538 366.732 491.488C366.661 491.437 366.609 491.366 366.582 491.283L347.394 436.024L323.897 431.481C323.786 431.458 323.688 431.393 323.624 431.3C323.56 431.207 323.534 431.092 323.553 430.981C323.562 430.925 323.583 430.872 323.613 430.824C323.644 430.776 323.683 430.735 323.73 430.703C323.777 430.671 323.83 430.649 323.885 430.637C323.941 430.626 323.998 430.626 324.054 430.637L347.707 435.228C347.781 435.242 347.851 435.276 347.909 435.325C347.966 435.374 348.01 435.438 348.036 435.509L367.303 491.002C367.338 491.11 367.33 491.227 367.28 491.329C367.231 491.431 367.143 491.51 367.037 491.549L366.974 491.564Z" fill="#422C4F"/>
<path d="M294.648 308.427C287.89 306.864 280.818 307.35 274.34 309.824C267.861 312.297 262.273 316.645 258.292 322.308L238.477 350.492C238.477 350.492 248.298 386.561 252.825 381.455L282.963 347.525L294.648 308.427Z" fill="#BD6C67"/>
<path d="M294.432 306.102L289.576 323.809C281.221 329.858 273.436 336.652 266.315 344.108L252.75 327.728C252.75 327.728 262.587 310.428 273.834 307.523C280.55 305.768 287.538 305.286 294.432 306.102V306.102Z" fill="#ADBF53"/>
<path d="M289.574 323.805L286.645 334.516L273.628 353.081L266.312 344.166C273.43 336.689 281.216 329.874 289.574 323.805Z" fill="#7CA566"/>
<path d="M290.176 323.371L282.954 347.526L252.754 381.472C250.561 383.939 247.898 392.402 244.922 393.698C244.922 373.399 254.132 357.285 266.225 344.185L273.54 353.101L286.557 334.535L289.486 323.824L290.176 323.371Z" fill="#A64F5A"/>
<path d="M259.811 381.874C259.74 381.923 259.655 381.95 259.568 381.95C259.481 381.95 259.396 381.923 259.325 381.874L238.664 368.367C238.61 368.342 238.561 368.305 238.522 368.259C238.483 368.213 238.455 368.16 238.438 368.102C238.422 368.044 238.418 367.984 238.426 367.924C238.435 367.865 238.457 367.808 238.489 367.758C238.522 367.707 238.565 367.664 238.616 367.632C238.666 367.599 238.723 367.578 238.783 367.569C238.842 367.56 238.903 367.564 238.961 367.581C239.019 367.597 239.073 367.626 239.118 367.665L259.827 381.171C259.874 381.2 259.915 381.238 259.948 381.283C259.98 381.328 260.003 381.379 260.014 381.433C260.026 381.487 260.027 381.543 260.016 381.597C260.005 381.652 259.983 381.703 259.952 381.749C259.915 381.8 259.867 381.843 259.811 381.874Z" fill="#422C4F"/>
<path d="M297.973 332.926C298.31 335.727 299.382 338.391 301.082 340.647C302.782 342.903 305.049 344.673 307.654 345.776C310.292 346.8 313.181 347 315.936 346.35C318.691 345.7 321.184 344.231 323.083 342.138C326.325 338.344 327.015 333.082 328.095 328.226C329.45 322.165 331.594 316.307 334.471 310.8C324.383 309.083 315.956 308.411 315.956 308.411L303.424 307.084C301.764 311.924 300.328 316.838 299.117 321.824C298.061 325.424 297.674 329.187 297.973 332.926V332.926Z" fill="#BD6C67"/>
<path d="M395.878 400.783C390.772 357.328 376.142 328.957 364.127 320.275C357.72 315.591 345.158 312.624 334.475 310.798C331.598 316.305 329.454 322.163 328.1 328.223C327.019 333.079 326.329 338.341 323.087 342.135C321.188 344.229 318.696 345.698 315.94 346.347C313.185 346.997 310.296 346.797 307.658 345.774C305.053 344.67 302.786 342.901 301.086 340.644C299.386 338.388 298.314 335.725 297.977 332.923C297.693 329.181 298.096 325.419 299.168 321.821C300.369 316.835 301.805 311.922 303.475 307.081L294.453 306.113C275.452 320.838 278.005 348.803 280.825 354.174C283.645 359.545 314.675 386.652 317.589 399.362C320.502 412.072 354.462 433.526 373.98 424.204C383.378 419.723 388.955 415.304 392.166 411.916C393.568 410.446 394.628 408.687 395.269 406.763C395.911 404.838 396.119 402.796 395.878 400.783Z" fill="#ADBF53"/>
<path d="M343.834 372.489C343.773 372.509 343.707 372.509 343.646 372.489C337.6 369.272 330.692 367.898 324.019 366.571C321.607 366.087 319.116 365.587 316.688 365.01C304.94 362.215 297.061 357.203 293.27 350.285C293.216 350.186 293.204 350.069 293.236 349.961C293.269 349.853 293.343 349.762 293.443 349.708C293.542 349.654 293.659 349.642 293.768 349.674C293.877 349.706 293.968 349.78 294.022 349.879C297.688 356.64 305.394 361.45 316.892 364.182C319.289 364.76 321.779 365.26 324.191 365.744C330.927 367.086 337.898 368.476 344.038 371.771C344.134 371.824 344.206 371.912 344.239 372.017C344.271 372.122 344.261 372.235 344.21 372.333C344.165 372.387 344.107 372.43 344.042 372.457C343.976 372.484 343.905 372.495 343.834 372.489V372.489Z" fill="#422C4F"/>
<path d="M333.169 374.489C326.201 373.996 319.341 372.497 312.805 370.039C312.701 369.997 312.618 369.917 312.571 369.815C312.524 369.714 312.519 369.598 312.555 369.492C312.574 369.44 312.603 369.392 312.641 369.35C312.68 369.309 312.725 369.276 312.776 369.253C312.827 369.23 312.883 369.217 312.939 369.215C312.995 369.213 313.051 369.223 313.103 369.243C319.554 371.673 326.323 373.161 333.2 373.661C333.312 373.661 333.42 373.706 333.499 373.785C333.579 373.864 333.623 373.971 333.623 374.083C333.623 374.195 333.579 374.302 333.499 374.381C333.42 374.46 333.312 374.505 333.2 374.505L333.169 374.489Z" fill="#422C4F"/>
<path d="M293.007 337.218C293.007 337.218 252.64 406.437 218.602 465.1C205.444 487.787 193.226 508.82 184.642 523.809C182.64 527.304 180.4 530.659 177.938 533.849C146.234 574.899 95.6071 558.676 93.6021 556.349C91.5971 554.023 100.949 538.065 100.949 538.065C100.949 538.065 148.677 533.022 156.603 528.853C158.455 527.22 160.083 525.351 161.444 523.294C169.902 512.099 187.634 485.507 207.261 455.419C244.385 398.551 288.339 329.24 289.295 328.053C290.908 325.976 293.007 337.218 293.007 337.218Z" fill="#454F6B"/>
<path d="M370.099 379.268C369.927 379.565 369.723 379.846 369.52 380.143V401.769C369.529 404.904 368.809 407.999 367.417 410.811C366.024 413.623 363.998 416.075 361.495 417.975C358.993 419.875 356.083 421.171 352.993 421.762C349.904 422.353 346.72 422.222 343.689 421.38L279.466 403.736H278.323C276.114 403.73 273.959 403.058 272.139 401.81C270.32 400.562 268.921 398.795 268.125 396.741C264.632 397.381 261.186 398.099 257.709 398.755C257.266 398.838 256.809 398.764 256.415 398.548C256.02 398.331 255.714 397.985 255.547 397.568C255.454 397.325 255.411 397.065 255.421 396.804C255.432 396.544 255.496 396.288 255.608 396.053C255.721 395.818 255.881 395.608 256.078 395.436C256.275 395.265 256.504 395.135 256.753 395.054C260.199 393.93 263.724 392.681 267.154 391.619C262.862 392.213 258.586 392.744 254.294 393.306C253.732 393.391 253.157 393.282 252.664 392.998C252.172 392.715 251.791 392.272 251.584 391.744V391.744C251.339 391.124 251.345 390.433 251.603 389.818C251.86 389.203 252.348 388.712 252.963 388.45C257.26 386.507 261.811 385.177 266.481 384.499C261.915 383.76 257.245 383.989 252.775 385.171C252.163 385.332 251.513 385.273 250.94 385.005C250.368 384.736 249.908 384.275 249.642 383.703C249.371 383.121 249.317 382.462 249.489 381.844C249.662 381.226 250.049 380.69 250.582 380.33C255.312 377.112 261.071 375.755 266.747 376.52C263.018 374.862 258.972 374.031 254.889 374.084C254.138 374.096 253.409 373.827 252.846 373.33C252.284 372.833 251.929 372.144 251.85 371.399V371.399C251.794 370.7 251.975 370.003 252.365 369.42C252.754 368.837 253.329 368.401 253.996 368.182C257.507 367.288 261.168 367.149 264.736 367.777C268.304 368.404 271.697 369.783 274.689 371.82L280.782 387.2H338.583L336.233 371.774L331.769 342.528C331.352 339.772 331.536 336.96 332.31 334.282C333.084 331.604 334.428 329.124 336.251 327.012C338.074 324.899 340.334 323.204 342.874 322.042C345.415 320.88 348.178 320.278 350.973 320.278C354.664 320.261 358.298 321.185 361.53 322.961C364.762 324.737 367.485 327.307 369.441 330.427C376.772 342.231 382.474 360.906 370.099 379.268Z" fill="#BD6C67"/>
<path d="M370.087 379.268L336.268 371.774L331.803 342.528C331.386 339.772 331.571 336.96 332.344 334.282C333.118 331.604 334.462 329.124 336.285 327.012C338.109 324.899 340.368 323.204 342.909 322.042C345.449 320.88 348.212 320.278 351.008 320.278C354.698 320.261 358.332 321.185 361.564 322.961C364.796 324.737 367.52 327.307 369.476 330.427C376.759 342.231 382.461 360.906 370.087 379.268Z" fill="#ADBF53"/>
<path d="M369.523 380.159V344.855C377.262 359.236 373.565 374.788 369.523 380.159Z" fill="#7CA566"/>
<path d="M355.271 387.716H303.579C303.467 387.716 303.359 387.672 303.28 387.593C303.201 387.514 303.156 387.406 303.156 387.295C303.156 387.183 303.201 387.076 303.28 386.997C303.359 386.917 303.467 386.873 303.579 386.873H355.271C355.383 386.873 355.491 386.917 355.57 386.997C355.649 387.076 355.694 387.183 355.694 387.295C355.694 387.406 355.649 387.514 355.57 387.593C355.491 387.672 355.383 387.716 355.271 387.716V387.716Z" fill="#422C4F"/>
<path d="M369.517 402.189C369.405 402.189 369.297 402.145 369.218 402.065C369.138 401.986 369.094 401.879 369.094 401.767V344.853C369.094 344.741 369.138 344.634 369.218 344.555C369.297 344.476 369.405 344.432 369.517 344.432C369.629 344.432 369.736 344.476 369.816 344.555C369.895 344.634 369.94 344.741 369.94 344.853V401.767C369.94 401.823 369.929 401.878 369.907 401.929C369.886 401.98 369.855 402.026 369.816 402.065C369.776 402.105 369.73 402.136 369.679 402.157C369.627 402.178 369.572 402.189 369.517 402.189V402.189Z" fill="#422C4F"/>
<path d="M331.721 311.361C331.628 315.119 330.208 318.724 327.711 321.542C326.455 322.926 324.904 324.011 323.172 324.719C321.44 325.427 319.57 325.739 317.701 325.633C313.127 325.274 309.164 322.073 306.736 318.216C304.774 315.247 303.421 311.919 302.758 308.426C312.474 308.646 322.159 309.628 331.721 311.361V311.361Z" fill="#422C4F"/>
<path d="M339.483 273.809C324.868 269.578 307.591 269.781 296.266 276.026C297.926 271.782 300.781 268.106 304.486 265.439C308.192 262.773 312.591 261.23 317.156 260.996C321.72 260.762 326.255 261.847 330.215 264.119C334.176 266.392 337.394 269.757 339.483 273.809V273.809Z" fill="#F4D071"/>
<path d="M340.483 276.028L325.132 278.76L305.583 276.715V284.038C305.585 284.56 305.554 285.081 305.489 285.599C305.275 287.366 304.694 289.069 303.782 290.598C302.87 292.128 301.648 293.452 300.194 294.484C300.17 297.539 299.338 300.534 297.782 303.165C296.457 300.274 295.631 297.181 295.338 294.015L294.696 286.786C294.696 286.068 294.602 285.365 294.602 284.647C294.582 281.717 295.113 278.809 296.169 276.075C307.494 269.829 324.771 269.626 339.386 273.857C339.792 274.56 340.158 275.285 340.483 276.028V276.028Z" fill="#422C4F"/>
<path d="M325.17 278.76L305.621 276.714V284.038C305.623 286.074 305.135 288.082 304.197 289.891C303.26 291.701 301.9 293.26 300.233 294.437C300.208 297.489 299.381 300.482 297.836 303.118C299.57 306.967 302.15 310.377 305.386 313.096L309.333 316.39C312.338 318.921 316.145 320.309 320.079 320.309C324.013 320.309 327.82 318.921 330.825 316.39C336.21 311.845 339.696 305.457 340.599 298.481L341.978 287.738C342.489 283.8 341.988 279.797 340.521 276.105L325.17 278.76Z" fill="#BD6C67"/>
<path d="M296.796 295.714C295.251 293.976 293.088 292.907 290.765 292.732C289.472 292.602 288.172 292.886 287.053 293.544C286.437 293.964 285.917 294.51 285.528 295.145C285.139 295.78 284.89 296.49 284.797 297.229C284.625 298.715 284.927 300.217 285.658 301.523C286.516 303.061 287.806 304.316 289.371 305.132C290.935 305.948 292.705 306.289 294.462 306.113C295.485 306.018 296.464 305.652 297.297 305.051C300.289 302.756 298.879 298.103 296.796 295.714Z" fill="#BD6C67"/>
<path d="M294.878 302.557C294.994 302.513 295.104 302.455 295.207 302.385C295.332 302.294 295.433 302.174 295.501 302.035C295.57 301.896 295.603 301.743 295.598 301.589C295.587 300.254 295.104 298.966 294.236 297.951C293.28 296.888 291.95 296.234 290.523 296.124C290.053 296.07 289.576 296.123 289.129 296.28L288.878 296.405C288.479 296.721 288.22 297.181 288.158 297.685C288.082 298.469 288.257 299.256 288.659 299.934C289.195 300.865 289.987 301.625 290.942 302.123C291.897 302.62 292.974 302.836 294.048 302.744C294.331 302.716 294.61 302.653 294.878 302.557V302.557Z" fill="#A64F5A"/>
<path d="M342.171 285.536C329.966 284.894 317.737 284.894 305.532 285.536C301.679 285.801 297.982 286.176 294.74 286.722C294.74 286.722 291.529 279.384 297.058 274.231C302.72 270.923 309.019 268.842 315.542 268.123C322.066 267.405 328.668 268.065 334.918 270.062L338.349 271.795C340.251 273.472 341.624 275.662 342.302 278.101C342.981 280.54 342.935 283.122 342.171 285.536V285.536Z" fill="#F4D071"/>
<path d="M226.128 419.678L215.868 429.968L215.79 432.716L215.445 445.769L220.896 442.646L221.648 436.12C223.785 435.277 225.566 433.728 226.692 431.732C228.024 428.75 227.569 423.394 227.569 423.394L226.128 419.678Z" fill="#BD6C67"/>
<path d="M221.422 460.136L228.126 455.639L226.904 444.6C226.904 444.6 223.427 445.49 222.769 447.02C222.111 448.55 223.208 454.827 223.208 454.827L221.422 460.136Z" fill="#BD6C67"/>
<path d="M225.523 454.511L232.228 450.014L230.99 438.975C230.99 438.975 227.528 439.865 226.855 441.395C226.181 442.925 227.293 449.202 227.293 449.202L225.523 454.511Z" fill="#BD6C67"/>
<path d="M229.773 449.155L236.478 444.658L235.24 433.619C235.24 433.619 231.778 434.509 231.105 436.055C230.431 437.601 231.559 443.862 231.559 443.862L229.773 449.155Z" fill="#BD6C67"/>
<path d="M233.125 442.366L239.829 437.869L238.654 426.752C238.654 426.752 235.193 427.642 234.519 429.172C233.846 430.702 234.973 436.979 234.973 436.979L233.125 442.366Z" fill="#BD6C67"/>
<path d="M342.178 263.457C342.294 265.33 341.843 267.195 340.883 268.809C339.923 270.424 338.499 271.714 336.795 272.513C335.092 273.311 333.186 273.581 331.327 273.288C329.467 272.994 327.739 272.15 326.366 270.866C324.993 269.582 324.038 267.916 323.626 266.085C323.214 264.254 323.363 262.341 324.054 260.595C324.746 258.85 325.947 257.351 327.502 256.294C329.058 255.236 330.896 254.669 332.779 254.666C335.192 254.598 337.534 255.484 339.295 257.131C341.056 258.778 342.092 261.052 342.178 263.457V263.457Z" fill="#F4D071"/>
<path d="M323.367 267.924C323.367 267.924 326.97 275.59 337.465 272.514" stroke="#422C4F" stroke-width="0.784735" stroke-miterlimit="10"/>
<path d="M298.359 280.71C298.359 280.71 318.973 279.477 332.821 280.71" stroke="#422C4F" stroke-width="0.784735" stroke-miterlimit="10"/>
<path d="M218.604 465.101C205.446 487.788 193.228 508.821 184.644 523.811C182.641 527.306 180.402 530.66 177.94 533.85L161.445 523.217C169.904 512.022 187.636 485.431 207.263 455.342L218.604 465.101Z" fill="#E8916A"/>
<path d="M168.981 572.912C176.933 569.606 180.691 560.499 177.375 552.572C174.058 544.645 164.922 540.899 156.97 544.205C149.017 547.511 145.259 556.618 148.576 564.545C151.893 572.472 161.028 576.218 168.981 572.912Z" fill="#CC6164"/>
<path d="M170.086 534.441L213.632 466.16" stroke="#422C4F" stroke-width="0.784735" stroke-miterlimit="10"/>
<path d="M154.524 561.033C154.524 561.033 154.399 563.375 157.532 563.672" stroke="#422C4F" stroke-width="0.784735" stroke-miterlimit="10"/>
<path d="M154.359 565.326C154.359 565.326 154.516 567.668 157.68 567.575" stroke="#422C4F" stroke-width="0.784735" stroke-miterlimit="10"/>
<path d="M159.062 564.848C159.062 564.848 159.579 567.127 162.681 566.565" stroke="#422C4F" stroke-width="0.784735" stroke-miterlimit="10"/>
</svg>
