<svg width="24" height="25" viewBox="0 0 24 25" fill="none" xmlns="http://www.w3.org/2000/svg">
<path d="M12 17.7812C12.2833 17.7812 12.521 17.6853 12.713 17.4932C12.9043 17.3019 13 17.0646 13 16.7812C13 16.4979 12.9043 16.2603 12.713 16.0682C12.521 15.8769 12.2833 15.7812 12 15.7812C11.7167 15.7812 11.4793 15.8769 11.288 16.0682C11.096 16.2603 11 16.4979 11 16.7812C11 17.0646 11.096 17.3019 11.288 17.4932C11.4793 17.6853 11.7167 17.7812 12 17.7812ZM12 13.7812C12.2833 13.7812 12.521 13.6853 12.713 13.4932C12.9043 13.3019 13 13.0646 13 12.7812V8.78125C13 8.49792 12.9043 8.26025 12.713 8.06825C12.521 7.87692 12.2833 7.78125 12 7.78125C11.7167 7.78125 11.4793 7.87692 11.288 8.06825C11.096 8.26025 11 8.49792 11 8.78125V12.7812C11 13.0646 11.096 13.3019 11.288 13.4932C11.4793 13.6853 11.7167 13.7812 12 13.7812ZM12 22.7812C10.6167 22.7812 9.31667 22.5186 8.1 21.9932C6.88333 21.4686 5.825 20.7563 4.925 19.8563C4.025 18.9563 3.31267 17.8979 2.788 16.6812C2.26267 15.4646 2 14.1646 2 12.7812C2 11.3979 2.26267 10.0979 2.788 8.88125C3.31267 7.66458 4.025 6.60625 4.925 5.70625C5.825 4.80625 6.88333 4.09358 8.1 3.56825C9.31667 3.04358 10.6167 2.78125 12 2.78125C13.3833 2.78125 14.6833 3.04358 15.9 3.56825C17.1167 4.09358 18.175 4.80625 19.075 5.70625C19.975 6.60625 20.6873 7.66458 21.212 8.88125C21.7373 10.0979 22 11.3979 22 12.7812C22 14.1646 21.7373 15.4646 21.212 16.6812C20.6873 17.8979 19.975 18.9563 19.075 19.8563C18.175 20.7563 17.1167 21.4686 15.9 21.9932C14.6833 22.5186 13.3833 22.7812 12 22.7812ZM12 20.7812C14.2333 20.7812 16.125 20.0062 17.675 18.4562C19.225 16.9062 20 15.0146 20 12.7812C20 10.5479 19.225 8.65625 17.675 7.10625C16.125 5.55625 14.2333 4.78125 12 4.78125C9.76667 4.78125 7.875 5.55625 6.325 7.10625C4.775 8.65625 4 10.5479 4 12.7812C4 15.0146 4.775 16.9062 6.325 18.4562C7.875 20.0062 9.76667 20.7812 12 20.7812Z" fill="#FF4A4A"/>
</svg>
